<?xml version="1.0" encoding="utf-8"?>
<!-- Generator: Adobe Illustrator 16.0.0, SVG Export Plug-In . SVG Version: 6.00 Build 0)  -->
<!DOCTYPE svg PUBLIC "-//W3C//DTD SVG 1.1//EN" "http://www.w3.org/Graphics/SVG/1.1/DTD/svg11.dtd">
<svg version="1.1" xmlns="http://www.w3.org/2000/svg" xmlns:xlink="http://www.w3.org/1999/xlink" x="0px" y="0px" width="681px"
	 height="645.788px" viewBox="0 0 681 645.788" enable-background="new 0 0 681 645.788" xml:space="preserve">
<g id="Layer_1" display="none">
	<polygon display="inline" fill-rule="evenodd" clip-rule="evenodd" points="166.74,-220.34 166.676,-220.118 166.582,-220.298 	"/>
	<path display="inline" fill-rule="evenodd" clip-rule="evenodd" d="M-382.638,309.098c0.141,0.038,0.283,0.075,0.34,0.091
		c-0.063-0.014-0.212-0.044-0.367-0.075C-382.67,309.114-382.638,309.098-382.638,309.098z"/>
	<g display="inline">
		<path fill="#EAECEC" d="M234.582,469.902c0.189,1.477,0.36,2.956,0.521,4.436c0.215,0.018,0.429,0.037,0.644,0.055
			c0.087-0.472,0.177-0.944,0.264-1.419c-0.003-12.588-0.098-23.919-0.481-30.61C235.194,442.39,234.884,454.783,234.582,469.902z"
			/>
		<path fill="#EAECEC" d="M479.993,448.767c-0.287,1.515-0.585,3.055-0.877,4.594C479.793,450.568,480.186,448.641,479.993,448.767z
			"/>
		<path fill="#EAECEC" d="M320.014,606.082c0.379,2.171,0.93,4.318,1.762,6.422C321.103,610.227,320.535,608.115,320.014,606.082z"
			/>
		<path fill="#EAECEC" d="M661.217,521.794c-6.963,13.449-10.753,17.665-17.714,31.11c-0.685-0.364-4.536,8.501-5.223,8.134
			c4.653-11.745,9.301-23.493,13.95-35.24c-0.328-0.156-0.653-0.313-0.982-0.467c-3.789,7.978-7.584,15.957-11.377,23.938
			c-0.269-0.147-0.537-0.293-0.809-0.439c3.805-11.714,7.606-23.427,11.89-36.626l-16.425,34.135l9.666-39.891
			c0,0-8.634,21.229-8.976,20.917c1.55-12.661,3.034-18.38,3.452-19.478c-1.257,1.255-7.859,16.291-8.745,16.561l6.048-28.77
			c-3.683,10.167-9.884,22.973-12.951,31.445c-0.564-0.234,3.324-12.781,2.761-13.017c1.536-9.276,1.749-10.57,3.454-20.867
			c-3.256,6.768-6.094,12.662-8.932,18.556c-7.871,16.544-0.977-0.507-1.467-0.764c0.787-3.623,1.57-7.249,2.357-10.872
			l-0.578-0.164c-2.118,4.636-11.204,25.051-13.706,30.531c-0.673-2.297,5.982-19.156,5.626-20.375
			c-1.866,3.852,3.288-11,1.509-7.325c-0.559-0.238-8.054,18.049-8.612,17.812l10.855-32.965c-0.224-0.124-0.451-0.245-0.677-0.37
			c-6.613,14.053-13.226,28.105-19.841,42.157l-1.563-0.625c3.48-13.102,6.961-26.203,10.443-39.307
			c-0.562-0.226-9.937,30.54-1.683-0.677c-3.36,8.784-11.107,32.161-14.47,40.946c-0.654-0.262,3.074-15.114,2.418-15.377
			c0.865-3.671,1.732-7.341,2.598-11.011c-0.143-0.033-0.285-0.064-0.429-0.097c-5.358,16.522-17.096,49.18-17.603,48.984
			c8.093-30.304,16.188-60.605,24.282-90.911c-0.066-0.021-0.133-0.041-0.198-0.06c-0.253,1.731-0.915,3.355-1.703,5.061
			c-0.081,0.177-0.205,0.271-0.336,0.326c-2.258,6.345-6.271,15.843-6.323,16.014c-1.511,5.188-3.277,10.295-4.991,15.418
			c-0.552-0.155-8.069,24.6-1.652-0.462c1.241-5.585,2.477-11.169,3.714-16.747c-0.029-0.019-0.063-0.035-0.091-0.051
			c-4.238,7.079-9.492,24.143-17.634,36.75c1.69-4.755,10.619-42.719,12.297-47.432c-3.093,7.054-15.527,30.735-18.975,32.622
			c2.267-8.971,9.938-40.502,12.198-49.466c-0.547-0.18-2.82,9.746-3.365,9.567c-7.398,19.555-14.792,39.111-22.188,58.665
			c-0.405-0.146,5.246-18.621,4.842-18.767c6.322-24.091,2.666-14.898,8.991-38.988c-0.489-0.172,2.944-15.292,2.456-15.463
			c-4.234,14.245-8.469,28.491-12.701,42.735c-0.66-0.187,1.5-13.04,0.842-13.229c0.818-4.685,6.724-28.264,7.547-32.975
			c-1.322,1.307-8.014,27.347-9.208,28.528c-0.165-0.045,3.454-32.418-0.749,0.574c-0.505,4.153-1.125,8.29-1.901,12.398
			c-0.479,2.521-0.739,5.33-1.446,7.92c0.089,0.521,0.194,0.612,0.344-0.078c-4.184,19.159-6.848,31.354-11.031,50.514
			c-0.677-0.155,4.273-31.85,7.426-47.542c0.003-0.05,0.005-0.101,0.009-0.151c-0.002,0-0.002,0-0.002,0
			c0-0.001,0.002-0.002,0.002-0.004c0.194-3.937,0.592-7.859,1.18-11.752c0.366-3.567,1.091-7.09,1.933-10.579
			c1.297-9.761,2.584-19.444,3.789-28.529c-3.684,7.052-7.51,14.371-11.601,22.195c-0.592-2.779,4.403-23.667,3.767-26.655
			c-2.145,6.478-11.129,42.357-12.89,47.674c-1.38,2.19,1.202-12.04,0.896-12.235c0.29-6.713,0.578-13.423,0.869-20.135
			c-0.66-0.017,0.739-8.273,0.079-8.288c-3.146,10.744-10.66,40.131-13.81,50.875c-0.51-0.113,1.287-10.626,0.779-10.74
			c1.844-12.017,3.689-24.031,5.535-36.048c-0.395-0.064-0.788-0.127-1.181-0.194c-7.292,30.907-6.227,26.389-13.519,57.294
			c-0.984-0.243-10.325,34.934-11.311,34.688c8.137-34.765,16.277-69.529,24.413-104.295c-0.493-0.14-0.987-0.28-1.483-0.421
			c-3.553,11.525-7.105,23.052-10.658,34.575c-0.601-0.215-3.252,11.734-3.852,11.52c1.472-7.157,4.993-26.476,6.463-33.634
			l2.052-11.123c-2.274,7.288-8.479,25.079-10.751,32.367c-1.546-10.858,6.617-59.738,6.617-59.738
			c0-8.756-26.231,59.163-28.316,65.432c-0.576-0.15,7.244-31.665,6.666-31.815l0.708-7.298l-0.902-0.124
			c-6.756,20.78-17.896,54.586-24.652,75.366c-0.451-0.105,3.479-13.237,3.027-13.344c3.183-16.63,6.362-33.245,9.33-48.743
			c-1.626,6.686-4.912,18.373-5.914,19.032c0.364-5.807,5.761-33.266,6.067-38.222c-5.446,25.289-11.59,45.147-20.034,74.552
			c0.072-2.718,0.569-5.321,1.326-7.839c1.25-4.163,4.983-33.034,7-43.186c0.177-0.89,0.286-1.794,0.394-2.483
			c-0.875,0.794-9.25,22.283-9.564,22.249c-0.026,0.477-0.339,2.142-0.666,2.188c-3.045,15.997-7.736,40.732-9.031,47.469
			c-0.873-0.203,1.885-18.876,1.014-19.082c2.057-8.991,4.111-17.985,6.166-26.976c0.019,0.005,0.045-0.041,0.068-0.064
			c0.403-1.949,0.851-3.887,1.316-5.817c0.262-1.692,0.685-3.345,1.186-4.979c0.713-4.628,1.798-9.21,3.1-13.686
			c1.494-8.59,3.588-18.123,3.979-23.791c-0.414-0.13-0.828-0.256-1.239-0.383c-5.376,20.285-10.754,40.572-16.128,60.859
			c-3.73-11.811,4.178-22.985,0.56-35.255c-1.204,4.66-2.188,8.463-3.173,12.267c-0.583-0.114-1.168-0.229-1.752-0.343l2.172-19.472
			c-0.334-0.076-0.67-0.151-1.005-0.228l-8.345,33.777c-0.838-0.176,1.032-13.037,0.196-13.215c0.86-10.835,1.72-21.67,2.582-32.507
			c-0.188-0.02-0.381-0.041-0.569-0.062c-2.717,11.997-9.158,36.096-11.875,48.092c-1.177-0.201,1.368-12.506,0.193-12.706
			c2.193-18.801,4.387-37.599,6.379-54.687c-2.31,8.482-5.09,18.7-7.869,28.916c-9.229,48.953-1.352-14.624-1.119-18.442
			c-0.596-0.08-0.688,6.511-1.285,6.43c-3.555,14.022-7.109,28.045-10.665,42.067c-0.844-0.135-0.002-24.732,1.265-36.896
			c-0.217-0.015-0.437-0.024-0.654-0.038c-1.156,3.106-2.311,6.212-3.466,9.317c-0.679-0.139-2.042-21.649-2.042-21.649
			c-2.041,6.002-4.399,67.074-5.287,75.769c-0.656-0.069-0.304-58.215-0.304-58.215c-1.428,3.941-4.072,40.921-5.06,43.644
			c-0.468-0.119-0.06-20.876,0.606-31.139c-0.407-0.045-0.815-0.094-1.226-0.141c-1.282,6.907-5.096,20.535-5.719,20.439
			c0.451-7.114,0.903-14.227,1.354-21.34c-0.153,0.006-0.307,0.011-0.461,0.019c-1.151,4.636-2.302,9.27-3.452,13.904
			c0,0,1.509-29.713,3.672-44.255c-0.567,0.76-0.831,1.591-1.027,2.438c-4.879,21.001-7.856,42.244-7.832,63.938
			c0.005,3.684-1.467,7.365-2.255,11.048c-0.606-0.151-1.542-53.185,7.643-78.494c-0.546-0.126-7.111,18.819-9.849,28.415
			c-0.642-0.114-1.925-34.492-1.925-34.492c-3.383,22.256-2.792,56.131-2.244,59.838c-1.017-6.87-2.62-25.28-3.639-32.146
			c-3.263,4.078-3.592,38.531-3.592,38.531c-1.452-12.882-1.169-27.689-2.621-40.572c1.889-11.029-4.224,14.791-4.751,18.329
			c-1.222-3.209,2.406-33.491,3.024-35.842c-1.872,2.068-3.01,17.827-4.833,19.842c-0.425-0.382-0.853-0.768-1.278-1.152
			c0.337-6.839,0.674-13.68,1.01-20.521c-0.434-0.052,0.359-6.146-0.077-6.196c-1.784,12.471-5.811,35.695-7.594,48.162
			l-0.808-10.003c0-4.223,0.255-3.32-0.198-7.488c-0.438-4.033-1.604-29.067-2.446-32.777c-0.836,4.875-1.787,30.924-2.636,35.873
			c-0.776-0.07-1.554-0.142-2.332-0.214c-0.327-5.679-0.655-11.354-0.919-15.914c-0.594,8.432-1.268,17.987-1.942,27.542
			c-0.697,0.06-1.397,0.118-2.097,0.175c-0.992-4.756-1.986-9.513-2.979-14.268c-0.538,0.108-1.077,0.217-1.616,0.326v30.119
			c-0.474,0.012-0.945,0.023-1.415,0.034l-6.87-59.043l-0.862,0.01l2.266,59.021c-0.451,0.07-3.165-19.485-3.616-19.412
			c-0.562-1.035-1.124-27.931-1.908-29.374c-0.58,3.464-1.035,32.043-1.492,34.764c-2.646,16.317-1.35-0.04-2.025-0.062v-39.655
			c-0.673-0.014-0.296-9.73-0.967-9.744c-0.693,11.448-2.434,32.607-3.126,44.06h-0.652c-1.902-13.121-1.916,0.542-3.819-12.579
			c-1.225-2.578-3.851-26.683-4.834-26.634l-1.283,60.511c-2.371-4.473-4.785-32.832-5.462-47.443
			c-1.895,8.662-2.572,31.515-4.484,15.102c-0.714-7.008-1.43-14.016-2.144-21.021c0.133,9.946-0.283,31.268-0.337,32.931
			c-0.383,11.639,1.566,24.829,1.347,36.471c-0.076,3.981,0.592,7.979,0.919,11.971c-0.812,0.077-7.782-57.408-10.314-84.709
			c-2.484,6.547,1.656,16.847-7.526,24.669l-0.167-54.063c-0.667-0.048-1.168,17.483-1.836,17.437
			c-1.207,9.451-2.412,18.904-3.62,28.354c-0.372,0.003-0.744,0.009-1.118,0.014c0,0-1.296-20.99-1.945-21.048
			c-5.118,9.463-0.431,20.541-3.515,32.262c-1.611-16.632-3.047-31.426-4.619-47.653c-3.816,23.096-0.723,44.949-0.708,66.767
			c-6.875-17.563-3.553-36.066-4.889-54.119c-0.642,1.313-1.28,2.628-1.919,3.945c-0.418-0.058-0.836-0.116-1.251-0.173
			c-0.284-4.899-1.925-14.715-2.464-14.723v37.368c-0.935,0-4.995-38.843-6.088-38.828v72.559
			c-0.884,0.019-3.252-7.189-3.552-10.813c-0.456,0.018-0.915,0.037-1.371,0.055v20.153c0,0-1.088-48.872-4.462-75.016
			c-0.908,4.869-1.572,8.446-2.211,11.866c0.008,23.209-0.295,50.7,0.313,61.322c-0.776,0.063,0.232,6.09-0.546,6.153
			c-0.812-12.726-1.841-3.697-2.654-16.42c0.46-0.039,0.869-23.302,1.281-44.988c-0.135-0.106-0.234-0.271-0.255-0.502
			c-0.373-4.308-0.907-8.594-1.522-12.867c-0.316-1.638-0.63-3.278-0.945-4.919c-2.199,2.699-3.066,51.871-4.783,53.979
			c-4.653-12.105-7.583-46.161-7.594-46.168c-3.897,20.531,3.556,40.924,4.531,60.812c-3.93-17.633-7.86-35.267-11.876-53.292
			c-0.465,0.838,0.275,4.818-0.393,5.912c2.808,13.018,6.667,39.025,7.247,38.908c0.906,5.359,3.401,23.437,4.61,31.228
			c-2.327-14.296-2.955-13.23-3.587-13.128c-0.894-4.827-7.322-42.261-10.208-58.825c-0.093,0.067-0.199,0.112-0.315,0.126
			c-0.138,0.401-0.225,0.802-0.194,1.191c1.262,16.202,0.85,11.069,2.422,27.243c0.462,4.75,1.089,11.387,1.731,17.471
			c-6.931-19.345-8.746-38.106-8.746-47.288c-0.206,0.008-0.409,0.014-0.613,0.021c-0.413,4.088-1.653,19.298-2.066,23.385
			c-0.518-0.017-2.259-20.111-2.826-23.077c-0.523,3.495-0.162,10.727-0.531,13.198c-0.556,0.032,0.115,15.362-0.439,15.397
			c-1.182-6.872-3.587-29.037-4.769-35.907c-0.187,0.038-0.374,0.076-0.563,0.113v28.507c-0.396,0.071-4.476,15.741-4.872,15.814
			c-0.962-4.58-10.87-27.619-11.392-30.099c-1.247,2.449,9.001,35.813,10.174,47.497c-0.529,0.174,2.642,13.434-1.588,0.524
			c-5.91-17.947-11.819-35.895-17.729-53.842c-0.659,0.17-2.298-7.391-2.958-7.224l7.959,49.199
			c-0.75,0.168-10.168-31.533-14.234-47.988c0.418,6.34,7.707,60.427,7.973,61.771c0.283,0.834,0.572,1.665,0.854,2.498
			c0.115,0.338-0.006,0.616-0.215,0.783c1.526,7.99,2.704,15.289,2.333,15.306c-1.405-4.583-2.608-10.61-3.801-16.718
			c-0.933-2.722-1.874-5.45-2.447-8.265c-0.009,0.052-0.02,0.099-0.036,0.1c-0.237-1.69-0.628-4.129-1.113-7.032
			c-0.613-2.717-1.167-5.436-1.406-8.22c-2.168-12.501-4.952-28.01-5.801-34.056c-0.418,3.865-0.219,7.69,0.005,11.513
			c0.222,3.77,0.464,7.537,0.699,11.306c-0.806,0.061-4.26-11.931-5.18-17.984c-0.337,0.059-0.674,0.114-1.011,0.172
			c0.928,7.667,7.632,48.048,7.354,48.065c-1.612-3.512-11.806-43.256-11.828-43.22c-0.784-3.455-1.668-6.852-2.172-7.197
			c0.508,7.215,0.711,24.582-0.712,32.358c-0.792-4.208-4.809-20.182-5.603-24.397c-0.172,0.022-0.347,0.046-0.523,0.069
			l2.459,20.967c-0.742,0.105-8.611-34.847-8.479-52.991c-1.212,28.452,6.313,69.885,12.62,97.456
			c-0.711,0.215-4.108-13.262-4.821-13.046c-1.964-4.314-5.673-22.488-7.637-26.804l1.04,14.065
			c0.517,4.352,2.121,15.022,2.638,19.375c-0.738,0.161-2.561-6.001-3.297-5.841c-1.632-7.961-3.724-11.539-5.01-17.802
			c-1.208,0.539-5.844-16.995-7.357-16.316c4.611,11.462,5.494,34.671,8.268,44.855c-0.552,0.131-1.103,0.26-1.653,0.391
			c-3.427-9.067-8.644-26.34-12.072-35.406c-0.305,0.067,1.512,10.903,0.879,8.409c3.311,13.06,9.484,39.396,9.26,39.506
			c-2.705-6.483-5.41-12.967-8.204-19.669c-1.466,1.318-2.858,2.572-4.811,4.325c-3.781-17.248-7.36-33.575-11.281-51.454
			c0.532,9.18,0.952,16.896,1.436,24.605c0.333,5.285-2.397,28.598-0.705,35.382c0.334,1.34,0.048,2.851,0.048,4.281
			c-0.439,0.114-0.882,0.227-1.322,0.34c-4.01-11.317-11.428-30.706-15.439-42.021c-0.622,0.232,2.163,8.539,1.54,8.771
			c0.876,5.968,1.753,11.937,2.629,17.904c-0.315,0.058,1.672,8.633,1.358,8.691c-0.934-2.349-4.168-13.213-5.101-15.561
			c-0.263,0.077-0.526,0.154-0.79,0.232c2.362,11.953,4.724,23.906,7.086,35.86c-0.682,0.18-7.372-17.638-10.034-26.732
			l-0.631,0.184c0.329,2.692,2.044,18.778-0.812,8.613c-1.528-4.675-3.055-9.35-4.304-13.165c0.814,19.397,2.176,19.85,1.888,29.815
			c-1.968-6.711-10.245-25.79-11.966-31.653C54.338,499.898,54.169,499.95,54,500c0.396,4.889,1.5,18.896,2.082,26.05
			c-5.184-8.661-12.702-24.327-12.702-24.327s13.479,37.224,19.52,56.323c-2.689-2.393-12.383-22.173-15.123-26.979
			c-1.526-2.677-8.369-16.211-10.442-20.066c0.052,0.127,5.514,14.616,5.565,14.744c4.564,10.329,18.921,40.791,18.166,41.191
			c-3.072-6.972-15.199-28.417-18.271-35.389c0.137-0.067-0.284-1.454-0.99-3.521c-3.582-7.703-7.042-15.471-10.642-23.167
			c3.183,19.221,6.063,25.308,9.018,41.988c-5.605-11.746-11.634-20.594-17.239-32.341c-0.203,0.056-0.407,0.11-0.609,0.165
			c2.047,8.421,7.256,22.272,9.306,30.693c-0.41,0.185-7.987-10.776-9.783-13.723c0.098,2.201,0.674,4.197,1.546,6.036
			c5.503,11.588,11.071,23.139,16.618,34.703c2.004,0.774,4.162,1.28,5.948,2.429c6.529,4.188,20.993,18.144,27.438,22.477
			c0.269-0.416-8.264-11.65-9.203-13.26c-0.77-1.32-15.311-21.449-18.044-26.587c0.676-0.278,7.396,8.17,10.828,13.386
			c0.277-0.138,0.626-0.119,0.855,0.222c0.392,0.577,0.767,1.174,1.154,1.757c0.039,0.023,0.077,0.05,0.114,0.08
			c0.178-0.146,0.356-0.295,0.535-0.441c1.397,1.9,2.668,3.932,4.239,5.659c1.269,1.392,12.559,14.738,14.031,15.924
			c0.261-1.822-7.391-14.903-8.677-19.212c4.513,6.456,6.925,10.991,12.75,17.38c4.137,4.539,8.509,10.235,14.55,12.241
			c-0.02-0.066-0.042-0.137-0.062-0.202c-0.243,0.063-0.509-0.011-0.686-0.306c-2.687-4.482-6.123-8.38-8.884-12.804
			c-0.289,0.164-13.997-30.394-13.393-30.737c4.937,9.976,14.679,30,14.611,30.038c2.209,3.519,4.831,6.714,7.162,10.137
			c-4.366-12.485-14.132-33.348-13.47-41.665c9.176,15.966,17.999,31.324,26.823,46.682c-2.995-10.803-12.622-38.176-12.622-38.176
			c6.247,5.002,10.103,17.035,19.73,29.112c-3.448-8.212-12.523-31.887-14.807-36.902c0.543,0.537,1.12,0.966,1.463,0.858
			c1.489,4.835,11.008,28.528,13.982,36.844c0.117,0.145,0.225,0.287,0.343,0.43c-4.945-15.193-9.664-34.522-10.253-40.449
			c-0.588-5.91,14.32,26.833,23.889,38.751l-12.478-37.721c-1.456-2.797-3.429-9.871-2.958-9.353
			c2.878,3.155,5.126,6.73,7.25,10.407c0.501,0.786,0.966,1.606,1.401,2.452c1.03,1.825,2.056,3.659,3.136,5.466
			c2.67,4.47,5.897,8.609,8.407,13.185c0.652,0.586,1.32,1.185,2.02,1.812c-6.115-18.463-12.493-24.178-20.41-41.806
			c-0.382-0.85,14.33,21.059,20.635,38.223c-0.483-3.547-12.999-40.813-12.999-40.813s7.829,15.312,11.676,22.824
			c-0.018-2.169,0.067-3.793,0.29-4.393l27.25,41.823c-2.038-4.609-14.981-32.887-15.879-36.294
			c-0.848-3.219,18.872,24.861,18.872,24.861s-8.118-22.233-9.806-27.115c-0.982-2.839-1.907-5.698-3.383-10.122
			c6.775,7.812,25.544,49.068,26.766,50.128c-0.094-1.738-3.808-8.784-4.375-10.326c-3.19-8.663-8.22-26.763-7.367-27.222
			c4.346,7.009,18.308,36.646,18.308,36.646s-24.269-61.045-33.332-83.786c0.725-0.333,20.219,43.871,26.41,58.412
			c1.666,3.912,6.454,13.276,8.608,16.958c-0.943-6.829-4.193-19.496-5.134-26.328c0.308-0.108,0.616-0.218,0.923-0.326
			c4.118,11.444,8.236,22.889,12.929,35.931c-0.41-3.806-0.625-5.813-0.841-7.825c0.43-0.215,0.86-0.433,1.292-0.65
			c2.533,3.668,13.173,17.479,15.889,21.411c0.41-1.006-7.36-11.58-7.398-11.974c-0.066-0.706-0.217-1.488-0.582-2.065
			c-4.935-7.801-20.79-55.316-21.451-60.188c-0.604-4.452-1.725-12.856,1.958-3.127c-1.227-3.961,4.256,10.059,5.871,14.179
			c3.5,8.935,6.33,18.177,10.09,26.979c1.598,3.743,18.824,29.669,21.319,32.985c0.516-0.426-12.949-23.822-12.434-24.249
			l-3.107-8.367c0.321-0.127,0.642-0.252,0.961-0.379c4.354,6.746,8.711,13.489,13.065,20.234
			c0.743-0.447,6.052,13.205,6.793,12.761c-2.987-8.397-10.542-30.895-13.531-39.291l0,0c-0.558,0.136-11.913-29.526-12.47-29.391
			c-2.394-8.055-4.787-16.111-7.417-24.96c4.274,1.333,13.181,23.869,17.474,40.325c2.802,3.976,4.127,8.771,5.979,13.311
			c1.654,3.079,3.314,6.154,4.954,9.242c3.092,5.813,9.783,20.116,12.851,25.943c0.294-0.246-3.053-8.957-2.76-9.2
			c-4.236-12.533-8.474-25.063-12.71-37.596c0.635-0.277,1.268-0.554,1.902-0.832c8.543,18.508,17.09,37.017,25.636,55.523
			c0.196-0.076,0.391-0.151,0.587-0.229c-0.463-1.172-0.878-2.327-1.131-3.531c-1.154-3.417-2.01-6.937-2.766-10.486
			c-0.762-2.808-1.863-4.984-2.634-7.831c-1.761-3.188-3.51-7.178-4.773-10.625c-6.184-19.54-7.126-23.515-8.223-26.245
			c3.041,7.576,5.834,14.54,8.588,21.396c1.898,3.67,3.98,7.303,4.962,11.378c0.252,0.493,0.47,0.79,0.625,0.732
			c1.928,5.183,3.853,10.367,5.778,15.55c-1.148-5.133-2.292-10.263-3.414-15.402c-0.338-1.552-0.881-4.448-0.597-4.556
			c0,0,8.875,16.244,8.189,13.683c-0.916-3.422-8.996-28.2-9.896-31.622c-3.283-12.473-5.04-14.129-8.056-26.68
			c-0.11-0.458-2.665-12.259-1.901-14.169c7.417,23.252,18.348,58.709,25.376,80.741c0.488-0.188-2.929-13.802-2.441-13.99
			c-1.875-7.379-1.875-7.378-3.749-14.76c0.413-0.241-1.049-7.866-0.637-8.109c2.382,2.975,12.518,41.503,16.031,50.968
			c0.47-1.434-14.397-77.712-14.037-78.811c0.481-0.032,12.867,51.167,15.791,61.82c1.008,0.936-4.035-25.264-6.021-37.781
			c1.537,1.524,10.736,27.271,12.323,28.843l-8.358-35.245c0.224,0.541,0.57-0.433,0.514-1.465
			c-0.018-0.324,6.914,20.922,7.154,20.8c-1.658-5.981-17.015-58.261-20.214-71.233c2.033-0.339,4.808,11.632,6.845,11.288
			l13.139,52.162c2.197,5.34,5.34,12.632,7.651,17.999c1.698,3.945,0.431,1.802,3.916,11.668c0.472,1.332,4.544,7.455,8.685,15.818
			c-3.394-9.466-9.668-26.948-5.935-37.437c3.677,7.238,6.815,13.429,9.959,19.618l4.261,11.25
			c-3.183-9.612-8.918-31.237-12.097-40.852c0.573-0.199,1.15-0.396,1.726-0.597c1.086,2.289,2.266,4.536,3.24,6.878
			c2.229,5.349,4.359,10.742,6.526,16.118c0-0.06,0-0.116-0.002-0.175c-2.99-11.209-5.981-22.416-8.972-33.627
			c0.548-0.145,1.094-0.29,1.641-0.436c3.215,7.298,6.902,14.475,8.021,22.313c2.385,7.206,5.265,46.52,6.129,46.431
			c0.733-8.354,0.48-44.271,1.203-52.516c4.688,6.978,3.712,15.84,8.543,34.666c-1.613-9.204-5.221-44.296-4.452-44.663
			c1.44,2.029,9.433,33,12.195,40.135l-6.036-47.696c2.016,10.59,13.633,50.616,17.775,69.588c0.62-0.264-4.532-30.526-3.914-30.792
			c-0.887-2.361-1.588-16.122-1.588-16.122c0.55,1.431,1.103,2.861,1.652,4.292c0.013-0.013,0.025-0.026,0.042-0.04
			c-1.856-9.777-3.717-19.563-5.753-30.281c5.646,18.214,12.277,37.754,12.783,47.16c0.051,0.966-5.981-17.91-7.03-16.879
			c0.019,0.101,0.037,0.199,0.058,0.302c-0.033-0.088-0.068-0.174-0.1-0.262c-0.024,0.024-0.054,0.049-0.078,0.071
			c2.865,8.914,8.889,31.928,11.753,40.848c0.337-14.001-0.966-19.412-0.691-19.703c0.601-6.789-0.442-8.841,0.275-16.938
			c1.651,2.509,2.843,9.635,3.762,11.033l2.321,13.747c-0.968-7.287-2.246-32.637-3.397-50.603l11.708,48.697
			c0.182-0.031,0.361-0.066,0.542-0.1c-2.413-19.511-3.089-31.82-5.5-51.332c0.581-0.105,1.215,7.616,1.796,7.509
			c1.502,7.217,1.297-0.611,2.698,6.628c1.515,7.827,9.269,57.629,9.269,57.629l-2.531-45.729c0,0,9.21,46.849,10.586,46.946
			c1.513-6.47,2.266-30.121,3.965-37.376c1.42,2.77,2.526,35.784,4.091,38.835c-1.954-19.591-1.501-56.46,2.332-61.433v20.474
			c1.119,17.85,0.478,4.969,0.776,4.958c0.678-5.929,1.479-16.85,2.155-22.776c0.708,0.129,0.242-27.598,0.948-27.467
			c1.485,11.307,3.021,35.956,2.992,43.921c-0.009,2.252,0.444,18.818,1.15,20.431c6.215-33.885,10.159-58.178,15.191-78.567
			l-2.186,63.944c0.752,0.089-2.71,21.348-1.957,21.435c0.745-2.055,5.705-25.278,6.648-27.866
			c1.418,1.318-0.201,28.384,1.864,30.298c2.365-15.478,7.319-56.283,9.57-71.027c1.566,1.179,1.724,2.245,1.67,3.3
			c-0.484,9.409-5.212,50.042-5.487,59.457c-0.05,1.714,9.898-53.999,6.174-26.013c0.65-0.14-1.529,28.591-0.879,28.45
			c2.404-10.514,7.641-49.898,10.046-60.413c0.771,0.017-0.234,25.853,0.538,25.868c0.229-1.603,2.214-29.034,2.381-30.646
			c-0.039-0.254-0.091-0.395-0.159-0.403c0.801-7.374,2.388-34.507,3.187-41.88c0.91,0.11,1.035,19.98,1.947,20.09
			c-0.412,4.559-2.137,21.819-3.551,36.113c-0.178,4.807-0.503,9.602-1.094,14.37c0.006,2.551-0.025,5.107-0.049,7.663
			c0.667,2.259-1.779,19.901-1.049,22.181c0.791-5.183,2.98-26.547,3.682-31.136c0.59-0.059,3.322-23.778,3.912-23.837
			c0.667,1.536-0.231,39.404,1.15,47.918c0.048-0.149,0.416-1.637,0.996-4.025c-0.039-0.086-0.07-0.181-0.074-0.299
			c-0.205-5.688,0.028-11.354,0.933-16.973c0.035-0.222,0.137-0.373,0.269-0.467c1.122-13.263,5.407-27.748,7.313-41.965
			c-0.517,6.054-4.034,29.928-5.979,44.521c0.139,1.299,0.238,2.598,0.273,3.897c3.849-15.956,9.439-39.22,10.54-43.554
			c0.754-0.05,13.744-5.057,14.497-5.106c0.399,1.997-2.755,18.124-3.27,19.81c-3.011,9.868-5.75,23.551-9.023,33.325
			c-0.601,1.789-1.2,3.574-1.8,5.36c0.494,0.24-3.432,8.885-2.937,9.126c2.896-4.649,16.433-35.972,19.33-40.622
			c0.372,0.172-5.471,18.613-5.097,18.784c-0.755,3.599-1.51,7.197-2.262,10.794l-1.386,12.044
			c2.769-10.14,8.647-31.765,11.419-41.906c0.467,0.136,3.073-8.61,3.539-8.471c-0.898,7.054-3.939,22.99-4.84,30.045
			c0.828,0.338-3.121,12.913-2.293,13.249c8.285-21.892,11.971-35.29,20.835-45.429c-0.61,13.375-2.537,46.643-3.116,59.294
			c10.356-23.836,19.324-57.367,24.625-64.701c0.479,3.736-1.268,16.238-0.92,18.931c0.633,0.3,0.056,29.663,0.69,29.96
			c-0.736-0.125,7.64-46.577,6.903-46.702c0.986-6.004,6.741-29.86,7.727-35.865c0.766,0.142,0.062,9.52,0.801,9.829
			c-0.586,2.78-13.138,59.293-15.431,72.738c5.062-21.928,11.603-37.789,12.196-37.701c-0.457,7.619-4.261,25.671-4.795,34.549
			c4.598-10.52,8.679-19.852,12.757-29.184c0.397,0.116,0.797,0.232,1.194,0.351c-0.963,9.152-4.42,23.445-5.244,31.256
			c7.594-21.648,9.92-24.154,14.64-33.938c0,0,12.171-33.357,6.8-11.844c-1.779,7.131-12.576,56.812-12.924,60.375
			c3.06-6.229,17.037-41.306,19.33-45.972c1.889,3.198-7.074,26.172-5.293,29.188c3.268-6.521,13.229-29.37,13.843-29.163
			c-1.837,9.105-3.675,18.213-5.513,27.319c0.445,0.107-3.25,9.522-2.806,9.628c1.019-3.689,14.551-25.692,15.647-29.675
			l-1.838,19.701c4.472-13.863,8.348-26.969,14.266-36.485c-0.857,4.688-3.282,16.956-4.143,21.647l-2.069,11.434
			c1.574-4.034,5.785-19.076,7.362-23.107c0.302-1.445,7.649-22.339,12.659-25.541c-1.664,4.259-5.974,14.188-8.393,20.07
			c0.228,0.131,0.389,0.386,0.325,0.739c-0.108,0.606-10.221,34.534-10.344,35.136c0.662-0.267,11.4-33.897,12.453-34.323
			c-2.323,9.384-4.428,17.887-6.531,26.388c0.223,0.054-3.152,9.343-2.931,9.396c3.819-7.41,16.444-30.958,17.029-30.648
			l-5.983,27.972c0.409,0.028,3.27-8.059,3.683-8.027c1.349-4.407,5.276-9.929,5.796-9.868c0.414,3.364-3.139,11.396-2.574,15.948
			c2.512-7.065,11.686-18.104,13.808-24.08c1.078-0.232-13.151,38.239-12.655,37.217c5.062-10.46,19.732-39.327,20.25-39.161
			c-0.309,3.198-12.275,33.976-12.656,37.944c3.988-4.743,19.918-36.459,24.164-39.161c1.166,2.862-11.045,23.107-14.498,36.241
			c0.296-0.052,10.068-19.575,10.116-19.692c2.665-6.386,19.321-43.979,24.029-56.979
			C661.433,521.907,661.324,521.851,661.217,521.794z M141.147,476.975c-2.417-8.318-3.582-26.022-3.617-26.192
			c0.034,0.075,0.069,0.15,0.104,0.225c2.877,14.277,8.151,40.833,9.578,47.684C146.624,498.811,141.735,476.855,141.147,476.975z
			 M202.069,548.932c2.769,6.892,10.19,30.28,12.959,37.171c-0.666,0.312-5.981-15.875-6.647-15.563
			c-2.919-6.807-14.574-33.328-17.495-40.134C191.702,530.009,201.253,549.329,202.069,548.932z M277.59,525.663
			c1.503,11.108,8.542,53.954,9.832,63.482C283.169,575.208,279.086,555.58,277.59,525.663z M313.227,530.077
			c-0.629-6.154-1.612-15.796-2.959-28.958c0.896-0.105,1.789-0.209,2.685-0.314c1.546,15.745,4.853,51.381,5.893,61.053
			C317.896,561.941,314.177,530.002,313.227,530.077z M333.875,545.365c-0.537,0.002-0.901-28.125-1.439-28.122V490.91
			c0.538-0.008,1.074-0.014,1.613-0.021L333.875,545.365z M348.24,542.446c0.209-0.041,0.346,1.916,0.461,4.482
			C348.542,545.085,348.389,543.549,348.24,542.446z M373.786,590.292c-0.919-7.091-9.897-58.136-10.817-65.225
			c0.973-0.206,9.776,49.508,10.749,49.302c-1.223-11.643-4.354-48.939-4.714-48.981v-20.185c0.427,0.021,0.854,0.041,1.279,0.062
			l3.888,72.523c0.49,6.05,2.345,25.013,2.837,31.063C376.314,608.955,374.481,590.185,373.786,590.292z M402.093,554.365
			c-0.569-0.026-3.229,29.701-3.8,29.675l-0.345-61.295c0.244,0.003,1.844,39.648,1.844,39.648s3.681-50.96,4.024-41.108
			L402.093,554.365z M424.254,477.76c-1.4,9.88-4.884,50.794-6.284,60.673c-0.858-0.143,2.584-33.262,1.728-33.404
			c-3.435,21.443,0.47-11.797,6.902-51.974C427.283,453.163,423.57,477.653,424.254,477.76z M480.043,545
			c-0.614-0.14,8.612-41.289,7.996-41.432c0.26-2.316,3.742-15.964,4.148-19.618c-1.476,2.1-11.36,29.289-12.145,30.401
			c3.418-17.218,21.288-64.278,22.182-64.009C498.115,468.224,484.156,527.118,480.043,545z M509.16,555.792
			c-1.201,5.745-5.244,19.673-6.447,25.421c-2.813,6.721,1.143-8.707,0.294-8.971c1.246-5.676,10.373-40.171,11.62-45.849
			C515.433,526.587,508.355,555.598,509.16,555.792z M573.457,545.49c-1.676,6.255-7.686,26.75-8.198,26.633
			c1.177-6.387,8.241-35.913,9.419-42.298C575.686,530.07,572.447,545.244,573.457,545.49z M624.789,550.704
			c-1.065-0.277-4.156,7.102-5.219,6.824c2.352-7.44,6.852-16.639,9.204-24.081l5.524-14.108
			C632.299,526.83,626.788,543.211,624.789,550.704z"/>
		<path fill-rule="evenodd" clip-rule="evenodd" fill="#EAECEC" d="M42.429,571.416c6.938,9.199,10.467,13.884,12.269,16.272
			c0.74-0.629,11.549,14.687,12.288,14.057c-1.221,1.459-22.309-22.883-26.104-27.174c-0.363,0.282,9.023,19.072,11.865,23.829
			c-0.603,0.493-23.551-30.617-26.48-40.431c2.276,2.543,3.837,4.29,5.399,6.034c0.361-0.258,0.723-0.515,1.083-0.772
			c-4.338-8.293-8.674-16.586-13.014-24.88c0.391-0.25,9.068,13.382,13.355,20.208c2.877,4.584,6.366,8.736,9.574,13.081
			C42.658,571.64,42.429,571.416,42.429,571.416z"/>
		<path fill-rule="evenodd" clip-rule="evenodd" fill="#EAECEC" d="M222.696,459.024c1.345,11.677,2.025,17.622,2.373,20.655
			c0.941-0.126,2.547,18.904,3.487,18.778c-1.763,0.565-7.64-31.849-8.744-37.604c-0.448,0.038-1.778,21.239-1.72,26.865
			c-0.758,0.086-4.858-39.125-2.485-49.104c0.675,3.427,1.139,5.78,1.603,8.132c0.436-0.02,0.871-0.038,1.304-0.057
			c0.422-9.469,0.844-18.933,1.265-28.399c0.459,0.003,1.081,16.42,1.344,24.609c0.176,5.497,1.086,10.965,1.664,16.443
			C222.781,459.339,222.696,459.024,222.696,459.024z"/>
		<path fill-rule="evenodd" clip-rule="evenodd" fill="#EAECEC" d="M274.481,434.413c-0.801-11.734-1.206-17.706-1.413-20.753
			c-0.945,0.076-1.668-19.016-2.611-18.939c1.786-0.472,6.153,32.207,6.988,38.014c0.449-0.012,2.762-21.121,2.965-26.742
			c0.76-0.047,3.036,39.329,0.204,49.174c-0.515-3.459-0.87-5.832-1.225-8.206c-0.435-0.003-0.871-0.006-1.304-0.01
			c-0.861,9.433-1.722,18.864-2.581,28.299c-0.458-0.028-0.319-16.456-0.2-24.649c0.078-5.5-0.576-11.01-0.898-16.51
			C274.411,434.092,274.481,434.413,274.481,434.413z"/>
		<path fill-rule="evenodd" clip-rule="evenodd" fill="#EAECEC" d="M311.419,471.869c-0.801-11.735-1.206-17.709-1.415-20.756
			c-0.944,0.076-1.666-19.016-2.609-18.939c1.785-0.472,6.151,32.207,6.987,38.016c0.449-0.015,2.761-21.122,2.965-26.743
			c0.76-0.048,3.036,39.329,0.203,49.174c-0.516-3.459-0.869-5.834-1.224-8.207c-0.436-0.002-0.871-0.006-1.305-0.01
			c-0.861,9.434-1.722,18.865-2.58,28.299c-0.46-0.026-0.319-16.456-0.199-24.648c0.078-5.5-0.577-11.01-0.9-16.51
			C311.349,471.546,311.419,471.869,311.419,471.869z"/>
		<path fill-rule="evenodd" clip-rule="evenodd" fill="#EAECEC" d="M332.131,457.808c-0.801-11.734-1.206-17.707-1.415-20.754
			c-0.943,0.077-1.665-19.015-2.609-18.938c1.784-0.473,6.151,32.207,6.987,38.014c0.449-0.013,2.761-21.122,2.966-26.741
			c0.759-0.049,3.035,39.328,0.202,49.174c-0.515-3.46-0.869-5.834-1.223-8.207c-0.437-0.003-0.871-0.008-1.305-0.012
			c-0.863,9.436-1.723,18.865-2.581,28.301c-0.459-0.028-0.318-16.457-0.2-24.649c0.08-5.5-0.576-11.01-0.899-16.511
			C332.061,457.488,332.131,457.808,332.131,457.808z"/>
		<path fill-rule="evenodd" clip-rule="evenodd" fill="#EAECEC" d="M541.664,564.021c2.81-11.384,4.241-17.178,4.97-20.133
			c-0.917-0.248,4.202-18.574,3.284-18.821c1.833,0.159-3.961,32.589-4.936,38.372c0.429,0.14,9.034-19.064,10.936-24.318
			c0.734,0.212-14.672,55.559-20.348,63.921c0.563-3.45,6.542-23.104,6.928-25.473c-0.412-0.148-0.822-0.302-1.229-0.451
			c-3.686,8.641-7.366,17.28-11.048,25.924c-0.426-0.183,4.701-15.694,7.303-23.411c1.748-5.182,2.801-10.622,4.167-15.94
			C541.694,563.695,541.664,564.021,541.664,564.021z"/>
		<path fill-rule="evenodd" clip-rule="evenodd" fill="#EAECEC" d="M558.331,546.122c2.81-11.384,4.241-17.178,4.97-20.133
			c-0.918-0.248,4.201-18.574,3.284-18.821c1.835,0.159-3.962,32.588-4.937,38.372c0.43,0.14,9.035-19.064,10.936-24.318
			c0.734,0.212-20.045,82.921-25.719,91.282c0.563-3.45,11.914-50.465,12.3-52.834c-0.41-0.148-0.821-0.303-1.229-0.45
			c-3.686,8.64-7.366,17.278-11.047,25.923c-0.427-0.183,4.699-15.693,7.302-23.411c1.747-5.182,2.8-10.622,4.167-15.94
			C558.361,545.794,558.331,546.122,558.331,546.122z"/>
		<path fill-rule="evenodd" clip-rule="evenodd" fill="#EAECEC" d="M568.559,504.998c2.807-11.387,4.238-17.179,4.969-20.136
			c-0.917-0.248,4.202-18.574,3.285-18.821c1.832,0.16-3.962,32.59-4.937,38.371c0.427,0.141,9.034-19.063,10.936-24.317
			c0.734,0.213-9.079,38.274-14.755,46.638c0.563-3.452,0.951-5.82,1.336-8.188c-0.412-0.15-0.823-0.302-1.232-0.453
			c-3.684,8.643-7.363,17.28-11.046,25.925c-0.425-0.183,4.699-15.693,7.302-23.412c1.749-5.181,2.803-10.621,4.168-15.938
			C568.59,504.669,568.559,504.998,568.559,504.998z"/>
		<path fill-rule="evenodd" clip-rule="evenodd" fill="#EAECEC" d="M494.375,553.635c2.81-11.385,4.241-17.178,4.972-20.134
			c-0.919-0.249,4.202-18.573,3.282-18.823c1.835,0.16-3.963,32.591-4.938,38.373c0.43,0.142,9.038-19.064,10.938-24.317
			c0.734,0.212-9.077,38.275-14.754,46.638c0.563-3.452,0.95-5.82,1.336-8.189c-0.412-0.149-0.822-0.303-1.232-0.451
			c-3.683,8.642-7.365,17.279-11.045,25.922c-0.426-0.181,4.699-15.692,7.301-23.409c1.746-5.183,2.803-10.623,4.169-15.94
			C494.407,553.307,494.375,553.635,494.375,553.635z"/>
		<path fill-rule="evenodd" clip-rule="evenodd" fill="#EAECEC" d="M466.062,537.932c1.91-11.591,2.885-17.49,3.382-20.499
			c-0.936-0.168,2.736-18.877,1.802-19.045c1.839-0.001-1.403,32.824-1.923,38.672c0.439,0.103,7.516-19.788,8.999-25.19
			c0.749,0.15-13.001,70.396-18.004,79.224c0.292-3.487,7.437-37.339,7.636-39.734c-0.422-0.112,2.449-15.507,2.029-15.619
			c-2.996,8.934-9.282,33.14-12.276,42.077c-0.435-0.146,3.458-16.05,5.45-23.969c1.335-5.317,1.962-10.831,2.907-16.249
			C466.068,537.603,466.062,537.932,466.062,537.932z"/>
		<path fill-rule="evenodd" clip-rule="evenodd" fill="#EAECEC" d="M111.561,513.604c3.264,11.249,4.921,16.974,5.768,19.895
			c0.907-0.298,5.648,18.14,6.553,17.843c-1.642,0.883-12.813-29.938-14.854-35.4c-0.436,0.121,1.776,21.24,2.769,26.768
			c-0.733,0.226-11.284-37.613-10.604-47.881c1.235,3.25,2.082,5.479,2.929,7.71c0.424-0.102,0.851-0.201,1.276-0.301
			c-1.158-9.396-2.314-18.792-3.474-28.19c0.451-0.081,3.793,15.963,5.412,23.977c1.086,5.379,2.891,10.596,4.367,15.88
			C111.698,513.902,111.561,513.604,111.561,513.604z"/>
		<path fill-rule="evenodd" clip-rule="evenodd" fill="#EAECEC" d="M66.753,549.597c-18.529-41.281-19.117-50.844-20.254-50.268
			c1.532,3.579,7.104,16.607,20.673,48.337C66.685,547.968,67.244,549.293,66.753,549.597z"/>
		<path fill="#EAECEC" d="M69.928,574.576c-8.751-20.464-14.169-33.134-17.329-40.522c-0.057,0.096-0.135,0.167-0.221,0.224
			c2.48,7.244,7.247,20.209,17.13,42.229C70,576.202,69.441,574.877,69.928,574.576z"/>
		<path fill="#EAECEC" d="M96.946,537.583c-8.751-20.464-14.169-33.132-17.329-40.521c-0.057,0.097-0.135,0.167-0.221,0.223
			c2.479,7.245,7.246,20.212,17.13,42.229C97.017,539.209,96.459,537.884,96.946,537.583z"/>
		<path fill="#EAECEC" d="M95.228,524.451c-4.241-22.005-9.595-35.981-11.125-43.929c-0.075,0.082-0.167,0.133-0.261,0.167
			c0.896,7.646,2.306,22.838,7.326,46.624C91.708,527.131,94.691,524.632,95.228,524.451z"/>
		<path fill="#EAECEC" d="M181.741,478.911c-4.241-22.005-9.594-35.98-11.125-43.929c-0.075,0.08-0.167,0.133-0.262,0.167
			c0.897,7.647,2.306,22.839,7.326,46.624C178.222,481.591,181.205,479.091,181.741,478.911z"/>
		<path fill="#EAECEC" d="M182.979,466.834c-0.66-22.445-3.703-37.178-3.94-45.284c-0.088,0.066-0.186,0.101-0.285,0.119
			c-0.338,7.695-1.379,22.92-0.234,47.26C180.488,481.523,182.42,466.917,182.979,466.834z"/>
		<path fill="#EAECEC" d="M127.146,511.646c-4.241-22.004-9.595-35.98-11.125-43.928c-0.076,0.081-0.167,0.133-0.261,0.166
			c0.896,7.646,2.305,22.839,7.325,46.623C123.625,514.329,126.609,511.828,127.146,511.646z"/>
		<path fill="#EAECEC" d="M47.828,560.542c-9.208-21.53-14.724-34.432-17.804-41.632c0.102,0.473,0.2,0.943,0.284,1.424
			c2.488,7.262,7.258,20.21,17.1,42.137C47.899,562.167,47.341,560.844,47.828,560.542z"/>
		<path fill="#EAECEC" d="M69.928,538.284c-5.445-19.387-8.704-30.996-10.527-37.479c0.005,0.386,0.007,0.768-0.007,1.151
			c1.134,6.286,3.536,17.629,9.608,37.558C69.631,539.493,69.305,538.303,69.928,538.284z"/>
		<path fill-rule="evenodd" clip-rule="evenodd" fill="#EAECEC" d="M56.185,570.078c17.027,26.892,18.47,28.55,19.214,28.029
			c-1.422-2.34-3.015-7.289-15.626-28.029C60.088,569.817,55.87,570.342,56.185,570.078z"/>
		<path fill-rule="evenodd" clip-rule="evenodd" fill="#EAECEC" d="M107.84,477.032c4.539,13.17,9.075,26.339,13.612,39.508
			c-1.137,0.125-2.273,0.253-3.408,0.376c-3.407-13.3-6.812-26.6-10.222-39.9C107.819,477.015,107.84,477.032,107.84,477.032z"/>
		<path fill-rule="evenodd" clip-rule="evenodd" fill="#EAECEC" d="M283.169,590.292"/>
		<path fill-rule="evenodd" clip-rule="evenodd" fill="#EAECEC" d="M279.086,560.126"/>
		<path fill-rule="evenodd" clip-rule="evenodd" fill="#EAECEC" d="M190.886,516.797"/>
		<path fill-rule="evenodd" clip-rule="evenodd" fill="#EAECEC" d="M199.975,541.353c-0.558,0.136-1.115,0.27-1.672,0.404"/>
		<path fill-rule="evenodd" clip-rule="evenodd" fill="#EAECEC" d="M158.696,575.933c0.005,0.008,0.159,0.177,0.159,0.177
			c-1.709-4.877-3.435-9.747-5.124-14.63c-0.982-2.837-1.906-5.698-3.382-10.121"/>
	</g>
</g>
<g id="Layer_2">
	<path fill="#E8E9EA" d="M31.613,615.092c4.788-3.674,5.964-5.052,7.044-8.339c2.771,0.229,13.62-9.899,15.528-14.354
		c1.476-3.449,3.809-6.591,4.446-10.351c0.063-0.371,0.449-0.749,0.786-1.016c1.635-1.309,2.145-3.15,2.681-4.924
		c1.079-3.58,1.93-7.22,3.01-10.797c0.535-1.778,1.192-3.561,2.097-5.199c1.622-2.922,3.547-5.701,5.208-8.608
		c1.445-2.528,2.763-5.125,4.013-7.743c0.693-1.449,1.371-2.83,3.141-3.717c1.011,1.656,1.685,3.182,0.604,4.919
		c-0.559,0.903-0.869,1.821-0.514,2.871c0.085,0.249,0.096,0.65-0.062,0.824c-2.202,2.427-1.981,5.659-3.247,8.429
		c-1.059,2.312-2.115,4.638-3.369,6.86c-1.87,3.315-5.366,17.211-5.72,17.641c-0.864,1.057-1.536,2.149-0.333,3.464
		c1.315,1.44-3.488,19.922-2.982,18.858c1.619-3.4,4.313-6.287,5.469-9.912c0.387-1.219,1.172-2.326,1.665-3.522
		c1.317-3.191,3.319-6.091,4.064-9.558c0.529-2.466,2.128-4.731,3.209-7.103c0.358-0.789,0.737-1.608,0.858-2.444
		c0.277-1.928,1.184-3.542,2.587-4.939c1.229-1.227,1.909-2.668,1.725-4.309c-0.281-2.513,0.836-4.782,1.276-7.165
		c0.077-0.414,0.185-0.96,0.498-1.18c3.647-2.557,7.193-10.731,7.493-11.053c0.355-0.378,1.521-0.148,1.561,0.339
		c0.175,2.265,0.284,4.533,0.411,6.803c0.008,0.14-0.009,0.352-0.103,0.407c-2.937,1.799-6.443,9.561-6.206,11.026
		c0.275,1.711-7.299,10.484-6.811,14.785c0.241,2.115-0.868,3.982-2.665,5.213c-1.534,1.049-2.521,3.908-2.521,3.908
		c1.963,1.078-0.767,9.079-1.354,11.568c-0.095,0.403-0.319,0.938-0.663,1.104c-2.084,1.017-2.074,2.894-2.616,4.653
		c-0.443,1.437-0.365,3.192-1.947,4.226c-0.953,3.148-2.507,6.346,1.13,9.154c1.319-0.547,3.74-5.063,3.195-6.585
		c-0.159-0.448,0.056-1.359,0.422-1.563c3.245-1.797,9.345-18.452,9.133-18.653c-1.87-1.753-0.378-3.47-0.058-5.206
		c0.316-1.719,0.941-3.221,2.192-4.628c1.155-1.296,1.779-2.985,2.753-4.435c0.572-0.851,1.342-1.633,2.635-0.976
		c0.874,1.713-0.914,2.554-1.425,3.798c0.36,0.45,1.072,0.938,1.012,1.325c-0.536,3.351,0.662,6.884-1.221,10.091
		c-1.016,6.068-1.734,12.167-2.089,18.301c-0.105,1.846-0.215,3.693-0.336,5.766c1.412-0.292,2.871-1.399,2.868-0.931
		c-0.012,2.996-0.187,5.997-0.13,8.993c0.031,1.682,0.402,3.357,0.622,5.048c0.039,0.241,0.076,0.472,0.112,0.707
		c-0.046-0.249-0.093-0.499-0.138-0.747c-0.154,0.55,0.201,5.855-0.803,7.925c-0.236,0.488-0.232,1.16-0.095,1.696
		c0.763,2.993,0.497,5.971,0.003,8.957c-0.036,0.206,0.261,0.459,0.588,0.99c0.392-0.518,0.943-0.908,0.947-1.302
		c0.015-2.188,0.518-4.189,1.62-6.175c0.678-1.222,0.684-2.771,0.937-4.179c0.71-3.95,1.408-7.898,2.072-11.854
		c0.141-0.842,0.158-1.705,0.164-2.561c0.054-7.863,0.848-25.615,0.438-26.487c-0.639-1.361-0.511-2.68,0.382-3.655
		c1.563-1.714,1.303-11.09,3.125-13.49c0.166-0.222,0.26-0.556,0.235-0.824c-0.309-3.212,1.366-6.12,1.666-9.227
		c0.217-2.259,0.136-4.544,0.33-6.805c0.242-2.842,0.865-5.667,0.899-8.506c0.057-4.576,1.476-8.988,1.661-13.54
		c0.028-0.673,0.302-1.438,0.735-1.976c0.662-0.824,0.535-1.582,0.224-2.415c-0.684-1.846-0.712-3.607,0.505-5.338
		c0.403-0.568,0.491-1.354,0.618-2.056c1.081-5.923,2.248-11.834,3.173-17.78c1.233-7.932,2.265-15.892,3.399-23.839
		c0.687-4.812,1.207-9.655,2.176-14.419c0.681-3.355,2.013-6.597,3.017-9.9c0.417-1.367,0.705-2.768,1.095-4.142
		c1.332-4.701,2.633-9.409,4.041-14.094c1.278-4.259,2.857-8.449,3.985-12.739c1.534-5.839,3.514-11.45,6.546-16.831
		c1.675-2.97,3.562-5.947,4.429-9.351c0.475-1.857,1.779-3.628,3.045-5.209c2.787-3.489,4.679-7.419,6.947-11.166
		c-0.05,0.062-3.492,1.366-5.88,2.285c0.906-0.252,1.476-0.243,1.299,0.33c0.031,0.664-20.792,38.37-21.851,35.643
		c1.059,2.728-0.009,5.412-0.838,8.136c-0.958,3.14-1.729,6.33-2.784,9.44c-1.038,3.061-1.211,6.405-3.361,9.121
		c0.024,0.053,0.054,0.107,0.075,0.161c-0.053,0.036-0.089,0.082-0.138,0.121c0.029,1.684-0.426,3.197-1.836,4.392
		c-0.006,0.022-0.01,0.046-0.017,0.067c-0.004-0.013-0.006-0.027-0.01-0.041c0.01-0.008,0.018-0.017,0.027-0.026
		c0.438-1.528,0.383-3.237,1.836-4.392c-0.002-0.064,0.002-0.128,0-0.191c0.024-0.031,0.04-0.062,0.063-0.091
		c-0.323-0.721-0.836-1.449-0.813-2.158c0.197-5.707,0.81-11.372,2.498-16.896c0.375-1.231,0.78-2.467,0.984-3.726
		c1.313-8.153,0.59-8.396,4.804-15.57c0.241-0.41,4.606-8.313,5.711-7.996c-0.091,0.496,4.527-7.95-0.287,1.52
		c-0.929,1.827,6.863-13.745,7.882-15.96c0.013-0.038,0.023-0.075,0.046-0.121c0.116-0.236,0.086-0.165-0.046,0.121
		c-0.297,0.915,2.059-0.103,4.308-1.002c-0.067-0.005-0.134-0.008-0.2-0.013c0.014-0.121,0.028-0.245,0.042-0.365
		c0.196,0.033,8.29-2.822,8.485-2.788c1.352-2.234,2.87-4.392,4.42-6.517c0.399-0.547,1.156-1.109,1.83-1.21
		c2.406-0.363,4.584-2.021,7.213-1.127c2.94-0.879,6.008-1.505,8.777-2.715c2.401-1.048,27.947,13.37,32.243,18.082
		c1.687,1.852,3.159,3.896,5.684,4.995c0.781,0.339,1.484,1.094,1.913,1.814c3.146,5.284,24.956,20.838,26.224,18.056
		c1.024-2.248,1.745-4.564,1.498-7.077c-0.462-4.701-0.877-9.407-1.215-14.118c-0.318-4.424-0.272-8.841,0.485-13.248
		c0.238-1.393,0.151-6.261,0.206-7.254l-0.066,0.133l-0.678-2.267c0.504-0.417,3.131-12.749,3.119-14.89
		c-0.018-3.133-0.137-6.274,0.08-9.396c0.397-5.671,1.009-11.333,1.535-17.031c0.46,0.017,1.284,0.269,1.584,0.009
		c0.507-0.44,0.818-1.18,0.955-1.839c0.111-0.525-0.179-1.117-0.259-1.684c-1.019-6.962-0.601-13.962-0.533-20.943
		c0.034-3.403,0.974-6.678,2.249-9.971c1.23-3.173,2.449-6.625,1.321-10.177c-0.644,1.358-1.299,2.71-1.922,4.075
		c-0.459,1.004-0.873,2.024-1.357,3.153c-0.446-0.4-0.806-0.576-0.804-0.744c0.035-2.132-0.136-4.301,0.242-6.384
		c0.938-5.182,2.093-10.333,3.239-15.482c0.466-2.089,1.087-4.149,1.745-6.194c0.192-0.598,0.753-1.094,1.305-1.857
		c0.891,3.643,0.362,8.227-1.32,12.665c0.908-0.081,1.885-0.091,2.399-0.938c0.674-1.106,1.506-2.208,1.817-3.412
		c1.343-5.179,1.989-10.395,0.089-15.608c-0.443-1.219-0.904-2.438-1.27-3.677c-0.325-1.103-0.638-2.223-0.768-3.352
		c-0.39-3.396-0.665-6.8-1.032-10.196c-0.159-1.49-0.755-2.711-2.428-3.367c-1.902-0.746-2.571-2.006-2.504-4.073
		c0.072-2.234-0.491-4.423,0.671-6.617c0.402-0.762,0.213-2.015-0.174-2.861c-1.263-2.751-1.481-5.411-0.479-8.316
		c0.543-1.578,0.649-3.464,0.284-5.084c-0.594-2.637-0.1-5.131,0.434-7.634c0.564-2.639,1.4-5.228,2.117-7.839l-0.088,0.124
		c0.197-1.38,0.438-2.758,0.581-4.146c0.242-2.399,0.64-4.734,2.283-6.734c0.44-0.531,0.671-1.06,1.522-1.372
		c1.403-0.511,1.2-1.697,0.598-2.784c0.001-0.259,0.003-0.515,0.004-0.77c0.008,0.263,0.016,0.527,0.023,0.79
		c0.649-2.201,1.427-4.378,1.921-6.607c1.247-5.618,2.853-11.133,5.59-16.294c2.175-4.104,4.41-8.202,7.004-12.085
		c1.771-2.651,3.856-5.14,5.739-7.747c1.442-1.995,3.384-3.632,5.889-4.73c3.119-1.368,5.734-3.384,7.074-6.493
		c0.166-0.392,0.43-0.767,0.721-1.097c4.399-5.033,7.543-10.791,11.197-16.256c2.025-3.028,4.307-5.951,6.794-8.669
		c4.488-4.902,10.337-7.595,17.264-8.479c6.779-0.867,13.562-1.299,20.41-1.17c2.274,0.043,4.199,0.578,6.188,1.474
		c4.738,2.136,9.544,4.148,14.359,6.14c1.048,0.435,2.223,0.622,3.346,0.901c-0.388-0.515-0.711-1.138-1.244-1.411
		c-1.761-0.903-3.619-1.643-5.445-2.433c-2.53-1.094-5.212-1.961-7.564-3.312c-3.473-1.995-7.2-2.509-11.136-2.513
		c-2.01-0.003-4.025-0.048-6.025-0.189c-0.688-0.05-1.348-0.459-2.162-0.757c0.638-1.771,1.834-2.914,3.012-3.99
		c1.761-1.606,3.675-3.072,5.546-4.573c1.289-1.031,2.63-2.001,3.926-3.023c5.646-4.458,11.26-8.951,17.388-12.852
		c1.134-0.724,2.247-1.521,1.787-3.038c-5.094,3.636-10.388,7.06-15.215,10.972c-5.672,4.595-11.923,8.652-16.523,14.305
		c-1.246,1.534-2.873,2.652-4.883,3.075c-3.446,0.727-6.938,1.278-10.634,1.943c-0.175-0.863-0.302-1.483-0.425-2.091
		c-2.565,1.786-5.076,3.643-7.715,5.332c-2.962,1.9-5.517,4.16-7.782,6.727c-4.426,5.015-8.343,10.345-11.228,16.243
		c-1.375,2.814-3.683,4.934-5.636,7.32c-1.76,2.149-3.515,4.168-6.476,5.322c-2.166,0.843-3.963,2.689-5.189,4.762
		c-1.437,2.426-3.371,4.39-6.025,5.813c-2.273,1.22-2.48,1.722-1.662,4.139c0.618,1.838-0.721,2.58-1.723,3.587
		c-1.789,0.171-2.61-0.785-2.886-2.177c-0.216-1.101-0.278-2.24-0.278-3.363c-0.002-1.358,0.119-2.716,0.193-4.074
		c-1.76,1.162-2.085,3.041-2.485,4.761c-1.849,7.969-5.096,15.55-7.49,23.366c-1.847,6.041-3.572,12.112-5.413,18.155
		c-0.278,0.912-0.879,1.743-1.324,2.621c0.02,0.03,0.033,0.061,0.052,0.091c0.013,0.228,0.022,0.456,0.033,0.684
		c-0.028-0.247-0.056-0.494-0.1-0.749c0.005-0.011,0.01-0.019,0.015-0.027c-1.28-2.023-1.442-4.266-1.55-6.533
		c-0.207-4.428-0.432-8.855-0.718-13.28c-0.03-0.441-0.52-0.855-1.159-1.842c-0.361,1.097-0.665,1.581-0.648,2.052
		c0.063,1.712,0.16,3.43,0.379,5.131c0.258,2.03,0.067,3.907-0.85,5.842c-0.658,1.392-0.718,3.05-0.907,4.604
		c-1.58,12.928-3.148,25.859-4.672,38.794c-0.319,2.697-0.243,5.445-0.71,8.117c-1.153,6.644-1.53,13.347-2.015,20.036
		c-0.414,5.701-0.453,11.424-0.702,17.137c-0.084,1.996-0.164,4.007-0.469,5.98c-1.139,7.387-1.281,14.812-1.281,22.251
		c0,4.434-0.127,8.866-0.296,13.298c-0.049,1.274-0.278,2.587-0.707,3.797c-1.338,3.789-2.289,7.665-3.887,11.415
		c-2.313,5.422-4.873,10.812-6.09,16.604c-0.391,1.858-0.568,3.665-0.277,5.529c0.821,5.231,1.854,10.446,2.361,15.705
		c0.463,4.822,0.363,9.692,0.471,14.542c0.009,0.395-0.29,0.793-0.502,1.337c-2.753,0.842-5.33,0.784-7.835-0.945
		c-2.847-1.965-6.106-3.488-8.701-5.688c-4.365-3.699-9.298-6.67-13.972-9.968c-1.073-0.756-2.469-1.124-3.714-1.674
		c-1.956-0.862-4.047-1.535-5.836-2.632c-3.661-2.24-7.605-3.779-11.826-4.81c-1.345-0.329-2.654-0.794-4.007-1.093
		c-2.109-0.465-4.236-0.853-6.362-1.252c-1.358-0.255-2.724-0.465-4.083-0.705c-1.221-0.218-2.426-0.513-3.656-0.662
		c-4.158-0.5-8.319-0.987-12.488-1.403c-1.842-0.185-3.714-0.328-5.558-0.235c-2.2,0.111-4.338,0.532-5.452,2.683
		c-0.254,0.491-0.733,0.979-1.246,1.244c-3.22,1.681-4.411,5.128-7.339,7.063c-0.461,0.306-0.682,0.938-0.976,1.437
		c-1.256,2.128-2.41,4.314-3.766,6.387c-1.932,2.952-3.414,6.061-4.092,9.256c-1.768,0.594-3.17,1.194-4.643,1.527
		c-1.812,0.412-2.482,1.561-2.838,3.04c-0.603,2.506-1.101,5.04-1.859,7.505c-0.371,1.206-1.074,2.39-1.892,3.4
		c-3.146,3.888-6.542,10.012-5.326,8.727c0.227-0.091,2.557,1.698,4.652,0.455c-0.051,1.22,0.109,2.085-0.155,2.822
		c-0.681,1.898-1.595,3.723-2.329,5.607c-0.463,1.191-0.79,2.432-1.134,3.661c-0.194,0.69-0.113,1.497-0.471,2.091
		c-1.911,3.173-2.555,6.74-3.845,10.104c-2.797,7.296-4.446,14.847-5.857,22.448c-0.342,1.833-5.504,25.867-5.167,27.331
		c-2.601,5.714-5.825,19.684-6.048,20.653c-0.512,2.223-1.184,4.453-1.329,6.704c-0.294,4.563-0.263,9.147-2.458,13.399
		c0.596,0.477,1.044,0.832,1.525,1.213c-1.641,1.411,0.271,3.581-1.565,5.166c-0.863,0.219-3.565,1.355-3.668,1.607
		c-1.603,4.016-7.085,19.37-7.428,23.213c-0.175,1.955-4.729,14.663-5.305,18.178c-0.221,1.354-8.841,25.695-9.097,28.722
		c-0.146,1.747-0.617,3.346-2.413,4.424c-0.713,0.429-1.294,1.251-1.592,2.01c-0.522,1.333-1.199,2.79-1.064,4.131
		c0.316,3.144-1.078,5.471-3.21,7.688c-1.017,1.06-1.814,2.315-2.573,3.556C30.616,613.992,30.639,614.749,31.613,615.092z
		 M232.501,298.468c0.98,4.067,1.591,8.184,0.729,12.323c-1.518,7.289-3.177,14.555-4.753,21.836
		c-0.337,1.557-0.667,3.065-2.161,4.129c-0.972,0.692-0.866,1.76-0.827,2.771c0.209,5.332-1.579,10.296-3.354,15.259
		c-0.037,0.103-0.177,0.173-0.269,0.263c0.005,0.023,0.009,0.048,0.015,0.072c0.007,0.02,0.016,0.038,0.021,0.056
		c0.134,0.158,0.273,0.313,0.378,0.483c0.041,0.066-0.044,0.196-0.07,0.296c-0.102-0.26-0.204-0.52-0.308-0.779
		c-0.025-0.03-0.052-0.062-0.078-0.093c0.01-0.014,0.029-0.024,0.042-0.035c-0.24-1.094-0.434-2.198-0.742-3.275
		c-1.675-5.833-1.668-11.634,0.984-17.196c1.813-3.802,3.307-7.68,4.604-11.643c1.878-5.737,4.144-11.392,3.93-17.534
		c-0.055-1.56,0.131-3.131,0.275-4.69c0.1-1.092,0.315-2.174,0.556-3.771C232.059,297.792,232.414,298.103,232.501,298.468z
		 M228.517,369.275c0.128,0.133,0.254,0.268,0.382,0.399c-0.113,0.038-0.243,0.128-0.338,0.105c-0.104-0.024-0.18-0.155-0.267-0.239
		C228.369,369.452,228.444,369.363,228.517,369.275z M228.722,365.881c0.092,0.076,0.28,0.188,0.264,0.222
		c-0.087,0.191-0.223,0.365-0.342,0.546c-0.093-0.071-0.187-0.143-0.283-0.214C228.48,366.25,228.602,366.066,228.722,365.881z
		 M235.642,354.017c0,0-8.136,16.3-9.997,18.654c-0.205-3.515,4.922-28.663,7.167-32.322c0.351-0.572,0.179-1.404,0.312-2.104
		c1.273-6.74,2.555-13.479,3.855-20.213c0.096-0.491,0.363-0.954,0.82-2.113c1.501,3.27,2.168,6.039,0.552,8.408
		c-1.401,2.054-1.323,3.964-1.127,6.085c0.131,1.42,0.221,2.846,0.234,4.271c0.057,5.27-1.463,10.43-1.322,15.715
		C236.155,351.135,235.643,354.014,235.642,354.017z M230.12,407.33c-0.179-1.689-0.125-3.419,0.009-5.117
		c0.18-2.268,0.568-4.52,0.807-6.783c0.39-3.696,0.717-7.393,0.273-11.111c-0.067-0.553,0.104-1.134,0.184-1.7
		c0.606-4.247,1.146-8.505,1.855-12.735c0.396-2.364,1.079-4.687,1.633-7.027c0.3,0.031,0.601,0.064,0.899,0.096
		c0.05,0.838,0.193,1.68,0.133,2.51c-0.333,4.683-0.667,9.367-1.093,14.044c-0.362,3.98-0.972,7.942-1.235,11.926
		c-0.139,2.119-0.087,4.331,0.426,6.386c1.057,4.241,0.765,8.537,1.017,12.806c0.089,1.529-0.407,3.119-0.843,4.632
		C233.634,417.164,230.42,410.114,230.12,407.33z M92.951,601.792l-0.751,1.354c-0.138-0.105-0.279-0.213-0.418-0.321
		c0.385-0.332,0.77-0.665,1.154-1.009c-0.122-0.228-0.244-0.455-0.298-0.557C92.692,601.356,92.821,601.575,92.951,601.792z
		 M79.469,584.181l-0.36,0.092c-0.071-0.109-0.205-0.223-0.19-0.313c0.015-0.098,0.169-0.175,0.264-0.261
		C79.278,583.86,79.375,584.021,79.469,584.181z M93.662,558.504c-0.211,0.12-0.414,0.242-0.609,0.368
		c-0.03,0.048-0.065,0.093-0.097,0.14c0.002,0.058,0.009,0.114,0.01,0.172c0.106,0.278,0.21,0.555,0.315,0.832
		c-0.094-0.052-0.267-0.094-0.275-0.155c-0.032-0.224-0.033-0.45-0.04-0.677c-0.025-0.069-0.053-0.141-0.08-0.21
		c0.05-0.036,0.114-0.066,0.167-0.102c0.101-0.153,0.197-0.312,0.315-0.454C93.389,558.394,93.56,558.474,93.662,558.504z
		 M91.542,433.69c0.063,0.371-0.013,0.764-0.038,1.179c-0.379-0.112-0.843-0.171-0.854-0.271c-0.038-0.351,0.079-0.715,0.139-1.074
		C91.052,433.575,91.527,433.599,91.542,433.69z M103.671,405.71c-0.052,0.372-0.232,0.727-0.364,1.088
		c-0.236-0.131-0.471-0.261-0.847-0.47c0.169-0.293,0.333-0.631,0.568-0.922C103.055,405.373,103.682,405.632,103.671,405.71z
		 M114.582,370.445c-0.19,0.172-0.438,0.517-0.561,0.482c-0.341-0.097-0.633-0.349-0.945-0.54c0.188-0.163,0.378-0.325,0.688-0.593
		C114.03,370.007,114.307,370.227,114.582,370.445z M115.454,373.175c-2.174,1.63-2.125,1.647-3.046,3.583
		c-1.237,2.612-2.552,5.191-3.842,7.78c-1.43,2.872-3.777,5.143-5.931,7.532c-0.307,0.343-1.053,0.353-1.597,0.514
		c-0.17-0.235-0.342-0.472-0.513-0.707c0.533-0.661,1.017-1.36,1.604-1.977c1.864-1.951,3.403-4.092,4.159-6.604
		c1.176-3.9,3.345-7.344,5.519-10.75C114.103,372.234,114.103,372.234,115.454,373.175z M219.796,382.93
		c-0.077,0.177-0.222,0.331-0.344,0.492c-0.173-0.166-0.348-0.333-0.521-0.504c0.202-0.084,0.397-0.197,0.608-0.235
		C219.608,382.668,219.816,382.881,219.796,382.93z M217.314,398.476c2.173,0.766-12.576-7.865-10.777-7.232
		c-0.216-1.715-1.762-4.062-2.62-4.81c-1.352-1.178,0.007-0.005-1.352-1.178c-0.678-0.585-14.716-7.652-14.009-8.569
		c2.946,0.237,31.108,15.108,32.214,15.863c0.594,0.405,1.213,0.958,1.478,1.569c1.31,3.06,2.531,6.151,3.724,9.252
		c0.255,0.657,0.35,1.4,0.344,2.104c-0.001,0.365,1.065,4.279,0.737,4.461c-0.329,0.179-2.375-3.206-2.653-3.408
		C221.628,404.51,219.39,402.083,217.314,398.476z M181.571,370.692c1.114,0.056,15.746,3.067,15.918,3.21
		c1.785,1.477,3.634,2.533,6.26,2.121c0.941-0.148,2.094,0.39,3.041,0.817c1.663,0.752,3.25,1.647,4.853,2.508
		c0.664,0.359,1.313,0.754,1.92,1.189c0.688,0.493,10.458,3.976,9.973,4.611c-0.396,0.517-10.626-1.891-11.261-1.566
		c-0.22,0.112-0.614,0.006-0.902-0.078c-2.23-0.646-4.471-1.388-6.046-3.025c-1.479-1.535-3.293-2.525-5.153-3.549
		C198.784,376.164,182.92,372.515,181.571,370.692z M167.83,369.292c0.044-0.365,0.073-0.598,0.104-0.832
		c0.371,0.118,0.77,0.198,1.097,0.384c0.087,0.049-0.048,0.429-0.083,0.655C168.572,369.429,168.197,369.359,167.83,369.292z
		 M147.62,367.492c-0.216-0.078-0.435-0.159-0.65-0.239c0.039-0.119,0.077-0.237,0.117-0.354c0.216,0.081,0.439,0.15,0.641,0.256
		C147.753,367.169,147.659,367.375,147.62,367.492z M108.357,405.157c-0.195,0.724-10.452,13.909-11.627,14.065
		c-0.002-0.001,0.002-0.014,0.002-0.018c-0.397,0.834-0.986,1.584-2.065,2.091c0.009,0.041,0.008,0.079,0.018,0.12
		c-0.023,0.043-0.042,0.078-0.063,0.12c0.632,1.782-0.031-0.12-0.056-0.184c0.038-0.018,0.064-0.039,0.102-0.057
		c-0.387-1.927,0.677-3.522,1.515-5.144c0.263-0.512,0.917-0.712,1.664,0.074c-0.405,0.867-0.615,1.855-1.012,2.767
		c1.027-1.685,1.541-8.491,1.466-9.899c-0.02-0.382,2.683-9.926,3.045-11.52c0.426-1.875-1.124,1.519,0,0
		c1.903-2.568,11.832-13.837,15.006-17.099c-0.799-0.687,3.972-10.668,4.9-11.828c0.234-1.301,6.938-5.379,9.589-6.949
		c2.714-1.609,2.618-1.718,5.238-3.487c-0.251-0.552-6.254-0.782-7.304,0.332c-1.22,1.295-1.674,0.773-3.542,0.674
		c-3.771,4.632-5.176,6.197-10.045,9.771c2.593-5.773,12.559-16.884,17.604-20.672c3.634,0.579,5.121,2.003,8.856,1.729
		c2.521,1.176,4.192,2.098,6.805,1.652c0.72-0.12,1.518,0.176,2.283,0.243c5.15,0.459,10.035,2.001,14.817,3.603
		c5.959,1.993,11.695,4.554,17.488,6.956c1.248,0.517,2.371,1.337,3.466,2.119c1.831,1.309,3.62,2.671,5.372,4.069
		c0.498,0.397,1.235,0.878,0.518,1.826c-4.175-1.554-8.185-3.386-11.919-5.728c-1.016-0.639-2.077-1.258-3.202-1.704
		c-3.306-1.311-4.585,0.014-5.052,1.317c16.33,12.288-6.959-1.984-7.755-2.377c-0.523-0.255-1.156-0.317-1.72-0.516
		c-0.845-0.306-1.851-0.481-2.472-1.02c-1.473-1.272-5.002-1.537-8.906-3.16c-1.146-0.479-1.943-1.335-3.44-1.34
		c-1.376,0.876-2.875,1.83-4.384,2.791c0.546,0.557-5.581,4.424-6.965,5.608c-0.014,0.231-0.269,0.719-0.7,1.394
		c0.484,0.828-3.387,4.988-4.645,6.275c-1.523,1.946-3.191,4.024-4.754,5.963c-0.014,0.022-0.072,0.068-0.045,0.063
		c3.277-0.662-0.243,0.328-0.378,0.462c-2.822,3.49-5.207,6.411-5.592,7.021C117.363,390.488,109.86,399.535,108.357,405.157z
		 M100.763,443.898c-0.969,5.392-6.921,21.132-6.68,23.941c0.448,5.218-0.966,10.132-1.852,15.04l-1.89-1.769
		c-0.466-2.439-0.923-4.816-1.375-7.191c-0.129-0.688-0.522-1.461-0.316-2.053c0.691-1.977,0.369-3.953,0.368-5.945
		c0-2.87,0.387-5.683,1.409-8.443c0.897-2.431,1.352-4.997,2.122-7.473c0.511-1.642,0.972-3.381,1.941-4.792
		c0.765-1.116,2.272-1.798,3.497-2.71c0.145-0.52,0.321-1.066,0.448-1.624c0.934-4.048,1.636-8.154,2.853-12.127
		c0.957-3.13,2.513-6.11,3.878-9.129c0.271-0.604,15.525-23.109,15.442-22.747C119.167,403.169,103.099,437.798,100.763,443.898z
		 M107.99,493.606c-0.41-0.735-0.012-1.282,0.498-1.8c-0.005-0.048-0.006-0.1-0.01-0.148c-0.087-0.122-0.175-0.245-0.266-0.368
		c0.08,0.064,0.187,0.117,0.228,0.199c0.027,0.05,0.034,0.108,0.038,0.169c0.024,0.034,0.049,0.067,0.074,0.102
		c-0.182,0.616-0.36,1.228-0.541,1.844c-0.154,0.575-0.308,1.15-0.488,1.822C106.85,494.515,107.479,494.091,107.99,493.606z
		 M103.143,503.415c-1.694-0.784,4.125-41.878,4.16-42.813c0.094-2.424,0.148-4.857,0.447-7.263
		c0.525-4.25,1.197-8.485,1.852-12.719c0.216-1.387,0.234-2.853,2.091-4.813c0.388,4.007,0.664,7.23-0.168,10.465
		c-0.97,3.772-1.367,7.578-1.057,11.455C115.553,469.362,104.543,502.029,103.143,503.415z M105.318,524.381
		c-1.028-4.903-0.68-8.799,0.962-11.791C106.377,516.514,106.367,519.965,105.318,524.381z M90.716,520.121
		c0.014-0.119,0.028-0.24,0.043-0.36c0.214,0.063,0.433,0.109,0.63,0.2c0.033,0.014-0.039,0.221-0.064,0.342
		C91.122,520.243,90.918,520.183,90.716,520.121z M82.639,534.683c-0.778-1.946,1.26-15.319,7.942-25.961
		c-0.191-0.528-0.21-1.131-0.204-1.699c0.044-4.137,0.113-8.274,0.179-12.414c0.023-1.566-0.218-3.192,0.162-4.684
		c0.379-1.481,1.486-2.792,2.095-4.243c0.78-1.866,1.363-3.802,2.07-5.694c0.235-0.627,0.589-1.217,1.03-2.108
		c0.575,1.048,4.76-17.448,3.652-5.249c0.5,3.729,0.214,7.32-1.236,10.79c0.089,0.25,0.09,0.273-0.001,0.033
		c-0.588-0.356-0.918,8.676-0.914,12.862c0.37,0.393,0.349,1.456,0.066,2.011c0.029,0.145,0.003,0.168-0.052,0.112
		c-1.243,2.479-1.596,5.151-1.986,7.778C95.06,508.803,83.959,531.967,82.639,534.683z M76.144,509.138
		c-0.264-4.309,1.346-8.328,2.504-12.392c2.641,0.34,3.264,0.654,3.214,2.299c-0.08,2.682-0.425,5.357-0.756,8.026
		c-0.188,1.539-0.788,3.057-0.805,4.588c-0.023,2.335-1.465,3.865-2.963,5.92C74.969,514.515,76.308,511.756,76.144,509.138z
		 M61.964,533.176c1.157-2.096,2.266-4.242,4.332-6.243c0.961,2.324,0.331,4.214-0.174,6.084c-0.371,1.367-0.919,2.675-2.395,3.343
		C61.29,534.935,61.116,534.711,61.964,533.176z M60.02,538.653c0.07-0.215,0.337-0.449,0.574-0.521
		c0.146-0.042,0.395,0.204,0.705,0.383c-0.342,0.262-0.652,0.498-0.96,0.734C60.222,539.047,59.969,538.812,60.02,538.653z
		 M53.673,562.958c0.158-0.212,0.273-0.521,0.492-0.605c0.156-0.06,0.45,0.182,0.682,0.287c-0.217,0.288-0.433,0.58-0.65,0.868
		C54.021,563.325,53.847,563.142,53.673,562.958z M49.128,578.506c0.021,0.079,0.037,0.146,0.063,0.231
		c-0.094,0.025-0.162,0.045-0.247,0.069c-0.582,0.994-1.176,2.011-2.017,3.448c-0.046-2.76-0.025-2.876,2.017-3.448
		c0.028-0.048,0.055-0.096,0.083-0.143C49.067,578.613,49.093,578.56,49.128,578.506C48.205,575.24,50.236,576.776,49.128,578.506z
		 M52.998,580.404c-0.047-0.102,0.033-0.247,0.057-0.378l0.379-0.096c-0.027,0.204-0.057,0.408-0.086,0.609
		C53.225,580.497,53.033,580.481,52.998,580.404z M38.649,603.508c1.374-2.491,2.875-4.817,3.975-7.295
		c2.106-4.751,4.733-9.219,7.918-13.416c0.221-0.29,1.756,0.243,1.667,0.562c-0.345,1.233-0.745,2.465-1.265,3.646
		c-1.625,3.688-3.24,7.38-5.01,11.009c-1.187,2.432-2.728,4.701-5.474,5.928C39.824,604.223,38.933,604.374,38.649,603.508z"/>
	<path fill="#E8E9EA" d="M6.382,578.166c2.748-0.322,5.119-0.599,7.491-0.878c0.481-0.057,0.998-0.055,1.434-0.191
		c4.226-1.319,8.479-2.595,12.646-4.011c7.902-2.69,15.447-5.917,23.138-8.925c0.727-0.285,1.447-0.609,2.22-0.787
		c3.65-0.84,7.021-2.007,9.524-4.3c0.187-0.17,0.557-0.26,0.868-0.322c0.299-0.061,0.625-0.037,1.115-0.056
		c0.79,0.891,0.361,1.835-0.215,2.684c-4.162,6.117-8.382,12.212-13.091,18.12c-1.301,1.628-2.808,2.965-5.022,3.931
		c-2.834,1.232-5.451,2.709-7.883,4.73c0.635,0.421,1.184,0.785,2.026,1.344c-0.578,1.207-1.206,2.517-1.835,3.831
		c1.482,0.381,2.337-0.24,3.192-0.809c4.902-3.272,9.749-6.593,14.716-9.808c1.576-1.019,3.752-1.571,5.129-2.696
		c1.455-1.187,2.76-2.479,4.708-3.165c2.748-0.967,3.758-2.586,3.841-4.686c-0.514,0.452-0.947,1.001-1.583,1.313
		c-2.437,1.196-5.064,2.115-8.214,3.27c0.147-0.844,0.042-1.345,0.318-1.657c2.001-2.243,3.353-4.754,5.067-7.104
		c2.104-2.884,3.654-5.994,6.393-8.638c1.201-3.624,3.892-6.706,6.508-9.825c0.864-1.028,1.287-2.254,1.978-3.367
		c1.648-2.665,3.122-5.37,5.542-7.774c1.965-1.945,3.522-4.148,5-6.331c2.203-3.25,5.583-5.777,8.859-8.356
		c1.929-1.519,4.451-1.75,7.193-0.778c2.206-2.681,3.83-5.712,7.34-7.71c0.186-0.105,0.593,0.009,1.274,0.035
		c-1.748,2.675-2.787,5.438-4.609,8.021c-3.441,4.887-6.553,9.902-10.004,14.786c-1.819,2.578-2.842,5.527-5.988,7.531
		c-1.242,2.681-4.256,4.575-5.629,7.286c-1.061,2.097-3.479,3.818-5.256,5.728c-0.729,0.782-1.345,1.621-1.908,2.308
		c0.701,1.128,2.787,0.787,2.763,2.1l0.012-0.009c-1.836,3.663-3.878,7.26-6.389,10.702c-0.617,0.848-1.501,1.604-2.359,2.339
		c-3.568,3.042-6.121,6.692-10.118,9.473c-5.787,4.02-11.779,7.869-18.621,10.845c-6.012,2.616-12.547,3.474-19.387,2.946
		c-1.455-0.11-2.921-0.149-4.378-0.222l0.052,0.012c-0.104,1.539,1.365,2.176,2.924,2.509c4.687,1.001,9.519,1.522,14.409,1.252
		c1.697-0.094,3.423-0.807,4.994-1.438c3.037-1.217,5.948-2.585,9.293-3.346c1.147-0.262,2.238-1.018,3.041-1.743
		c1.056-0.952,2.548-1.04,3.819-1.548c1.132-0.452,2.177-1.091,3.104-1.767c2.578-1.877,5.417-3.558,7.188-6.02
		c0.627-0.872,2.112-1.409,3.145-2.061c1.67,0.896,0.175,2.607,2.219,3.379c3.063-3.787,4.023-8.207,7.014-12.014
		c2.942-3.745,5.506-7.626,9.375-11.05c1.511,1.198,0.88,2.007,0.256,2.694c-1.83,2.025-3.672,4.056-5.686,5.981
		c-1.369,1.308-2.603,2.492-1.764,4.288c0.227,0.492-0.096,1.221-0.419,1.761c-1.07,1.79-1.978,3.684-3.445,5.281
		c-3.906,4.261-6.792,9.017-11.439,12.903c-3.507,2.93-6.854,5.984-10.586,8.743c-6.314,4.67-12.865,9.153-19.761,13.353
		c-1.766,1.076-3.301,2.384-4.812,3.672c-0.545,0.465-0.501,1.143,0.759,1.63c1.178-0.624,2.65-1.202,3.775-2.04
		c1.697-1.266,3.627-2.049,5.881-2.55c1.55-0.344,3.017-0.922,4.604-1.421c0.237-0.906,0.453-1.735,0.727-2.771
		c2.495-1.509,5.068-3.242,7.876-4.729c6.498-3.446,11.833-7.721,16.618-12.442c0.858-0.847,2.107-1.521,3.319-2.107
		c0.973-0.471,2.461,0.38,2.288,1.225c-0.102,0.479-0.214,0.979-0.484,1.415c-1.803,2.891-3.592,5.787-5.506,8.639
		c-1.177,1.756-2.551,3.423-2.54,5.475c0.002,0.462-0.245,0.98-0.578,1.384c-2.612,3.188-3.626,6.828-5.419,10.247
		c-2.989,5.702-5.678,11.489-8.459,17.253c-0.419,0.868-1.203,1.752-0.46,2.754c0.343-0.151,0.726-0.219,0.845-0.388
		c1.149-1.627,2.279-3.267,3.368-4.918c0.578-0.88,1.142-1.775,1.584-2.696c0.479-0.989,1.24-1.72,2.603-2.05
		c1.608-0.39,2.246-1.358,2.658-2.461c0.263-0.707,0.531-1.416,0.779-2.126c1.61-4.576,4.134-8.769,9.029-11.998
		c0.481-0.319,1.115-0.754,1.159-1.158c0.204-1.865,2.011-3.017,3.341-4.37c0.864-0.877,1.746-1.865,2.932-2.421
		c3.043-1.425,4.713-3.72,6.963-5.642c0.153-0.133,0.02-0.45,0.02-0.922c-1.711,0.046-2.887,1.482-4.623,1.208
		c-0.009,0.018-0.017,0.034-0.025,0.052c-0.057,0.042-0.113,0.088-0.17,0.134c-0.036,0.253-0.071,0.507-0.108,0.761
		c-0.206-0.062-0.407-0.126-0.613-0.19c0.239-0.192,0.482-0.381,0.722-0.57c0.009-0.066,0.021-0.135,0.029-0.202
		c0.058,0.013,0.109,0.009,0.166,0.017c0.607-1.109,1.182-2.228,1.832-3.323c0.332-0.559,0.884-1.046,1.187-1.61
		c0.667-1.238,0.9-2.694,1.942-3.704c0.928-0.901,2.553-1.384,3.552-2.431c1.241-1.309,3.074-2.077,5.684-2.314
		c-0.367,1.299-0.659,2.332-0.948,3.367c0.219,1.3,0.364,1.303,2.542,0.995c1.054-0.958,1.166-0.927,2.046,0.168
		c0.032-0.038,0.066-0.073,0.098-0.113l-0.081,0.134c-0.007-0.009-0.012-0.013-0.017-0.021c-0.617,0.711-1.351,1.196-2.594,0.71
		c-0.633,0.87-1.263,1.741-1.889,2.611c0.022-0.002,0.047-0.003,0.066-0.004c0.009-0.033,0.02-0.066,0.029-0.101
		c0.04,0.028,0.078,0.061,0.117,0.091c0.232-0.018,0.46-0.039,0.688-0.043c0.141,0.001,0.305,0.031,0.414,0.093
		c0.092,0.048,0.117,0.164,0.171,0.25c-0.246,0.02-0.531,0.106-0.728,0.042c-0.208-0.067-0.372-0.21-0.545-0.342
		c-0.048,0.003-0.096,0.004-0.146,0.01c-0.898,3.317-2.154,6.52-4.441,9.526c-1.673,2.201-2.81,4.624-4.155,6.897
		c0.976,0.591,1.49,0.104,1.784-0.259c0.844-1.039,1.682-2.103,2.301-3.225c1.875-3.413,3.964-6.72,7.207-9.578
		c0.587-0.517,0.845-1.301,1.039-1.994c0.518-1.864,1.843-3.371,3.472-4.794c1.058-0.925,1.985-1.937,2.946-2.922
		c0.484-0.496,0.803-1.106,1.378-1.524c4.955-3.567,7.377-8.362,11.084-12.532c1.984-2.239,3.985-4.472,6.058-6.668
		c1.865-1.971,3.292-4.133,5.236-6.079c1.95-1.959,3.507-4.137,5.173-6.245c0.405-0.516,0.707-1.129,0.804-1.716
		c0.297-1.813,1.542-3.409,3.28-4.414c3.975-2.295,5.858-5.588,8.227-8.636c1.163-1.491,2.313-2.93,3.848-4.232
		c1.29-1.096,2.318-2.368,3.422-3.582c1.944-2.129,3.871-4.262,5.779-6.406c1.364-1.53,2.759-3.051,3.991-4.639
		c1.06-1.366,3.67-2.277,2.517-4.36c-0.073-0.128,0.282-0.417,0.479-0.608c2.712-2.612,5.366-5.26,8.175-7.816
		c1.662-1.516,3.369-3.079,5.417-4.265c2.996-1.736,5.535-3.795,8.297-5.694c3.984-2.739,8.324-5.174,12.977-7.269
		c2.526-1.135,4.969-2.387,7.537-3.462c1.711-0.716,3.522-1.371,5.386-1.782c4.975-1.093,9.796-2.678,15.019-3.013
		c-0.016-0.03-0.041-0.057-0.058-0.086c0.036-0.018,0.078-0.031,0.117-0.051c-0.128-0.531-0.254-1.058-0.385-1.605
		c-0.608,0.128-0.956,0.137-1.186,0.264c-0.77,0.423-1.445,1.066-2.519,0.487c-0.106-0.058-0.198-0.211-0.175-0.306
		c0.212-0.938,1.354-1.008,2.219-1.177c4.121-0.804,8.026-1.976,11.931-3.282c3.223-1.077,6.638-2.149,10.341-1.963
		c0.524,0.026,1.352-0.171,1.265,1.058c-3.181-0.425-5.193,1.925-8.388,2.05c-0.775,0.029-1.313,0.598-1.222,1.357
		c0.229,1.883-0.052,2.146-2.115,2.167c-0.81,0.009-1.64,0.011-2.429-0.096c-2.626-0.361-5.06-0.002-7.338,1.046
		c0.01,0.042,0.021,0.087,0.03,0.128c-0.029,0.001-0.06,0.006-0.089,0.009c0.729,1.131,2.048,1.472,3.545,1.077
		c3.045-0.799,6.074-0.716,9.151-0.39c0.794,0.087,1.62,0.019,2.433,0.026c4.212,0.053,8.425,0.182,12.639,0.141
		c3.885-0.037,7.777-0.189,11.658-0.406c2.723-0.154,5.442,0.298,8.198-0.335c1.107-0.254,2.51,0.327,3.792,0.457
		c2.327,0.234,4.522,0.067,5.979-1.478c4.516-0.123,8.902,0.398,13.23-0.498c2.901,0.66,5.749-0.642,8.644-0.258
		c0.313,0.042,0.703,0.074,0.964-0.025c4.045-1.582,8.303-0.226,12.429-0.695c2.173-0.249,4.009,0.924,5.962,0.979
		c1.618,0.044,2.23,0.703,3.43,1.389c0.517-0.411,0.99-0.891,1.599-1.232c0.223-0.126,0.768,0.076,1.178,0.117
		c0.02-0.005,0.037-0.009,0.057-0.014c-0.002-0.002-0.005-0.004-0.007-0.005c0.023-0.004,0.046-0.007,0.069-0.011
		c0.776-0.19,1.54-0.375,2.304-0.56c0.027,0.07,0.054,0.14,0.08,0.207c-0.795,0.118-1.588,0.235-2.384,0.353
		c-0.021,0.005-0.041,0.011-0.063,0.016c0.307,0.259,0.624,0.737,0.921,0.726c1.769-0.067,3.567-0.124,5.286-0.424
		c2.897-0.504,5.669-0.756,8.658-0.245c2.228,0.378,4.703,0.992,7.051-0.207c0.447-0.225,1.29-0.116,1.912-0.028
		c3.13,0.455,6.438,0.197,9.392,1.441c1.209,0.508,2.787,0.494,4.279,0.076c1.885-0.525,3.784-0.453,5.764-0.136
		c2.197,0.351,4.486,0.43,6.744,0.554c1.945,0.107,3.775,0.257,5.632,0.895c1.686,0.579,3.737,0.682,5.707,0.185
		c6.449-1.62,12.804-0.897,18.479,1.263c5.834,2.22,11.861,2.241,18.027,2.052c2.765-0.086,5.5-0.2,8.259-0.034
		c1.603,0.099,3.278,0.163,4.845-0.069c3.847-0.576,7.681-0.788,11.586-0.801c1.697-0.003,3.408-0.7,5.31-1.125
		c0.491,0.191,1.177,0.459,1.816,0.71c1.031-0.657,1.945-1.354,3.022-1.86c0.391-0.186,1.225-0.001,1.728,0.197
		c0.212,0.08,0.226,0.671,0.083,0.964c-0.218,0.445-0.837,0.811-0.94,1.251c-0.099,0.412,0.113,0.952,0.443,1.299
		c0.354,0.378,1.584-0.222,1.618-0.944c0.091-1.953,0.794-3.606,3.306-4.576c2.169-3.436,5.895-6.115,8.003-9.659
		c2.255-3.788,4.574-7.55,6.681-11.393c1.705-3.109,2.153-6.387,3.306-9.561c0.464-1.279,1.106-2.547,1.908-3.729
		c0.647-0.953,1.88-0.756,3.146-0.38c1.26-2.771,2.55-5.522,3.761-8.295c2.439-5.592,4.763-11.21,7.278-16.781
		c1.104-2.447,2.014-4.886,2.045-7.48c0.011-0.012-0.066,0.09-0.066,0.09c0.187-2.166,1.892-4.157,1.352-6.437
		c-0.129-0.54,0.714-1.221,1.108-1.837c-1.953-1.004-0.547-2.462-0.771-3.695c-0.129-0.708-0.052-1.466,0.12-2.177
		c2.033-8.39,3.979-16.773,8.429-24.767c1.698-3.047,3.622-5.999,5.481-8.982c0.806-1.295,2.031-2.209,3.981-2.465
		c-0.121-0.198-0.243-0.395-0.364-0.587c0.128,0.188,0.254,0.377,0.381,0.565c1.044,1.36,1.308,2.647-0.215,4.031
		c-0.674,0.61-0.913,1.504-1.26,2.29c-0.061,0.134,0.271,0.435,0.518,0.545c0.238,0.104,0.675,0.153,0.887,0.056
		c0.397-0.185,0.749-0.464,1.03-0.752c1.866-1.902,3.065-4.051,3.945-6.28c0.792-2.012,1.697-3.913,3.512-5.606
		c1.21-1.127,1.924-2.551,2.862-3.84c0.311-0.429,0.498-0.986,0.974-1.25c4.335-2.395,5.48-6.346,8.388-9.438
		c2.92-3.104,5.017-6.583,6.939-10.121c3.642-6.698,6.738-13.527,9.552-20.426c0.854-2.091,1.299-4.278,1.808-6.437
		c1.418-6.005,2.756-12.018,4.157-18.023c0.561-2.405,1.43-4.785,1.754-7.201c0.381-2.844,1.298-5.499,3.367-7.936
		c-2.821,0.581-2.784,0.494-3.485-1.132c-1.566-3.631-1.045-7.14,0.738-10.686c2.184-4.346,4.117-8.759,6.339-13.093
		c0.871-1.699,2.292-3.241,3.343-4.896c0.766-1.208,1.576-2.444,1.952-3.731c1.326-4.534,2.611-9.081,3.636-13.653
		c0.646-2.884,0.867-5.818,1.152-8.733c0.283-2.921,0.521-5.848,0.575-8.771c0.063-3.461,1.16-6.761,2.537-10.043
		c0.782-1.867,1.546-3.743,2.197-5.636c0.717-2.081,0.367-4.129-0.628-6.094c-0.198-0.392-0.78-0.67-1.281-1.079
		c-2.156,1.071-0.416,3.369-3.047,4.245c-0.313-0.272-0.896-0.551-1.028-0.926c-1.798-5.087-2.418-10.273-1.295-15.52
		c0.397-1.856,0.473-3.628-0.104-5.424c-0.802-2.495-0.958-5.016-0.716-7.598c0.271-2.91,0.269-5.833,0.286-8.748
		c0.049-7.928,0.813-15.832,1.935-23.723c0.276-1.94,0.758-3.869,1.261-5.788c0.146-0.56,0.679-1.068,1.03-1.611
		c0-0.019,0-0.038-0.001-0.056c-0.194-0.452-0.843-0.858-0.161-1.47c0.063,0.561,0.112,1.013,0.162,1.465
		c0,0.001,0,0.003-0.001,0.005c0.006,0.01,0.015,0.021,0.018,0.032c-0.004,0.008-0.011,0.016-0.017,0.023
		c0,1.645,0.002,3.289,0,4.934c0.189,0.027,0.379,0.052,0.568,0.079c0.189-0.368,0.563-0.746,0.541-1.103
		c-0.187-3.016,0.237-6.038-0.217-9.064c-0.28-1.867,0.387-3.818,0.492-5.734c0.212-3.89,0.323-7.783,0.498-11.674
		c0.082-1.821,0.067-3.651,0.351-5.459c0.992-6.295,2.105-12.582,3.14-18.875c0.099-0.588,0.205-1.267-0.08-1.778
		c-0.998-1.783-0.628-3.563-0.231-5.386c0.601-2.762,0.947-5.557,2.278-8.215c1.857-3.708,2.236-7.617,3.023-11.467
		c0.786-3.851,1.526-7.709,2.122-11.576c0.374-2.417,0.519-4.858,0.634-7.289c0.178-3.77,0.26-7.541,0.351-11.312
		c0.201-8.237,0.383-16.475,0.571-24.712c-1.297,0.654-0.992,1.744-1.094,2.623c-0.344,2.913-0.354,5.844-0.701,8.757
		c-0.303,2.541-0.909,5.064-1.332,7.598c-0.099,0.589-0.131,1.217,0.032,1.786c1.48,5.096,0.893,10.134-0.887,15.174
		c-0.534,1.513-0.623,3.077-0.688,4.667c-0.182,4.383-0.923,8.758-1.245,13.142c-0.333,4.546-1.356,8.952-3.691,13.216
		c-0.731,1.336-0.883,2.854-1.201,4.3c-0.527,2.397-0.977,4.802-2.115,7.171c-1.657-0.799-2.036-1.956-2.225-3.194
		c-0.63-4.127-2.052-8.082-4.079-11.932c-1.48-2.81-2.797-5.677-4.006-8.562c-1.604-3.826-3.628-7.504-5.979-11.095
		c-2.989-4.567-5.974-9.155-10.225-13.123c-6.057-5.661-12.702-10.901-21.192-14.622c-0.927-0.406-1.807-0.835-2.935-0.733
		c1.149,0.769,2.188,1.683,3.504,2.233c6.627,2.767,11.65,6.85,16.53,11.043c5.989,5.148,10.152,11.191,14.069,17.293
		c2.507,3.905,4.317,8.071,6.382,12.137c2.132,4.195,4.174,8.414,4.887,12.933c0.095,0.599,0.269,1.226,0.623,1.756
		c2.337,3.49,2.265,7.319,2.279,11.07c0.02,4.995-0.556,9.981-1.925,14.925c-1.533,5.533-1.605,11.169-2.005,16.774
		c-0.582,8.158-1.006,16.322-1.561,24.481c-0.454,6.7-1.014,13.398-1.499,20.097c-0.681,9.383-1.101,18.776-2.094,28.143
		c-0.514,4.824-0.686,9.717-2.591,14.452c-0.801,1.987-1.164,4.068-1.819,6.091c-0.384,1.184-0.632,2.498-1.513,3.467
		c-1.444,1.584-1.933,3.314-2.551,5.076c-0.508,1.443-0.976,2.767-0.052,4.252c0.51,0.817,0.393,1.918,0.31,2.883
		c-0.343,4.013-0.536,8.027-1.653,12.006c-0.841,2.987-1.086,6.058-1.839,9.062c-1.354,5.407-2.985,10.78-4.324,16.191
		c-1.43,5.771-2.63,11.571-3.98,17.354c-0.646,2.773-1.374,5.538-2.141,8.297c-0.196,0.702-0.604,1.396-1.069,2.03
		c-0.189,0.256-0.828,0.51-1.202,0.471c-0.586-0.06-1.466-0.28-1.605-0.593c-0.401-0.904-0.694-1.888-0.674-2.843
		c0.067-3.168,0.275-6.339,0.462-9.508c0.105-1.821,0.212-3.593-0.376-5.427c-0.514-1.604-0.167-3.384-0.124-5.088
		c0.146-5.735,0.293-11.461-0.385-17.182c-0.388-3.268-0.199-6.58-0.354-9.869c-0.063-1.302-0.354-2.594-0.539-3.882
		c-1.399,0.061-1.003,0.648-1.016,1.047c-0.26,7.185-0.504,14.369-0.753,21.552c-0.017,0.488,0.133,1.026-0.1,1.452
		c-1.439,2.616-0.792,5.27-0.729,7.942c0.104,4.246,0.442,8.506-1.41,12.705c-0.646,1.461-0.613,3.166-0.428,4.723
		c0.438,3.688-0.627,7.301-1.102,10.926c-0.429,3.258-1.707,6.478-2.772,9.685c-0.751,2.267-1.541,4.508-1.555,6.854
		c-0.004,0.603-0.014,1.257-0.305,1.805c-2.424,4.564-3.708,9.375-5.797,13.999c-1.726,3.819-4.192,7.462-6.375,11.169
		c-0.991,1.684-2.201,3.302-3.104,5.008c-0.597,1.124-0.779,2.361-1.23,3.53c-0.292,0.754,0.045,1.75-1.613,2.276
		c-0.493-4.565-1.333-8.981-1.472-13.457c-0.242-7.79-0.541-15.578-0.714-23.371c-0.206-9.411-2.051-18.688-3.37-28.005
		c-0.39-2.747-1.803-5.392-2.586-8.11c-0.441-1.528-0.604-3.109-0.804-4.675c-0.241-1.931-0.313-3.877-0.604-5.803
		c-0.309-2.054-0.888-4.081-1.171-6.137c-0.235-1.698-0.64-3.208-1.897-4.76c-1.186-1.463-1.432-3.457-1.651-5.253
		c-0.593-4.845-0.962-9.709-1.396-14.565c-0.065-0.727-0.128-1.472,0.01-2.188c0.88-4.508,0.388-8.988,0.116-13.487
		c-0.19-3.154,0.091-6.335,0.221-9.502c0.477-11.519-0.681-22.901-4.016-34.116c-0.882-2.963-1.637-5.945-3.827-8.563
		c-0.338-0.404-0.692-0.868-0.749-1.329c-0.521-4.17-3.073-7.916-4.112-11.963c-0.46-1.788-2.386-3.219-1.956-5.181
		c-1.798-4.223-1.558-8.759-3.361-12.997c0.029,1.557,0.059,3.113,0.091,4.827c-0.571-0.025-1.17-0.051-2.091-0.091
		c-0.531,1.375-0.179,2.736,0.283,4.126c2.034,6.125,4.196,12.215,7.287,18.088c3.345,6.356,4.564,13.138,6.679,19.745
		c1.191,3.722,1.302,7.444,1.38,11.2c0.062,2.913-0.174,5.836-0.379,8.753c-0.153,2.192-0.422,4.384-0.74,6.569
		c-0.085,0.574-0.34,1.298-0.87,1.649c-1.367,0.904-1.182,2.024-0.976,3.056c0.896,4.477,0.33,9.007,0.616,13.507
		c0.187,2.935,0.542,5.826,1.233,8.698c0.462,1.917,0.86,3.818,0.599,5.803c-0.158,1.203-0.12,2.478,0.247,3.641
		c1.201,3.779,1.487,7.664,2.217,11.497c0.596,3.117,0.835,6.28,1.271,9.418c0.157,1.124-0.06,2.154-1.013,3.067
		c0.038,0.036,0.064,0.073,0.104,0.107c-0.08,0.014-0.164,0.022-0.247,0.031c-0.164,0.148-0.32,0.3-0.5,0.437
		c-0.1,0.076-0.268,0.104-0.405,0.153c0.084-0.159,0.11-0.392,0.265-0.461c0.186-0.08,0.412-0.104,0.641-0.129
		c0.035-0.032,0.071-0.063,0.106-0.095c0.016-0.014,0.022-0.029,0.037-0.044c-1.091-1.017-1.706-2.12-1.752-3.519
		c-0.053-1.679-0.408-3.377-0.934-5.011c-1.33-4.117-1.971-8.287-2.009-12.539c-0.009-1.058-0.607-2.104-0.977-3.285
		c1.278-1.342,1.703-2.931,1.469-4.704c-0.27-2.044-0.24-4.089-1.258-6.063c-0.566-1.099-0.557-2.379-0.74-3.585
		c-0.438-2.89-0.865-5.783-1.248-8.679c-0.77-5.804-1.756-11.581-3.559-17.247c-0.597-1.876-1.422-3.707-2.115-5.564
		c-3.071-8.237-8.607-15.591-14.219-22.917c-0.477-0.623-1.108-1.178-1.669-1.765c-3.355-3.52-6.712-7.038-10.123-10.614
		c0.753-0.411,1.25-0.682,1.734-0.945c-2.059-1.949-4.082-3.919-6.181-5.843c-2.715-2.489-5.547-4.906-8.216-7.422
		c-1.691-1.593-3.528-2.659-6.411-1.875c0.096,0.214,0.143,0.473,0.34,0.599c8.404,5.305,13.886,12.328,19.863,19.062
		c2.145,2.416,4.345,4.804,6.515,7.206c7.693,8.512,12.932,17.828,15.688,27.947c0.29,1.066,0.614,2.181,0.494,3.251
		c-0.307,2.729,0.402,5.332,1.053,7.966c1.803,7.295,3.27,14.632,4.615,21.992c1.26,6.895,1.484,13.836,2.357,20.741
		c0.06,0.482,0.008,0.976,0.032,1.463c0.164,3.285,0.461,6.567,0.476,9.854c0.025,5.846,0.449,11.65,2.435,17.592
		c-0.817-0.203-1.2-0.297-1.696-0.421c0.025,0.326-0.098,0.722,0.101,0.97c1.52,1.907,1.564,4.149,2.358,6.216
		c0.273,0.712-0.239,1.601-0.424,2.563c-1.83-0.423-0.727-1.967-2.363-2.33c-0.06,1.108-0.184,2.171-0.163,3.231
		c0.085,4.259,0.177,8.517,0.339,12.774c0.087,2.312,0.322,4.62,0.483,6.93c0.202,2.908,0.396,5.816,0.603,8.842
		c0.434-0.148,0.943-0.325,1.729-0.595c0.706,1.905,0.726,3.819,0.388,5.708c-0.304,1.709-0.388,3.358-0.156,5.083
		c0.275,2.037-0.074,4.13-0.155,6.2c-0.016,0.366-0.127,0.744-0.05,1.096c1.025,4.67-0.951,8.975-3.464,13.128
		c-2.479,4.095-3.596,8.36-4.446,12.733c-0.472,2.405-1.176,4.824-2.187,7.141c-2.077,4.764-4.415,9.467-6.676,14.187
		c-1.935,4.04-3.896,8.073-5.878,12.1c-0.676,1.38-1.461,2.727-2.174,4.095c-1.408,2.702-2.801,5.41-4.366,8.437
		c1.479-0.097,2.658-0.172,3.787-0.246c1.335,0.67,1.531,1.641,1.168,2.618c-1.662,4.459-2.565,9.106-6.428,13.015
		c-1.249,1.263-1.951,2.821-2.958,4.224c-0.694,0.968-1.467,1.907-2.257,2.834c-0.134,0.157-0.531,0.193-0.982,0.343
		c-0.11-0.325-0.397-0.671-0.288-0.925c1.804-4.196,3.631-8.386,5.522-12.562c0.471-1.036,1.248-1.996,1.777-3.02
		c0.35-0.679,0.638-1.399,0.716-2.114c0.071-0.655-0.467-1.118-1.566-1.184c-0.274,0.231-0.729,0.459-0.878,0.764
		c-3.596,7.379-6.484,14.913-9.298,22.464c-0.214,0.572-0.201,1.193-0.309,1.807c-0.004,0.014-0.003,0.029-0.004,0.043
		c0.024-0.044,0.053-0.088,0.076-0.13c-0.043,0.225-0.085,0.454-0.127,0.681c0.012-0.18,0.026-0.359,0.051-0.551
		c-0.545,0.974-1.295,1.93-1.504,2.938c-0.394,1.894-1.565,3.454-2.978,4.991c-1.48,1.611-2.815,3.273-4.026,5.03
		c-2.156,3.125-4.822,6.068-7.436,9.011c-2.553,2.874-5.609,5.452-8.759,7.988c-2.796,2.254-6.318,3.461-9.943,4.544
		c-1.298,0.386-2.969,0.494-4.309,0.255c-2.659-0.474-7.787-1.973-7.787-1.973s-0.515-0.563-0.953-1.079
		c0.718-0.19,1.261-0.354,1.816-0.479c4.018-0.888,4.019-0.884,5.543-4.236c0.85-0.271,1.917-0.559,2.914-0.946
		c0.709-0.275,1.549-0.586,1.94-1.059c1.439-1.742,3.517-2.863,5.838-3.83c0.763-0.317,1.123-0.886,0.347-1.703
		c-3.288,0.191-6.648,0.742-9.666,1.946c-3.732,1.491-7.459,1.507-11.396,0.983c-3.027-0.402-6.11-0.593-9.165-0.891
		c-1.284-0.129-2.562-0.297-3.839-0.453c-1.441-0.177-2.87-0.439-4.321-0.531c-9.597-0.604-18.874-2.374-28.19-3.97
		c-3.144-0.538-6.192-1.406-9.217-2.254c-7.375-2.067-15.084-2.622-22.916-2.914c-7.318-0.272-14.612-0.519-21.948-0.033
		c-1.271,0.083-2.607-0.06-3.853-0.281c-2.999-0.529-6.012-1.055-8.929-1.78c-10.298-2.561-20.988-2.968-31.769-2.97
		c-3.567,0.001-7.129-0.189-10.695-0.245c-1.455-0.023-2.923-0.004-4.366,0.133c-1.944,0.18-3.817,0.357-5.81,0.066
		c-1.344-0.196-2.947,0.06-4.299,0.416c-7.916,2.089-16.185,3.021-24.26,4.574c-0.609,0.118-1.298,0.144-1.913,0.066
		c-4.217-0.537-8.402-0.266-12.591,0.329c-1.123,0.158-2.25,0.384-3.38,0.423c-6.958,0.228-13.337,2.323-19.939,3.692
		c-0.772,0.158-1.458,0.552-2.2,0.816c-2.364,0.847-4.749,1.577-7.308,2.103c-2.798,0.576-5.524,1.557-8.063,2.653
		c-4.264,1.842-8.269,4.019-12.532,5.858c-4.109,1.774-8.362,3.347-12.701,4.812c-6.202,2.093-11.475,5.22-15.621,9.351
		c-0.972,0.969-2.135,1.838-3.309,2.679c-1.887,1.354-3.938,2.585-5.75,3.989c-0.762,0.592-1.497,1.484-1.542,2.254
		c-0.15,2.549-2.321,4.269-4.133,6.151c-0.96,0.999-1.984,1.963-2.967,2.934c0.249-0.107,0.48-0.206,0.714-0.304
		c-0.22,0.098-0.438,0.196-0.661,0.296c-2.221,1.963-4.463,3.912-6.652,5.893c-0.729,0.658-1.341,1.393-1.987,2.099
		c-1.556,1.706-2.581,3.7-4.87,5.014c-2.052,3.54-6.127,6.016-8.797,9.245c-2.073,2.509-4.868,4.557-8.211,6.26
		c-2.815,1.437-5.219,3.328-7.936,5.104c0.517,2.711-1.022,4.982-2.684,7.265c-4.159,5.704-9.578,10.478-17.033,13.984
		c-6.665,3.138-13.113,6.568-20.25,9.068c-6.666,2.331-13.087,5.075-20.087,6.878c-2.753,0.708-5.323,1.862-7.905,2.918
		c-0.809,0.331-1.574,0.921-1.992,1.531C5.866,577.195,6.302,577.829,6.382,578.166z M516.521,224.563
		c0.059-0.085,0.091-0.205,0.183-0.243c0.092-0.036,0.241,0.011,0.366,0.021c0.008,0.093,0.016,0.186,0.022,0.277
		C516.903,224.6,516.712,224.582,516.521,224.563z M516.402,229.903c0.083-0.044,0.209-0.144,0.245-0.128
		c0.1,0.042,0.159,0.133,0.234,0.205c-0.137,0.068-0.272,0.137-0.411,0.207C516.448,230.092,516.426,230,516.402,229.903z
		 M588.596,221.744c0,0.002-0.001,0.006-0.001,0.01c0.082,0.181,0.164,0.362,0.246,0.543c-0.085-0.169-0.169-0.339-0.251-0.508
		c0.001-0.012,0.003-0.024,0.005-0.035c-0.001-0.004-0.002-0.006-0.003-0.008C588.593,221.744,588.595,221.744,588.596,221.744
		c0.089-0.554,0.178-1.119,0.34-2.146C589.692,220.752,589.731,221.321,588.596,221.744z M590.516,214.865
		c-0.021-0.792-0.13-1.376-0.034-1.946c0.694-4.1,1.432-8.197,2.15-12.296c0.296-1.688,0.558-3.378,0.889-5.062
		c0.091-0.465,0.351-0.936,1.229-0.823c0.695,2.065,1.406,4.131,2.072,6.204c0.109,0.342,0.047,0.723,0.026,1.087
		c-0.117,2.06-0.276,4.12-0.36,6.182c-0.054,1.285-0.708,2.357-1.859,3.295C593.347,212.548,592.068,213.595,590.516,214.865z
		 M582.485,255.743c1.179-2.2,2.45-4.564,3.711-6.932c0.726-1.361,1.691-2.688,2.091-4.097c0.674-2.375,0.974-4.803,1.453-7.208
		c0.069-0.351,0.146-0.773,0.438-1.016c1.371-1.133,1.013-2.528,1.267-3.832c0.211-1.082,0.406-2.167,0.719-3.234
		c0.189-0.645,0.89-0.941,1.7-1.048c0.002-0.017,0.004-0.033,0.005-0.05c0.004-0.025,0.011-0.051,0.017-0.078
		c-0.227-0.435-0.453-0.87-0.679-1.306c0.973,0.296,0.782,0.807,0.679,1.306c0.02,0.039,0.039,0.077,0.059,0.114
		c-0.027,0.003-0.052,0.012-0.08,0.014c-0.173,2.42-0.546,4.847-0.471,7.256c0.194,6.242-2.516,11.999-5.357,17.75
		c-0.345,0.697-0.894,1.229-2.001,1.471c-0.65,0.143-1.109,0.753-1.699,1.111C583.829,256.273,583.261,256.589,582.485,255.743z
		 M479.663,443.521c-0.321,0.288-0.706,0.533-1.079,0.788c-0.018,0.06-0.038,0.116-0.058,0.174
		c-0.025,0.012-0.045,0.025-0.069,0.036c0.724,1.104-0.086,1.802-1.245,2.403c0.014,0.026,0.021,0.053,0.036,0.078
		c-0.035,0.014-0.076,0.024-0.112,0.037c-0.146,2.283-2.048,4.011-3.557,5.841c-0.625,0.761-1.249,1.688-2.727,1.862
		c-0.076-0.315-0.271-0.594-0.16-0.743c1.613-2.138,3.229-4.272,4.948-6.363c0.256-0.309,0.956-0.416,1.495-0.597
		c0.001-0.028,0.009-0.052,0.011-0.079c0.022-0.011,0.042-0.025,0.065-0.036c-0.593-1.076,0.017-1.823,1.245-2.403
		c-0.021-0.03-0.028-0.057-0.053-0.088c0.06-0.041,0.121-0.08,0.18-0.122c0.115-0.384,0.226-0.767,0.373-1.144
		c0.03-0.076,0.268-0.109,0.409-0.164C479.475,443.183,479.737,443.456,479.663,443.521z M510.396,376.807
		c-0.22,2.929-0.262,5.078-0.565,7.21c-0.521,3.643-1.782,10.91-1.782,10.91s-0.24,4.558-0.339,6.848
		c0.009,0.188,0.02,0.377,0.03,0.566c-0.021-0.198-0.042-0.396-0.063-0.595c-1.396,1.336-0.768,3.33-2.612,4.674
		c-1.198-2.542-0.656-10.371,1.403-21.091C506.992,382.596,507.786,379.909,510.396,376.807z M511.321,364.667
		c-0.091,0.418-0.133,0.848-0.292,1.25c-0.074,0.188-0.377,0.329-0.576,0.489c-0.127-0.177-0.385-0.366-0.357-0.536
		c0.068-0.441,0.262-0.871,0.404-1.307C510.774,364.599,511.048,364.632,511.321,364.667z M519.474,341.341
		c-0.146,0.021-0.293,0.043-0.44,0.064c-0.105-0.441-0.211-0.883-0.317-1.325c0.147-0.021,0.294-0.043,0.441-0.064
		C519.263,340.458,519.368,340.899,519.474,341.341z M520.408,324.482c0.42-0.549,0.078-1.403,0.148-2.113
		c0.14-1.402-0.321-2.848,1.274-4.175c0.164,0.451,0.458,0.9,0.471,1.356c0.071,2.785,0.233,5.573,0.06,8.355
		c-0.149,2.417-0.626,4.833-1.121,7.231c-0.194,0.95-0.3,2.059-2.082,3.007c0.193-1.625,0.393-2.81,0.458-3.995
		c0.094-1.688,0.18-3.385,0.102-5.069C519.646,327.518,519.243,326,520.408,324.482z M517.361,300.341
		c-0.063,0.832,0.154,1.668,0.17,2.505c0.017,0.849,0.661,1.813-0.614,2.576c-1.658-1.579-2.431-3.204-1.938-5.084
		c0.264-1.002,0.078-2.19,1.789-2.799C517.658,298.443,517.434,299.384,517.361,300.341z M527.435,356.236
		c0.983-3.264,0.95-6.541,0.821-9.832c-0.095-2.434-0.144-4.869-0.162-7.304c-0.002-0.275,0.328-0.56,0.535-0.887
		c0.393,0.261,0.784,0.395,0.808,0.561c0.312,2.292,0.658,4.587,0.819,6.889c0.152,2.181-0.194,4.407,0.211,6.549
		c0.456,2.401-0.598,4.575-1.187,6.828c-0.087,0.333-0.786,0.581-1.449,1.043C526.994,358.625,527.087,357.385,527.435,356.236z
		 M520.043,368.242c-0.944,0.829-1.98,1.545-3.691,1.873c0.406-1.698,0.813-3.217,1.115-4.747c0.115-0.583-0.056-1.769-0.056-1.769
		s-0.125-5.481,0.84-8.165c0.379-1.048,1.116-2.04,1.391-3.098c0.869-3.353,1.574-6.728,2.423-10.082
		c0.084-0.333,0.73-0.597,1.583-1.252c0.379,1.532,0.77,2.571,0.87,3.629c0.192,2.063,0.21,4.138,0.323,6.207
		c0.121,2.2-0.03,4.375-0.962,6.509c-0.177,0.408-0.231,0.995,0.035,1.327c2.165,2.687,1.055,5.063-1.301,7.333
		C521.809,366.783,520.895,367.492,520.043,368.242z M511.204,395.282c0.941-1.665,1.885-3.33,2.835-5.007
		c-0.788-2.488-0.892-2.759-0.07-4.181c1.6-2.768,3.318-5.498,5.033-8.212c-0.023-0.055-0.052-0.104-0.072-0.158
		c0.05,0.023,0.099,0.054,0.146,0.081c0.732-0.327,1.467-0.656,2.439-1.091c-0.57,1.496-0.571,1.498-2.187,1.194
		c-0.091-0.017-0.172-0.061-0.253-0.104c-0.012,0.004-0.023,0.01-0.037,0.017c-0.012,0.02-0.024,0.04-0.037,0.061
		c0.182,0.399,0.4,0.796,0.478,1.207c0.769,4.097-0.672,7.961-2.955,11.625c-1.126,1.804-2.265,3.865-5.306,4.55
		c0.125,0.2,0.249,0.396,0.375,0.594C511.462,395.667,511.333,395.474,511.204,395.282z M507.878,418.179
		c0.447-0.726,1.029-1.406,1.565-2.104c-0.01-0.055-0.022-0.113-0.032-0.169c0.056-0.072,0.104-0.136,0.156-0.204
		c0.331-2.177,0.923-4.326,2.645-6.944c-0.589,4.149-0.641,4.332-2.645,6.944c-0.013,0.091-0.028,0.179-0.042,0.269
		c-0.026,0.035-0.055,0.07-0.082,0.104c0.143,0.782,0.331,1.563,0.352,2.348c0.006,0.231-0.523,0.579-0.902,0.693
		C508.366,419.276,507.613,418.612,507.878,418.179z M494.173,408.477c0.531-1.731,1.025-3.255,1.462-4.785
		c0.76-2.669,2.518-5.305,0.682-8.073c-0.185-0.281-0.054-0.735,0.084-1.076c0.842-2.093,1.709-4.18,2.627-6.254
		c0.129-0.295,0.585-0.51,1.001-0.853c0.361,0.353,0.636,0.617,0.906,0.883c0.759,0.418,0.755,0.946,0.373,1.533
		c-0.036,0.835-0.056,1.668-0.109,2.502c-0.1,1.564-0.346,3.137-0.284,4.695c0.043,1.078,0.512,2.14,0.77,3.215
		c0.293,1.226,0.313,2.479-0.751,3.508c-1.103,1.069-2.014,2.159-2.731,3.414C497.617,408.202,496.131,408.596,494.173,408.477z
		 M483.067,444.504c-0.59,0.528-1.114,1.201-2.245,1.101c0.007,0.014,0.006,0.027,0.014,0.041c-0.02,0.021-0.039,0.046-0.057,0.069
		c0.231,0.526,0.189,1.012-1.247,1.484c0.595-0.708,0.928-1.105,1.247-1.484c-0.019-0.04-0.032-0.076-0.052-0.116
		c0.034,0.006,0.063,0.003,0.095,0.006c-0.561-1.402,0.463-2.571,1.136-3.783c1.887-3.401,3.594-6.836,4.932-10.387
		c1.374-3.65,3.134-7.229,4.841-10.806c0.935-1.959,2.08-3.865,3.198-5.771c0.296-0.505,0.848-0.929,1.89-2.04
		c0.006,2.785,0.371,4.84-0.056,6.809c-1.043,4.81-2.146,9.627-4.119,14.308c-0.694,1.65-1.478,3.245-2.994,4.603
		C487.438,440.513,485.279,442.526,483.067,444.504z M469.836,485.821c1.418-1.702,3.112-2.163,5.182-2.781
		c-0.071,1.626-1.459,2.094-2.616,2.587C471.859,485.858,471.064,485.744,469.836,485.821z M462.434,487.813
		c-0.005-0.182,0.247-0.485,0.469-0.538c1.027-0.244,2.086-0.444,2.984,0.262c-0.787,0.782-1.796,0.972-2.935,0.759
		C462.723,488.253,462.438,487.986,462.434,487.813z M455.907,480.615c-0.014-0.12-0.102-0.312-0.031-0.354
		c3.717-2.204,7.256-4.625,11.233-6.523c3.235-1.543,6.143-3.255,8.764-5.316c0.964-0.762,1.739-1.779,3.357-1.895
		c-0.822-0.319-1.641-0.638-2.095-0.813c-2.084,0.12-2.852,1.665-4.904,1.608c0.114-0.775,0.028-1.409,0.313-1.937
		c3.043-5.61,6.928-10.842,12.773-15.152c0.246-0.182,0.84-0.104,1.491-0.169c-0.183,0.637-0.229,1.129-0.466,1.567
		c-0.986,1.821-1.785,3.73-3.12,5.403c-1.384,1.735-1.517,3.639-2.235,5.46c-0.267,0.679-0.717,1.394-0.637,2.057
		c0.318,2.648-1.096,4.808-3.436,6.646c-2.378,1.867-4.954,3.594-7.452,5.376c-3.601,2.569-8.074,3.681-12.781,4.372
		C456.459,480.98,456.168,480.733,455.907,480.615z M452.9,478.5c0.082-0.089,0.149-0.227,0.257-0.25
		c0.114-0.025,0.27,0.06,0.406,0.094c-0.086,0.089-0.173,0.178-0.258,0.267C453.17,478.572,453.035,478.537,452.9,478.5z
		 M448.542,475.489c0.226-0.483,0.263-0.899,0.558-1.142c4.961-4.063,9.751-8.23,14.423-12.479c0.387-0.352,1.059-0.527,2.493-1.217
		c-0.771,1.661-1.052,2.62-1.649,3.454c-0.689,0.959-1.645,1.815-2.513,2.702c-0.583,0.592-1.223,1.15-1.826,1.731
		c-3.206,3.091-3.206,3.093-4.278,6.57C453.481,475.583,451.187,476.616,448.542,475.489z M92.214,587.613
		c-0.071,0.085-0.167,0.249-0.203,0.24c-0.208-0.036-0.403-0.113-0.599-0.179c0.076-0.078,0.154-0.156,0.234-0.239
		C91.826,587.492,92.018,587.551,92.214,587.613z M96.056,581.078c0.021,1.707-0.533,2.443-1.972,2.887
		C94.588,583.225,95.094,582.487,96.056,581.078z M77.635,579.743c0.276,1.302-0.407,1.526-1.903,1.36
		C76.412,580.618,76.921,580.253,77.635,579.743z M133.106,500.989c0.359,0.722,0.882,1.224,0.721,1.54
		c-0.911,1.815-1.794,3.669-3.053,5.357c-1.748,2.346-3.792,4.572-5.766,6.821c-0.805,0.917-1.696,1.801-2.67,2.622
		c-0.705,0.596-1.642,0.787-3.12-0.064c1.096-2.965,3.037-5.891,5.043-8.745C126.309,505.604,129.431,503.294,133.106,500.989z
		 M152.264,476.697c-0.672,3.002-2.533,5.251-4.632,7.406c-1.528,1.573-3.105,3.099-4.186,4.902
		c-1.289,2.154-3.58,3.736-5.946,5.274c-1.633,1.063-3.291,1.528-5.372,0.973c-0.6-0.91-1.908-1.616-1.444-3.135
		c1.655,0.332,2.593-0.392,3.469-1.361c3.103-3.438,6.093-6.925,9.396-10.272C145.842,478.166,148.683,477.422,152.264,476.697z
		 M140.173,513.6c-0.217-0.472-0.477-0.736-0.384-0.876c1.077-1.623,2.196-3.229,3.329-4.831c0.146-0.206,0.396-0.42,0.665-0.52
		c1.246-0.461,2.518-0.882,4.147-1.443C147.33,509.841,142.881,511.116,140.173,513.6z M147.701,537.715
		c0.097-0.033,0.602,0.373,0.568,0.413c-0.227,0.264-0.545,0.48-0.838,0.714c-0.201-0.157-0.403-0.312-0.73-0.563
		C147.04,538.074,147.339,537.839,147.701,537.715z M190.354,472.282c0.023,0.086-0.069,0.189-0.11,0.285
		c-0.163-0.094-0.325-0.187-0.488-0.282c0.11-0.063,0.217-0.122,0.326-0.184C190.176,472.161,190.334,472.208,190.354,472.282z
		 M209.028,467.001c0.926-0.164,2.16-0.324,2.864-0.01c1.817,0.81,3.445,0.168,5.144-0.091c1.425-0.217,2.833-0.55,4.27-0.665
		c0.683-0.053,1.644,0.025,1.768,1.05c-1.085,0.397-2.21,0.87-3.398,1.229c-2.127,0.639-4.374,1.074-6.413,1.84
		c-2.687,1.014-5.469,1.603-8.4,1.943c-1.765,0.207-3.696,0.332-5.205,0.966c-2.792,1.17-5.714,1.798-8.782,2.225
		c-0.598,0.082-1.521,0.366-1.63,0.681c-0.665,1.887-2.875,2.232-4.774,2.874c-3.267,1.105-6.613,2.083-9.433,3.827
		c-0.139,0.084-0.57-0.098-0.862-0.159c0.762-1.439,0.677-1.53,2.049-2.245c1.811-0.945,2.514-2.184,2.394-3.754
		c-4.271,0.318-6.141,1.064-8.18,3.246c-0.657,0.702-1.149,1.634-2.048,2.04c-3.751,1.707-6.318,4.264-8.691,6.494
		c-2.981,0.798-5.538,1.486-8.682,2.329c1.392-1.385,2.714-2.222,4.042-3.078c1.486-0.965,3.048-1.908,4.273-3.045
		c3.399-3.145,6.686-6.358,9.912-9.604c0.902-0.909,1.836-1.399,3.284-1.086c1.503,0.326,2.76,0.103,4.165-0.502
		c1.93-0.83,3.255-0.464,4.476,0.927c0.336,0.382,0.484,0.858,0.716,1.29c0.638-0.094,1.163-0.079,1.558-0.244
		c2.577-1.074,5.138-2.138,8.182-2.276c0.544-0.026,1.167-0.419,1.587-0.759C197.506,468.977,203.292,468.018,209.028,467.001z
		 M161.909,497.4c-1.487,1.567-2.671,3.347-5.186,4.138c-0.712,0.228-1.585,0.411-1.885-0.729
		C157.144,499.746,158.647,497.724,161.909,497.4z M202.114,462.057c1.338-0.07,2.675-0.143,4.013-0.213
		C204.713,462.381,203.437,462.854,202.114,462.057z M277.634,453.309c-2.532,0.607-5.159,0.809-7.934,0.267
		c-2.449-0.48-4.964-0.882-8.083-0.421c0.948,0.823,1.57,1.363,2.472,2.146c-1.366,0.294-2.264,0.581-3.191,0.668
		c-3.234,0.304-6.486,0.48-9.711,0.819c-2.082,0.217-4.132,0.637-6.196,0.954c-1.899,0.293-3.795,0.729-5.708,0.819
		c-4.86,0.223-9.727,0.273-14.593,0.428c-0.963,0.03-1.95,0.15-2.883,0.35c-5.866,1.256-11.862,1.467-17.872,1.479
		c-2.671,0.003-5.2,0.063-6.953,1.935c-0.163,0.172-0.603,0.322-0.868,0.293c-0.571-0.064-1.407-0.143-1.589-0.422
		c-0.199-0.302,0.042-1.039,0.414-1.227c0.775-0.396,1.737-0.655,2.664-0.796c2.393-0.361,4.799-0.537,6.613-2.086
		c0.56-0.481,1.759-0.563,2.682-0.786c5.529-1.343,11.152-1.451,16.883-1.271c4.993,0.159,10.08,0.145,14.692-1.943
		c0.934-0.423,2.142-0.55,3.248-0.695c2.234-0.295,4.488-0.502,6.731-0.757c2.249-0.257,4.495-0.526,7.183-0.841
		c1.171-1.391,2.592-1.906,4.922-1.617c3.981,0.491,8.057,0.607,12.092,0.884c1.286,0.089,2.591,0.121,3.85,0.306
		C277.285,451.912,277.973,452.278,277.634,453.309z M243.462,464.5c0.053,0.132,0.101,0.261,0.153,0.389
		c-0.136,0.005-0.296,0.043-0.4,0.003c-0.075-0.03-0.078-0.162-0.112-0.248C243.222,464.595,243.343,464.548,243.462,464.5z
		 M259.302,464.575l-0.305,0.188l-0.094-0.226L259.302,464.575z M281.086,460.178c-1.65-0.022-2.827-0.04-4.007-0.058
		C279.492,459.378,279.494,459.402,281.086,460.178z M292.525,460.34c-0.163,0.14-0.306,0.365-0.497,0.394
		c-0.241,0.036-0.519-0.09-0.786-0.145c0.165-0.141,0.307-0.371,0.497-0.398C291.98,460.156,292.261,460.283,292.525,460.34z
		 M300.414,453.358c-2.599,0.532-5.116,0.75-7.653,0.595c-0.307-0.019-0.754-0.475-0.771-0.747
		c-0.015-0.261,0.399-0.749,0.698-0.787C295.388,452.064,298.015,452.198,300.414,453.358z M356.72,457.611
		c-4.344,0.592-10.023,0.304-14.41-0.9C349.949,455.797,354.298,456.111,356.72,457.611z M363.677,461.958
		c-0.147,0.022-0.295,0.043-0.442,0.065 M414.533,473.712c1.224-0.02,1.671,0.007,2.107-0.036c2.63-0.261,4.491,0.657,5.941,2.141
		c0.158,0.162-0.136,0.578-0.308,1.191C419.944,475.703,416.882,475.98,414.533,473.712z M341.545,473.638
		c0.121-0.253,0.09-0.559,0.38-0.743c0.671-0.426,1.396-0.904,2.276-1.165c8.448-2.502,17.028-3.41,25.769-2.789
		c15.698,1.11,29.624,4.364,44.663,6.276c2.171,0.275,3.941,1.404,2,3.168c-2.943,0.628,1.191,3.62,1.191,3.62
		c1.886,0.289,25.495,6.313,25.495,6.313c-8.254,1.31-54.927-11.159-54.927-11.159S342.804,475.925,341.545,473.638z
		 M348.832,487.033l0.324,0.022l-0.225,0.171L348.832,487.033z M341.733,479.774c3.758-0.371,7.065,0.647,10.468,1.166
		c0.424,0.065,0.686,0.684,1.049,1.029c0.016,0.001,0.031,0.005,0.047,0.007c0.308-0.066,0.616-0.131,0.922-0.197
		c-0.316,0.07-0.634,0.138-0.955,0.207c-0.004-0.005-0.007-0.01-0.014-0.017c-3.146-0.37-6.304-0.715-9.44-1.128
		C343.007,480.736,342.003,480.664,341.733,479.774z M328.572,465.536c0.138-0.722,0.286-1.503,0.455-2.309
		c-0.016,0.005-0.034,0.013-0.052,0.017c-0.165-0.711-0.333-1.42-0.498-2.128c-1.193-0.356-2.365-0.76-3.593-1.038
		c-0.49-0.112-1.104,0.057-2.771,0.177c1.746,0.746,2.582,1.03,3.302,1.432c0.599,0.336,1.339,0.755,1.505,1.24
		c0.158,0.466-0.345,1.065-0.639,1.808c-4.985-0.947-9.677-1.796-14.119-3.255c0.772-2.017-0.023-2.905-2.387-2.528
		c-1.229,0.195-2.377,0.702-3.58,1.072c-1.22-0.505-1.863-1.554-3.585-1.572c-1.196-0.013-2.334-0.715-3.555-0.966
		c-1.253-0.256-2.798,0.503-4.235-0.508c0.751-0.266,1.175-0.547,1.566-0.529c2.133,0.108,4.146-0.169,6.206-0.658
		c1.146-0.269,2.581-0.116,3.784,0.119c1.583,0.311,3.075,0.548,4.771,0.391c1.412-0.131,3.153-0.166,4.276,0.334
		c2.94,1.316,6.176,1.315,9.381,1.609c1.438,0.13,2.883,0.326,4.258,0.641c0.437,0.103,0.871,0.677,0.928,1.071
		c0.102,0.736-0.598,1.074-1.522,1.128c0.004,0.011,0.006,0.021,0.009,0.033c0.008,0.003,0.016,0.006,0.023,0.007
		c0.183,0.659,0.367,1.32,0.551,1.982c-0.008,0.04-0.016,0.081-0.024,0.122c0.751-0.203,1.553-0.614,2.234-0.531
		c3.37,0.412,6.748,0.032,10.09,0.101c2.952,0.06,5.85,1.111,8.75,1.771c0.393,0.091,0.664,0.459,1.135,0.802
		c-1.247,1.14-2.769,1.294-4.402,1.084c-1.906-0.244-3.787-0.586-5.691-0.84c-0.764-0.101-1.572-0.165-2.341-0.093
		c-1.924,0.179-4.063,0.113-5.688,0.765C331.046,467.11,329.878,466.753,328.572,465.536z M300.879,459.576
		c0.112-0.028,0.278,0.073,0.419,0.116c-0.138,0.163-0.25,0.435-0.417,0.457c-0.407,0.059-0.844,0.001-1.855-0.027
		C300.013,459.824,300.438,459.679,300.879,459.576z M303.504,472.313c-2.817-0.477-3.822-2.38-5.092-4.161
		c-2.241,0.025-4.354,0.171-6.43,0.038c-1.841-0.12-3.659-1.076-5.319,0.482c-0.272,0.253-1.243,0.185-1.864,0.129
		c-4.428-0.398-8.955-0.346-13.179-1.652c-0.99-0.305-2.291-0.021-3.368-0.225c-2.146-0.405-4.598-0.258-6.54-1.938
		c3.03-1.159,3.083-1.211,5.229-1.21c3.393,0.002,6.742,0.182,10.126,0.527c5.586,0.573,11.276,0.638,16.918,0.957
		c1.125,0.065,2.316,0.158,3.319,0.493c3.473,1.161,6.944,0.768,10.485,0.13c4.007-0.724,7.145,0.209,8.893,2.842
		c1.234,1.859,4.614,5.016,4.614,5.016s0.256,0.593,0.409,0.988C315.166,475.135,309.44,473.316,303.504,472.313z M276.055,475.308
		c0.067,0.074,0.209,0.169,0.185,0.217c-0.044,0.084-0.191,0.144-0.29,0.211c-0.102-0.121-0.203-0.242-0.304-0.365
		C275.782,475.35,275.918,475.331,276.055,475.308z M306.157,485.137c0.279-0.082,0.558-0.176,0.847-0.23
		c0.066-0.012,0.179,0.115,0.271,0.179c-0.279,0.081-0.556,0.177-0.844,0.229C306.362,485.33,306.249,485.201,306.157,485.137z
		 M293.248,477.567c-0.067,0.062-0.311,0.014-0.472,0.026c-2.087,0.172-4.213,0.597-6.253,0.458
		c-2.655-0.182-5.097,0.065-7.509,0.873c-1.51,0.505-2.789,0.162-3.936-0.572c-0.068,0.023-0.131,0.054-0.203,0.075
		c0.013-0.035,0.025-0.069,0.037-0.104c-1.604,0.427-2.908-0.148-4.23-0.663c-0.041,0.006-0.082,0.013-0.121,0.019
		c0-0.01,0.004-0.016,0.008-0.025c-0.265,0.125-0.535,0.248-0.839,0.356c0.016,0.015,0.037,0.027,0.054,0.041
		c-0.19-0.016-0.378-0.034-0.567-0.052c-0.883,0.103-1.835,0.871-2.818-0.256c1.055,0.097,1.952,0.177,2.818,0.256
		c0.162-0.017,0.32-0.017,0.477,0.026c0.013-0.006,0.022-0.011,0.036-0.016c-0.294-0.245-0.703-0.471-0.798-0.756
		c-0.134-0.396-0.112-0.884,0.093-1.256c0.093-0.173,1.082-0.31,1.151-0.222c0.297,0.363,0.447,0.809,0.55,1.239
		c0.049,0.202-0.103,0.434-0.158,0.638c0.015-0.005,0.028-0.012,0.044-0.019c0.023,0.01,0.047,0.017,0.068,0.025
		c1.144-0.149,2.284-0.364,3.433-0.412c1.135-0.047,0.978,0.536,0.797,1.075c0.029-0.01,0.057-0.011,0.086-0.021
		c0.025,0.017,0.053,0.032,0.08,0.049c1.964-0.677,2.94-2.071,4.004-3.333c1.079-0.227,2.003-0.516,2.958-0.606
		c4.195-0.397,8.392-0.841,12.6-1.069c3.403-0.182,6.748,0.157,9.717,1.57c-0.129,0.162-0.174,0.289-0.272,0.325
		c-0.293,0.107-0.6,0.194-0.912,0.262C299.881,476.228,295.941,475.094,293.248,477.567z M268.139,484.361
		c1.809-0.249,3.514-0.159,5.294,0.158c3.769,0.675,7.555,1.136,11.524,0.539c2.208-0.332,4.538-0.058,6.711-0.791
		c0.557-0.19,1.382-0.294,1.896-0.129c2.898,0.949,6.038,0.563,9.257,1.379c-0.717,0.139-1.791,0.105-2.087,0.443
		c-1.309,1.507-3.14,1.494-5.122,1.358c-1.129-0.078-2.276-0.038-3.409-0.1c-3.562-0.188-7.055-0.18-10.638,0.411
		c-2.021,0.338-4.14,0.499-6.197,0.862c-0.776,0.138-1.713,0.336-2.382,0.143c-4.327-1.254-8.933-0.911-13.414-1.266
		c-1.565-0.123-3.274-0.084-4.614-1.281c0.401-0.379,0.687-0.924,1.155-1.041c1.057-0.26,2.271-0.549,3.296-0.396
		C262.369,485.094,265.251,484.759,268.139,484.361z M264.437,480.333c-0.36-0.319-0.719-0.638-1.082-0.958
		c0.075-0.042,0.149-0.083,0.224-0.123c0.29,0.357,0.581,0.715,0.872,1.073C264.444,480.329,264.442,480.332,264.437,480.333
		c0.002,0.002,0.004,0.006,0.008,0.008c-0.006,0.002-0.013,0-0.023,0.001c-0.346,0.202-0.674,0.433-1.056,0.585
		c-0.113,0.046-0.394-0.147-0.597-0.229c0.108-0.077,0.207-0.204,0.329-0.222c0.436-0.063,0.88-0.089,1.324-0.134
		C264.427,480.337,264.433,480.335,264.437,480.333z M244.955,472.451c-3.73,0.271-7.456,0.581-11.188,0.837
		c-0.549,0.039-1.115-0.129-2.056-0.25c0.641-0.481,0.906-0.846,1.282-0.937c2.33-0.558,4.657-1.162,7.039-1.549
		c3.984-0.645,8.056-0.994,12-1.746c2.903-0.554,5.756-0.96,8.667-0.565c3.794,0.513,7.548,1.175,11.61,1.821
		c-1.991,0.911-3.636,1.364-5.633,0.804c-0.827-0.23-2.009-0.176-2.851,0.087c-2.827,0.877-5.722,0.757-8.654,0.827
		C251.764,471.86,248.359,472.201,244.955,472.451z M203.052,494.241c-1.533,1.121-3.258,1.46-5.293,1.614
		c-1.382,0.106-2.897,0.552-4.017,1.182c-2.087,1.175-4.202,2.435-5.8,3.953c-1.689,1.604-4.017,2.467-6.015,3.695
		c-0.424,0.263-1.195,0.205-2.194,0.353c0.181-0.903,0.412-1.583,0.395-2.256c-0.003-0.235-0.573-0.515-0.965-0.658
		c-0.22-0.082-0.833,0.021-0.869,0.119c-0.659,1.803-2.532,2.559-4.608,3.26c-0.666,0.222-1.019,0.939-1.571,1.395
		c-1.329,1.089-2.602,2.226-4.059,3.207c-1.197,0.812-2.633,1.429-3.958,2.134c-0.865,0.46-0.886,0.945-0.097,1.787
		c0.259,0.277,0.5,0.566,0.751,0.85c-2.199,3.234-4.367,6.382-6.475,9.553c-0.438,0.652-0.579,1.412-1.021,2.064
		c-1.037,1.528-2.173,3.019-3.269,4.527c-2.104,0.257-2.143,1.621-2.67,2.732c-0.219,0.458-0.431,0.944-0.815,1.323
		c-0.246,0.246-0.835,0.476-1.201,0.427c-0.376-0.046-0.828-0.39-0.967-0.681c-0.706-1.493-0.498-1.843,1.453-3.026
		c0.359-0.219,0.646-0.501,1.093-0.854c-1.016-2.009-0.108-3.695,1.48-5.445c2.029-2.232,3.746-4.607,6.213-6.626
		c1.48-1.209,2.367-2.65,0.919-4.289c-1.015,0.076-2.058,0.153-3.252,0.241c0.038-0.588-0.045-0.955,0.095-1.269
		c1.618-3.672,4.334-6.869,7.83-9.709c2.677-2.177,5.269-4.408,7.269-6.965c1.271-1.626,2.913-2.966,4.79-4.182
		c0.87-0.561,1.862-1.056,2.567-1.718c1.81-1.699,4.197-2.735,6.745-3.623c1.935-0.676,3.872-1.347,5.83-1.98
		c0.699-0.228,1.488-0.613,2.188,0.08c-0.004,1.433-1.043,2.545-2.336,3.487c-3.249,2.367-5.095,5.401-7.319,8.258
		c-0.098,0.126,0.172,0.406,0.362,0.813c0.784-0.477,1.771-0.814,2.2-1.383c1.764-2.343,4.596-4.107,6.035-6.668
		c1.049-1.866,2.965-3.472,4.518-5.182c0.172-0.188,0.491-0.371,0.782-0.423c1.609-0.282,2.358-1.195,3.139-2.169
		c1.28-1.597,3.179-2.414,5.715-2.386c0.965,0.011,1.939-0.194,2.908-0.301c3.78-0.41,7.541-1.739,11.364-0.152
		c0.592,0.244,1.598-0.008,2.401-0.099c1.616-0.179,3.218-0.444,4.837-0.6c3.395-0.327,6.773-0.311,10.429,0.123
		c-0.533,1.784-2.079,2.014-3.386,2.44c-3.237,1.057-6.986,1.456-8.983,4.085c-0.141,0.187-0.515,0.333-0.813,0.388
		c-3.186,0.575-5.509,2.281-7.621,3.896c-1.956,1.495-4.581,1.858-6.594,3.106c-0.411,0.256-1.299,0.281-1.873,0.162
		C206.841,492.339,204.771,492.986,203.052,494.241z M147.119,546.923c0.018-1.434,0.946-2.256,1.935-3.044
		c1.411-1.128,2.109-2.467,2.288-3.984c0.104-0.727,0.209-1.455,0.311-2.185l0.057-0.051c0.853-0.869,1.675-1.77,3.37-1.675
		c-0.818-0.628-0.813-1.323-0.266-2.065c2.41-2.287,4.826-4.565,6.775-7.104c2.775-3.613,5.662-7.183,8.55-10.749
		c0.5-0.617,1.232-1.136,1.884-1.684c2.28-1.922,4.613-3.811,6.847-5.764c1.345-1.175,2.639-2.079,4.983-1.655
		c1.787,0.327,3.022-0.8,4.223-1.591c1.021-0.674,2.63-1.186,2.011-2.654c-0.131-0.305,0.381-0.955,0.834-1.19
		c2.688-1.396,5.433-2.725,8.181-4.051c0.478-0.231,1.066-0.631,1.605,0.024c-0.221,1.175-1.321,1.872-2.526,2.545
		c-1.041,0.583-2.094,1.184-2.979,1.891c-4.136,3.3-7.485,7.122-12.088,10.119c-0.857,0.558-1.558,1.272-2.21,1.977
		c-1.312,1.414-2.86,2.647-4.468,3.887c-2.721,2.092-4.47,4.819-7.607,6.673c-0.363,0.215-0.523,0.62-0.803,0.922
		c-5.71,6.151-11.423,12.299-17.128,18.454C149.901,545.039,148.9,546.088,147.119,546.923z M137.374,530.815
		c0.735-0.585,1.375-1.104,2.032-1.613c0.104-0.082,0.292-0.18,0.41-0.161c0.566,0.081,1.367,0.069,1.622,0.34
		c0.294,0.31,0.221,0.897,0.099,1.335c-0.167,0.599-0.599,1.108-1.618,1c-0.005,0.015-0.011,0.031-0.016,0.048
		c0.079,0.015,0.159,0.026,0.235,0.045c-0.117,0.08-0.226,0.165-0.341,0.247c-0.049,0.133-0.095,0.267-0.145,0.399
		c-0.037-0.077-0.134-0.192-0.097-0.225c0.071-0.061,0.158-0.118,0.241-0.175c0.034-0.098,0.068-0.194,0.106-0.292
		C138.975,531.589,137.958,531.532,137.374,530.815z M136.613,549.098c0.471-0.33,0.966-0.679,1.46-1.026
		c0.193,0.158,0.56,0.326,0.543,0.476c-0.066,0.601-0.386,1.134-1.306,1.222C137.168,549.783,136.974,549.456,136.613,549.098z
		 M132.483,535.947c0.491-0.904,0.923-1.831,1.492-2.708c0.479-0.737,1.267-0.689,2.628,0.101c-1.179,0.998-2.351,1.989-3.526,2.981
		C132.881,536.195,132.68,536.072,132.483,535.947z M129.496,549.551c-0.035,0.017-0.068,0.034-0.103,0.053
		c0.213,0.812,0.096,1.527-1.324,1.959c-0.296-1.006,0.431-1.517,1.324-1.959c-0.01-0.04-0.017-0.078-0.029-0.12
		c0.064-0.032,0.11-0.066,0.172-0.101c0.602-2.731,1.569-4.142,3.94-5.533c-0.783,2.204-1.472,4.215-3.94,5.533
		C129.525,549.442,129.51,549.492,129.496,549.551z M119.278,567.72c3.519-3.687,6.414-7.7,9.623-11.553
		c0.365-0.438,0.598-1.197,1.918-0.794c-0.224,1.572-0.944,3.05-1.786,4.486c-2.561,4.374-4.819,8.848-8.557,12.817
		c-1.59,1.691-2.332,3.827-3.935,5.512c-3.813,3.995-7.706,7.97-12.541,11.347c-0.439,0.308-1.034,0.49-2.602,1.21
		c0.665-1.48,0.782-2.113,1.201-2.604C108.343,581.42,113.05,574.242,119.278,567.72z M116.696,556.8
		c-0.343-1.859,0.136-3.069,1.003-4.217c0.313-0.414,0.786-0.787,1.74-0.355C119.832,553.925,118.658,555.172,116.696,556.8z
		 M122.333,520.143c2.472-3.465,5.357-6.718,8.264-9.969c0.475-0.532,1.353-0.862,2.44-1.532c-0.064,0.794,0.014,1.153-0.137,1.45
		c-1.046,2.044-1.893,4.175-3.268,6.096c-4.018,5.606-8.25,11.128-12.416,16.677c-0.235,0.309-0.646,0.545-0.967,0.81
		c-0.828-0.005-1.622-0.011-2.559-0.017c-1.411,2.409-2.536,4.571-3.918,6.64c-1.674,2.507-3.987,4.748-5.024,7.522
		c-0.458,1.233-1.832,2.293-2.848,3.401c-0.263,0.286-0.723,0.502-1.15,0.659c-0.243,0.089-0.662,0.07-0.892-0.033
		c-0.236-0.102-0.528-0.403-0.47-0.561c0.327-0.932,0.957-1.831,1.114-2.771c0.566-3.386,3.51-6.02,5.165-9.059
		c0.471-0.867,1.397-1.693,2.374-2.297c1.598-0.982,2.673-2.186,3.299-3.588c1.005-2.242,2.705-4.151,4.566-6.047
		C118.223,525.155,120.492,522.722,122.333,520.143z"/>
</g>
</svg>
