<?xml version="1.0" encoding="utf-8"?>
<!-- Generator: Adobe Illustrator 16.0.0, SVG Export Plug-In . SVG Version: 6.00 Build 0)  -->
<!DOCTYPE svg PUBLIC "-//W3C//DTD SVG 1.1//EN" "http://www.w3.org/Graphics/SVG/1.1/DTD/svg11.dtd">
<svg version="1.1" xmlns="http://www.w3.org/2000/svg" xmlns:xlink="http://www.w3.org/1999/xlink" x="0px" y="0px"
	 width="548.902px" height="645.788px" viewBox="0 0 548.902 645.788" enable-background="new 0 0 548.902 645.788"
	 xml:space="preserve">
<g id="Layer_1">
	<polygon fill-rule="evenodd" clip-rule="evenodd" points="34.642,-220.34 34.578,-220.118 34.483,-220.298 	"/>
	<path fill-rule="evenodd" clip-rule="evenodd" d="M-514.736,309.098c0.141,0.038,0.283,0.075,0.34,0.091
		c-0.063-0.014-0.212-0.044-0.367-0.075C-514.768,309.114-514.736,309.098-514.736,309.098z"/>
	<path fill="#E8E9EA" d="M0.652,591.743c2.421-0.854,4.508-1.596,6.595-2.335c0.425-0.151,0.899-0.264,1.254-0.464
		c3.462-1.951,6.959-3.875,10.336-5.889c6.401-3.819,12.301-7.973,18.407-11.988c0.578-0.381,1.136-0.789,1.79-1.1
		c3.083-1.452,5.808-3.098,7.38-5.415c0.116-0.171,0.429-0.321,0.693-0.439c0.257-0.114,0.563-0.168,1.006-0.29
		c1.005,0.507,0.91,1.33,0.649,2.111c-1.887,5.625-3.837,11.242-6.289,16.829c-0.68,1.54-1.643,2.903-3.369,4.135
		c-2.211,1.577-4.144,3.292-5.737,5.385c0.713,0.184,1.332,0.342,2.283,0.585c-0.15,1.054-0.315,2.199-0.478,3.351
		c1.481-0.033,2.068-0.702,2.674-1.326c3.464-3.604,6.86-7.232,10.403-10.805c1.125-1.133,2.947-2.039,3.855-3.206
		c0.959-1.238,1.749-2.521,3.318-3.481c2.216-1.349,2.631-2.818,2.046-4.452c-0.33,0.463-0.554,0.979-1.04,1.362
		c-1.858,1.46-3.978,2.749-6.502,4.333c-0.132-0.68-0.386-1.043-0.231-1.342c1.128-2.17,1.574-4.399,2.406-6.585
		c1.02-2.686,1.46-5.419,3.138-8.059c-0.04-3.053,1.455-6.019,2.871-8.995c0.467-0.983,0.469-2.019,0.753-3.026
		c0.669-2.417,1.168-4.82,2.63-7.207c1.188-1.93,1.922-3.971,2.589-5.971c0.995-2.99,3.299-5.683,5.488-8.39
		c1.289-1.599,3.533-2.333,6.352-2.196c1.18-2.548,1.714-5.238,4.3-7.554c0.141-0.121,0.547-0.125,1.182-0.253
		c-0.757,2.442-0.839,4.799-1.698,7.187c-1.612,4.521-2.885,9.064-4.512,13.585c-0.853,2.383-0.863,4.879-3.116,7.117
		c-0.294,2.335-2.458,4.461-2.862,6.848c-0.313,1.847-1.991,3.704-3.016,5.568c-0.422,0.763-0.724,1.543-1.023,2.195
		c1,0.713,2.804-0.011,3.197,1.002l0.008-0.009c-0.527,3.224-1.267,6.441-2.483,9.645c-0.298,0.787-0.87,1.563-1.427,2.319
		c-2.311,3.132-3.501,6.5-6.29,9.525c-4.041,4.373-8.323,8.659-13.66,12.463c-4.689,3.345-10.414,5.454-16.854,6.563
		c-1.369,0.237-2.725,0.53-4.087,0.8l0.055-0.003c0.388,1.206,1.937,1.371,3.474,1.282c4.612-0.271,9.21-0.94,13.61-2.232
		c1.528-0.447,2.887-1.38,4.128-2.212c2.4-1.609,4.64-3.306,7.469-4.632c0.968-0.458,1.73-1.279,2.235-2.014
		c0.673-0.967,2.015-1.366,3.019-2.038c0.894-0.599,1.652-1.319,2.289-2.045c1.777-2.015,3.849-3.938,4.696-6.224
		c0.301-0.809,1.492-1.55,2.234-2.28c1.814,0.321,0.985,1.967,3.105,2.108c1.614-3.59,1.097-7.201,2.642-10.791
		c1.516-3.53,2.642-7.084,5.112-10.572c1.762,0.586,1.44,1.349,1.084,2.015c-1.04,1.963-2.09,3.931-3.329,5.857
		c-0.842,1.309-1.6,2.492-0.264,3.688c0.364,0.328,0.298,0.961,0.172,1.447c-0.419,1.612-0.656,3.271-1.495,4.822
		c-2.24,4.141-3.384,8.437-6.421,12.455c-2.292,3.03-4.4,6.121-6.95,9.066c-4.322,4.99-8.916,9.89-13.917,14.646
		c-1.28,1.218-2.276,2.566-3.255,3.89c-0.355,0.477-0.098,0.99,1.211,1.083c0.883-0.738,2.051-1.509,2.818-2.403
		c1.155-1.349,2.679-2.38,4.592-3.265c1.313-0.606,2.473-1.378,3.773-2.111c-0.069-0.75-0.133-1.435-0.21-2.293
		c1.814-1.71,3.627-3.612,5.733-5.381c4.874-4.089,8.418-8.558,11.318-13.247c0.52-0.843,1.455-1.637,2.378-2.355
		c0.745-0.578,2.376-0.255,2.486,0.434c0.059,0.39,0.113,0.799,0.001,1.195c-0.741,2.622-1.468,5.244-2.325,7.861
		c-0.526,1.609-1.261,3.196-0.602,4.771c0.148,0.353,0.086,0.809-0.095,1.19c-1.389,3.029-1.171,6.054-1.739,9.077
		c-0.941,5.048-1.58,10.093-2.314,15.14c-0.108,0.76-0.548,1.615,0.448,2.218c0.267-0.191,0.597-0.328,0.653-0.482
		c0.539-1.51,1.061-3.017,1.538-4.527c0.251-0.807,0.486-1.617,0.601-2.427c0.127-0.864,0.594-1.595,1.739-2.152
		c1.354-0.653,1.633-1.54,1.665-2.479c0.018-0.603,0.038-1.205,0.042-1.807c0.033-3.876,1.029-7.659,4.498-11.227
		c0.337-0.35,0.784-0.825,0.697-1.147c-0.402-1.477,0.893-2.762,1.686-4.098c0.517-0.868,1.012-1.821,1.928-2.512
		c2.34-1.771,3.149-3.906,4.604-5.881c0.101-0.137-0.124-0.35-0.274-0.714c-1.553,0.414-2.176,1.781-3.856,1.953
		c-0.003,0.015-0.004,0.032-0.007,0.045c-0.041,0.047-0.077,0.096-0.112,0.143c0.043,0.202,0.094,0.406,0.14,0.607
		c-0.208,0.001-0.413-0.006-0.624-0.008c0.16-0.203,0.32-0.402,0.484-0.6c-0.01-0.054-0.025-0.107-0.04-0.162
		c0.06-0.001,0.104-0.016,0.159-0.025c0.208-0.985,0.38-1.976,0.631-2.959c0.13-0.504,0.479-1,0.578-1.502
		c0.223-1.101-0.022-2.27,0.614-3.278c0.568-0.896,1.905-1.629,2.492-2.655c0.724-1.28,2.163-2.278,4.482-3.038
		c0.075,1.08,0.133,1.938,0.193,2.796c0.613,0.953,0.745,0.922,2.649,0.203c0.664-0.97,0.775-0.971,1.927-0.325
		c0.018-0.034,0.037-0.069,0.054-0.105l-0.032,0.119c-0.01-0.006-0.015-0.009-0.022-0.014c-0.341,0.684-0.86,1.22-2.155,1.123
		c-0.307,0.808-0.608,1.617-0.907,2.425c0.018-0.008,0.041-0.014,0.058-0.019c-0.003-0.028-0.005-0.056-0.006-0.083
		c0.046,0.012,0.091,0.027,0.137,0.044c0.207-0.066,0.409-0.136,0.617-0.186c0.13-0.026,0.287-0.045,0.411-0.021
		c0.099,0.017,0.156,0.102,0.233,0.154c-0.218,0.069-0.451,0.201-0.654,0.193c-0.211-0.005-0.405-0.077-0.606-0.141
		c-0.041,0.013-0.087,0.022-0.13,0.039c0.222,2.751,0.079,5.489-1.07,8.309c-0.839,2.063-1.119,4.177-1.633,6.224
		c1.08,0.236,1.401-0.251,1.556-0.596c0.447-0.986,0.879-1.989,1.092-2.989c0.645-3.039,1.517-6.044,3.588-8.96
		c0.376-0.528,0.366-1.185,0.326-1.763c-0.115-1.547,0.626-3,1.669-4.454c0.678-0.944,1.211-1.93,1.782-2.901
		c0.288-0.488,0.387-1.027,0.784-1.477c3.42-3.841,4.127-8.064,6.215-12.093c1.111-2.159,2.242-4.318,3.448-6.467
		c1.092-1.928,1.719-3.907,2.889-5.834c1.167-1.939,1.912-3.956,2.774-5.945c0.21-0.487,0.293-1.026,0.197-1.499
		c-0.297-1.46,0.34-2.964,1.617-4.121c2.923-2.645,3.61-5.596,4.82-8.462c0.596-1.405,1.198-2.764,2.197-4.105
		c0.836-1.13,1.375-2.334,2.01-3.516c1.111-2.064,2.204-4.134,3.277-6.203c0.768-1.478,1.569-2.956,2.198-4.451
		c0.542-1.283,2.646-2.565,0.933-3.91c-0.109-0.081,0.127-0.383,0.247-0.572c1.665-2.61,3.26-5.234,5.035-7.822
		c1.044-1.533,2.116-3.111,3.622-4.479c2.197-2,3.88-4.145,5.812-6.218c2.793-2.988,6.005-5.822,9.614-8.463
		c1.96-1.433,3.804-2.936,5.821-4.333c1.341-0.93,2.795-1.833,4.378-2.564c4.218-1.942,8.14-4.231,12.825-5.644
		c-0.023-0.021-0.056-0.035-0.081-0.053c0.025-0.022,0.061-0.041,0.09-0.067c-0.283-0.379-0.563-0.756-0.857-1.146
		c-0.519,0.233-0.836,0.316-1.005,0.464c-0.573,0.496-0.985,1.141-2.155,0.933c-0.114-0.021-0.249-0.119-0.257-0.196
		c-0.104-0.767,0.922-1.072,1.664-1.396c3.526-1.531,6.74-3.298,9.908-5.169c2.619-1.54,5.412-3.124,8.864-3.798
		c0.488-0.098,1.186-0.434,1.496,0.529c-3.051,0.381-4.157,2.632-7.049,3.437c-0.703,0.192-1.015,0.751-0.691,1.313
		c0.803,1.398,0.629,1.662-1.256,2.135c-0.74,0.188-1.503,0.373-2.259,0.468c-2.522,0.301-4.642,1.116-6.403,2.427
		c0.026,0.031,0.047,0.065,0.072,0.094c-0.028,0.006-0.057,0.019-0.081,0.026c1.026,0.706,2.344,0.678,3.593,0.042
		c2.541-1.288,5.344-1.897,8.271-2.329c0.755-0.107,1.49-0.344,2.238-0.519c3.884-0.894,7.784-1.727,11.639-2.692
		c3.555-0.889,7.075-1.872,10.565-2.899c2.455-0.72,5.086-0.976,7.418-2.072c0.933-0.44,2.401-0.307,3.621-0.49
		c2.209-0.334,4.167-0.95,5.019-2.461c4.102-1.096,8.289-1.669,11.977-3.317c2.872-0.133,5.072-1.766,7.848-2.112
		c0.303-0.039,0.668-0.099,0.88-0.233c3.209-2.113,7.545-2.012,11.176-3.29c1.914-0.673,3.971-0.181,5.78-0.569
		c1.496-0.324,2.268,0.047,3.585,0.308c0.343-0.432,0.627-0.905,1.076-1.302c0.164-0.146,0.729-0.113,1.116-0.173
		c0.019-0.009,0.034-0.014,0.047-0.021c-0.002,0-0.004,0-0.005-0.001c0.019-0.01,0.039-0.017,0.06-0.026
		c0.652-0.316,1.294-0.629,1.935-0.939c0.05,0.048,0.094,0.096,0.142,0.14c-0.694,0.269-1.383,0.534-2.076,0.8
		c-0.018,0.009-0.037,0.019-0.055,0.027c0.366,0.132,0.805,0.429,1.077,0.352c1.601-0.443,3.233-0.888,4.714-1.495
		c2.498-1.031,4.963-1.836,7.865-2.109c2.16-0.203,4.627-0.279,6.403-1.722c0.337-0.271,1.142-0.375,1.742-0.445
		c3.017-0.343,5.968-1.275,9.07-0.973c1.271,0.122,2.714-0.239,3.947-0.892c1.564-0.82,3.329-1.188,5.246-1.382
		c2.126-0.214,4.253-0.665,6.361-1.068c1.815-0.349,3.546-0.639,5.45-0.562c1.727,0.072,3.64-0.304,5.293-1.122
		c5.401-2.676,11.459-3.53,17.347-3.127c6.052,0.413,11.588-0.905,17.185-2.417c2.508-0.68,4.98-1.374,7.561-1.858
		c1.505-0.28,3.061-0.602,4.427-1.127c3.345-1.296,6.795-2.31,10.372-3.185c1.555-0.378,2.906-1.293,4.518-2.043
		c0.509,0.04,1.225,0.096,1.891,0.146c0.737-0.734,1.356-1.474,2.185-2.101c0.299-0.229,1.121-0.271,1.645-0.232
		c0.221,0.017,0.421,0.467,0.382,0.724c-0.059,0.392-0.512,0.807-0.467,1.17c0.037,0.338,0.404,0.707,0.813,0.901
		c0.446,0.213,1.385-0.521,1.189-1.086c-0.534-1.522-0.41-2.948,1.587-4.25c0.904-3.123,3.477-6.011,4.294-9.199
		c0.873-3.411,1.813-6.819,2.532-10.24c0.583-2.767-0.039-5.385,0.018-8.081c0.021-1.088,0.211-2.203,0.573-3.291
		c0.293-0.875,1.484-0.996,2.765-0.988c0.28-2.409,0.599-4.811,0.831-7.212c0.474-4.838,0.833-9.67,1.383-14.511
		c0.241-2.127,0.309-4.202-0.484-6.206c0.007-0.012-0.032,0.084-0.032,0.084c-0.513-1.705,0.424-3.614-0.792-5.247
		c-0.289-0.387,0.272-1.096,0.438-1.657c-2.105-0.341-1.28-1.773-1.874-2.67c-0.342-0.517-0.51-1.115-0.576-1.698
		c-0.781-6.902-1.642-13.778-0.082-20.908c0.598-2.719,1.431-5.416,2.196-8.12c0.328-1.174,1.165-2.149,2.871-2.778
		c-0.171-0.126-0.347-0.251-0.52-0.369c0.177,0.115,0.353,0.232,0.527,0.35c1.389,0.814,2.037,1.746,1.075,3.146
		c-0.426,0.619-0.361,1.359-0.432,2.04c-0.015,0.117,0.386,0.273,0.646,0.305c0.25,0.025,0.667-0.033,0.83-0.154
		c0.305-0.229,0.542-0.523,0.711-0.807c1.109-1.877,1.531-3.793,1.635-5.7c0.091-1.726,0.324-3.386,1.453-5.091
		c0.752-1.133,0.96-2.387,1.414-3.585c0.149-0.4,0.145-0.868,0.498-1.178c3.221-2.801,3.024-6.094,4.717-9.114
		c1.699-3.036,2.524-6.174,3.173-9.316c1.225-5.959,1.911-11.896,2.316-17.822c0.123-1.796-0.157-3.576-0.373-5.349
		c-0.595-4.932-1.262-9.848-1.874-14.776c-0.244-1.974-0.198-3.995-0.664-5.926c-0.546-2.271-0.543-4.515,0.588-6.845
		c-2.404,1.072-2.398,0.996-3.556-0.099c-2.583-2.442-3.211-5.256-2.694-8.376c0.632-3.827,1.014-7.646,1.687-11.471
		c0.26-1.5,1.076-3,1.52-4.505c0.32-1.099,0.674-2.229,0.615-3.302c-0.215-3.778-0.472-7.557-0.974-11.301
		c-0.318-2.361-1.04-4.665-1.697-6.968c-0.664-2.309-1.368-4.612-2.24-6.871c-1.034-2.673-1.07-5.456-0.843-8.282
		c0.129-1.609,0.235-3.22,0.237-4.821c0.001-1.757-0.967-3.255-2.498-4.544c-0.307-0.259-0.929-0.343-1.516-0.547
		c-1.639,1.3,0.682,2.684-1.457,3.94c-0.372-0.14-0.997-0.225-1.234-0.485c-3.253-3.511-5.458-7.36-6.085-11.644
		c-0.219-1.515-0.71-2.895-1.805-4.146c-1.522-1.741-2.463-3.643-3.053-5.682c-0.673-2.298-1.597-4.543-2.498-6.788
		c-2.459-6.104-4.249-12.351-5.712-18.665c-0.357-1.554-0.526-3.143-0.668-4.729c-0.041-0.464,0.285-0.973,0.436-1.467
		c-0.004-0.015-0.013-0.029-0.019-0.042c-0.321-0.304-1.044-0.473-0.61-1.097c0.232,0.418,0.421,0.754,0.611,1.092
		c-0.001,0.001,0,0.003-0.001,0.005c0.008,0.005,0.021,0.012,0.026,0.021c0,0.007-0.005,0.014-0.008,0.021
		c0.519,1.264,1.04,2.528,1.557,3.792c0.183-0.021,0.366-0.043,0.547-0.065c0.059-0.325,0.281-0.698,0.149-0.967
		c-1.125-2.277-1.688-4.695-3.06-6.92c-0.846-1.373-0.85-3.021-1.359-4.518c-1.031-3.037-2.158-6.054-3.224-9.083
		c-0.499-1.417-1.092-2.822-1.4-4.275c-1.076-5.059-2.041-10.137-3.077-15.205c-0.093-0.475-0.211-1.02-0.633-1.35
		c-1.478-1.148-1.703-2.6-1.913-4.089c-0.32-2.257-0.884-4.481-0.503-6.819c0.537-3.263-0.351-6.353-0.843-9.486
		c-0.495-3.135-1.032-6.265-1.706-9.369c-0.42-1.941-1.057-3.851-1.719-5.744c-1.025-2.937-2.138-5.854-3.246-8.774
		c-2.414-6.377-4.847-12.75-7.274-19.123c-0.984,0.79-0.359,1.56-0.177,2.259c0.604,2.315,1.521,4.57,2.122,6.886
		c0.524,2.021,0.762,4.095,1.176,6.136c0.096,0.475,0.262,0.966,0.59,1.366c2.968,3.589,4.021,7.591,3.977,11.861
		c-0.015,1.283,0.397,2.505,0.84,3.74c1.216,3.41,1.918,6.938,3.004,10.378c1.129,3.57,1.58,7.182,0.783,10.979
		c-0.248,1.188,0.091,2.389,0.257,3.571c0.271,1.959,0.618,3.908,0.32,5.98c-1.771-0.247-2.481-1.052-3.047-1.961
		c-1.88-3.033-4.432-5.758-7.506-8.268c-2.245-1.833-4.358-3.744-6.375-5.695c-2.682-2.585-5.697-4.963-8.985-7.204
		c-4.183-2.847-8.37-5.712-13.52-7.821c-7.343-3.008-15.089-5.563-24.053-6.542c-0.979-0.107-1.922-0.242-2.923,0.087
		c1.298,0.336,2.538,0.809,3.919,0.94c6.951,0.657,12.847,2.682,18.646,4.824c7.118,2.629,12.844,6.352,18.364,10.173
		c3.529,2.447,6.505,5.249,9.683,7.917c3.277,2.753,6.482,5.543,8.561,8.857c0.275,0.44,0.637,0.884,1.125,1.213
		c3.245,2.164,4.389,5.124,5.581,8.004c1.596,3.836,2.642,7.795,2.945,11.9c0.34,4.592,2.054,8.939,3.453,13.338
		c2.043,6.4,4.229,12.771,6.294,19.167c1.697,5.25,3.297,10.523,4.967,15.781c2.333,7.363,4.913,14.677,6.956,22.097
		c1.053,3.823,2.439,7.622,2.183,11.685c-0.106,1.705,0.215,3.387,0.255,5.086c0.021,0.994,0.209,2.06-0.294,2.999
		c-0.823,1.54-0.729,2.977-0.737,4.469c-0.013,1.223-0.023,2.344,1.292,3.28c0.724,0.516,0.966,1.388,1.194,2.147
		c0.951,3.162,2.04,6.291,2.271,9.597c0.171,2.483,0.915,4.899,1.171,7.373c0.466,4.458,0.662,8.949,1.142,13.408
		c0.511,4.752,1.24,9.476,1.824,14.221c0.282,2.274,0.486,4.562,0.654,6.851c0.043,0.585-0.112,1.209-0.34,1.8
		c-0.095,0.239-0.598,0.574-0.953,0.629c-0.556,0.084-1.434,0.108-1.662-0.1c-0.653-0.606-1.231-1.298-1.515-2.037
		c-0.938-2.449-1.746-4.935-2.574-7.411c-0.478-1.423-0.94-2.808-2.058-4.089c-0.979-1.117-1.221-2.564-1.72-3.884
		c-1.675-4.439-3.345-8.875-5.774-13.123c-1.384-2.425-2.256-5.012-3.438-7.509c-0.467-0.986-1.144-1.913-1.72-2.864
		c-1.264,0.359-0.713,0.723-0.6,1.031c2.03,5.582,4.071,11.158,6.107,16.732c0.142,0.38,0.446,0.762,0.369,1.141
		c-0.497,2.33,0.935,4.228,1.838,6.268c1.436,3.241,3.086,6.439,2.712,10.078c-0.131,1.269,0.438,2.568,1.098,3.727
		c1.567,2.736,1.73,5.751,2.439,8.642c0.632,2.6,0.478,5.358,0.511,8.061c0.025,1.906,0.008,3.805,0.737,5.613
		c0.187,0.464,0.383,0.967,0.29,1.455c-0.784,4.047-0.444,8.029-0.9,12.047c-0.38,3.318-1.492,6.666-2.325,10
		c-0.376,1.513-0.978,3.024-1.267,4.534c-0.192,0.998,0.03,1.989-0.014,2.988c-0.034,0.645,0.592,1.337-0.762,2.107
		c-1.896-3.4-4.056-6.607-5.599-10.021c-2.677-5.934-5.409-11.853-8.026-17.806c-3.158-7.188-7.777-13.912-11.926-20.782
		c-1.226-2.024-3.355-3.743-4.932-5.662c-0.886-1.074-1.534-2.255-2.21-3.412c-0.833-1.433-1.512-2.912-2.388-4.329
		c-0.931-1.509-2.101-2.938-3.011-4.457c-0.752-1.253-1.599-2.324-3.244-3.237c-1.544-0.863-2.398-2.341-3.168-3.673
		c-2.074-3.592-3.947-7.25-5.877-10.887c-0.292-0.546-0.583-1.104-0.684-1.685c-0.614-3.661-2.477-6.996-4.148-10.395
		c-1.169-2.382-1.913-4.89-2.794-7.351c-3.196-8.963-7.851-17.456-14.446-25.338c-1.746-2.079-3.378-4.206-6.214-5.733
		c-0.437-0.235-0.909-0.515-1.104-0.855c-1.796-3.089-5.317-5.404-7.548-8.285c-0.985-1.272-3.202-1.945-3.43-3.549
		c-2.979-2.846-4.19-6.387-7.183-9.245c0.52,1.189,1.036,2.379,1.606,3.691c-0.532,0.106-1.088,0.219-1.946,0.392
		c-0.056,1.176,0.697,2.144,1.563,3.109c3.797,4.259,7.702,8.46,12.391,12.29c5.07,4.145,8.33,9.088,12.354,13.7
		c2.27,2.596,3.543,5.434,4.803,8.303c0.973,2.225,1.679,4.525,2.41,6.813c0.551,1.718,0.999,3.463,1.395,5.213
		c0.104,0.46,0.097,1.074-0.277,1.46c-0.969,0.999-0.444,1.819,0.068,2.566c2.234,3.243,3.146,6.849,4.829,10.247
		c1.092,2.214,2.334,4.359,3.873,6.413c1.029,1.371,1.995,2.745,2.38,4.328c0.236,0.96,0.671,1.932,1.376,2.744
		c2.294,2.639,3.783,5.563,5.659,8.348c1.531,2.263,2.748,4.642,4.14,6.957c0.495,0.828,0.621,1.668,0.036,2.582
		c0.047,0.019,0.084,0.043,0.131,0.06c-0.069,0.026-0.145,0.054-0.218,0.08c-0.104,0.15-0.2,0.302-0.321,0.446
		c-0.068,0.079-0.211,0.139-0.324,0.207c0.026-0.141-0.021-0.324,0.1-0.414c0.144-0.101,0.346-0.17,0.546-0.239
		c0.021-0.032,0.046-0.066,0.065-0.096c0.011-0.016,0.016-0.028,0.021-0.044c-1.32-0.54-2.233-1.253-2.716-2.318
		c-0.578-1.276-1.44-2.503-2.437-3.641c-2.519-2.871-4.425-5.935-5.801-9.195c-0.341-0.813-1.218-1.481-1.932-2.309
		c0.75-1.316,0.637-2.63-0.136-3.942c-0.893-1.512-1.513-3.09-3.067-4.381c-0.866-0.721-1.26-1.706-1.812-2.593
		c-1.313-2.124-2.615-4.255-3.879-6.395c-2.536-4.291-5.265-8.516-8.708-12.471c-1.141-1.308-2.474-2.533-3.697-3.806
		c-5.414-5.652-12.813-10.078-20.271-14.465c-0.633-0.375-1.388-0.66-2.087-0.987c-4.188-1.961-8.376-3.923-12.635-5.915
		c0.562-0.483,0.932-0.802,1.295-1.112c-2.505-1.042-4.983-2.107-7.516-3.122c-3.274-1.312-6.633-2.542-9.876-3.884
		c-2.057-0.85-4.074-1.263-6.473-0.019c0.155,0.142,0.28,0.331,0.5,0.384c9.384,2.214,16.627,6.398,24.233,10.25
		c2.729,1.38,5.503,2.729,8.248,4.096c9.744,4.837,17.489,10.837,23.209,18.005c0.604,0.757,1.249,1.541,1.479,2.389
		c0.579,2.167,2.052,4.012,3.48,5.891c3.954,5.208,7.614,10.522,11.171,15.882c3.33,5.021,5.726,10.309,8.705,15.421
		c0.207,0.357,0.314,0.75,0.494,1.119c1.186,2.487,2.493,4.947,3.542,7.47c1.869,4.487,4.09,8.858,7.783,12.981
		c-0.813,0.026-1.192,0.039-1.688,0.055c0.126,0.242,0.138,0.576,0.397,0.722c1.996,1.131,2.746,2.844,4.126,4.255
		c0.474,0.488,0.283,1.284,0.419,2.065c-1.81,0.081-1.288-1.352-2.904-1.266c0.297,0.863,0.516,1.708,0.87,2.52
		c1.421,3.252,2.851,6.507,4.343,9.745c0.809,1.756,1.754,3.479,2.63,5.217c1.102,2.192,2.197,4.385,3.343,6.666
		c0.351-0.211,0.759-0.459,1.397-0.84c1.248,1.307,1.87,2.773,2.155,4.302c0.263,1.38,0.704,2.666,1.46,3.939
		c0.896,1.508,1.234,3.194,1.814,4.801c0.103,0.286,0.121,0.602,0.303,0.854c2.412,3.365,1.956,7.11,0.963,10.859
		c-0.981,3.697-0.66,7.226-0.06,10.776c0.324,1.952,0.443,3.969,0.246,5.972c-0.403,4.123-1.064,8.256-1.649,12.387
		c-0.498,3.534-1.025,7.067-1.573,10.603c-0.187,1.211-0.48,2.421-0.702,3.63c-0.438,2.391-0.861,4.78-1.345,7.456
		c1.329-0.405,2.385-0.723,3.397-1.031c1.438,0.218,1.924,0.925,1.897,1.753c-0.118,3.797,0.521,7.571-1.791,11.432
		c-0.746,1.244-0.899,2.602-1.378,3.9c-0.332,0.897-0.746,1.792-1.179,2.68c-0.071,0.151-0.425,0.266-0.791,0.481
		c-0.204-0.224-0.578-0.428-0.556-0.647c0.329-3.624,0.683-7.25,1.102-10.878c0.103-0.903,0.515-1.812,0.677-2.72
		c0.104-0.595,0.145-1.214-0.011-1.783c-0.14-0.519-0.781-0.753-1.808-0.561c-0.18,0.24-0.525,0.515-0.566,0.778
		c-0.968,6.474-1.242,12.904-1.442,19.332c-0.012,0.49,0.193,0.963,0.288,1.458c0,0.012,0.009,0.024,0.011,0.034
		c0.01-0.039,0.021-0.079,0.027-0.117c0.033,0.182,0.068,0.367,0.101,0.551c-0.049-0.14-0.09-0.282-0.128-0.434
		c-0.194,0.869-0.581,1.771-0.453,2.589c0.236,1.544-0.344,3.004-1.157,4.499c-0.848,1.567-1.55,3.141-2.106,4.761
		c-0.993,2.88-2.51,5.732-3.977,8.574c-1.434,2.775-3.425,5.436-5.514,8.082c-1.854,2.352-4.703,4.061-7.688,5.699
		c-1.065,0.583-2.568,1.035-3.87,1.147c-2.592,0.228-7.766,0.214-7.766,0.214s-0.65-0.32-1.216-0.62
		c0.599-0.305,1.047-0.553,1.515-0.771c3.407-1.572,3.41-1.569,3.75-4.487c0.692-0.396,1.58-0.851,2.372-1.372
		c0.564-0.367,1.236-0.794,1.45-1.245c0.769-1.655,2.32-2.979,4.144-4.238c0.602-0.41,0.753-0.928-0.218-1.385
		c-2.958,0.878-5.864,2.042-8.251,3.638c-2.956,1.975-6.369,2.811-10.146,3.284c-2.904,0.359-5.791,0.898-8.69,1.345
		c-1.216,0.185-2.441,0.342-3.661,0.504c-1.377,0.184-2.771,0.299-4.129,0.55c-8.994,1.662-18.063,2.36-27.111,3.197
		c-3.055,0.284-6.126,0.294-9.168,0.311c-7.416,0.046-14.663,1.329-21.938,2.84c-6.803,1.414-13.568,2.84-20.144,4.841
		c-1.14,0.345-2.41,0.53-3.622,0.638c-2.92,0.255-5.85,0.521-8.752,0.61c-10.254,0.313-20.191,2.371-30.082,4.758
		c-3.267,0.793-6.596,1.438-9.885,2.184c-1.342,0.304-2.684,0.645-3.964,1.067c-1.725,0.573-3.388,1.122-5.308,1.342
		c-1.296,0.146-2.683,0.7-3.81,1.271c-6.604,3.364-13.894,5.911-20.81,8.897c-0.523,0.224-1.148,0.396-1.735,0.473
		c-4.037,0.521-7.791,1.657-11.446,3.046c-0.981,0.368-1.941,0.792-2.966,1.072c-6.313,1.719-11.499,4.744-17.125,7.26
		c-0.659,0.291-1.164,0.744-1.759,1.115c-1.904,1.175-3.858,2.266-6.042,3.234c-2.388,1.066-4.574,2.422-6.556,3.827
		c-3.333,2.362-6.317,4.925-9.651,7.285c-3.208,2.272-6.611,4.425-10.131,6.513c-5.028,2.981-8.876,6.557-11.377,10.649
		c-0.589,0.962-1.382,1.889-2.189,2.793c-1.305,1.459-2.798,2.862-4.019,4.343c-0.512,0.623-0.903,1.472-0.703,2.074
		c0.667,1.992-0.782,3.794-1.85,5.648c-0.566,0.977-1.2,1.943-1.797,2.907c0.196-0.137,0.377-0.264,0.561-0.391
		c-0.17,0.124-0.337,0.25-0.513,0.375c-1.418,2-2.858,3.996-4.241,6.003c-0.46,0.668-0.792,1.368-1.161,2.056
		c-0.888,1.654-1.2,3.414-2.886,4.932c-0.766,3.177-3.722,5.984-5.151,9.058c-1.11,2.388-3.026,4.582-5.557,6.633
		c-2.13,1.727-3.738,3.712-5.669,5.683c1.329,1.968,0.634,4.055-0.17,6.178c-2.015,5.308-5.478,10.179-11.211,14.525
		c-5.125,3.891-9.958,7.958-15.716,11.462c-5.38,3.268-10.402,6.801-16.253,9.74c-2.305,1.154-4.297,2.609-6.331,3.992
		c-0.637,0.438-1.153,1.06-1.346,1.62C-0.128,591.112,0.472,591.5,0.652,591.743z M357.032,206.835
		c0.026-0.079,0.019-0.177,0.089-0.229c0.076-0.048,0.225-0.045,0.344-0.063c0.035,0.067,0.072,0.137,0.11,0.205
		C357.391,206.779,357.21,206.808,357.032,206.835z M358.605,210.964c0.063-0.05,0.146-0.153,0.186-0.152
		c0.105,0.011,0.189,0.068,0.281,0.105c-0.105,0.085-0.209,0.167-0.312,0.251C358.707,211.101,358.657,211.035,358.605,210.964z
		 M422.253,188.69c0,0.001,0.001,0.005,0.002,0.009c0.131,0.12,0.265,0.242,0.397,0.362c-0.132-0.112-0.262-0.223-0.392-0.335
		c-0.002-0.01-0.003-0.019-0.006-0.027c-0.002-0.004-0.006-0.005-0.006-0.007C422.25,188.69,422.25,188.691,422.253,188.69
		c-0.094-0.445-0.19-0.899-0.366-1.724C422.946,187.685,423.163,188.113,422.253,188.69z M421.842,182.977
		c-0.267-0.604-0.551-1.029-0.643-1.488c-0.656-3.307-1.273-6.621-1.908-9.931c-0.262-1.362-0.554-2.72-0.781-4.087
		c-0.065-0.379,0.027-0.798,0.866-0.905c1.289,1.433,2.595,2.862,3.857,4.31c0.21,0.239,0.273,0.545,0.369,0.83
		c0.539,1.608,1.045,3.228,1.619,4.83c0.357,0.999,0.093,1.97-0.666,2.946C423.71,180.568,422.867,181.656,421.842,182.977z
		 M427.375,216.181c0.388-1.955,0.807-4.053,1.217-6.151c0.237-1.208,0.701-2.44,0.626-3.614c-0.131-1.975-0.622-3.906-0.94-5.862
		c-0.047-0.286-0.113-0.629,0.081-0.881c0.901-1.173,0.132-2.166-0.048-3.225c-0.149-0.878-0.31-1.755-0.361-2.645
		c-0.028-0.538,0.52-0.921,1.229-1.182c-0.002-0.015-0.006-0.028-0.011-0.04c-0.001-0.021-0.005-0.042-0.007-0.063
		c-0.347-0.285-0.692-0.569-1.037-0.854c0.986,0.012,0.971,0.448,1.037,0.854c0.028,0.025,0.057,0.047,0.089,0.073
		c-0.024,0.009-0.045,0.022-0.071,0.03c0.604,1.897,1.029,3.844,1.859,5.681c2.145,4.756,1.478,9.78,0.685,14.833
		c-0.098,0.611-0.431,1.142-1.371,1.574c-0.55,0.253-0.781,0.824-1.208,1.229C428.775,216.292,428.353,216.658,427.375,216.181z
		 M392.301,383.324c-0.202,0.294-0.479,0.565-0.739,0.845c0.001,0.05,0.002,0.099,0,0.147c-0.018,0.014-0.031,0.028-0.053,0.043
		c1.015,0.688,0.49,1.404-0.381,2.122c0.018,0.018,0.036,0.037,0.056,0.053c-0.027,0.017-0.062,0.038-0.09,0.054
		c0.586,1.788-0.615,3.537-1.42,5.278c-0.332,0.725-0.614,1.573-1.916,2.036c-0.167-0.227-0.435-0.397-0.378-0.537
		c0.804-1.999,1.61-3.999,2.531-5.986c0.135-0.294,0.745-0.532,1.183-0.791c-0.009-0.021-0.009-0.042-0.016-0.063
		c0.018-0.013,0.03-0.029,0.05-0.043c-0.884-0.694-0.563-1.406,0.381-2.122c-0.029-0.019-0.042-0.039-0.073-0.057
		c0.041-0.044,0.085-0.088,0.126-0.134c-0.017-0.32-0.035-0.64-0.02-0.962c0.001-0.064,0.211-0.145,0.323-0.217
		C392.023,383.105,392.349,383.256,392.301,383.324z M399.444,325.228c0.723,2.298,1.361,3.96,1.757,5.668
		c0.673,2.914,1.808,8.78,1.808,8.78s1.217,3.557,1.849,5.34c0.068,0.143,0.136,0.284,0.206,0.428
		c-0.081-0.15-0.16-0.295-0.245-0.442c-0.856,1.336,0.346,2.729-0.922,4.172c-1.9-1.689-3.872-7.827-5.366-16.525
		C398.15,330.431,398.03,328.189,399.444,325.228z M396.46,315.687c0.049,0.342,0.148,0.685,0.131,1.029
		c-0.012,0.159-0.244,0.335-0.377,0.501c-0.171-0.105-0.467-0.194-0.492-0.331c-0.079-0.354-0.036-0.73-0.045-1.093
		C395.941,315.758,396.204,315.722,396.46,315.687z M396.582,295.952c-0.129,0.048-0.254,0.098-0.383,0.146
		c-0.237-0.314-0.474-0.631-0.71-0.946c0.13-0.048,0.259-0.098,0.384-0.149C396.112,295.318,396.345,295.635,396.582,295.952z
		 M392.12,282.784c0.212-0.515-0.371-1.097-0.529-1.657c-0.314-1.108-1.194-2.117-0.148-3.49c0.291,0.31,0.703,0.589,0.858,0.938
		c0.946,2.123,1.974,4.232,2.691,6.408c0.626,1.891,0.952,3.854,1.254,5.808c0.12,0.774,0.374,1.651-0.961,2.772
		c-0.336-1.291-0.526-2.243-0.842-3.173c-0.445-1.319-0.901-2.641-1.505-3.92C392.379,285.287,391.531,284.21,392.12,282.784z
		 M381.708,264.899c0.206,0.657,0.67,1.25,0.947,1.89c0.284,0.649,1.177,1.248,0.249,2.118c-2.02-0.847-3.241-1.927-3.382-3.479
		c-0.076-0.828-0.619-1.701,0.76-2.549C381.383,263.377,381.475,264.151,381.708,264.899z M408.583,305.636
		c-0.129-2.729-1.192-5.24-2.347-7.741c-0.858-1.848-1.672-3.709-2.455-5.578c-0.089-0.212,0.126-0.503,0.211-0.803
		c0.442,0.114,0.844,0.133,0.918,0.255c1.01,1.689,2.05,3.38,2.925,5.115c0.829,1.639,1.211,3.43,2.261,4.988
		c1.173,1.742,0.896,3.648,1.063,5.508c0.028,0.277-0.535,0.623-0.998,1.125C408.933,307.568,408.626,306.597,408.583,305.636z
		 M405.592,316.504c-0.606,0.845-1.33,1.627-2.795,2.258c-0.165-1.396-0.27-2.654-0.477-3.897c-0.078-0.475-0.605-1.344-0.605-1.344
		s-1.846-4.189-1.809-6.466c0.017-0.889,0.378-1.813,0.3-2.687c-0.262-2.773-0.68-5.524-0.96-8.289
		c-0.028-0.276,0.481-0.622,1.056-1.316c0.835,1.097,1.519,1.809,1.945,2.6c0.828,1.542,1.498,3.133,2.256,4.697
		c0.803,1.666,1.353,3.368,1.171,5.217c-0.033,0.353,0.098,0.817,0.451,1.015c2.832,1.584,2.564,3.659,1.119,5.926
		C406.75,314.99,406.136,315.737,405.592,316.504z M406.015,339.25c0.336-1.49,0.68-2.979,1.02-4.478
		c-1.506-1.738-1.688-1.924-1.383-3.198c0.594-2.482,1.311-4.963,2.025-7.429c-0.039-0.036-0.078-0.067-0.115-0.108
		c0.052,0.01,0.106,0.023,0.159,0.033c0.568-0.412,1.139-0.83,1.894-1.381c-0.051,1.277-0.051,1.277-1.629,1.403
		c-0.088,0.009-0.178-0.008-0.265-0.022c-0.008,0.006-0.018,0.012-0.029,0.021c-0.001,0.018-0.007,0.034-0.015,0.055
		c0.295,0.268,0.62,0.522,0.82,0.823c1.997,2.976,1.896,6.269,0.957,9.59c-0.467,1.636-0.856,3.475-3.434,4.674
		c0.18,0.127,0.354,0.251,0.533,0.374C406.372,339.486,406.194,339.369,406.015,339.25z M410.189,357.587
		c0.18-0.657,0.501-1.309,0.772-1.963c-0.028-0.04-0.056-0.084-0.086-0.123c0.03-0.066,0.054-0.125,0.08-0.19
		c-0.382-1.748-0.515-3.53,0.236-5.925c0.768,3.318,0.78,3.475-0.236,5.925c0.019,0.071,0.029,0.143,0.048,0.214
		c-0.015,0.034-0.029,0.065-0.042,0.1c0.374,0.569,0.796,1.129,1.063,1.728c0.077,0.177-0.297,0.561-0.612,0.732
		C410.98,358.325,410.083,357.98,410.189,357.587z M394.555,353.166c-0.059-1.447-0.085-2.728-0.169-4
		c-0.146-2.221,0.636-4.636-1.921-6.357c-0.259-0.175-0.279-0.553-0.264-0.846c0.111-1.795,0.251-3.591,0.437-5.392
		c0.026-0.253,0.377-0.518,0.647-0.875c0.446,0.19,0.779,0.332,1.111,0.478c0.829,0.154,0.992,0.56,0.826,1.096
		c0.23,0.65,0.475,1.295,0.688,1.947c0.404,1.228,0.675,2.488,1.225,3.672c0.377,0.82,1.142,1.531,1.717,2.305
		c0.656,0.875,1.069,1.834,0.418,2.86c-0.675,1.067-1.165,2.106-1.428,3.229C397.628,352.195,396.39,352.825,394.555,353.166z
		 M395.738,383.326c-0.376,0.539-0.646,1.171-1.712,1.343c0.007,0.008,0.013,0.019,0.024,0.029c-0.011,0.02-0.024,0.044-0.033,0.065
		c0.38,0.355,0.495,0.736-0.674,1.415c0.32-0.674,0.502-1.054,0.674-1.415c-0.027-0.026-0.053-0.05-0.081-0.077
		c0.032-0.003,0.058-0.013,0.09-0.018c-0.957-0.953-0.391-2.08-0.154-3.157c0.657-3.035,1.14-6.052,1.247-9.079
		c0.109-3.11,0.592-6.251,1.029-9.379c0.241-1.714,0.689-3.434,1.115-5.147c0.11-0.452,0.483-0.903,1.089-1.988
		c0.885,2.141,1.87,3.643,2.097,5.246c0.563,3.929,1.068,7.877,0.735,11.911c-0.114,1.426-0.329,2.825-1.293,4.205
		C398.485,379.288,397.14,381.313,395.738,383.326z M396.632,418.018c0.766-1.623,2.175-2.352,3.877-3.287
		c0.447,1.268-0.678,1.937-1.585,2.57C398.502,417.6,397.737,417.688,396.632,418.018z M390.471,421.194
		c-0.061-0.139,0.072-0.429,0.261-0.52c0.866-0.415,1.771-0.805,2.82-0.462c-0.477,0.775-1.34,1.146-2.452,1.235
		C390.876,421.467,390.532,421.323,390.471,421.194z M382.215,417.105c-0.052-0.089-0.191-0.215-0.141-0.265
		c2.713-2.52,5.196-5.166,8.245-7.503c2.482-1.907,4.609-3.867,6.361-6.032c0.645-0.801,1.033-1.755,2.484-2.2
		c-0.854-0.062-1.707-0.126-2.177-0.16c-1.875,0.557-2.095,1.912-3.994,2.324c-0.14-0.623-0.419-1.09-0.322-1.56
		c1.019-4.986,2.933-9.867,6.936-14.48c0.168-0.192,0.736-0.265,1.314-0.458c0.033,0.529,0.145,0.919,0.065,1.307
		c-0.329,1.62-0.459,3.264-1.154,4.846c-0.725,1.641-0.244,3.133-0.328,4.695c-0.031,0.578-0.221,1.229,0.063,1.719
		c1.128,1.966,0.511,3.938-1.052,5.872c-1.596,1.961-3.412,3.861-5.142,5.785c-2.495,2.772-6.244,4.617-10.344,6.193
		C382.836,417.263,382.491,417.141,382.215,417.105z M378.789,416.146c0.048-0.088,0.065-0.21,0.159-0.25
		c0.094-0.046,0.265-0.015,0.398-0.018c-0.05,0.088-0.101,0.175-0.15,0.264C379.057,416.141,378.925,416.143,378.789,416.146z
		 M373.842,414.796c0.054-0.421-0.046-0.748,0.152-1c3.266-4.225,6.347-8.49,9.291-12.788c0.245-0.358,0.805-0.644,1.902-1.489
		c-0.183,1.446-0.138,2.247-0.425,3.018c-0.327,0.892-0.932,1.763-1.451,2.635c-0.35,0.586-0.758,1.154-1.127,1.738
		c-1.969,3.085-1.968,3.085-1.853,5.997C378.399,413.774,376.621,415.078,373.842,414.796z M82.366,579.979
		c-0.037,0.081-0.075,0.228-0.112,0.229c-0.202,0.018-0.404,0.003-0.604-0.003c0.045-0.075,0.093-0.154,0.141-0.236
		C81.969,579.971,82.165,579.974,82.366,579.979z M83.828,574.104c0.558,1.308,0.283,1.996-0.898,2.656
		C83.159,576.079,83.39,575.399,83.828,574.104z M66.509,577.16c0.667,0.94,0.108,1.265-1.316,1.469
		C65.664,578.105,66.016,577.711,66.509,577.16z M102.455,481.403c0.333,2.456-0.665,4.6-1.913,6.72
		c-0.902,1.55-1.87,3.071-2.292,4.695c-0.502,1.941-2.103,3.669-3.79,5.373c-1.164,1.181-2.537,1.906-4.62,1.94
		c-0.838-0.568-2.259-0.819-2.313-2.09c1.621-0.112,2.251-0.876,2.752-1.815c1.762-3.33,3.404-6.676,5.375-9.979
		C97.026,483.956,99.4,482.757,102.455,481.403z M103.007,512.451c-0.349-0.313-0.668-0.458-0.631-0.587
		c0.479-1.487,0.997-2.97,1.533-4.451c0.067-0.19,0.227-0.412,0.445-0.547c0.995-0.63,2.032-1.236,3.348-2.028
		C108.386,507.976,104.706,509.943,103.007,512.451z M117.521,529.319c0.079-0.046,0.669,0.156,0.651,0.194
		c-0.125,0.256-0.346,0.489-0.543,0.734c-0.233-0.077-0.47-0.152-0.849-0.271C117.026,529.743,117.227,529.498,117.521,529.319z
		 M136,469.565c0.049,0.063-0.002,0.161-0.011,0.244c-0.176-0.035-0.356-0.07-0.538-0.105c0.083-0.075,0.164-0.146,0.244-0.215
		C135.799,469.513,135.959,469.515,136,469.565z M151.463,461.369c0.801-0.335,1.878-0.728,2.623-0.646
		c1.924,0.222,3.214-0.631,4.693-1.209c1.237-0.482,2.423-1.051,3.706-1.456c0.607-0.196,1.516-0.347,1.951,0.416
		c-0.872,0.544-1.754,1.157-2.729,1.696c-1.749,0.964-3.674,1.794-5.303,2.836c-2.145,1.374-4.509,2.444-7.094,3.354
		c-1.55,0.551-3.284,1.076-4.465,1.898c-2.193,1.517-4.676,2.647-7.351,3.654c-0.528,0.197-1.284,0.619-1.284,0.888
		c-0.013,1.599-1.934,2.351-3.476,3.268c-2.647,1.573-5.405,3.066-7.443,5.032c-0.103,0.096-0.553,0.05-0.839,0.07
		c0.244-1.277,0.138-1.328,1.171-2.182c1.36-1.129,1.619-2.236,1.01-3.418c-3.814,1.192-5.297,2.18-6.477,4.311
		c-0.383,0.686-0.538,1.51-1.238,2.019c-2.9,2.147-4.449,4.681-5.923,6.92c-2.483,1.275-4.61,2.37-7.228,3.719
		c0.84-1.376,1.788-2.313,2.734-3.264c1.059-1.071,2.195-2.144,2.959-3.288c2.126-3.171,4.13-6.371,6.065-9.58
		c0.541-0.897,1.241-1.482,2.668-1.563c1.479-0.081,2.564-0.531,3.663-1.309c1.508-1.064,2.839-1.078,4.396-0.277
		c0.43,0.218,0.714,0.551,1.064,0.831c0.555-0.212,1.044-0.318,1.351-0.533c2.029-1.396,4.037-2.783,6.788-3.563
		c0.491-0.139,0.939-0.582,1.216-0.934C141.516,465.439,146.524,463.417,151.463,461.369z M117.832,495.18
		c-0.867,1.534-1.395,3.165-3.452,4.33c-0.58,0.333-1.322,0.668-1.958-0.141C114.204,498.039,114.943,496.152,117.832,495.18z
		 M143.561,459.101c1.208-0.354,2.409-0.705,3.614-1.053C146.049,458.771,145.025,459.417,143.561,459.101z M210.073,435.634
		c-2.129,1.027-4.479,1.765-7.193,1.963c-2.396,0.174-4.831,0.421-7.548,1.467c1.129,0.422,1.873,0.703,2.946,1.104
		c-1.159,0.527-1.893,0.948-2.717,1.22c-2.868,0.953-5.799,1.808-8.647,2.785c-1.841,0.627-3.59,1.405-5.386,2.105
		c-1.649,0.646-3.25,1.402-4.976,1.896c-4.387,1.249-8.837,2.368-13.252,3.564c-0.875,0.236-1.741,0.545-2.535,0.907
		c-4.981,2.265-10.417,3.757-15.924,5.098c-2.449,0.595-4.75,1.201-5.767,3.03c-0.097,0.17-0.452,0.381-0.705,0.416
		c-0.545,0.074-1.336,0.201-1.589,0.028c-0.278-0.187-0.292-0.809-0.009-1.035c0.589-0.477,1.385-0.889,2.193-1.202
		c2.081-0.811,4.231-1.476,5.408-3.069c0.361-0.494,1.438-0.821,2.212-1.199c4.647-2.258,9.771-3.586,15.087-4.72
		c4.632-0.981,9.289-2.123,12.862-4.748c0.722-0.533,1.791-0.899,2.759-1.253c1.957-0.726,3.958-1.386,5.936-2.078
		c1.982-0.695,3.955-1.4,6.323-2.236c0.637-1.329,1.776-2.04,4.008-2.336c3.804-0.504,7.581-1.32,11.37-2
		c1.204-0.216,2.41-0.481,3.626-0.618C209.311,434.637,210.059,434.765,210.073,435.634z M182.26,451.811
		c0.09,0.089,0.175,0.178,0.261,0.264c-0.123,0.034-0.257,0.1-0.366,0.093c-0.077-0.008-0.121-0.107-0.178-0.164
		C182.072,451.937,182.167,451.875,182.26,451.811z M196.814,448.358l-0.222,0.21l-0.158-0.151L196.814,448.358z M215.408,440.149
		c-1.519,0.349-2.607,0.596-3.694,0.843C213.694,439.886,213.706,439.904,215.408,440.149z M225.951,437.736
		c-0.104,0.146-0.163,0.353-0.332,0.415c-0.209,0.082-0.499,0.045-0.764,0.062c0.104-0.146,0.163-0.353,0.329-0.415
		C225.395,437.715,225.693,437.751,225.951,437.736z M230.986,430.621c-2.215,0.984-4.458,1.711-6.834,2.152
		c-0.287,0.056-0.838-0.196-0.94-0.402c-0.098-0.197,0.128-0.664,0.392-0.758C225.966,430.74,228.42,430.261,230.986,430.621z
		 M283.975,421.409c-3.798,1.417-9.099,2.456-13.503,2.501C277.192,421.517,281.282,420.792,283.975,421.409z M291.728,423.208
		c-0.128,0.05-0.257,0.098-0.387,0.148 M342.084,420.969c1.115-0.283,1.537-0.365,1.922-0.493c2.331-0.783,4.326-0.49,6.125,0.326
		c0.197,0.093,0.061,0.476,0.096,0.985C347.677,421.302,344.958,422.193,342.084,420.969z M275.112,437.094
		c0.032-0.224-0.095-0.451,0.115-0.655c0.479-0.479,0.993-1.006,1.72-1.402c6.961-3.795,14.542-6.395,22.757-7.857
		c14.751-2.623,28.548-3.21,42.946-5.073c2.081-0.271,4.061,0.206,2.837,1.993c-2.502,1.135,2.233,2.518,2.233,2.518
		c1.821-0.197,25.379-0.8,25.379-0.8c-7.159,2.838-53.905,3.598-53.905,3.598S276.99,438.573,275.112,437.094z M286.026,445.775
		l0.301-0.056l-0.153,0.182L286.026,445.775z M277.218,441.77c3.332-1.121,6.688-1.072,9.972-1.426
		c0.408-0.045,0.846,0.371,1.288,0.559c0.018-0.003,0.028-0.002,0.045-0.005c0.259-0.12,0.523-0.24,0.783-0.355
		c-0.27,0.123-0.538,0.245-0.811,0.37c-0.006-0.002-0.011-0.005-0.018-0.01c-3.004,0.413-6.008,0.848-9.02,1.225
		C278.695,442.225,277.748,442.393,277.218,441.77z M260.66,433.74c-0.103-0.586-0.214-1.219-0.313-1.874
		c-0.016,0.005-0.032,0.018-0.047,0.023c-0.373-0.51-0.752-1.018-1.126-1.525c-1.208-0.011-2.41-0.06-3.624-0.003
		c-0.484,0.022-0.994,0.289-2.484,0.752c1.838,0.186,2.693,0.219,3.481,0.367c0.651,0.127,1.466,0.284,1.772,0.619
		c0.292,0.324,0.02,0.896-0.017,1.533c-4.87,0.374-9.444,0.765-13.977,0.627c0.069-1.72-0.943-2.229-2.99-1.416
		c-1.063,0.424-1.958,1.068-2.942,1.619c-1.278-0.119-2.203-0.781-3.785-0.415c-1.103,0.255-2.367-0.028-3.565,0.048
		c-1.231,0.078-2.41,1.006-4.045,0.549c0.605-0.371,0.901-0.683,1.267-0.756c1.994-0.389,3.75-1.046,5.489-1.883
		c0.962-0.458,2.326-0.659,3.507-0.745c1.553-0.111,2.993-0.262,4.498-0.756c1.253-0.417,2.842-0.828,4.028-0.692
		c3.111,0.36,6.081-0.359,9.113-0.842c1.36-0.223,2.745-0.39,4.108-0.454c0.436-0.017,1.012,0.329,1.187,0.617
		c0.326,0.547-0.21,0.961-1.044,1.206c0.01,0.008,0.015,0.016,0.022,0.024c0.01,0.001,0.016,0.001,0.025,0
		c0.375,0.467,0.752,0.933,1.128,1.4c0.008,0.033,0.014,0.066,0.02,0.102c0.624-0.324,1.228-0.816,1.881-0.903
		c3.221-0.434,6.2-1.472,9.287-2.162c2.727-0.605,5.717-0.441,8.583-0.578c0.388-0.017,0.755,0.207,1.295,0.366
		c-0.782,1.152-2.132,1.608-3.697,1.811c-1.827,0.234-3.66,0.389-5.486,0.612c-0.73,0.093-1.492,0.223-2.175,0.448
		c-1.711,0.564-3.69,0.99-4.978,1.85C263.422,434.401,262.237,434.389,260.66,433.74z M233.374,435.298
		c0.093-0.048,0.278-0.008,0.42-0.005c-0.072,0.156-0.09,0.391-0.239,0.445c-0.353,0.134-0.773,0.188-1.706,0.388
		C232.657,435.681,233.002,435.475,233.374,435.298z M239.801,444.507c-2.735,0.257-4.259-0.985-5.984-2.071
		c-2.049,0.518-3.94,1.098-5.886,1.457c-1.729,0.314-3.697-0.016-4.728,1.548c-0.168,0.255-1.082,0.419-1.667,0.513
		c-4.19,0.677-8.324,1.72-12.613,1.651c-1.003-0.014-2.109,0.491-3.159,0.574c-2.097,0.165-4.3,0.82-6.608-0.04
		c2.41-1.563,2.446-1.614,4.413-2.09c3.114-0.749,6.239-1.354,9.456-1.839c5.307-0.799,10.543-2.007,15.82-3.016
		c1.053-0.199,2.173-0.393,3.2-0.356c3.552,0.12,6.61-0.948,9.66-2.223c3.445-1.446,6.617-1.425,9.054,0.213
		c1.716,1.158,5.813,2.829,5.813,2.829s0.422,0.401,0.686,0.672C251.388,444.091,245.562,443.961,239.801,444.507z M215.567,452.895
		c0.084,0.043,0.248,0.083,0.237,0.124c-0.017,0.075-0.132,0.152-0.197,0.228c-0.135-0.068-0.262-0.143-0.396-0.213
		C215.329,452.987,215.448,452.942,215.567,452.895z M246.281,453.777c0.231-0.124,0.455-0.258,0.703-0.364
		c0.054-0.024,0.198,0.048,0.303,0.079c-0.227,0.123-0.454,0.259-0.702,0.363C246.529,453.879,246.383,453.805,246.281,453.777z
		 M232.049,450.818c-0.042,0.063-0.277,0.08-0.425,0.128c-1.854,0.592-3.674,1.394-5.592,1.736
		c-2.492,0.451-4.653,1.181-6.611,2.337c-1.226,0.722-2.506,0.74-3.788,0.434c-0.058,0.03-0.103,0.07-0.162,0.102
		c-0.001-0.031,0.001-0.06-0.001-0.09c-1.338,0.683-2.716,0.532-4.088,0.428c-0.036,0.015-0.069,0.03-0.105,0.043
		c-0.003-0.009,0-0.013-0.001-0.021c-0.203,0.155-0.412,0.309-0.659,0.459c0.023,0.009,0.044,0.014,0.064,0.021
		c-0.18,0.028-0.356,0.057-0.535,0.086c-0.776,0.274-1.413,1.076-2.665,0.429c0.995-0.161,1.848-0.298,2.665-0.429
		c0.141-0.049,0.286-0.085,0.442-0.084c0.011-0.012,0.02-0.015,0.028-0.022c-0.345-0.121-0.792-0.205-0.966-0.404
		c-0.249-0.272-0.383-0.654-0.313-0.987c0.033-0.151,0.897-0.474,0.989-0.422c0.387,0.21,0.662,0.522,0.892,0.83
		c0.111,0.145,0.045,0.356,0.058,0.524c0.011-0.01,0.023-0.015,0.036-0.023c0.023,0.001,0.048,0.002,0.07,0.002
		c1.003-0.369,1.979-0.785,3.017-1.077c1.029-0.287,1.067,0.198,1.071,0.649c0.024-0.014,0.05-0.02,0.073-0.031
		c0.029,0.004,0.059,0.011,0.09,0.02c1.585-0.957,2.041-2.246,2.617-3.452c0.92-0.413,1.677-0.842,2.524-1.122
		c3.722-1.234,7.432-2.505,11.219-3.616c3.068-0.893,6.241-1.372,9.409-0.944c-0.066,0.153-0.067,0.261-0.146,0.31
		c-0.236,0.146-0.487,0.285-0.753,0.403C237.711,448.32,233.74,448.321,232.049,450.818z M211.165,461.608
		c1.575-0.593,3.173-0.901,4.904-1.051c3.671-0.319,7.287-0.804,10.74-2.141c1.92-0.746,4.143-1.053,5.907-2.098
		c0.448-0.268,1.175-0.53,1.698-0.519c2.956,0.086,5.714-0.903,8.924-0.991c-0.612,0.267-1.607,0.478-1.769,0.802
		c-0.728,1.45-2.411,1.847-4.274,2.183c-1.06,0.189-2.101,0.474-3.158,0.676c-3.325,0.646-6.527,1.428-9.624,2.677
		c-1.751,0.708-3.646,1.3-5.416,2.036c-0.669,0.277-1.464,0.638-2.139,0.636c-4.364-0.003-8.482,1.282-12.705,2.002
		c-1.477,0.254-3.029,0.66-4.634,0.038c0.245-0.381,0.336-0.862,0.73-1.057c0.887-0.435,1.909-0.924,2.897-1.034
		C206.098,463.452,208.637,462.554,211.165,461.608z M206.496,459.332c-0.432-0.164-0.861-0.329-1.295-0.497
		c0.056-0.047,0.11-0.096,0.163-0.143c0.381,0.209,0.761,0.421,1.141,0.631C206.499,459.327,206.498,459.332,206.496,459.332
		c0.002,0,0.006,0.004,0.007,0.005c-0.001,0.003-0.008,0.003-0.021,0.007c-0.251,0.231-0.478,0.479-0.782,0.684
		c-0.088,0.059-0.409-0.026-0.623-0.044c0.078-0.086,0.128-0.203,0.234-0.243c0.378-0.146,0.778-0.266,1.171-0.396
		C206.49,459.336,206.494,459.335,206.496,459.332z M186.137,457.591c-3.338,1.036-6.655,2.1-9.998,3.125
		c-0.489,0.15-1.063,0.146-1.962,0.262c0.435-0.511,0.561-0.85,0.877-1.003c1.96-0.944,3.905-1.927,5.968-2.751
		c3.452-1.379,7.074-2.551,10.458-4.001c2.488-1.072,4.976-2.017,7.771-2.354c3.641-0.45,7.294-0.774,11.229-1.177
		c-1.543,1.142-2.91,1.856-4.917,1.864c-0.832,0.006-1.901,0.313-2.587,0.701c-2.316,1.301-5.012,1.851-7.679,2.555
		C192.196,455.627,189.181,456.646,186.137,457.591z M154.577,483.633c-1.054,1.199-2.527,1.843-4.347,2.412
		c-1.233,0.389-2.483,1.063-3.308,1.8c-1.544,1.364-3.089,2.802-4.074,4.324c-1.047,1.606-2.908,2.787-4.353,4.173
		c-0.304,0.298-1.028,0.422-1.902,0.759c-0.118-0.735-0.118-1.31-0.348-1.821c-0.077-0.18-0.688-0.269-1.093-0.292
		c-0.227-0.015-0.755,0.2-0.76,0.283c-0.036,1.533-1.519,2.527-3.198,3.526c-0.542,0.319-0.639,0.948-1.001,1.421
		c-0.877,1.133-1.684,2.288-2.711,3.366c-0.844,0.888-1.964,1.683-2.957,2.52c-0.65,0.543-0.514,0.921,0.473,1.392
		c0.326,0.155,0.639,0.325,0.959,0.485c-0.999,2.977-1.991,5.875-2.93,8.78c-0.194,0.599-0.082,1.212-0.279,1.814
		c-0.472,1.405-1.044,2.801-1.574,4.202c-1.846,0.666-1.453,1.724-1.586,2.692c-0.056,0.403-0.096,0.824-0.329,1.201
		c-0.15,0.243-0.619,0.549-0.97,0.594c-0.358,0.046-0.88-0.119-1.099-0.309c-1.119-0.994-1.042-1.309,0.375-2.649
		c0.261-0.249,0.434-0.529,0.734-0.899c-1.565-1.32-1.267-2.817-0.361-4.515c1.157-2.165,1.983-4.372,3.607-6.469
		c0.979-1.259,1.336-2.563-0.508-3.502c-0.907,0.284-1.84,0.572-2.906,0.905c-0.153-0.46-0.344-0.725-0.313-0.996
		c0.326-3.181,1.808-6.241,4.119-9.198c1.77-2.27,3.44-4.558,4.471-6.967c0.652-1.531,1.737-2.925,3.074-4.277
		c0.621-0.622,1.376-1.223,1.812-1.888c1.125-1.706,2.987-3.032,5.043-4.281c1.562-0.946,3.126-1.893,4.723-2.813
		c0.571-0.327,1.172-0.804,2.034-0.423c0.446,1.103-0.154,2.187-1.043,3.197c-2.235,2.541-2.97,5.283-4.11,7.973
		c-0.05,0.115,0.287,0.274,0.59,0.542c0.569-0.539,1.368-1.017,1.579-1.55c0.88-2.191,2.921-4.178,3.433-6.465
		c0.376-1.666,1.626-3.326,2.513-4.982c0.096-0.185,0.332-0.394,0.583-0.498c1.387-0.573,1.782-1.441,2.194-2.365
		c0.67-1.512,2.156-2.559,4.491-3.101c0.89-0.206,1.714-0.58,2.57-0.876c3.339-1.151,6.373-3.008,10.376-2.639
		c0.623,0.061,1.464-0.357,2.173-0.604c1.425-0.498,2.811-1.054,4.246-1.533c3.013-1.005,6.117-1.742,9.605-2.219
		c0.072,1.49-1.271,2.009-2.335,2.625c-2.634,1.531-5.948,2.671-6.952,5.134c-0.069,0.175-0.368,0.37-0.625,0.478
		c-2.74,1.148-4.332,2.976-5.76,4.685c-1.321,1.582-3.616,2.443-5.066,3.852c-0.295,0.287-1.104,0.503-1.667,0.538
		C157.452,481.33,155.759,482.285,154.577,483.633z M119.891,536.53c-0.438-1.104,0.156-1.945,0.814-2.769
		c0.94-1.18,1.157-2.365,0.845-3.571c-0.135-0.58-0.27-1.165-0.407-1.749l0.036-0.05c0.508-0.859,0.978-1.731,2.562-2.036
		c-0.946-0.302-1.162-0.836-0.896-1.528c1.492-2.292,2.988-4.579,3.975-6.963c1.406-3.393,2.927-6.776,4.449-10.16
		c0.266-0.583,0.773-1.144,1.2-1.71c1.483-1.983,3.029-3.952,4.461-5.948c0.862-1.202,1.763-2.184,4.05-2.377
		c1.741-0.147,2.515-1.288,3.369-2.158c0.726-0.747,2.038-1.497,1.006-2.487c-0.216-0.204,0.046-0.818,0.388-1.1
		c2.03-1.67,4.125-3.3,6.227-4.927c0.366-0.285,0.78-0.722,1.482-0.34c0.168,0.955-0.622,1.734-1.515,2.518
		c-0.772,0.679-1.546,1.375-2.137,2.114c-2.751,3.452-4.622,7.135-7.895,10.458c-0.612,0.618-1.029,1.322-1.405,2.009
		c-0.755,1.379-1.787,2.668-2.873,3.979c-1.835,2.212-2.581,4.696-4.872,6.816c-0.265,0.247-0.285,0.592-0.446,0.886
		c-3.298,5.993-6.598,11.987-9.888,17.983C121.849,534.464,121.264,535.493,119.891,536.53z M105.871,526.306
		c0.489-0.614,0.914-1.153,1.356-1.69c0.068-0.086,0.211-0.202,0.323-0.215c0.546-0.064,1.275-0.25,1.597-0.098
		c0.367,0.172,0.484,0.641,0.512,1.004c0.034,0.498-0.201,0.984-1.171,1.128c0.002,0.013,0.003,0.024,0.004,0.042
		c0.075-0.008,0.152-0.016,0.226-0.021c-0.079,0.09-0.153,0.179-0.233,0.266c-0.002,0.114-0.004,0.228-0.005,0.341
		c-0.057-0.051-0.185-0.12-0.159-0.152c0.045-0.063,0.105-0.124,0.165-0.188c0.001-0.08,0.002-0.162,0.007-0.244
		C107.582,526.546,106.631,526.727,105.871,526.306z M110.941,540.53c0.328-0.358,0.672-0.735,1.017-1.113
		c0.225,0.079,0.615,0.127,0.646,0.246c0.128,0.478,0.005,0.957-0.813,1.228C111.665,540.931,111.383,540.723,110.941,540.53z
		 M103.004,531.337c0.166-0.804,0.268-1.614,0.512-2.415c0.208-0.673,0.945-0.81,2.443-0.505c-0.766,1.028-1.527,2.051-2.291,3.073
		C103.447,531.437,103.224,531.386,103.004,531.337z M104.556,542.457c-0.028,0.021-0.055,0.039-0.077,0.062
		c0.447,0.577,0.57,1.153-0.596,1.799c-0.59-0.707-0.086-1.258,0.596-1.799c-0.023-0.028-0.041-0.055-0.066-0.085
		c0.051-0.039,0.081-0.076,0.126-0.114c-0.309-2.234,0.133-3.534,1.867-5.126c-0.02,1.866-0.018,3.563-1.867,5.126
		C104.548,542.365,104.549,542.407,104.556,542.457z M100.915,558.687c2.063-3.613,3.454-7.343,5.183-11.014
		c0.194-0.418,0.169-1.053,1.508-1.033c0.287,1.256,0.095,2.552-0.222,3.845c-0.971,3.929-1.628,7.868-3.806,11.748
		c-0.924,1.652-0.931,3.458-1.871,5.108c-2.238,3.915-4.554,7.836-7.924,11.502c-0.305,0.334-0.793,0.605-2.006,1.507
		c0.143-1.284,0.054-1.798,0.282-2.269C95.207,571.643,97.258,565.081,100.915,558.687z M95.101,550.867
		c-0.901-1.355-0.846-2.393-0.409-3.463c0.154-0.392,0.471-0.784,1.483-0.66C97.07,547.958,96.387,549.177,95.101,550.867z
		 M88.706,521.437c1.174-3.212,2.792-6.354,4.435-9.498c0.269-0.511,0.97-0.96,1.755-1.715c0.19,0.623,0.375,0.88,0.334,1.144
		c-0.316,1.806-0.421,3.629-1.075,5.411c-1.92,5.2-4.058,10.379-6.127,15.569c-0.121,0.291-0.422,0.565-0.634,0.839
		c-0.761,0.179-1.489,0.353-2.351,0.553c-0.536,2.166-0.884,4.077-1.5,5.974c-0.745,2.298-2.157,4.534-2.235,6.898
		c-0.032,1.047-0.955,2.167-1.539,3.243c-0.151,0.279-0.504,0.548-0.846,0.763c-0.196,0.122-0.586,0.201-0.83,0.174
		c-0.247-0.025-0.607-0.193-0.605-0.331c0.007-0.784,0.297-1.617,0.146-2.375c-0.547-2.728,1.32-5.405,1.88-8.107
		c0.156-0.771,0.748-1.613,1.452-2.293c1.156-1.109,1.763-2.271,1.895-3.487c0.215-1.948,1.173-3.792,2.28-5.662
		C86.518,526.201,87.832,523.827,88.706,521.437z"/>
	<g>
		<path fill="#EAECEC" d="M186.167,524.76c0.157,1.123,0.301,2.249,0.434,3.377c0.179,0.014,0.357,0.028,0.536,0.041
			c0.072-0.358,0.146-0.719,0.219-1.08c-0.003-9.582-0.081-18.208-0.4-23.301C186.676,503.818,186.418,513.251,186.167,524.76z"/>
		<path fill="#EAECEC" d="M390.457,508.672c-0.239,1.152-0.486,2.325-0.729,3.496C390.291,510.042,390.617,508.576,390.457,508.672z
			"/>
		<path fill="#EAECEC" d="M257.284,628.422c0.315,1.653,0.773,3.287,1.467,4.89C258.19,631.579,257.717,629.97,257.284,628.422z"/>
		<path fill="#EAECEC" d="M541.314,564.262c-5.796,10.237-8.951,13.447-14.745,23.682c-0.57-0.278-3.776,6.472-4.348,6.192
			c3.873-8.941,7.742-17.884,11.612-26.826c-0.272-0.119-0.544-0.238-0.817-0.354c-3.154,6.071-6.313,12.146-9.471,18.221
			c-0.224-0.113-0.447-0.224-0.673-0.335c3.167-8.917,6.332-17.832,9.897-27.88l-13.673,25.982l8.046-30.364
			c0,0-7.187,16.159-7.472,15.922c1.29-9.638,2.526-13.99,2.874-14.826c-1.046,0.955-6.542,12.401-7.279,12.606l5.034-21.9
			c-3.065,7.739-8.228,17.487-10.781,23.937c-0.47-0.178,2.768-9.729,2.298-9.908c1.279-7.062,1.456-8.046,2.876-15.885
			c-2.711,5.152-5.073,9.64-7.436,14.126c-6.552,12.592-0.813-0.387-1.221-0.582c0.655-2.758,1.307-5.518,1.962-8.275l-0.48-0.125
			c-1.764,3.528-9.327,19.068-11.41,23.241c-0.56-1.749,4.98-14.582,4.684-15.51c-1.554,2.932,2.737-8.374,1.256-5.576
			c-0.465-0.182-6.704,13.738-7.169,13.558l9.036-25.093c-0.186-0.094-0.375-0.187-0.563-0.282
			c-5.505,10.698-11.009,21.395-16.516,32.091l-1.301-0.477c2.897-9.972,5.794-19.945,8.693-29.92
			c-0.468-0.173-8.271,23.248-1.4-0.515c-2.798,6.686-9.247,24.481-12.046,31.169c-0.544-0.2,2.56-11.505,2.013-11.705
			c0.721-2.795,1.442-5.588,2.163-8.382c-0.119-0.025-0.237-0.049-0.357-0.074c-4.46,12.578-14.23,37.437-14.652,37.287
			c6.736-23.067,13.475-46.133,20.213-69.202c-0.055-0.016-0.11-0.031-0.165-0.045c-0.21,1.317-0.762,2.553-1.418,3.852
			c-0.067,0.135-0.17,0.207-0.279,0.249c-1.88,4.829-5.221,12.06-5.264,12.19c-1.258,3.948-2.729,7.835-4.155,11.735
			c-0.459-0.119-6.717,18.726-1.375-0.351c1.033-4.252,2.062-8.503,3.092-12.75c-0.024-0.014-0.053-0.026-0.076-0.038
			c-3.527,5.388-7.901,18.377-14.679,27.975c1.407-3.618,8.84-32.519,10.236-36.104c-2.574,5.368-12.926,23.396-15.795,24.832
			c1.887-6.829,8.272-30.83,10.154-37.655c-0.455-0.137-2.348,7.419-2.802,7.284c-6.158,14.885-12.313,29.771-18.47,44.656
			c-0.337-0.111,4.367-14.175,4.03-14.285c5.264-18.339,2.22-11.342,7.485-29.679c-0.407-0.132,2.45-11.641,2.044-11.771
			c-3.524,10.843-7.05,21.688-10.572,32.531c-0.55-0.142,1.248-9.927,0.7-10.071c0.682-3.565,5.597-21.515,6.282-25.102
			c-1.101,0.996-6.671,20.817-7.665,21.717c-0.138-0.034,2.875-24.677-0.623,0.437c-0.421,3.162-0.937,6.312-1.583,9.439
			c-0.399,1.918-0.615,4.057-1.204,6.029c0.074,0.396,0.162,0.464,0.286-0.061c-3.482,14.584-5.7,23.866-9.183,38.452
			c-0.563-0.119,3.558-24.244,6.182-36.19c0.002-0.037,0.004-0.077,0.007-0.115c-0.002,0-0.002,0-0.002,0
			c0-0.001,0.002-0.002,0.002-0.002c0.162-2.997,0.493-5.984,0.982-8.946c0.305-2.716,0.908-5.397,1.608-8.054
			c1.08-7.429,2.151-14.801,3.154-21.717c-3.066,5.367-6.251,10.94-9.657,16.896c-0.492-2.115,3.666-18.015,3.136-20.291
			c-1.785,4.932-9.264,32.243-10.729,36.291c-1.148,1.667,1-9.165,0.745-9.314c0.241-5.109,0.481-10.217,0.724-15.326
			c-0.55-0.013,0.615-6.299,0.065-6.309c-2.618,8.178-8.873,30.548-11.495,38.727c-0.425-0.086,1.071-8.089,0.648-8.175
			c1.535-9.149,3.071-18.294,4.607-27.441c-0.328-0.049-0.655-0.097-0.982-0.148c-6.07,23.527-5.184,20.088-11.253,43.613
			c-0.819-0.186-8.596,26.593-9.416,26.406c6.773-26.464,13.55-52.928,20.322-79.392c-0.41-0.106-0.821-0.214-1.234-0.32
			c-2.957,8.773-5.915,17.548-8.872,26.318c-0.5-0.162-2.707,8.934-3.206,8.77c1.225-5.448,4.156-20.154,5.38-25.602l1.708-8.468
			c-1.894,5.548-7.059,19.091-8.95,24.639c-1.286-8.266,5.509-45.475,5.509-45.475c0-6.665-21.836,45.036-23.571,49.809
			c-0.48-0.115,6.029-24.104,5.549-24.219l0.589-5.555l-0.751-0.096c-5.624,15.818-14.897,41.553-20.521,57.371
			c-0.376-0.081,2.896-10.077,2.52-10.158c2.649-12.658,5.297-25.307,7.768-37.104c-1.354,5.09-4.09,13.987-4.924,14.487
			c0.304-4.419,4.796-25.322,5.051-29.094c-4.533,19.25-9.647,34.367-16.677,56.749c0.06-2.068,0.474-4.049,1.104-5.967
			c1.041-3.169,4.148-25.146,5.827-32.873c0.147-0.677,0.238-1.366,0.328-1.891c-0.729,0.604-7.7,16.961-7.962,16.936
			c-0.022,0.363-0.282,1.632-0.555,1.666c-2.534,12.177-6.44,31.007-7.518,36.135c-0.728-0.154,1.568-14.369,0.844-14.525
			c1.712-6.844,3.422-13.69,5.133-20.535c0.016,0.006,0.037-0.03,0.057-0.049c0.336-1.483,0.708-2.958,1.096-4.429
			c0.218-1.287,0.57-2.546,0.987-3.79c0.593-3.522,1.496-7.011,2.58-10.417c1.244-6.538,2.986-13.796,3.312-18.111
			c-0.345-0.098-0.689-0.193-1.031-0.29c-4.476,15.44-8.952,30.885-13.426,46.326c-3.105-8.989,3.478-17.496,0.466-26.836
			c-1.002,3.547-1.82,6.441-2.641,9.337c-0.485-0.086-0.973-0.174-1.459-0.261l1.809-14.823c-0.278-0.057-0.559-0.114-0.837-0.171
			l-6.946,25.712c-0.697-0.135,0.859-9.926,0.163-10.06c0.716-8.249,1.432-16.496,2.149-24.746c-0.157-0.014-0.317-0.03-0.474-0.046
			c-2.262,9.133-7.624,27.477-9.886,36.607c-0.979-0.152,1.139-9.519,0.161-9.672c1.826-14.311,3.651-28.62,5.311-41.628
			c-1.923,6.456-4.237,14.234-6.551,22.011c-7.683,37.265-1.125-11.132-0.932-14.038c-0.496-0.062-0.572,4.955-1.07,4.895
			c-2.959,10.675-5.918,21.348-8.878,32.023c-0.702-0.104-0.001-18.828,1.053-28.087c-0.181-0.012-0.363-0.019-0.545-0.03
			c-0.962,2.365-1.923,4.729-2.885,7.093c-0.564-0.105-1.699-16.48-1.699-16.48c-1.699,4.569-3.663,51.059-4.401,57.678
			c-0.547-0.053-0.253-44.313-0.253-44.313c-1.188,2.999-3.39,31.148-4.212,33.223c-0.39-0.092-0.05-15.893,0.505-23.704
			c-0.339-0.035-0.679-0.072-1.021-0.108c-1.067,5.259-4.241,15.633-4.761,15.56c0.376-5.415,0.752-10.829,1.127-16.243
			c-0.127,0.004-0.255,0.007-0.384,0.013c-0.958,3.528-1.916,7.058-2.873,10.586c0,0,1.256-22.619,3.057-33.688
			c-0.473,0.578-0.692,1.211-0.855,1.854c-4.062,15.988-6.54,32.157-6.52,48.67c0.004,2.806-1.222,5.607-1.877,8.41
			c-0.505-0.115-1.284-40.484,6.361-59.751c-0.454-0.096-5.92,14.327-8.198,21.632c-0.534-0.088-1.603-26.258-1.603-26.258
			c-2.815,16.942-2.324,42.729-1.868,45.551c-0.846-5.231-2.181-19.244-3.028-24.472c-2.716,3.104-2.99,29.332-2.99,29.332
			c-1.209-9.807-0.973-21.079-2.182-30.885c1.572-8.396-3.517,11.259-3.955,13.953c-1.017-2.444,2.003-25.495,2.518-27.284
			c-1.559,1.573-2.506,13.57-4.023,15.104c-0.354-0.29-0.709-0.583-1.063-0.877c0.28-5.206,0.561-10.414,0.84-15.62
			c-0.36-0.04,0.3-4.679-0.063-4.717c-1.485,9.492-4.837,27.171-6.321,36.661l-0.673-7.614c0-3.215,0.212-2.526-0.165-5.7
			c-0.365-3.07-1.335-22.126-2.036-24.951c-0.696,3.711-1.487,23.539-2.194,27.308c-0.646-0.053-1.293-0.107-1.941-0.163
			c-0.272-4.322-0.545-8.642-0.765-12.113c-0.494,6.419-1.056,13.692-1.617,20.965c-0.58,0.046-1.163,0.09-1.745,0.134
			c-0.826-3.62-1.653-7.241-2.48-10.861c-0.447,0.083-0.896,0.165-1.346,0.248v22.929c-0.394,0.007-0.786,0.017-1.178,0.025
			l-5.719-44.944l-0.718,0.008l1.886,44.928c-0.375,0.053-2.635-14.833-3.01-14.777c-0.468-0.788-0.936-21.263-1.589-22.361
			c-0.482,2.638-0.861,24.393-1.242,26.464c-2.203,12.422-1.123-0.031-1.686-0.048v-30.186c-0.561-0.01-0.246-7.406-0.805-7.417
			c-0.577,8.715-2.026,24.821-2.603,33.539h-0.543c-1.584-9.988-1.595,0.413-3.18-9.576c-1.02-1.961-3.205-20.312-4.023-20.272
			l-1.068,46.06c-1.974-3.403-3.983-24.991-4.547-36.113c-1.577,6.593-2.142,23.989-3.733,11.495
			c-0.594-5.334-1.189-10.669-1.784-16.002c0.11,7.571-0.235,23.802-0.28,25.068c-0.318,8.858,1.304,18.899,1.121,27.762
			c-0.063,3.029,0.492,6.073,0.765,9.111c-0.675,0.059-6.478-43.699-8.586-64.482c-2.067,4.985,1.379,12.824-6.265,18.78
			l-0.139-41.154c-0.555-0.036-0.973,13.31-1.528,13.273c-1.004,7.193-2.008,14.39-3.014,21.584c-0.31,0.002-0.619,0.006-0.931,0.01
			c0,0-1.079-15.979-1.619-16.021c-4.261,7.203-0.358,15.636-2.926,24.559c-1.342-12.661-2.536-23.923-3.845-36.274
			c-3.177,17.58-0.602,34.215-0.59,50.823c-5.723-13.37-2.958-27.455-4.069-41.196c-0.535,0.999-1.066,2-1.598,3.003
			c-0.348-0.045-0.696-0.089-1.041-0.133c-0.236-3.728-1.603-11.2-2.052-11.207v28.446c-0.777,0-4.157-29.566-5.068-29.557v55.233
			c-0.735,0.013-2.707-5.473-2.956-8.231c-0.379,0.013-0.762,0.028-1.142,0.041v15.342c0,0-0.906-37.202-3.715-57.104
			c-0.755,3.707-1.309,6.429-1.841,9.033c0.007,17.667-0.246,38.594,0.261,46.679c-0.646,0.049,0.193,4.637-0.454,4.684
			c-0.676-9.687-1.533-2.813-2.21-12.499c0.384-0.028,0.724-17.737,1.066-34.245c-0.112-0.081-0.194-0.206-0.212-0.382
			c-0.311-3.279-0.755-6.541-1.267-9.795c-0.264-1.247-0.524-2.495-0.787-3.744c-1.83,2.055-2.553,39.485-3.981,41.09
			c-3.874-9.215-6.313-35.138-6.322-35.145c-3.244,15.63,2.96,31.151,3.771,46.292c-3.271-13.423-6.543-26.847-9.886-40.567
			c-0.388,0.638,0.229,3.668-0.327,4.5c2.338,9.909,5.551,29.707,6.033,29.618c0.754,4.079,2.831,17.84,3.837,23.771
			c-1.937-10.882-2.46-10.072-2.985-9.993c-0.744-3.674-6.096-32.169-8.497-44.778c-0.077,0.051-0.166,0.085-0.263,0.096
			c-0.115,0.306-0.188,0.61-0.162,0.908c1.051,12.333,0.708,8.425,2.016,20.737c0.386,3.615,0.908,8.666,1.441,13.298
			c-5.769-14.726-7.279-29.006-7.279-35.996c-0.172,0.007-0.34,0.011-0.51,0.016c-0.344,3.112-1.377,14.689-1.721,17.802
			c-0.431-0.014-1.88-15.31-2.353-17.566c-0.435,2.66-0.134,8.164-0.442,10.046c-0.463,0.024,0.096,11.693-0.365,11.721
			c-0.984-5.231-2.986-22.104-3.97-27.333c-0.155,0.028-0.312,0.058-0.469,0.086v21.7c-0.329,0.054-3.726,11.981-4.056,12.037
			c-0.801-3.485-9.048-21.023-9.483-22.911c-1.038,1.865,7.493,27.262,8.469,36.156c-0.44,0.133,2.199,10.226-1.322,0.398
			c-4.92-13.661-9.838-27.324-14.759-40.985c-0.548,0.131-1.913-5.625-2.463-5.499l6.625,37.451
			c-0.624,0.129-8.464-24.003-11.849-36.527c0.348,4.824,6.415,45.996,6.637,47.021c0.236,0.635,0.476,1.267,0.71,1.902
			c0.096,0.257-0.005,0.468-0.179,0.595c1.27,6.083,2.25,11.639,1.942,11.651c-1.17-3.488-2.171-8.077-3.164-12.726
			c-0.776-2.071-1.56-4.149-2.037-6.293c-0.008,0.041-0.016,0.076-0.03,0.076c-0.198-1.285-0.523-3.143-0.926-5.352
			c-0.51-2.069-0.972-4.139-1.171-6.258c-1.805-9.517-4.122-21.321-4.829-25.923c-0.348,2.941-0.182,5.854,0.004,8.763
			c0.185,2.87,0.387,5.738,0.582,8.606c-0.671,0.046-3.546-9.082-4.312-13.69c-0.281,0.044-0.562,0.087-0.842,0.132
			c0.772,5.836,6.353,36.574,6.122,36.588c-1.342-2.674-9.827-32.928-9.846-32.899c-0.652-2.631-1.389-5.217-1.808-5.479
			c0.423,5.491,0.592,18.712-0.593,24.631c-0.659-3.202-4.003-15.362-4.664-18.57c-0.144,0.015-0.289,0.034-0.435,0.051
			l2.047,15.961c-0.617,0.081-7.168-26.525-7.058-40.338c-1.009,21.659,5.256,53.197,10.505,74.187
			c-0.592,0.163-3.42-10.096-4.013-9.932c-1.635-3.284-4.723-17.119-6.357-20.403l0.865,10.706c0.43,3.312,1.766,11.437,2.196,14.75
			c-0.614,0.122-2.132-4.569-2.745-4.447c-1.358-6.06-3.1-8.783-4.17-13.55c-1.006,0.41-4.865-12.938-6.125-12.422
			c3.838,8.726,4.574,26.393,6.882,34.145c-0.459,0.101-0.918,0.198-1.376,0.299c-2.853-6.903-7.195-20.051-10.049-26.953
			c-0.254,0.053,1.258,8.3,0.731,6.401c2.756,9.941,7.895,29.988,7.708,30.072c-2.251-4.935-4.503-9.869-6.829-14.972
			c-1.22,1.004-2.379,1.958-4.005,3.293c-3.147-13.13-6.126-25.559-9.391-39.168c0.443,6.987,0.793,12.861,1.196,18.73
			c0.277,4.022-1.996,21.77-0.587,26.934c0.279,1.02,0.041,2.169,0.041,3.259c-0.366,0.086-0.734,0.173-1.101,0.258
			c-3.338-8.615-9.513-23.374-12.852-31.987c-0.518,0.178,1.8,6.501,1.281,6.678c0.729,4.542,1.459,9.086,2.189,13.629
			c-0.263,0.044,1.392,6.572,1.13,6.616c-0.777-1.787-3.47-10.058-4.247-11.845c-0.218,0.059-0.438,0.118-0.657,0.177
			c1.966,9.099,3.932,18.198,5.898,27.297c-0.568,0.137-6.137-13.425-8.353-20.349l-0.525,0.14c0.274,2.05,1.702,14.295-0.676,6.557
			c-1.272-3.558-2.543-7.116-3.583-10.021c0.678,14.767,1.812,15.109,1.572,22.696c-1.639-5.108-8.529-19.632-9.961-24.096
			c-0.141,0.037-0.281,0.076-0.422,0.116c0.33,3.721,1.249,14.384,1.733,19.83c-4.315-6.595-10.574-18.519-10.574-18.519
			s11.22,28.335,16.249,42.873c-2.239-1.821-10.308-16.878-12.589-20.536c-1.271-2.038-6.966-12.341-8.692-15.276
			c0.043,0.097,4.59,11.127,4.633,11.225c3.799,7.862,15.75,31.051,15.122,31.354c-2.557-5.307-12.652-21.631-15.209-26.938
			c0.114-0.051-0.236-1.106-0.824-2.682c-2.981-5.862-5.862-11.775-8.858-17.635c2.649,14.631,5.046,19.265,7.507,31.963
			c-4.666-8.941-9.685-15.676-14.35-24.618c-0.169,0.041-0.339,0.084-0.507,0.125c1.704,6.411,6.04,16.955,7.746,23.364
			c-0.341,0.141-6.648-8.203-8.143-10.445c0.081,1.675,0.561,3.195,1.287,4.595c4.581,8.821,9.216,17.612,13.833,26.417
			c1.668,0.59,3.464,0.974,4.952,1.848c5.435,3.189,17.475,13.812,22.841,17.11c0.224-0.316-6.879-8.869-7.661-10.094
			c-0.641-1.005-12.746-16.327-15.021-20.239c0.563-0.211,6.157,6.219,9.014,10.189c0.23-0.103,0.521-0.09,0.712,0.169
			c0.326,0.44,0.639,0.895,0.961,1.338c0.032,0.018,0.064,0.037,0.095,0.062c0.148-0.112,0.296-0.224,0.445-0.336
			c1.164,1.445,2.221,2.993,3.529,4.309c1.056,1.059,10.455,11.219,11.68,12.12c0.217-1.387-6.153-11.344-7.224-14.624
			c3.757,4.914,5.765,8.366,10.613,13.229c3.444,3.455,7.083,7.791,12.112,9.318c-0.017-0.051-0.035-0.105-0.051-0.154
			c-0.202,0.048-0.424-0.008-0.571-0.233c-2.236-3.411-5.097-6.378-7.396-9.745c-0.24,0.125-11.651-23.137-11.148-23.398
			c4.11,7.595,12.22,22.837,12.163,22.866c1.839,2.678,4.021,5.11,5.962,7.717c-3.634-9.505-11.764-25.385-11.212-31.717
			c7.638,12.153,14.982,23.845,22.329,35.535c-2.493-8.225-10.507-29.06-10.507-29.06c5.2,3.806,8.41,12.967,16.424,22.16
			c-2.87-6.251-10.424-24.272-12.326-28.09c0.452,0.408,0.933,0.734,1.218,0.652c1.24,3.681,9.164,21.717,11.639,28.046
			c0.097,0.109,0.188,0.218,0.286,0.326c-4.116-11.564-8.044-26.279-8.535-30.789c-0.489-4.499,11.921,20.424,19.886,29.498
			L89.028,592.07c-1.211-2.131-2.854-7.514-2.462-7.12c2.396,2.401,4.268,5.124,6.036,7.922c0.417,0.599,0.804,1.223,1.166,1.866
			c0.858,1.391,1.712,2.787,2.611,4.161c2.223,3.403,4.909,6.554,6.998,10.037c0.543,0.446,1.099,0.901,1.682,1.38
			c-5.091-14.055-10.399-18.406-16.99-31.825c-0.318-0.646,11.929,16.03,17.178,29.098c-0.402-2.701-10.821-31.069-10.821-31.069
			s6.518,11.656,9.72,17.374c-0.015-1.65,0.056-2.888,0.241-3.344l22.685,31.838c-1.696-3.51-12.471-25.034-13.219-27.629
			c-0.706-2.45,15.709,18.926,15.709,18.926s-6.758-16.925-8.163-20.642c-0.817-2.16-1.587-4.337-2.816-7.705
			c5.64,5.947,21.264,37.353,22.281,38.158c-0.079-1.322-3.17-6.687-3.643-7.86c-2.656-6.594-6.843-20.372-6.132-20.721
			c3.618,5.336,15.24,27.896,15.24,27.896s-20.202-46.469-27.746-63.781c0.603-0.253,16.831,33.396,21.984,44.466
			c1.386,2.978,5.372,10.105,7.166,12.908c-0.785-5.198-3.491-14.84-4.274-20.041c0.256-0.083,0.512-0.166,0.769-0.249
			c3.428,8.712,6.855,17.423,10.762,27.351c-0.341-2.896-0.521-4.425-0.7-5.955c0.358-0.164,0.716-0.33,1.075-0.497
			c2.108,2.794,10.966,13.306,13.227,16.301c0.341-0.767-6.127-8.816-6.158-9.115c-0.055-0.537-0.182-1.133-0.484-1.572
			c-4.107-5.938-17.307-42.107-17.856-45.816c-0.502-3.389-1.436-9.786,1.63-2.379c-1.021-3.016,3.543,7.656,4.888,10.793
			c2.914,6.801,5.27,13.835,8.399,20.536c1.33,2.85,15.669,22.584,17.747,25.109c0.429-0.323-10.78-18.134-10.351-18.459
			l-2.586-6.369c0.268-0.097,0.533-0.192,0.8-0.288c3.625,5.136,7.252,10.269,10.876,15.402c0.618-0.34,5.038,10.052,5.655,9.714
			c-2.486-6.393-8.775-23.519-11.264-29.909l0,0c-0.465,0.104-9.917-22.477-10.38-22.373c-1.993-6.131-3.985-12.264-6.174-18.999
			c3.557,1.014,10.973,18.17,14.545,30.696c2.333,3.025,3.437,6.675,4.978,10.133c1.377,2.343,2.758,4.684,4.124,7.035
			c2.573,4.423,8.144,15.312,10.697,19.748c0.245-0.188-2.542-6.818-2.297-7.003c-3.527-9.541-7.055-19.079-10.581-28.62
			c0.528-0.21,1.056-0.42,1.583-0.632c7.112,14.088,14.227,28.178,21.341,42.265c0.163-0.059,0.325-0.115,0.489-0.174
			c-0.386-0.893-0.731-1.771-0.942-2.688c-0.96-2.601-1.673-5.279-2.303-7.982c-0.634-2.137-1.551-3.794-2.192-5.961
			c-1.466-2.426-2.922-5.464-3.974-8.089c-5.147-14.873-5.932-17.898-6.845-19.978c2.531,5.768,4.857,11.067,7.149,16.287
			c1.58,2.794,3.313,5.56,4.131,8.662c0.21,0.376,0.391,0.602,0.521,0.558c1.604,3.944,3.207,7.891,4.81,11.836
			c-0.955-3.906-1.908-7.813-2.842-11.724c-0.281-1.182-0.733-3.387-0.497-3.468c0,0,7.389,12.364,6.817,10.415
			c-0.763-2.605-7.488-21.467-8.238-24.071c-2.732-9.495-4.195-10.755-6.706-20.31c-0.092-0.349-2.218-9.331-1.583-10.785
			c6.174,17.699,15.274,44.689,21.124,61.462c0.407-0.144-2.438-10.507-2.031-10.65c-1.561-5.617-1.561-5.616-3.121-11.235
			c0.344-0.185-0.873-5.987-0.529-6.173c1.982,2.266,10.42,31.592,13.345,38.797c0.391-1.091-11.985-59.155-11.686-59.991
			c0.4-0.024,10.711,38.95,13.145,47.06c0.839,0.711-3.358-19.231-5.013-28.76c1.28,1.159,8.938,20.758,10.259,21.955l-6.958-26.83
			c0.187,0.413,0.475-0.328,0.428-1.114c-0.015-0.247,5.756,15.926,5.955,15.833c-1.38-4.554-14.164-44.349-16.826-54.225
			c1.692-0.256,4.002,8.855,5.697,8.593l10.938,39.707c1.829,4.064,4.445,9.616,6.369,13.702c1.414,3.002,0.359,1.37,3.26,8.881
			c0.393,1.014,3.782,5.675,7.229,12.042c-2.825-7.207-8.048-20.515-4.94-28.499c3.061,5.511,5.674,10.224,8.29,14.935l3.547,8.564
			c-2.649-7.317-7.424-23.778-10.069-31.098c0.477-0.15,0.957-0.302,1.437-0.454c0.903,1.743,1.886,3.453,2.697,5.236
			c1.854,4.071,3.629,8.177,5.433,12.269c0-0.045,0-0.089-0.002-0.133c-2.489-8.534-4.979-17.063-7.468-25.597
			c0.456-0.111,0.91-0.223,1.365-0.332c2.676,5.555,5.746,11.018,6.678,16.985c1.984,5.485,4.382,35.411,5.102,35.344
			c0.61-6.358,0.4-33.7,1.002-39.977c3.902,5.312,3.09,12.059,7.111,26.389c-1.343-7.005-4.346-33.719-3.706-33.998
			c1.199,1.544,7.852,25.12,10.151,30.551l-5.024-36.306c1.678,8.06,11.349,38.529,14.797,52.971
			c0.517-0.201-3.772-23.237-3.258-23.439c-0.738-1.798-1.322-12.272-1.322-12.272c0.458,1.089,0.918,2.179,1.376,3.267
			c0.01-0.009,0.021-0.021,0.034-0.029c-1.545-7.444-3.094-14.893-4.789-23.051c4.701,13.863,10.221,28.738,10.642,35.898
			c0.042,0.734-4.979-13.633-5.853-12.848c0.016,0.076,0.031,0.15,0.048,0.229c-0.027-0.066-0.057-0.132-0.082-0.199
			c-0.021,0.02-0.045,0.038-0.065,0.056c2.385,6.783,7.399,24.304,9.783,31.094c0.28-10.658-0.804-14.777-0.575-14.999
			c0.5-5.169-0.368-6.729,0.229-12.893c1.374,1.909,2.366,7.333,3.131,8.398l1.933,10.464c-0.806-5.547-1.87-24.844-2.828-38.519
			l9.746,37.068c0.151-0.023,0.301-0.051,0.451-0.075c-2.009-14.853-2.571-24.223-4.578-39.075c0.483-0.08,1.011,5.799,1.495,5.716
			c1.25,5.494,1.079-0.466,2.246,5.045c1.261,5.958,7.715,43.867,7.715,43.867l-2.106-34.809c0,0,7.666,35.661,8.812,35.736
			c1.26-4.925,1.886-22.929,3.301-28.451c1.182,2.107,2.103,27.239,3.405,29.562c-1.627-14.912-1.249-42.979,1.941-46.764v15.585
			c0.932,13.588,0.397,3.782,0.646,3.774c0.563-4.514,1.23-12.826,1.794-17.339c0.589,0.1,0.201-21.007,0.789-20.908
			c1.236,8.607,2.515,27.371,2.491,33.435c-0.008,1.714,0.37,14.325,0.957,15.552c5.174-25.794,8.457-44.286,12.646-59.808
			l-1.819,48.676c0.626,0.068-2.256,16.251-1.629,16.316c0.62-1.563,4.749-19.241,5.534-21.211
			c1.181,1.003-0.168,21.605,1.552,23.062c1.969-11.781,6.093-42.844,7.967-54.066c1.304,0.898,1.435,1.709,1.39,2.512
			c-0.403,7.162-4.338,38.094-4.567,45.26c-0.042,1.306,8.239-41.106,5.14-19.801c0.541-0.107-1.273,21.763-0.732,21.657
			c2.002-8.004,6.36-37.984,8.363-45.988c0.642,0.013-0.195,19.679,0.447,19.691c0.191-1.221,1.844-22.102,1.982-23.328
			c-0.032-0.194-0.076-0.301-0.133-0.307c0.667-5.614,1.987-26.268,2.652-31.882c0.758,0.085,0.862,15.21,1.621,15.293
			c-0.343,3.471-1.778,16.609-2.955,27.491c-0.148,3.659-0.419,7.309-0.911,10.939c0.005,1.94-0.021,3.887-0.04,5.831
			c0.555,1.721-1.481,15.149-0.873,16.886c0.658-3.945,2.48-20.208,3.064-23.701c0.491-0.044,2.766-18.101,3.257-18.145
			c0.555,1.169-0.193,29.995,0.957,36.476c0.04-0.113,0.347-1.246,0.829-3.064c-0.032-0.065-0.059-0.138-0.062-0.227
			c-0.171-4.331,0.023-8.644,0.776-12.921c0.029-0.168,0.114-0.284,0.224-0.355c0.934-10.096,4.501-21.123,6.087-31.944
			c-0.43,4.608-3.358,22.782-4.978,33.89c0.115,0.989,0.198,1.979,0.228,2.968c3.204-12.146,7.858-29.855,8.774-33.154
			c0.627-0.038,11.441-3.85,12.067-3.888c0.333,1.521-2.293,13.797-2.722,15.08c-2.506,7.513-4.786,17.926-7.511,25.366
			c-0.5,1.363-0.999,2.722-1.499,4.082c0.412,0.183-2.856,6.763-2.444,6.947c2.411-3.539,13.68-27.384,16.092-30.924
			c0.31,0.132-4.555,14.17-4.243,14.3c-0.628,2.739-1.257,5.479-1.883,8.217l-1.153,9.168c2.305-7.719,7.198-24.18,9.506-31.899
			c0.389,0.104,2.558-6.556,2.945-6.449c-0.747,5.37-3.279,17.5-4.028,22.87c0.689,0.26-2.599,9.831-1.909,10.086
			c6.897-16.664,9.965-26.863,17.344-34.581c-0.508,10.182-2.111,35.505-2.594,45.136c8.621-18.144,16.086-43.669,20.499-49.251
			c0.398,2.843-1.056,12.36-0.766,14.41c0.526,0.229,0.046,22.58,0.574,22.806c-0.612-0.095,6.359-35.455,5.747-35.55
			c0.82-4.57,5.611-22.73,6.432-27.302c0.638,0.108,0.051,7.246,0.667,7.48c-0.488,2.118-10.937,45.137-12.846,55.371
			c4.214-16.691,9.658-28.766,10.153-28.699c-0.381,5.801-3.547,19.542-3.992,26.3c3.827-8.008,7.225-15.111,10.619-22.216
			c0.331,0.089,0.664,0.178,0.994,0.268c-0.801,6.968-3.679,17.847-4.365,23.792c6.321-16.479,8.258-18.386,12.187-25.834
			c0,0,10.132-25.392,5.661-9.015c-1.481,5.428-10.469,43.244-10.759,45.958c2.547-4.741,14.183-31.443,16.091-34.995
			c1.572,2.437-5.889,19.923-4.405,22.22c2.72-4.963,11.012-22.357,11.522-22.2c-1.528,6.932-3.059,13.864-4.589,20.797
			c0.371,0.081-2.705,7.249-2.335,7.329c0.848-2.809,12.112-19.559,13.025-22.589l-1.53,14.997
			c3.723-10.554,6.949-20.528,11.876-27.774c-0.714,3.568-2.732,12.908-3.449,16.479l-1.723,8.703
			c1.311-3.07,4.816-14.521,6.129-17.589c0.251-1.101,6.368-17.006,10.538-19.443c-1.385,3.242-4.973,10.801-6.986,15.279
			c0.189,0.101,0.323,0.292,0.271,0.562c-0.09,0.462-8.508,26.288-8.61,26.746c0.552-0.202,9.49-25.803,10.366-26.127
			c-1.934,7.144-3.686,13.616-5.437,20.087c0.186,0.041-2.624,7.112-2.439,7.153c3.18-5.643,13.688-23.565,14.176-23.331
			l-4.98,21.293c0.34,0.022,2.722-6.135,3.065-6.111c1.122-3.354,4.392-7.558,4.824-7.511c0.345,2.562-2.612,8.676-2.143,12.14
			c2.091-5.378,9.728-13.781,11.494-18.33c0.897-0.178-10.948,29.107-10.535,28.33c4.214-7.961,16.426-29.936,16.857-29.811
			c-0.257,2.435-10.219,25.862-10.536,28.884c3.32-3.61,16.581-27.753,20.115-29.81c0.971,2.18-9.194,17.589-12.068,27.587
			c0.246-0.039,8.381-14.9,8.421-14.99c2.219-4.86,16.084-33.478,20.003-43.372C541.494,564.347,541.404,564.305,541.314,564.262z
			 M108.388,530.145c-2.012-6.334-2.981-19.81-3.011-19.938c0.028,0.057,0.058,0.115,0.087,0.172
			c2.395,10.866,6.785,31.082,7.973,36.296C112.947,546.766,108.877,530.053,108.388,530.145z M159.101,584.918
			c2.305,5.248,8.483,23.052,10.788,28.297c-0.554,0.237-4.979-12.084-5.533-11.849c-2.431-5.182-12.132-25.37-14.563-30.551
			C150.472,570.515,158.422,585.222,159.101,584.918z M221.968,567.207c1.252,8.455,7.111,41.07,8.185,48.323
			C226.613,604.921,223.214,589.981,221.968,567.207z M251.633,570.566c-0.523-4.684-1.342-12.023-2.463-22.042
			c0.746-0.08,1.489-0.16,2.234-0.24c1.287,11.986,4.04,39.112,4.905,46.474C255.52,594.822,252.424,570.509,251.633,570.566z
			 M268.822,582.204c-0.446,0.002-0.75-21.409-1.198-21.406V540.75c0.448-0.005,0.895-0.009,1.344-0.015L268.822,582.204z
			 M280.781,579.982c0.174-0.032,0.287,1.459,0.384,3.412C281.032,581.992,280.904,580.822,280.781,579.982z M302.045,616.403
			c-0.765-5.397-8.238-44.254-9.004-49.65c0.81-0.155,8.138,37.688,8.947,37.53c-1.018-8.862-3.624-37.254-3.924-37.286v-15.365
			c0.355,0.017,0.711,0.031,1.064,0.047l3.236,55.207c0.408,4.605,1.952,19.039,2.362,23.646
			C304.151,630.61,302.625,616.322,302.045,616.403z M325.61,589.054c-0.475-0.019-2.688,22.609-3.164,22.59l-0.286-46.658
			c0.203,0.001,1.534,30.181,1.534,30.181s3.064-38.792,3.351-31.294L325.61,589.054z M344.057,530.742
			c-1.166,7.521-4.065,38.666-5.231,46.187c-0.714-0.108,2.151-25.319,1.438-25.43c-2.859,16.323,0.391-8.979,5.746-39.563
			C346.579,512.019,343.488,530.661,344.057,530.742z M390.499,581.925c-0.512-0.105,7.169-31.43,6.656-31.538
			c0.216-1.763,3.115-12.151,3.453-14.933c-1.229,1.598-9.457,22.295-10.109,23.141c2.845-13.106,17.721-48.929,18.465-48.724
			C405.542,523.484,393.922,568.315,390.499,581.925z M414.737,590.14c-1,4.374-4.366,14.976-5.367,19.352
			c-2.342,5.116,0.951-6.628,0.244-6.829c1.038-4.32,8.636-30.578,9.674-34.9C419.958,567.911,414.067,589.995,414.737,590.14z
			 M468.259,582.299c-1.395,4.762-6.397,20.362-6.824,20.273c0.979-4.862,6.86-27.338,7.841-32.197
			C470.115,570.561,467.419,582.111,468.259,582.299z M510.991,586.268c-0.887-0.211-3.46,5.406-4.345,5.195
			c1.958-5.664,5.704-12.667,7.662-18.332l4.599-10.739C517.242,568.095,512.655,580.565,510.991,586.268z"/>
		<path fill-rule="evenodd" clip-rule="evenodd" fill="#EAECEC" d="M26.211,602.034c5.776,7.004,8.713,10.57,10.213,12.389
			c0.616-0.48,9.614,11.179,10.229,10.7c-1.017,1.108-18.571-17.42-21.73-20.687c-0.302,0.216,7.511,14.518,9.876,18.14
			c-0.501,0.375-19.604-23.307-22.043-30.776c1.895,1.936,3.194,3.265,4.495,4.592c0.301-0.195,0.602-0.391,0.901-0.588
			c-3.611-6.313-7.221-12.624-10.833-18.938c0.326-0.189,7.549,10.188,11.117,15.383c2.396,3.49,5.299,6.649,7.97,9.958
			C26.401,602.206,26.211,602.034,26.211,602.034z"/>
		<path fill-rule="evenodd" clip-rule="evenodd" fill="#EAECEC" d="M176.272,516.481c1.12,8.889,1.687,13.412,1.976,15.722
			c0.784-0.097,2.121,14.391,2.903,14.294c-1.468,0.431-6.36-24.243-7.278-28.624c-0.373,0.029-1.48,16.168-1.433,20.45
			c-0.631,0.064-4.044-29.782-2.068-37.38c0.562,2.609,0.948,4.4,1.334,6.19c0.363-0.014,0.726-0.028,1.086-0.042
			c0.352-7.208,0.702-14.413,1.053-21.619c0.383,0.002,0.9,12.498,1.119,18.732c0.146,4.186,0.903,8.347,1.385,12.518
			C176.343,516.719,176.272,516.481,176.272,516.481z"/>
		<path fill-rule="evenodd" clip-rule="evenodd" fill="#EAECEC" d="M219.38,497.745c-0.666-8.932-1.003-13.478-1.176-15.798
			c-0.787,0.06-1.389-14.474-2.174-14.417c1.486-0.358,5.122,24.518,5.817,28.938c0.374-0.008,2.299-16.078,2.468-20.356
			c0.634-0.036,2.528,29.938,0.17,37.433c-0.429-2.634-0.725-4.44-1.02-6.247c-0.362-0.003-0.725-0.006-1.086-0.007
			c-0.716,7.18-1.434,14.359-2.148,21.541c-0.381-0.021-0.266-12.527-0.166-18.765c0.065-4.186-0.479-8.38-0.748-12.567
			C219.322,497.501,219.38,497.745,219.38,497.745z"/>
		<path fill-rule="evenodd" clip-rule="evenodd" fill="#EAECEC" d="M250.129,526.257c-0.667-8.933-1.005-13.48-1.179-15.799
			c-0.786,0.057-1.387-14.477-2.172-14.417c1.486-0.36,5.121,24.516,5.816,28.938c0.374-0.014,2.298-16.08,2.468-20.358
			c0.633-0.036,2.527,29.938,0.17,37.432c-0.43-2.634-0.724-4.44-1.019-6.247c-0.363-0.002-0.726-0.004-1.087-0.008
			c-0.717,7.181-1.433,14.36-2.147,21.543c-0.383-0.021-0.266-12.528-0.166-18.764c0.065-4.188-0.48-8.381-0.749-12.567
			C250.071,526.011,250.129,526.257,250.129,526.257z"/>
		<path fill-rule="evenodd" clip-rule="evenodd" fill="#EAECEC" d="M267.371,515.553c-0.667-8.932-1.004-13.478-1.179-15.798
			c-0.785,0.06-1.386-14.474-2.172-14.416c1.485-0.359,5.121,24.517,5.816,28.938c0.374-0.01,2.299-16.079,2.469-20.357
			c0.632-0.036,2.527,29.938,0.169,37.434c-0.429-2.635-0.724-4.441-1.018-6.248c-0.364-0.002-0.726-0.006-1.087-0.009
			c-0.718,7.182-1.434,14.361-2.148,21.543c-0.382-0.021-0.265-12.527-0.166-18.763c0.066-4.188-0.48-8.382-0.749-12.569
			C267.312,515.311,267.371,515.553,267.371,515.553z"/>
		<path fill-rule="evenodd" clip-rule="evenodd" fill="#EAECEC" d="M441.794,596.406c2.339-8.667,3.53-13.076,4.137-15.326
			c-0.764-0.188,3.498-14.139,2.733-14.327c1.526,0.121-3.297,24.807-4.108,29.21c0.357,0.106,7.521-14.513,9.104-18.512
			c0.611,0.162-12.214,42.292-16.938,48.658c0.469-2.626,5.446-17.587,5.767-19.39c-0.343-0.114-0.684-0.229-1.023-0.345
			c-3.067,6.578-6.132,13.154-9.196,19.734c-0.354-0.14,3.913-11.946,6.079-17.821c1.455-3.944,2.331-8.085,3.469-12.135
			C441.819,596.158,441.794,596.406,441.794,596.406z"/>
		<path fill-rule="evenodd" clip-rule="evenodd" fill="#EAECEC" d="M455.668,582.779c2.339-8.663,3.53-13.075,4.137-15.324
			c-0.764-0.188,3.497-14.139,2.734-14.327c1.527,0.121-3.299,24.807-4.109,29.209c0.357,0.107,7.521-14.512,9.103-18.511
			c0.611,0.161-16.686,63.121-21.409,69.486c0.469-2.628,9.918-38.415,10.239-40.22c-0.342-0.112-0.684-0.229-1.023-0.343
			c-3.068,6.577-6.132,13.153-9.196,19.732c-0.355-0.138,3.912-11.944,6.078-17.82c1.455-3.943,2.331-8.084,3.469-12.134
			C455.694,582.532,455.668,582.779,455.668,582.779z"/>
		<path fill-rule="evenodd" clip-rule="evenodd" fill="#EAECEC" d="M464.182,551.475c2.336-8.667,3.528-13.075,4.136-15.327
			c-0.763-0.188,3.498-14.14,2.735-14.326c1.524,0.121-3.299,24.808-4.109,29.207c0.355,0.107,7.521-14.511,9.103-18.51
			c0.611,0.162-7.558,29.135-12.282,35.501c0.469-2.628,0.792-4.43,1.112-6.232c-0.343-0.115-0.686-0.23-1.026-0.346
			c-3.066,6.578-6.129,13.154-9.194,19.734c-0.354-0.14,3.911-11.946,6.078-17.821c1.456-3.944,2.333-8.084,3.47-12.132
			C464.208,551.225,464.182,551.475,464.182,551.475z"/>
		<path fill-rule="evenodd" clip-rule="evenodd" fill="#EAECEC" d="M402.428,588.499c2.339-8.665,3.531-13.075,4.139-15.326
			c-0.765-0.188,3.498-14.137,2.732-14.328c1.527,0.123-3.299,24.81-4.109,29.211c0.357,0.108,7.523-14.513,9.104-18.511
			c0.611,0.162-7.557,29.135-12.282,35.502c0.47-2.629,0.791-4.432,1.112-6.234c-0.343-0.113-0.685-0.23-1.025-0.344
			c-3.066,6.578-6.132,13.152-9.194,19.732c-0.354-0.137,3.911-11.944,6.077-17.82c1.453-3.943,2.333-8.086,3.471-12.135
			C402.456,588.25,402.428,588.499,402.428,588.499z"/>
		<path fill-rule="evenodd" clip-rule="evenodd" fill="#EAECEC" d="M378.86,576.546c1.59-8.824,2.401-13.314,2.814-15.604
			c-0.778-0.128,2.278-14.369,1.5-14.497c1.531-0.002-1.168,24.985-1.601,29.438c0.366,0.077,6.257-15.063,7.491-19.176
			c0.623,0.114-10.822,53.587-14.987,60.307c0.243-2.654,6.19-28.423,6.356-30.246c-0.352-0.085,2.039-11.805,1.689-11.89
			c-2.494,6.801-7.727,25.226-10.22,32.03c-0.361-0.11,2.879-12.219,4.537-18.245c1.111-4.048,1.633-8.246,2.42-12.37
			C378.865,576.294,378.86,576.546,378.86,576.546z"/>
		<path fill-rule="evenodd" clip-rule="evenodd" fill="#EAECEC" d="M83.759,558.027c2.717,8.563,4.096,12.921,4.802,15.145
			c0.755-0.227,4.702,13.809,5.455,13.582c-1.367,0.672-10.666-22.79-12.365-26.946c-0.363,0.091,1.479,16.167,2.305,20.376
			c-0.61,0.17-9.393-28.633-8.828-36.448c1.028,2.474,1.733,4.17,2.438,5.868c0.354-0.077,0.708-0.153,1.063-0.229
			c-0.964-7.152-1.927-14.304-2.892-21.459c0.375-0.062,3.158,12.152,4.504,18.253c0.905,4.095,2.407,8.064,3.635,12.088
			C83.873,558.254,83.759,558.027,83.759,558.027z"/>
		<path fill-rule="evenodd" clip-rule="evenodd" fill="#EAECEC" d="M46.459,585.425c-15.425-31.424-15.914-38.702-16.86-38.265
			c1.275,2.725,5.914,12.643,17.209,36.795C46.403,584.186,46.868,585.195,46.459,585.425z"/>
		<path fill="#EAECEC" d="M49.103,604.44c-7.285-15.577-11.795-25.222-14.425-30.847c-0.047,0.073-0.112,0.127-0.184,0.17
			c2.064,5.515,6.032,15.385,14.26,32.145C49.162,605.677,48.697,604.669,49.103,604.44z"/>
		<path fill="#EAECEC" d="M71.593,576.281c-7.285-15.578-11.795-25.221-14.425-30.846c-0.047,0.072-0.113,0.126-0.184,0.169
			c2.064,5.515,6.032,15.386,14.26,32.146C71.652,577.517,71.188,576.51,71.593,576.281z"/>
		<path fill="#EAECEC" d="M70.163,566.285c-3.53-16.751-7.987-27.391-9.261-33.439c-0.063,0.061-0.139,0.101-0.218,0.127
			c0.747,5.819,1.919,17.384,6.098,35.49C67.233,568.325,69.716,566.421,70.163,566.285z"/>
		<path fill="#EAECEC" d="M142.18,531.618c-3.53-16.75-7.986-27.389-9.26-33.439c-0.063,0.061-0.139,0.102-0.218,0.128
			c0.747,5.82,1.92,17.386,6.099,35.491C139.25,533.658,141.733,531.755,142.18,531.618z"/>
		<path fill="#EAECEC" d="M143.21,522.425c-0.549-17.086-3.082-28.301-3.28-34.472c-0.073,0.051-0.155,0.076-0.237,0.092
			c-0.282,5.857-1.148,17.446-0.195,35.975C141.137,533.606,142.746,522.487,143.21,522.425z"/>
		<path fill="#EAECEC" d="M96.732,556.537c-3.53-16.749-7.987-27.389-9.26-33.438c-0.063,0.062-0.14,0.101-0.218,0.126
			c0.746,5.822,1.919,17.386,6.098,35.49C93.802,558.578,96.286,556.675,96.732,556.537z"/>
		<path fill="#EAECEC" d="M30.705,593.758c-7.665-16.391-12.256-26.21-14.82-31.69c0.084,0.358,0.167,0.717,0.236,1.083
			c2.071,5.527,6.042,15.384,14.235,32.075C30.765,594.995,30.3,593.988,30.705,593.758z"/>
		<path fill="#EAECEC" d="M49.103,576.815c-4.533-14.759-7.246-23.596-8.763-28.531c0.004,0.294,0.005,0.584-0.006,0.877
			c0.944,4.784,2.943,13.419,7.998,28.589C48.855,577.734,48.584,576.829,49.103,576.815z"/>
		<path fill-rule="evenodd" clip-rule="evenodd" fill="#EAECEC" d="M37.662,601.016c14.174,20.471,15.375,21.731,15.995,21.336
			c-1.184-1.781-2.51-5.548-13.008-21.336C40.911,600.818,37.399,601.217,37.662,601.016z"/>
		<path fill-rule="evenodd" clip-rule="evenodd" fill="#EAECEC" d="M80.662,530.187c3.778,10.026,7.555,20.051,11.332,30.075
			c-0.946,0.095-1.893,0.192-2.837,0.286c-2.836-10.124-5.67-20.249-8.509-30.374C80.645,530.174,80.662,530.187,80.662,530.187z"/>
		<path fill-rule="evenodd" clip-rule="evenodd" fill="#EAECEC" d="M226.613,616.403"/>
		<path fill-rule="evenodd" clip-rule="evenodd" fill="#EAECEC" d="M223.214,593.441"/>
		<path fill-rule="evenodd" clip-rule="evenodd" fill="#EAECEC" d="M149.792,560.458"/>
		<path fill-rule="evenodd" clip-rule="evenodd" fill="#EAECEC" d="M157.359,579.15c-0.465,0.104-0.929,0.207-1.393,0.309"/>
		<path fill-rule="evenodd" clip-rule="evenodd" fill="#EAECEC" d="M122.997,605.473c0.004,0.005,0.132,0.136,0.132,0.136
			c-1.423-3.713-2.859-7.421-4.265-11.138c-0.817-2.16-1.587-4.339-2.815-7.704"/>
	</g>
</g>
<g id="Layer_2" display="none">
	<path display="inline" fill="#E8E9EA" d="M-100.995,571.528c6.116-3.674,7.619-5.052,8.998-8.339
		c3.54,0.229,17.399-9.899,19.837-14.354c1.885-3.449,4.865-6.591,5.68-10.351c0.08-0.371,0.574-0.749,1.004-1.016
		c2.088-1.309,2.74-3.15,3.425-4.924c1.378-3.58,2.465-7.22,3.845-10.797c0.683-1.778,1.523-3.561,2.679-5.199
		c2.072-2.922,4.531-5.701,6.653-8.608c1.846-2.528,3.53-5.125,5.126-7.743c0.885-1.449,1.751-2.83,4.012-3.717
		c1.292,1.656,2.153,3.182,0.772,4.919c-0.714,0.903-1.11,1.821-0.657,2.871c0.108,0.249,0.123,0.65-0.079,0.824
		c-2.813,2.427-2.531,5.659-4.148,8.429c-1.352,2.312-2.702,4.638-4.304,6.86c-2.389,3.315-6.854,17.211-7.307,17.641
		c-1.104,1.057-1.962,2.149-0.426,3.464c1.681,1.44-4.456,19.922-3.809,18.858c2.068-3.4,5.51-6.287,6.985-9.912
		c0.494-1.219,1.498-2.326,2.127-3.522c1.683-3.191,4.24-6.091,5.192-9.558c0.675-2.466,2.718-4.731,4.099-7.103
		c0.458-0.789,0.942-1.608,1.096-2.444c0.354-1.928,1.512-3.542,3.305-4.939c1.571-1.227,2.439-2.668,2.204-4.309
		c-0.359-2.513,1.068-4.782,1.629-7.165c0.099-0.414,0.236-0.96,0.636-1.18c4.659-2.557,9.188-10.731,9.572-11.053
		c0.453-0.378,1.943-0.148,1.994,0.339c0.223,2.265,0.362,4.533,0.524,6.803c0.011,0.14-0.012,0.352-0.131,0.407
		c-3.751,1.799-8.23,9.561-7.927,11.026c0.353,1.711-9.323,10.484-8.701,14.785c0.308,2.115-1.108,3.982-3.404,5.213
		c-1.959,1.049-3.22,3.908-3.22,3.908c2.507,1.078-0.98,9.079-1.729,11.568c-0.122,0.403-0.407,0.938-0.846,1.104
		c-2.663,1.017-2.649,2.894-3.342,4.653c-0.566,1.437-0.466,3.192-2.487,4.226c-1.218,3.148-3.203,6.346,1.444,9.154
		c1.685-0.547,4.777-5.063,4.082-6.585c-0.204-0.448,0.071-1.359,0.539-1.563c4.146-1.797,11.938-18.452,11.667-18.653
		c-2.389-1.753-0.484-3.47-0.074-5.206c0.404-1.719,1.202-3.221,2.801-4.628c1.475-1.296,2.272-2.985,3.517-4.435
		c0.731-0.851,1.714-1.633,3.366-0.976c1.117,1.713-1.167,2.554-1.821,3.798c0.46,0.45,1.37,0.938,1.293,1.325
		c-0.685,3.351,0.845,6.884-1.561,10.091c-1.297,6.068-2.215,12.167-2.668,18.301c-0.135,1.846-0.274,3.693-0.43,5.766
		c1.804-0.292,3.667-1.399,3.664-0.931c-0.015,2.996-0.238,5.997-0.166,8.993c0.04,1.682,0.514,3.357,0.795,5.048
		c0.05,0.241,0.097,0.472,0.144,0.707c-0.059-0.249-0.119-0.499-0.177-0.747c-0.197,0.55,0.257,5.855-1.025,7.925
		c-0.302,0.488-0.297,1.16-0.122,1.696c0.975,2.993,0.634,5.971,0.004,8.957c-0.045,0.206,0.333,0.459,0.752,0.99
		c0.5-0.518,1.204-0.908,1.209-1.302c0.019-2.188,0.662-4.189,2.07-6.175c0.866-1.222,0.874-2.771,1.197-4.179
		c0.907-3.95,1.799-7.898,2.647-11.854c0.18-0.842,0.201-1.705,0.208-2.561c0.069-7.863,1.083-25.615,0.56-26.487
		c-0.816-1.361-0.652-2.68,0.488-3.655c1.997-1.714,1.666-11.09,3.993-13.49c0.212-0.222,0.333-0.556,0.301-0.824
		c-0.395-3.212,1.745-6.12,2.127-9.227c0.277-2.259,0.174-4.544,0.421-6.805c0.309-2.842,1.105-5.667,1.149-8.506
		c0.073-4.576,1.885-8.988,2.122-13.54c0.036-0.673,0.386-1.438,0.938-1.976c0.846-0.824,0.684-1.582,0.286-2.415
		c-0.874-1.846-0.909-3.607,0.646-5.338c0.515-0.568,0.627-1.354,0.79-2.056c1.381-5.923,2.872-11.834,4.053-17.78
		c1.576-7.932,2.894-15.892,4.342-23.839c0.878-4.812,1.541-9.655,2.781-14.419c0.869-3.355,2.571-6.597,3.854-9.9
		c0.532-1.367,0.9-2.768,1.398-4.142c1.701-4.701,3.363-9.409,5.162-14.094c1.632-4.259,3.648-8.449,5.09-12.739
		c1.96-5.839,4.489-11.45,8.362-16.831c2.14-2.97,4.55-5.947,5.657-9.351c0.607-1.857,2.273-3.628,3.891-5.209
		c3.56-3.489,5.977-7.419,8.874-11.166c-0.063,0.062-4.46,1.366-7.512,2.285c1.157-0.252,1.886-0.243,1.659,0.33
		c0.04,0.664-26.56,38.37-27.912,35.643c1.353,2.728-0.012,5.412-1.072,8.136c-1.224,3.14-2.209,6.33-3.556,9.44
		c-1.325,3.061-1.548,6.405-4.294,9.121c0.03,0.053,0.069,0.107,0.096,0.161c-0.066,0.036-0.113,0.082-0.176,0.121
		c0.037,1.684-0.545,3.197-2.347,4.392c-0.008,0.022-0.013,0.046-0.021,0.067c-0.005-0.013-0.008-0.027-0.014-0.041
		c0.013-0.008,0.023-0.017,0.035-0.026c0.56-1.528,0.489-3.237,2.347-4.392c-0.004-0.064,0.002-0.128-0.001-0.191
		c0.03-0.031,0.052-0.062,0.081-0.091c-0.413-0.721-1.068-1.449-1.039-2.158c0.252-5.707,1.035-11.372,3.191-16.896
		c0.479-1.231,0.996-2.467,1.258-3.726c1.678-8.153,0.754-8.396,6.137-15.57c0.309-0.41,5.885-8.313,7.296-7.996
		c-0.116,0.496,5.784-7.95-0.366,1.52c-1.188,1.827,8.768-13.745,10.068-15.96c0.018-0.038,0.03-0.075,0.059-0.121
		c0.148-0.236,0.111-0.165-0.059,0.121c-0.379,0.915,2.631-0.103,5.503-1.002c-0.085-0.005-0.172-0.008-0.255-0.013
		c0.018-0.121,0.035-0.245,0.054-0.365c0.251,0.033,10.591-2.822,10.84-2.788c1.728-2.234,3.665-4.392,5.646-6.517
		c0.512-0.547,1.478-1.109,2.338-1.21c3.073-0.363,5.856-2.021,9.215-1.127c3.755-0.879,7.674-1.505,11.211-2.715
		c3.067-1.048,35.702,13.37,41.189,18.082c2.154,1.852,4.035,3.896,7.261,4.995c0.997,0.339,1.896,1.094,2.444,1.814
		c4.019,5.284,31.879,20.838,33.499,18.056c1.309-2.248,2.23-4.564,1.914-7.077c-0.59-4.701-1.121-9.407-1.551-14.118
		c-0.406-4.424-0.35-8.841,0.619-13.248c0.305-1.393,0.193-6.261,0.264-7.254l-0.086,0.133l-0.865-2.267
		c0.645-0.417,4-12.749,3.984-14.89c-0.023-3.133-0.176-6.274,0.102-9.396c0.508-5.671,1.291-11.333,1.961-17.031
		c0.588,0.017,1.641,0.269,2.023,0.009c0.648-0.44,1.045-1.18,1.219-1.839c0.143-0.525-0.227-1.117-0.33-1.684
		c-1.303-6.962-0.768-13.962-0.682-20.943c0.045-3.403,1.246-6.678,2.873-9.971c1.572-3.173,3.129-6.625,1.688-10.177
		c-0.822,1.358-1.66,2.71-2.455,4.075c-0.586,1.004-1.115,2.024-1.734,3.153c-0.568-0.4-1.029-0.576-1.027-0.744
		c0.045-2.132-0.172-4.301,0.311-6.384c1.197-5.182,2.672-10.333,4.137-15.482c0.596-2.089,1.389-4.149,2.23-6.194
		c0.244-0.598,0.961-1.094,1.666-1.857c1.139,3.643,0.463,8.227-1.686,12.665c1.16-0.081,2.408-0.091,3.064-0.938
		c0.861-1.106,1.924-2.208,2.32-3.412c1.717-5.179,2.541-10.395,0.115-15.608c-0.566-1.219-1.154-2.438-1.621-3.677
		c-0.416-1.103-0.816-2.223-0.98-3.352c-0.498-3.396-0.85-6.8-1.318-10.196c-0.203-1.49-0.965-2.711-3.102-3.367
		c-2.43-0.746-3.285-2.006-3.199-4.073c0.092-2.234-0.627-4.423,0.857-6.617c0.514-0.762,0.271-2.015-0.223-2.861
		c-1.613-2.751-1.895-5.411-0.613-8.316c0.693-1.578,0.828-3.464,0.361-5.084c-0.758-2.637-0.127-5.131,0.555-7.634
		c0.721-2.639,1.789-5.228,2.705-7.839l-0.113,0.124c0.252-1.38,0.561-2.758,0.742-4.146c0.309-2.399,0.818-4.734,2.916-6.734
		c0.563-0.531,0.857-1.06,1.945-1.372c1.793-0.511,1.533-1.697,0.764-2.784c0.002-0.259,0.004-0.515,0.004-0.77
		c0.012,0.263,0.021,0.527,0.031,0.79c0.828-2.201,1.82-4.378,2.453-6.607c1.592-5.618,3.645-11.133,7.143-16.294
		c2.777-4.104,5.631-8.202,8.945-12.085c2.262-2.651,4.926-5.14,7.332-7.747c1.842-1.995,4.324-3.632,7.523-4.73
		c3.984-1.368,7.324-3.384,9.035-6.493c0.213-0.392,0.551-0.767,0.922-1.097c5.619-5.033,9.637-10.791,14.303-16.256
		c2.588-3.028,5.504-5.951,8.68-8.669c5.734-4.902,13.205-7.595,22.055-8.479c8.66-0.867,17.324-1.299,26.072-1.17
		c2.906,0.043,5.365,0.578,7.906,1.474c6.053,2.136,12.191,4.148,18.342,6.14c1.34,0.435,2.84,0.622,4.275,0.901
		c-0.496-0.515-0.908-1.138-1.59-1.411c-2.25-0.903-4.623-1.643-6.955-2.433c-3.232-1.094-6.66-1.961-9.664-3.312
		c-4.436-1.995-9.197-2.509-14.227-2.513c-2.566-0.003-5.141-0.048-7.695-0.189c-0.879-0.05-1.723-0.459-2.764-0.757
		c0.816-1.771,2.344-2.914,3.848-3.99c2.25-1.606,4.695-3.072,7.086-4.573c1.646-1.031,3.359-2.001,5.014-3.023
		c7.213-4.458,14.385-8.951,22.213-12.852c1.447-0.724,2.869-1.521,2.283-3.038c-6.508,3.636-13.271,7.06-19.438,10.972
		c-7.244,4.595-15.23,8.652-21.107,14.305c-1.592,1.534-3.67,2.652-6.238,3.075c-4.402,0.727-8.863,1.278-13.584,1.943
		c-0.223-0.863-0.385-1.483-0.543-2.091c-3.277,1.786-6.484,3.643-9.855,5.332c-3.783,1.9-7.047,4.16-9.939,6.727
		c-5.654,5.015-10.658,10.345-14.344,16.243c-1.756,2.814-4.705,4.934-7.199,7.32c-2.248,2.149-4.49,4.168-8.271,5.322
		c-2.768,0.843-5.064,2.689-6.629,4.762c-1.836,2.426-4.307,4.39-7.697,5.813c-2.904,1.22-3.168,1.722-2.123,4.139
		c0.789,1.838-0.922,2.58-2.201,3.587c-2.285,0.171-3.332-0.785-3.686-2.177c-0.277-1.101-0.355-2.24-0.355-3.363
		c-0.002-1.358,0.152-2.716,0.246-4.074c-2.248,1.162-2.662,3.041-3.174,4.761c-2.363,7.969-6.51,15.55-9.568,23.366
		c-2.359,6.041-4.564,12.112-6.914,18.155c-0.355,0.912-1.123,1.743-1.691,2.621c0.025,0.03,0.041,0.061,0.066,0.091
		c0.016,0.228,0.029,0.456,0.043,0.684c-0.037-0.247-0.072-0.494-0.129-0.749c0.006-0.011,0.014-0.019,0.02-0.027
		c-1.635-2.023-1.842-4.266-1.979-6.533c-0.266-4.428-0.553-8.855-0.918-13.28c-0.039-0.441-0.664-0.855-1.48-1.842
		c-0.461,1.097-0.85,1.581-0.828,2.052c0.08,1.712,0.205,3.43,0.484,5.131c0.328,2.03,0.086,3.907-1.086,5.842
		c-0.84,1.392-0.918,3.05-1.158,4.604c-2.02,12.928-4.021,25.859-5.969,38.794c-0.406,2.697-0.311,5.445-0.906,8.117
		c-1.475,6.644-1.956,13.347-2.575,20.036c-0.529,5.701-0.579,11.424-0.896,17.137c-0.107,1.996-0.21,4.007-0.6,5.98
		c-1.455,7.387-1.637,14.812-1.637,22.251c0,4.434-0.162,8.866-0.378,13.298c-0.062,1.274-0.354,2.587-0.901,3.797
		c-1.71,3.789-2.924,7.665-4.967,11.415c-2.955,5.422-6.225,10.812-7.779,16.604c-0.5,1.858-0.726,3.665-0.354,5.529
		c1.049,5.231,2.367,10.446,3.016,15.705c0.592,4.822,0.463,9.692,0.601,14.542c0.012,0.395-0.37,0.793-0.642,1.337
		c-3.518,0.842-6.809,0.784-10.01-0.945c-3.637-1.965-7.8-3.488-11.114-5.688c-5.575-3.699-11.878-6.67-17.849-9.968
		c-1.369-0.756-3.154-1.124-4.744-1.674c-2.498-0.862-5.171-1.535-7.455-2.632c-4.677-2.24-9.715-3.779-15.107-4.81
		c-1.718-0.329-3.391-0.794-5.119-1.093c-2.693-0.465-5.41-0.853-8.127-1.252c-1.734-0.255-3.479-0.465-5.217-0.705
		c-1.559-0.218-3.099-0.513-4.67-0.662c-5.313-0.5-10.627-0.987-15.953-1.403c-2.354-0.185-4.744-0.328-7.1-0.235
		c-2.811,0.111-5.543,0.532-6.965,2.683c-0.324,0.491-0.937,0.979-1.592,1.244c-4.113,1.681-5.635,5.128-9.375,7.063
		c-0.589,0.306-0.871,0.938-1.246,1.437c-1.604,2.128-3.079,4.314-4.811,6.387c-2.468,2.952-4.361,6.061-5.228,9.256
		c-2.258,0.594-4.05,1.194-5.932,1.527c-2.314,0.412-3.17,1.561-3.625,3.04c-0.771,2.506-1.406,5.04-2.375,7.505
		c-0.474,1.206-1.373,2.39-2.417,3.4c-4.019,3.888-8.356,10.012-6.803,8.727c0.289-0.091,3.266,1.698,5.942,0.455
		c-0.065,1.22,0.139,2.085-0.198,2.822c-0.87,1.898-2.037,3.723-2.975,5.607c-0.592,1.191-1.01,2.432-1.449,3.661
		c-0.249,0.69-0.144,1.497-0.602,2.091c-2.441,3.173-3.265,6.74-4.913,10.104c-3.572,7.296-5.68,14.847-7.482,22.448
		c-0.437,1.833-7.031,25.867-6.601,27.331c-3.323,5.714-7.441,19.684-7.727,20.653c-0.654,2.223-1.512,4.453-1.698,6.704
		c-0.376,4.563-0.335,9.147-3.139,13.399c0.761,0.477,1.333,0.832,1.949,1.213c-2.096,1.411,0.345,3.581-2,5.166
		c-1.103,0.219-4.555,1.355-4.686,1.607c-2.047,4.016-9.051,19.37-9.489,23.213c-0.223,1.955-6.041,14.663-6.777,18.178
		c-0.282,1.354-11.294,25.695-11.621,28.722c-0.187,1.747-0.788,3.346-3.082,4.424c-0.911,0.429-1.653,1.251-2.034,2.01
		c-0.667,1.333-1.532,2.79-1.36,4.131c0.404,3.144-1.377,5.471-4.101,7.688c-1.298,1.06-2.318,2.315-3.287,3.556
		C-102.269,570.427-102.24,571.184-100.995,571.528z M155.63,254.904c1.252,4.067,2.033,8.184,0.932,12.323
		c-1.939,7.289-4.059,14.555-6.071,21.836c-0.432,1.557-0.854,3.065-2.762,4.129c-1.24,0.692-1.105,1.76-1.056,2.771
		c0.267,5.332-2.018,10.296-4.284,15.259c-0.047,0.103-0.227,0.173-0.344,0.263c0.006,0.023,0.012,0.048,0.02,0.072
		c0.009,0.02,0.02,0.038,0.027,0.056c0.171,0.158,0.348,0.313,0.482,0.483c0.052,0.066-0.057,0.196-0.089,0.296
		c-0.13-0.26-0.261-0.52-0.394-0.779c-0.033-0.03-0.066-0.062-0.1-0.093c0.013-0.014,0.036-0.024,0.053-0.035
		c-0.307-1.094-0.555-2.198-0.947-3.275c-2.141-5.833-2.131-11.634,1.258-17.196c2.316-3.802,4.223-7.68,5.881-11.643
		c2.398-5.737,5.293-11.392,5.02-17.534c-0.069-1.56,0.168-3.131,0.352-4.69c0.128-1.092,0.403-2.174,0.709-3.771
		C155.064,254.227,155.519,254.539,155.63,254.904z M150.54,325.71c0.164,0.133,0.326,0.268,0.488,0.399
		c-0.145,0.038-0.309,0.128-0.432,0.105c-0.133-0.024-0.229-0.155-0.341-0.239C150.352,325.887,150.447,325.798,150.54,325.71z
		 M150.803,322.317c0.117,0.076,0.357,0.188,0.337,0.222c-0.111,0.191-0.283,0.365-0.438,0.546
		c-0.118-0.071-0.238-0.143-0.361-0.214C150.493,322.686,150.649,322.501,150.803,322.317z M159.642,310.453
		c0,0-10.393,16.3-12.77,18.654c-0.262-3.515,6.287-28.663,9.155-32.322c0.449-0.572,0.229-1.404,0.398-2.104
		c1.627-6.74,3.264-13.479,4.924-20.213c0.123-0.491,0.463-0.954,1.047-2.113c1.918,3.27,2.77,6.039,0.707,8.408
		c-1.791,2.054-1.691,3.964-1.441,6.085c0.168,1.42,0.283,2.846,0.299,4.271c0.074,5.27-1.867,10.43-1.689,15.715
		C160.298,307.571,159.644,310.45,159.642,310.453z M152.589,363.765c-0.229-1.689-0.159-3.419,0.011-5.117
		c0.23-2.268,0.726-4.52,1.03-6.783c0.499-3.696,0.917-7.393,0.348-11.111c-0.084-0.553,0.133-1.134,0.236-1.7
		c0.775-4.247,1.463-8.505,2.371-12.735c0.504-2.364,1.377-4.687,2.086-7.027c0.383,0.031,0.768,0.064,1.148,0.096
		c0.063,0.838,0.246,1.68,0.17,2.51c-0.428,4.683-0.854,9.367-1.396,14.044c-0.463,3.98-1.242,7.942-1.578,11.926
		c-0.178,2.119-0.111,4.331,0.543,6.386c1.352,4.241,0.977,8.537,1.299,12.806c0.115,1.529-0.52,3.119-1.076,4.632
		C157.078,373.599,152.972,366.549,152.589,363.765z M-22.638,558.228l-0.96,1.354c-0.175-0.105-0.356-0.213-0.535-0.321
		c0.493-0.332,0.984-0.665,1.475-1.009c-0.156-0.228-0.312-0.455-0.381-0.557C-22.969,557.792-22.805,558.01-22.638,558.228z
		 M-39.861,540.617l-0.459,0.092c-0.091-0.109-0.262-0.223-0.243-0.313c0.02-0.098,0.217-0.175,0.337-0.261
		C-40.105,540.295-39.981,540.457-39.861,540.617z M-21.73,514.94c-0.27,0.12-0.528,0.242-0.778,0.368
		c-0.038,0.048-0.083,0.093-0.124,0.14c0.003,0.058,0.013,0.114,0.013,0.172c0.136,0.278,0.268,0.555,0.402,0.832
		c-0.12-0.052-0.341-0.094-0.352-0.155c-0.041-0.224-0.042-0.45-0.051-0.677c-0.033-0.069-0.068-0.141-0.102-0.21
		c0.064-0.036,0.146-0.066,0.213-0.102c0.128-0.153,0.251-0.312,0.403-0.454C-22.079,514.83-21.86,514.91-21.73,514.94z
		 M-24.438,390.125c0.08,0.371-0.016,0.764-0.048,1.179c-0.484-0.112-1.077-0.171-1.091-0.271c-0.048-0.351,0.1-0.715,0.177-1.074
		C-25.065,390.01-24.457,390.035-24.438,390.125z M-8.944,362.146c-0.067,0.372-0.296,0.727-0.465,1.088
		c-0.301-0.131-0.602-0.261-1.082-0.47c0.215-0.293,0.425-0.631,0.726-0.922C-9.731,361.808-8.93,362.068-8.944,362.146z
		 M4.993,326.88c-0.242,0.172-0.559,0.517-0.716,0.482c-0.436-0.097-0.809-0.349-1.207-0.54c0.241-0.163,0.483-0.325,0.878-0.593
		C4.289,326.443,4.643,326.663,4.993,326.88z M6.107,329.611c-2.777,1.63-2.715,1.647-3.891,3.583
		c-1.58,2.612-3.259,5.191-4.908,7.78c-1.827,2.872-4.824,5.143-7.577,7.532c-0.392,0.343-1.346,0.353-2.041,0.514
		c-0.218-0.235-0.437-0.472-0.655-0.707c0.681-0.661,1.299-1.36,2.049-1.977c2.381-1.951,4.348-4.092,5.313-6.604
		c1.502-3.9,4.272-7.344,7.05-10.75C4.382,328.669,4.382,328.669,6.107,329.611z M139.399,339.366
		c-0.098,0.177-0.283,0.331-0.439,0.492c-0.221-0.166-0.444-0.333-0.666-0.504c0.258-0.084,0.508-0.197,0.777-0.235
		C139.159,339.104,139.427,339.317,139.399,339.366z M136.229,354.912c2.775,0.766-16.066-7.865-13.768-7.232
		c-0.275-1.715-2.25-4.062-3.348-4.81c-1.727-1.178,0.01-0.005-1.727-1.178c-0.865-0.585-18.799-7.652-17.896-8.569
		c3.764,0.237,39.739,15.108,41.151,15.863c0.759,0.405,1.551,0.958,1.889,1.569c1.674,3.06,3.232,6.151,4.757,9.252
		c0.325,0.657,0.447,1.4,0.44,2.104c-0.002,0.365,1.36,4.279,0.94,4.461c-0.419,0.179-3.033-3.206-3.39-3.408
		C141.74,360.946,138.882,358.519,136.229,354.912z M90.569,327.127c1.423,0.056,20.115,3.067,20.336,3.21
		c2.279,1.477,4.643,2.533,7.996,2.121c1.203-0.148,2.676,0.39,3.885,0.817c2.125,0.752,4.151,1.647,6.199,2.508
		c0.848,0.359,1.676,0.754,2.452,1.189c0.878,0.493,13.358,3.976,12.739,4.611c-0.506,0.517-13.574-1.891-14.385-1.566
		c-0.28,0.112-0.784,0.006-1.152-0.078c-2.849-0.646-5.711-1.388-7.723-3.025c-1.891-1.535-4.207-2.525-6.584-3.549
		C112.558,332.599,92.292,328.951,90.569,327.127z M73.016,325.727c0.057-0.365,0.095-0.598,0.133-0.832
		c0.474,0.118,0.983,0.198,1.401,0.384c0.111,0.049-0.063,0.429-0.105,0.655C73.964,325.865,73.484,325.794,73.016,325.727z
		 M47.198,323.927c-0.277-0.078-0.556-0.159-0.831-0.239c0.05-0.119,0.098-0.237,0.149-0.354c0.275,0.081,0.562,0.15,0.819,0.256
		C47.368,323.605,47.249,323.81,47.198,323.927z M-2.958,361.592c-0.249,0.724-13.352,13.909-14.852,14.065
		c-0.003-0.001,0.003-0.014,0.003-0.018c-0.508,0.834-1.26,1.584-2.638,2.091c0.011,0.041,0.01,0.079,0.022,0.12
		c-0.029,0.043-0.053,0.078-0.081,0.12c0.807,1.782-0.04-0.12-0.071-0.184c0.048-0.018,0.082-0.039,0.129-0.057
		c-0.495-1.927,0.865-3.522,1.936-5.144c0.336-0.512,1.171-0.712,2.126,0.074c-0.517,0.867-0.786,1.855-1.292,2.767
		c1.313-1.685,1.969-8.491,1.873-9.899c-0.025-0.382,3.427-9.926,3.89-11.52c0.544-1.875-1.436,1.519,0,0
		c2.431-2.568,15.114-13.837,19.169-17.099c-1.021-0.687,5.073-10.668,6.259-11.828c0.299-1.301,8.863-5.379,12.25-6.949
		c3.468-1.609,3.344-1.718,6.691-3.487c-0.32-0.552-7.988-0.782-9.33,0.332c-1.559,1.295-2.139,0.773-4.524,0.674
		c-4.817,4.632-6.612,6.197-12.832,9.771c3.313-5.773,16.042-16.884,22.488-20.672c4.642,0.579,6.542,2.003,11.313,1.729
		c3.221,1.176,5.355,2.098,8.693,1.652c0.92-0.12,1.938,0.176,2.916,0.243c6.58,0.459,12.82,2.001,18.93,3.603
		c7.612,1.993,14.939,4.554,22.34,6.956c1.594,0.517,3.027,1.337,4.428,2.119c2.339,1.309,4.624,2.671,6.862,4.069
		c0.636,0.397,1.577,0.878,0.662,1.826c-5.333-1.554-10.456-3.386-15.227-5.728c-1.298-0.639-2.653-1.258-4.09-1.704
		c-4.224-1.311-5.857,0.014-6.454,1.317c20.86,12.288-8.891-1.984-9.908-2.377c-0.668-0.255-1.477-0.317-2.195-0.516
		c-1.08-0.306-2.365-0.481-3.158-1.02c-1.881-1.272-6.391-1.537-11.377-3.16c-1.465-0.479-2.482-1.335-4.395-1.34
		c-1.758,0.876-3.672,1.83-5.6,2.791c0.697,0.557-7.13,4.424-8.898,5.608c-0.018,0.231-0.343,0.719-0.895,1.394
		c0.619,0.828-4.326,4.988-5.934,6.275c-1.945,1.946-4.076,4.024-6.073,5.963c-0.017,0.022-0.093,0.068-0.058,0.063
		c4.187-0.662-0.311,0.328-0.482,0.462c-3.605,3.49-6.65,6.411-7.143,7.021C8.547,346.923-1.038,355.97-2.958,361.592z
		 M-12.66,400.333c-1.238,5.392-8.841,21.132-8.533,23.941c0.572,5.218-1.234,10.132-2.366,15.04l-2.414-1.769
		c-0.596-2.439-1.179-4.816-1.756-7.191c-0.165-0.688-0.667-1.461-0.403-2.053c0.883-1.977,0.471-3.953,0.47-5.945
		c0-2.87,0.495-5.683,1.8-8.443c1.146-2.431,1.726-4.997,2.71-7.473c0.653-1.642,1.242-3.381,2.48-4.792
		c0.978-1.116,2.903-1.798,4.468-2.71c0.185-0.52,0.41-1.066,0.571-1.624c1.193-4.048,2.09-8.154,3.644-12.127
		c1.222-3.13,3.211-6.11,4.955-9.129c0.347-0.604,19.832-23.109,19.727-22.747C10.852,359.605-9.675,394.234-12.66,400.333z
		 M-3.427,450.042c-0.523-0.735-0.016-1.282,0.636-1.8c-0.007-0.048-0.008-0.1-0.013-0.148c-0.111-0.122-0.224-0.245-0.339-0.368
		c0.102,0.064,0.238,0.117,0.292,0.199c0.034,0.05,0.042,0.108,0.048,0.169c0.031,0.034,0.063,0.067,0.094,0.102
		c-0.232,0.616-0.46,1.228-0.691,1.844c-0.197,0.575-0.394,1.15-0.624,1.822C-4.883,450.951-4.08,450.527-3.427,450.042z
		 M-9.619,459.85c-2.164-0.784,5.27-41.878,5.313-42.813c0.12-2.424,0.189-4.857,0.571-7.263c0.671-4.25,1.529-8.485,2.366-12.719
		c0.276-1.387,0.299-2.853,2.671-4.813c0.495,4.007,0.848,7.23-0.214,10.465c-1.239,3.772-1.747,7.578-1.35,11.455
		C6.235,425.797-7.83,458.464-9.619,459.85z M-6.84,480.817c-1.313-4.903-0.868-8.799,1.229-11.791
		C-5.488,472.95-5.5,476.401-6.84,480.817z M-25.494,476.556c0.018-0.119,0.036-0.24,0.055-0.36c0.273,0.063,0.553,0.109,0.805,0.2
		c0.042,0.014-0.05,0.221-0.082,0.342C-24.975,476.678-25.235,476.619-25.494,476.556z M-35.811,491.119
		c-0.994-1.946,1.609-15.319,10.146-25.961c-0.244-0.528-0.269-1.131-0.261-1.699c0.056-4.137,0.145-8.274,0.229-12.414
		c0.03-1.566-0.278-3.192,0.207-4.684c0.484-1.481,1.899-2.792,2.676-4.243c0.997-1.866,1.741-3.802,2.645-5.694
		c0.3-0.627,0.752-1.217,1.315-2.108c0.735,1.048,6.08-17.448,4.665-5.249c0.639,3.729,0.273,7.32-1.579,10.79
		c0.114,0.25,0.115,0.273-0.001,0.033c-0.751-0.356-1.173,8.676-1.167,12.862c0.473,0.393,0.446,1.456,0.085,2.011
		c0.038,0.145,0.003,0.168-0.067,0.112c-1.587,2.479-2.039,5.151-2.538,7.778C-19.944,465.239-34.125,488.403-35.811,491.119z
		 M-44.109,465.574c-0.337-4.309,1.72-8.328,3.199-12.392c3.374,0.34,4.17,0.654,4.106,2.299c-0.102,2.682-0.543,5.357-0.965,8.026
		c-0.241,1.539-1.006,3.057-1.028,4.588c-0.03,2.335-1.872,3.865-3.786,5.92C-45.61,470.951-43.9,468.192-44.109,465.574z
		 M-62.222,489.612c1.478-2.096,2.894-4.242,5.533-6.243c1.228,2.324,0.423,4.214-0.222,6.084c-0.474,1.367-1.175,2.675-3.06,3.343
		C-63.084,491.371-63.306,491.147-62.222,489.612z M-64.707,495.088c0.089-0.215,0.431-0.449,0.734-0.521
		c0.187-0.042,0.504,0.204,0.9,0.383c-0.438,0.262-0.833,0.498-1.227,0.734C-64.448,495.483-64.771,495.248-64.707,495.088z
		 M-72.814,519.393c0.202-0.212,0.349-0.521,0.628-0.605c0.199-0.06,0.575,0.182,0.871,0.287c-0.277,0.288-0.552,0.58-0.83,0.868
		C-72.369,519.76-72.592,519.578-72.814,519.393z M-78.62,534.942c0.027,0.079,0.047,0.146,0.081,0.231
		c-0.121,0.025-0.207,0.045-0.316,0.069c-0.744,0.994-1.502,2.011-2.577,3.448c-0.059-2.76-0.033-2.876,2.577-3.448
		c0.036-0.048,0.07-0.096,0.106-0.143C-78.698,535.048-78.665,534.996-78.62,534.942C-79.799,531.675-77.205,533.211-78.62,534.942z
		 M-73.677,536.839c-0.06-0.102,0.042-0.247,0.072-0.378l0.485-0.096c-0.035,0.204-0.073,0.408-0.11,0.609
		C-73.387,536.932-73.631,536.917-73.677,536.839z M-92.007,559.944c1.754-2.491,3.673-4.817,5.078-7.295
		c2.691-4.751,6.047-9.219,10.115-13.416c0.283-0.29,2.243,0.243,2.13,0.562c-0.441,1.233-0.951,2.465-1.616,3.646
		c-2.077,3.688-4.139,7.38-6.4,11.009c-1.516,2.432-3.484,4.701-6.993,5.928C-90.506,560.659-91.644,560.809-92.007,559.944z"/>
</g>
</svg>
