<?xml version="1.0" encoding="utf-8"?>
<!-- Generator: Adobe Illustrator 16.0.0, SVG Export Plug-In . SVG Version: 6.00 Build 0)  -->
<!DOCTYPE svg PUBLIC "-//W3C//DTD SVG 1.1//EN" "http://www.w3.org/Graphics/SVG/1.1/DTD/svg11.dtd">
<svg version="1.1" xmlns="http://www.w3.org/2000/svg" xmlns:xlink="http://www.w3.org/1999/xlink" x="0px" y="0px" width="681px"
	 height="645.788px" viewBox="0 0 681 645.788" enable-background="new 0 0 681 645.788" xml:space="preserve">
<g id="Layer_1" display="none">
	<polygon display="inline" fill-rule="evenodd" clip-rule="evenodd" points="166.74,-220.34 166.676,-220.118 166.582,-220.298 	"/>
	<path display="inline" fill-rule="evenodd" clip-rule="evenodd" d="M-382.638,309.098c0.141,0.038,0.283,0.075,0.34,0.091
		c-0.063-0.014-0.212-0.044-0.367-0.075C-382.67,309.114-382.638,309.098-382.638,309.098z"/>
	<g display="inline">
		<path fill="#EAECEC" d="M234.582,469.902c0.189,1.477,0.36,2.956,0.521,4.436c0.215,0.018,0.429,0.037,0.644,0.055
			c0.087-0.472,0.177-0.944,0.264-1.419c-0.003-12.588-0.098-23.919-0.481-30.61C235.194,442.39,234.884,454.783,234.582,469.902z"
			/>
		<path fill="#EAECEC" d="M479.993,448.767c-0.287,1.515-0.585,3.055-0.877,4.594C479.793,450.568,480.186,448.641,479.993,448.767z
			"/>
		<path fill="#EAECEC" d="M320.014,606.082c0.379,2.171,0.93,4.318,1.762,6.422C321.103,610.227,320.535,608.115,320.014,606.082z"
			/>
		<path fill="#EAECEC" d="M661.217,521.794c-6.963,13.449-10.753,17.665-17.714,31.11c-0.685-0.364-4.536,8.501-5.223,8.134
			c4.653-11.745,9.301-23.493,13.95-35.24c-0.328-0.156-0.653-0.313-0.982-0.467c-3.789,7.978-7.584,15.957-11.377,23.938
			c-0.269-0.147-0.537-0.293-0.809-0.439c3.805-11.714,7.606-23.427,11.89-36.626l-16.425,34.135l9.666-39.891
			c0,0-8.634,21.229-8.976,20.917c1.55-12.661,3.034-18.38,3.452-19.478c-1.257,1.255-7.859,16.291-8.745,16.561l6.048-28.77
			c-3.683,10.167-9.884,22.973-12.951,31.445c-0.564-0.234,3.324-12.781,2.761-13.017c1.536-9.276,1.749-10.57,3.454-20.867
			c-3.256,6.768-6.094,12.662-8.932,18.556c-7.871,16.544-0.977-0.507-1.467-0.764c0.787-3.623,1.57-7.249,2.357-10.872
			l-0.578-0.164c-2.118,4.636-11.204,25.051-13.706,30.531c-0.673-2.297,5.982-19.156,5.626-20.375
			c-1.866,3.852,3.288-11,1.509-7.325c-0.559-0.238-8.054,18.049-8.612,17.812l10.855-32.965c-0.224-0.124-0.451-0.245-0.677-0.37
			c-6.613,14.053-13.226,28.105-19.841,42.157l-1.563-0.625c3.48-13.102,6.961-26.203,10.443-39.307
			c-0.562-0.226-9.937,30.54-1.683-0.677c-3.36,8.784-11.107,32.161-14.47,40.946c-0.654-0.262,3.074-15.114,2.418-15.377
			c0.865-3.671,1.732-7.341,2.598-11.011c-0.143-0.033-0.285-0.064-0.429-0.097c-5.358,16.522-17.096,49.18-17.603,48.984
			c8.093-30.304,16.188-60.605,24.282-90.911c-0.066-0.021-0.133-0.041-0.198-0.06c-0.253,1.731-0.915,3.355-1.703,5.061
			c-0.081,0.177-0.205,0.271-0.336,0.326c-2.258,6.345-6.271,15.843-6.323,16.014c-1.511,5.188-3.277,10.295-4.991,15.418
			c-0.552-0.155-8.069,24.6-1.652-0.462c1.241-5.585,2.477-11.169,3.714-16.747c-0.029-0.019-0.063-0.035-0.091-0.051
			c-4.238,7.079-9.492,24.143-17.634,36.75c1.69-4.755,10.619-42.719,12.297-47.432c-3.093,7.054-15.527,30.735-18.975,32.622
			c2.267-8.971,9.938-40.502,12.198-49.466c-0.547-0.18-2.82,9.746-3.365,9.567c-7.398,19.555-14.792,39.111-22.188,58.665
			c-0.405-0.146,5.246-18.621,4.842-18.767c6.322-24.091,2.666-14.898,8.991-38.988c-0.489-0.172,2.944-15.292,2.456-15.463
			c-4.234,14.245-8.469,28.491-12.701,42.735c-0.66-0.187,1.5-13.04,0.842-13.229c0.818-4.685,6.724-28.264,7.547-32.975
			c-1.322,1.307-8.014,27.347-9.208,28.528c-0.165-0.045,3.454-32.418-0.749,0.574c-0.505,4.153-1.125,8.29-1.901,12.398
			c-0.479,2.521-0.739,5.33-1.446,7.92c0.089,0.521,0.194,0.612,0.344-0.078c-4.184,19.159-6.848,31.354-11.031,50.514
			c-0.677-0.155,4.273-31.85,7.426-47.542c0.003-0.05,0.005-0.101,0.009-0.151c-0.002,0-0.002,0-0.002,0
			c0-0.001,0.002-0.002,0.002-0.004c0.194-3.937,0.592-7.859,1.18-11.752c0.366-3.567,1.091-7.09,1.933-10.579
			c1.297-9.761,2.584-19.444,3.789-28.529c-3.684,7.052-7.51,14.371-11.601,22.195c-0.592-2.779,4.403-23.667,3.767-26.655
			c-2.145,6.478-11.129,42.357-12.89,47.674c-1.38,2.19,1.202-12.04,0.896-12.235c0.29-6.713,0.578-13.423,0.869-20.135
			c-0.66-0.017,0.739-8.273,0.079-8.288c-3.146,10.744-10.66,40.131-13.81,50.875c-0.51-0.113,1.287-10.626,0.779-10.74
			c1.844-12.017,3.689-24.031,5.535-36.048c-0.395-0.064-0.788-0.127-1.181-0.194c-7.292,30.907-6.227,26.389-13.519,57.294
			c-0.984-0.243-10.325,34.934-11.311,34.688c8.137-34.765,16.277-69.529,24.413-104.295c-0.493-0.14-0.987-0.28-1.483-0.421
			c-3.553,11.525-7.105,23.052-10.658,34.575c-0.601-0.215-3.252,11.734-3.852,11.52c1.472-7.157,4.993-26.476,6.463-33.634
			l2.052-11.123c-2.274,7.288-8.479,25.079-10.751,32.367c-1.546-10.858,6.617-59.738,6.617-59.738
			c0-8.756-26.231,59.163-28.316,65.432c-0.576-0.15,7.244-31.665,6.666-31.815l0.708-7.298l-0.902-0.124
			c-6.756,20.78-17.896,54.586-24.652,75.366c-0.451-0.105,3.479-13.237,3.027-13.344c3.183-16.63,6.362-33.245,9.33-48.743
			c-1.626,6.686-4.912,18.373-5.914,19.032c0.364-5.807,5.761-33.266,6.067-38.222c-5.446,25.289-11.59,45.147-20.034,74.552
			c0.072-2.718,0.569-5.321,1.326-7.839c1.25-4.163,4.983-33.034,7-43.186c0.177-0.89,0.286-1.794,0.394-2.483
			c-0.875,0.794-9.25,22.283-9.564,22.249c-0.026,0.477-0.339,2.142-0.666,2.188c-3.045,15.997-7.736,40.732-9.031,47.469
			c-0.873-0.203,1.885-18.876,1.014-19.082c2.057-8.991,4.111-17.985,6.166-26.976c0.019,0.005,0.045-0.041,0.068-0.064
			c0.403-1.949,0.851-3.887,1.316-5.817c0.262-1.692,0.685-3.345,1.186-4.979c0.713-4.628,1.798-9.21,3.1-13.686
			c1.494-8.59,3.588-18.123,3.979-23.791c-0.414-0.13-0.828-0.256-1.239-0.383c-5.376,20.285-10.754,40.572-16.128,60.859
			c-3.73-11.811,4.178-22.985,0.56-35.255c-1.204,4.66-2.188,8.463-3.173,12.267c-0.583-0.114-1.168-0.229-1.752-0.343l2.172-19.472
			c-0.334-0.076-0.67-0.151-1.005-0.228l-8.345,33.777c-0.838-0.176,1.032-13.037,0.196-13.215c0.86-10.835,1.72-21.67,2.582-32.507
			c-0.188-0.02-0.381-0.041-0.569-0.062c-2.717,11.997-9.158,36.096-11.875,48.092c-1.177-0.201,1.368-12.506,0.193-12.706
			c2.193-18.801,4.387-37.599,6.379-54.687c-2.31,8.482-5.09,18.7-7.869,28.916c-9.229,48.953-1.352-14.624-1.119-18.442
			c-0.596-0.08-0.688,6.511-1.285,6.43c-3.555,14.022-7.109,28.045-10.665,42.067c-0.844-0.135-0.002-24.732,1.265-36.896
			c-0.217-0.015-0.437-0.024-0.654-0.038c-1.156,3.106-2.311,6.212-3.466,9.317c-0.679-0.139-2.042-21.649-2.042-21.649
			c-2.041,6.002-4.399,67.074-5.287,75.769c-0.656-0.069-0.304-58.215-0.304-58.215c-1.428,3.941-4.072,40.921-5.06,43.644
			c-0.468-0.119-0.06-20.876,0.606-31.139c-0.407-0.045-0.815-0.094-1.226-0.141c-1.282,6.907-5.096,20.535-5.719,20.439
			c0.451-7.114,0.903-14.227,1.354-21.34c-0.153,0.006-0.307,0.011-0.461,0.019c-1.151,4.636-2.302,9.27-3.452,13.904
			c0,0,1.509-29.713,3.672-44.255c-0.567,0.76-0.831,1.591-1.027,2.438c-4.879,21.001-7.856,42.244-7.832,63.938
			c0.005,3.684-1.467,7.365-2.255,11.048c-0.606-0.151-1.542-53.185,7.643-78.494c-0.546-0.126-7.111,18.819-9.849,28.415
			c-0.642-0.114-1.925-34.492-1.925-34.492c-3.383,22.256-2.792,56.131-2.244,59.838c-1.017-6.87-2.62-25.28-3.639-32.146
			c-3.263,4.078-3.592,38.531-3.592,38.531c-1.452-12.882-1.169-27.689-2.621-40.572c1.889-11.029-4.224,14.791-4.751,18.329
			c-1.222-3.209,2.406-33.491,3.024-35.842c-1.872,2.068-3.01,17.827-4.833,19.842c-0.425-0.382-0.853-0.768-1.278-1.152
			c0.337-6.839,0.674-13.68,1.01-20.521c-0.434-0.052,0.359-6.146-0.077-6.196c-1.784,12.471-5.811,35.695-7.594,48.162
			l-0.808-10.003c0-4.223,0.255-3.32-0.198-7.488c-0.438-4.033-1.604-29.067-2.446-32.777c-0.836,4.875-1.787,30.924-2.636,35.873
			c-0.776-0.07-1.554-0.142-2.332-0.214c-0.327-5.679-0.655-11.354-0.919-15.914c-0.594,8.432-1.268,17.987-1.942,27.542
			c-0.697,0.06-1.397,0.118-2.097,0.175c-0.992-4.756-1.986-9.513-2.979-14.268c-0.538,0.108-1.077,0.217-1.616,0.326v30.119
			c-0.474,0.012-0.945,0.023-1.415,0.034l-6.87-59.043l-0.862,0.01l2.266,59.021c-0.451,0.07-3.165-19.485-3.616-19.412
			c-0.562-1.035-1.124-27.931-1.908-29.374c-0.58,3.464-1.035,32.043-1.492,34.764c-2.646,16.317-1.35-0.04-2.025-0.062v-39.655
			c-0.673-0.014-0.296-9.73-0.967-9.744c-0.693,11.448-2.434,32.607-3.126,44.06h-0.652c-1.902-13.121-1.916,0.542-3.819-12.579
			c-1.225-2.578-3.851-26.683-4.834-26.634l-1.283,60.511c-2.371-4.473-4.785-32.832-5.462-47.443
			c-1.895,8.662-2.572,31.515-4.484,15.102c-0.714-7.008-1.43-14.016-2.144-21.021c0.133,9.946-0.283,31.268-0.337,32.931
			c-0.383,11.639,1.566,24.829,1.347,36.471c-0.076,3.981,0.592,7.979,0.919,11.971c-0.812,0.077-7.782-57.408-10.314-84.709
			c-2.484,6.547,1.656,16.847-7.526,24.669l-0.167-54.063c-0.667-0.048-1.168,17.483-1.836,17.437
			c-1.207,9.451-2.412,18.904-3.62,28.354c-0.372,0.003-0.744,0.009-1.118,0.014c0,0-1.296-20.99-1.945-21.048
			c-5.118,9.463-0.431,20.541-3.515,32.262c-1.611-16.632-3.047-31.426-4.619-47.653c-3.816,23.096-0.723,44.949-0.708,66.767
			c-6.875-17.563-3.553-36.066-4.889-54.119c-0.642,1.313-1.28,2.628-1.919,3.945c-0.418-0.058-0.836-0.116-1.251-0.173
			c-0.284-4.899-1.925-14.715-2.464-14.723v37.368c-0.935,0-4.995-38.843-6.088-38.828v72.559
			c-0.884,0.019-3.252-7.189-3.552-10.813c-0.456,0.018-0.915,0.037-1.371,0.055v20.153c0,0-1.088-48.872-4.462-75.016
			c-0.908,4.869-1.572,8.446-2.211,11.866c0.008,23.209-0.295,50.7,0.313,61.322c-0.776,0.063,0.232,6.09-0.546,6.153
			c-0.812-12.726-1.841-3.697-2.654-16.42c0.46-0.039,0.869-23.302,1.281-44.988c-0.135-0.106-0.234-0.271-0.255-0.502
			c-0.373-4.308-0.907-8.594-1.522-12.867c-0.316-1.638-0.63-3.278-0.945-4.919c-2.199,2.699-3.066,51.871-4.783,53.979
			c-4.653-12.105-7.583-46.161-7.594-46.168c-3.897,20.531,3.556,40.924,4.531,60.812c-3.93-17.633-7.86-35.267-11.876-53.292
			c-0.465,0.838,0.275,4.818-0.393,5.912c2.808,13.018,6.667,39.025,7.247,38.908c0.906,5.359,3.401,23.437,4.61,31.228
			c-2.327-14.296-2.955-13.23-3.587-13.128c-0.894-4.827-7.322-42.261-10.208-58.825c-0.093,0.067-0.199,0.112-0.315,0.126
			c-0.138,0.401-0.225,0.802-0.194,1.191c1.262,16.202,0.85,11.069,2.422,27.243c0.462,4.75,1.089,11.387,1.731,17.471
			c-6.931-19.345-8.746-38.106-8.746-47.288c-0.206,0.008-0.409,0.014-0.613,0.021c-0.413,4.088-1.653,19.298-2.066,23.385
			c-0.518-0.017-2.259-20.111-2.826-23.077c-0.523,3.495-0.162,10.727-0.531,13.198c-0.556,0.032,0.115,15.362-0.439,15.397
			c-1.182-6.872-3.587-29.037-4.769-35.907c-0.187,0.038-0.374,0.076-0.563,0.113v28.507c-0.396,0.071-4.476,15.741-4.872,15.814
			c-0.962-4.58-10.87-27.619-11.392-30.099c-1.247,2.449,9.001,35.813,10.174,47.497c-0.529,0.174,2.642,13.434-1.588,0.524
			c-5.91-17.947-11.819-35.895-17.729-53.842c-0.659,0.17-2.298-7.391-2.958-7.224l7.959,49.199
			c-0.75,0.168-10.168-31.533-14.234-47.988c0.418,6.34,7.707,60.427,7.973,61.771c0.283,0.834,0.572,1.665,0.854,2.498
			c0.115,0.338-0.006,0.616-0.215,0.783c1.526,7.99,2.704,15.289,2.333,15.306c-1.405-4.583-2.608-10.61-3.801-16.718
			c-0.933-2.722-1.874-5.45-2.447-8.265c-0.009,0.052-0.02,0.099-0.036,0.1c-0.237-1.69-0.628-4.129-1.113-7.032
			c-0.613-2.717-1.167-5.436-1.406-8.22c-2.168-12.501-4.952-28.01-5.801-34.056c-0.418,3.865-0.219,7.69,0.005,11.513
			c0.222,3.77,0.464,7.537,0.699,11.306c-0.806,0.061-4.26-11.931-5.18-17.984c-0.337,0.059-0.674,0.114-1.011,0.172
			c0.928,7.667,7.632,48.048,7.354,48.065c-1.612-3.512-11.806-43.256-11.828-43.22c-0.784-3.455-1.668-6.852-2.172-7.197
			c0.508,7.215,0.711,24.582-0.712,32.358c-0.792-4.208-4.809-20.182-5.603-24.397c-0.172,0.022-0.347,0.046-0.523,0.069
			l2.459,20.967c-0.742,0.105-8.611-34.847-8.479-52.991c-1.212,28.452,6.313,69.885,12.62,97.456
			c-0.711,0.215-4.108-13.262-4.821-13.046c-1.964-4.314-5.673-22.488-7.637-26.804l1.04,14.065
			c0.517,4.352,2.121,15.022,2.638,19.375c-0.738,0.161-2.561-6.001-3.297-5.841c-1.632-7.961-3.724-11.539-5.01-17.802
			c-1.208,0.539-5.844-16.995-7.357-16.316c4.611,11.462,5.494,34.671,8.268,44.855c-0.552,0.131-1.103,0.26-1.653,0.391
			c-3.427-9.067-8.644-26.34-12.072-35.406c-0.305,0.067,1.512,10.903,0.879,8.409c3.311,13.06,9.484,39.396,9.26,39.506
			c-2.705-6.483-5.41-12.967-8.204-19.669c-1.466,1.318-2.858,2.572-4.811,4.325c-3.781-17.248-7.36-33.575-11.281-51.454
			c0.532,9.18,0.952,16.896,1.436,24.605c0.333,5.285-2.397,28.598-0.705,35.382c0.334,1.34,0.048,2.851,0.048,4.281
			c-0.439,0.114-0.882,0.227-1.322,0.34c-4.01-11.317-11.428-30.706-15.439-42.021c-0.622,0.232,2.163,8.539,1.54,8.771
			c0.876,5.968,1.753,11.937,2.629,17.904c-0.315,0.058,1.672,8.633,1.358,8.691c-0.934-2.349-4.168-13.213-5.101-15.561
			c-0.263,0.077-0.526,0.154-0.79,0.232c2.362,11.953,4.724,23.906,7.086,35.86c-0.682,0.18-7.372-17.638-10.034-26.732
			l-0.631,0.184c0.329,2.692,2.044,18.778-0.812,8.613c-1.528-4.675-3.055-9.35-4.304-13.165c0.814,19.397,2.176,19.85,1.888,29.815
			c-1.968-6.711-10.245-25.79-11.966-31.653C54.338,499.898,54.169,499.95,54,500c0.396,4.889,1.5,18.896,2.082,26.05
			c-5.184-8.661-12.702-24.327-12.702-24.327s13.479,37.224,19.52,56.323c-2.689-2.393-12.383-22.173-15.123-26.979
			c-1.526-2.677-8.369-16.211-10.442-20.066c0.052,0.127,5.514,14.616,5.565,14.744c4.564,10.329,18.921,40.791,18.166,41.191
			c-3.072-6.972-15.199-28.417-18.271-35.389c0.137-0.067-0.284-1.454-0.99-3.521c-3.582-7.703-7.042-15.471-10.642-23.167
			c3.183,19.221,6.063,25.308,9.018,41.988c-5.605-11.746-11.634-20.594-17.239-32.341c-0.203,0.056-0.407,0.11-0.609,0.165
			c2.047,8.421,7.256,22.272,9.306,30.693c-0.41,0.185-7.987-10.776-9.783-13.723c0.098,2.201,0.674,4.197,1.546,6.036
			c5.503,11.588,11.071,23.139,16.618,34.703c2.004,0.774,4.162,1.28,5.948,2.429c6.529,4.188,20.993,18.144,27.438,22.477
			c0.269-0.416-8.264-11.65-9.203-13.26c-0.77-1.32-15.311-21.449-18.044-26.587c0.676-0.278,7.396,8.17,10.828,13.386
			c0.277-0.138,0.626-0.119,0.855,0.222c0.392,0.577,0.767,1.174,1.154,1.757c0.039,0.023,0.077,0.05,0.114,0.08
			c0.178-0.146,0.356-0.295,0.535-0.441c1.397,1.9,2.668,3.932,4.239,5.659c1.269,1.392,12.559,14.738,14.031,15.924
			c0.261-1.822-7.391-14.903-8.677-19.212c4.513,6.456,6.925,10.991,12.75,17.38c4.137,4.539,8.509,10.235,14.55,12.241
			c-0.02-0.066-0.042-0.137-0.062-0.202c-0.243,0.063-0.509-0.011-0.686-0.306c-2.687-4.482-6.123-8.38-8.884-12.804
			c-0.289,0.164-13.997-30.394-13.393-30.737c4.937,9.976,14.679,30,14.611,30.038c2.209,3.519,4.831,6.714,7.162,10.137
			c-4.366-12.485-14.132-33.348-13.47-41.665c9.176,15.966,17.999,31.324,26.823,46.682c-2.995-10.803-12.622-38.176-12.622-38.176
			c6.247,5.002,10.103,17.035,19.73,29.112c-3.448-8.212-12.523-31.887-14.807-36.902c0.543,0.537,1.12,0.966,1.463,0.858
			c1.489,4.835,11.008,28.528,13.982,36.844c0.117,0.145,0.225,0.287,0.343,0.43c-4.945-15.193-9.664-34.522-10.253-40.449
			c-0.588-5.91,14.32,26.833,23.889,38.751l-12.478-37.721c-1.456-2.797-3.429-9.871-2.958-9.353
			c2.878,3.155,5.126,6.73,7.25,10.407c0.501,0.786,0.966,1.606,1.401,2.452c1.03,1.825,2.056,3.659,3.136,5.466
			c2.67,4.47,5.897,8.609,8.407,13.185c0.652,0.586,1.32,1.185,2.02,1.812c-6.115-18.463-12.493-24.178-20.41-41.806
			c-0.382-0.85,14.33,21.059,20.635,38.223c-0.483-3.547-12.999-40.813-12.999-40.813s7.829,15.312,11.676,22.824
			c-0.018-2.169,0.067-3.793,0.29-4.393l27.25,41.823c-2.038-4.609-14.981-32.887-15.879-36.294
			c-0.848-3.219,18.872,24.861,18.872,24.861s-8.118-22.233-9.806-27.115c-0.982-2.839-1.907-5.698-3.383-10.122
			c6.775,7.812,25.544,49.068,26.766,50.128c-0.094-1.738-3.808-8.784-4.375-10.326c-3.19-8.663-8.22-26.763-7.367-27.222
			c4.346,7.009,18.308,36.646,18.308,36.646s-24.269-61.045-33.332-83.786c0.725-0.333,20.219,43.871,26.41,58.412
			c1.666,3.912,6.454,13.276,8.608,16.958c-0.943-6.829-4.193-19.496-5.134-26.328c0.308-0.108,0.616-0.218,0.923-0.326
			c4.118,11.444,8.236,22.889,12.929,35.931c-0.41-3.806-0.625-5.813-0.841-7.825c0.43-0.215,0.86-0.433,1.292-0.65
			c2.533,3.668,13.173,17.479,15.889,21.411c0.41-1.006-7.36-11.58-7.398-11.974c-0.066-0.706-0.217-1.488-0.582-2.065
			c-4.935-7.801-20.79-55.316-21.451-60.188c-0.604-4.452-1.725-12.856,1.958-3.127c-1.227-3.961,4.256,10.059,5.871,14.179
			c3.5,8.935,6.33,18.177,10.09,26.979c1.598,3.743,18.824,29.669,21.319,32.985c0.516-0.426-12.949-23.822-12.434-24.249
			l-3.107-8.367c0.321-0.127,0.642-0.252,0.961-0.379c4.354,6.746,8.711,13.489,13.065,20.234
			c0.743-0.447,6.052,13.205,6.793,12.761c-2.987-8.397-10.542-30.895-13.531-39.291l0,0c-0.558,0.136-11.913-29.526-12.47-29.391
			c-2.394-8.055-4.787-16.111-7.417-24.96c4.274,1.333,13.181,23.869,17.474,40.325c2.802,3.976,4.127,8.771,5.979,13.311
			c1.654,3.079,3.314,6.154,4.954,9.242c3.092,5.813,9.783,20.116,12.851,25.943c0.294-0.246-3.053-8.957-2.76-9.2
			c-4.236-12.533-8.474-25.063-12.71-37.596c0.635-0.277,1.268-0.554,1.902-0.832c8.543,18.508,17.09,37.017,25.636,55.523
			c0.196-0.076,0.391-0.151,0.587-0.229c-0.463-1.172-0.878-2.327-1.131-3.531c-1.154-3.417-2.01-6.937-2.766-10.486
			c-0.762-2.808-1.863-4.984-2.634-7.831c-1.761-3.188-3.51-7.178-4.773-10.625c-6.184-19.54-7.126-23.515-8.223-26.245
			c3.041,7.576,5.834,14.54,8.588,21.396c1.898,3.67,3.98,7.303,4.962,11.378c0.252,0.493,0.47,0.79,0.625,0.732
			c1.928,5.183,3.853,10.367,5.778,15.55c-1.148-5.133-2.292-10.263-3.414-15.402c-0.338-1.552-0.881-4.448-0.597-4.556
			c0,0,8.875,16.244,8.189,13.683c-0.916-3.422-8.996-28.2-9.896-31.622c-3.283-12.473-5.04-14.129-8.056-26.68
			c-0.11-0.458-2.665-12.259-1.901-14.169c7.417,23.252,18.348,58.709,25.376,80.741c0.488-0.188-2.929-13.802-2.441-13.99
			c-1.875-7.379-1.875-7.378-3.749-14.76c0.413-0.241-1.049-7.866-0.637-8.109c2.382,2.975,12.518,41.503,16.031,50.968
			c0.47-1.434-14.397-77.712-14.037-78.811c0.481-0.032,12.867,51.167,15.791,61.82c1.008,0.936-4.035-25.264-6.021-37.781
			c1.537,1.524,10.736,27.271,12.323,28.843l-8.358-35.245c0.224,0.541,0.57-0.433,0.514-1.465
			c-0.018-0.324,6.914,20.922,7.154,20.8c-1.658-5.981-17.015-58.261-20.214-71.233c2.033-0.339,4.808,11.632,6.845,11.288
			l13.139,52.162c2.197,5.34,5.34,12.632,7.651,17.999c1.698,3.945,0.431,1.802,3.916,11.668c0.472,1.332,4.544,7.455,8.685,15.818
			c-3.394-9.466-9.668-26.948-5.935-37.437c3.677,7.238,6.815,13.429,9.959,19.618l4.261,11.25
			c-3.183-9.612-8.918-31.237-12.097-40.852c0.573-0.199,1.15-0.396,1.726-0.597c1.086,2.289,2.266,4.536,3.24,6.878
			c2.229,5.349,4.359,10.742,6.526,16.118c0-0.06,0-0.116-0.002-0.175c-2.99-11.209-5.981-22.416-8.972-33.627
			c0.548-0.145,1.094-0.29,1.641-0.436c3.215,7.298,6.902,14.475,8.021,22.313c2.385,7.206,5.265,46.52,6.129,46.431
			c0.733-8.354,0.48-44.271,1.203-52.516c4.688,6.978,3.712,15.84,8.543,34.666c-1.613-9.204-5.221-44.296-4.452-44.663
			c1.44,2.029,9.433,33,12.195,40.135l-6.036-47.696c2.016,10.59,13.633,50.616,17.775,69.588c0.62-0.264-4.532-30.526-3.914-30.792
			c-0.887-2.361-1.588-16.122-1.588-16.122c0.55,1.431,1.103,2.861,1.652,4.292c0.013-0.013,0.025-0.026,0.042-0.04
			c-1.856-9.777-3.717-19.563-5.753-30.281c5.646,18.214,12.277,37.754,12.783,47.16c0.051,0.966-5.981-17.91-7.03-16.879
			c0.019,0.101,0.037,0.199,0.058,0.302c-0.033-0.088-0.068-0.174-0.1-0.262c-0.024,0.024-0.054,0.049-0.078,0.071
			c2.865,8.914,8.889,31.928,11.753,40.848c0.337-14.001-0.966-19.412-0.691-19.703c0.601-6.789-0.442-8.841,0.275-16.938
			c1.651,2.509,2.843,9.635,3.762,11.033l2.321,13.747c-0.968-7.287-2.246-32.637-3.397-50.603l11.708,48.697
			c0.182-0.031,0.361-0.066,0.542-0.1c-2.413-19.511-3.089-31.82-5.5-51.332c0.581-0.105,1.215,7.616,1.796,7.509
			c1.502,7.217,1.297-0.611,2.698,6.628c1.515,7.827,9.269,57.629,9.269,57.629l-2.531-45.729c0,0,9.21,46.849,10.586,46.946
			c1.513-6.47,2.266-30.121,3.965-37.376c1.42,2.77,2.526,35.784,4.091,38.835c-1.954-19.591-1.501-56.46,2.332-61.433v20.474
			c1.119,17.85,0.478,4.969,0.776,4.958c0.678-5.929,1.479-16.85,2.155-22.776c0.708,0.129,0.242-27.598,0.948-27.467
			c1.485,11.307,3.021,35.956,2.992,43.921c-0.009,2.252,0.444,18.818,1.15,20.431c6.215-33.885,10.159-58.178,15.191-78.567
			l-2.186,63.944c0.752,0.089-2.71,21.348-1.957,21.435c0.745-2.055,5.705-25.278,6.648-27.866
			c1.418,1.318-0.201,28.384,1.864,30.298c2.365-15.478,7.319-56.283,9.57-71.027c1.566,1.179,1.724,2.245,1.67,3.3
			c-0.484,9.409-5.212,50.042-5.487,59.457c-0.05,1.714,9.898-53.999,6.174-26.013c0.65-0.14-1.529,28.591-0.879,28.45
			c2.404-10.514,7.641-49.898,10.046-60.413c0.771,0.017-0.234,25.853,0.538,25.868c0.229-1.603,2.214-29.034,2.381-30.646
			c-0.039-0.254-0.091-0.395-0.159-0.403c0.801-7.374,2.388-34.507,3.187-41.88c0.91,0.11,1.035,19.98,1.947,20.09
			c-0.412,4.559-2.137,21.819-3.551,36.113c-0.178,4.807-0.503,9.602-1.094,14.37c0.006,2.551-0.025,5.107-0.049,7.663
			c0.667,2.259-1.779,19.901-1.049,22.181c0.791-5.183,2.98-26.547,3.682-31.136c0.59-0.059,3.322-23.778,3.912-23.837
			c0.667,1.536-0.231,39.404,1.15,47.918c0.048-0.149,0.416-1.637,0.996-4.025c-0.039-0.086-0.07-0.181-0.074-0.299
			c-0.205-5.688,0.028-11.354,0.933-16.973c0.035-0.222,0.137-0.373,0.269-0.467c1.122-13.263,5.407-27.748,7.313-41.965
			c-0.517,6.054-4.034,29.928-5.979,44.521c0.139,1.299,0.238,2.598,0.273,3.897c3.849-15.956,9.439-39.22,10.54-43.554
			c0.754-0.05,13.744-5.057,14.497-5.106c0.399,1.997-2.755,18.124-3.27,19.81c-3.011,9.868-5.75,23.551-9.023,33.325
			c-0.601,1.789-1.2,3.574-1.8,5.36c0.494,0.24-3.432,8.885-2.937,9.126c2.896-4.649,16.433-35.972,19.33-40.622
			c0.372,0.172-5.471,18.613-5.097,18.784c-0.755,3.599-1.51,7.197-2.262,10.794l-1.386,12.044
			c2.769-10.14,8.647-31.765,11.419-41.906c0.467,0.136,3.073-8.61,3.539-8.471c-0.898,7.054-3.939,22.99-4.84,30.045
			c0.828,0.338-3.121,12.913-2.293,13.249c8.285-21.892,11.971-35.29,20.835-45.429c-0.61,13.375-2.537,46.643-3.116,59.294
			c10.356-23.836,19.324-57.367,24.625-64.701c0.479,3.736-1.268,16.238-0.92,18.931c0.633,0.3,0.056,29.663,0.69,29.96
			c-0.736-0.125,7.64-46.577,6.903-46.702c0.986-6.004,6.741-29.86,7.727-35.865c0.766,0.142,0.062,9.52,0.801,9.829
			c-0.586,2.78-13.138,59.293-15.431,72.738c5.062-21.928,11.603-37.789,12.196-37.701c-0.457,7.619-4.261,25.671-4.795,34.549
			c4.598-10.52,8.679-19.852,12.757-29.184c0.397,0.116,0.797,0.232,1.194,0.351c-0.963,9.152-4.42,23.445-5.244,31.256
			c7.594-21.648,9.92-24.154,14.64-33.938c0,0,12.171-33.357,6.8-11.844c-1.779,7.131-12.576,56.812-12.924,60.375
			c3.06-6.229,17.037-41.306,19.33-45.972c1.889,3.198-7.074,26.172-5.293,29.188c3.268-6.521,13.229-29.37,13.843-29.163
			c-1.837,9.105-3.675,18.213-5.513,27.319c0.445,0.107-3.25,9.522-2.806,9.628c1.019-3.689,14.551-25.692,15.647-29.675
			l-1.838,19.701c4.472-13.863,8.348-26.969,14.266-36.485c-0.857,4.688-3.282,16.956-4.143,21.647l-2.069,11.434
			c1.574-4.034,5.785-19.076,7.362-23.107c0.302-1.445,7.649-22.339,12.659-25.541c-1.664,4.259-5.974,14.188-8.393,20.07
			c0.228,0.131,0.389,0.386,0.325,0.739c-0.108,0.606-10.221,34.534-10.344,35.136c0.662-0.267,11.4-33.897,12.453-34.323
			c-2.323,9.384-4.428,17.887-6.531,26.388c0.223,0.054-3.152,9.343-2.931,9.396c3.819-7.41,16.444-30.958,17.029-30.648
			l-5.983,27.972c0.409,0.028,3.27-8.059,3.683-8.027c1.349-4.407,5.276-9.929,5.796-9.868c0.414,3.364-3.139,11.396-2.574,15.948
			c2.512-7.065,11.686-18.104,13.808-24.08c1.078-0.232-13.151,38.239-12.655,37.217c5.062-10.46,19.732-39.327,20.25-39.161
			c-0.309,3.198-12.275,33.976-12.656,37.944c3.988-4.743,19.918-36.459,24.164-39.161c1.166,2.862-11.045,23.107-14.498,36.241
			c0.296-0.052,10.068-19.575,10.116-19.692c2.665-6.386,19.321-43.979,24.029-56.979
			C661.433,521.907,661.324,521.851,661.217,521.794z M141.147,476.975c-2.417-8.318-3.582-26.022-3.617-26.192
			c0.034,0.075,0.069,0.15,0.104,0.225c2.877,14.277,8.151,40.833,9.578,47.684C146.624,498.811,141.735,476.855,141.147,476.975z
			 M202.069,548.932c2.769,6.892,10.19,30.28,12.959,37.171c-0.666,0.312-5.981-15.875-6.647-15.563
			c-2.919-6.807-14.574-33.328-17.495-40.134C191.702,530.009,201.253,549.329,202.069,548.932z M277.59,525.663
			c1.503,11.108,8.542,53.954,9.832,63.482C283.169,575.208,279.086,555.58,277.59,525.663z M313.227,530.077
			c-0.629-6.154-1.612-15.796-2.959-28.958c0.896-0.105,1.789-0.209,2.685-0.314c1.546,15.745,4.853,51.381,5.893,61.053
			C317.896,561.941,314.177,530.002,313.227,530.077z M333.875,545.365c-0.537,0.002-0.901-28.125-1.439-28.122V490.91
			c0.538-0.008,1.074-0.014,1.613-0.021L333.875,545.365z M348.24,542.446c0.209-0.041,0.346,1.916,0.461,4.482
			C348.542,545.085,348.389,543.549,348.24,542.446z M373.786,590.292c-0.919-7.091-9.897-58.136-10.817-65.225
			c0.973-0.206,9.776,49.508,10.749,49.302c-1.223-11.643-4.354-48.939-4.714-48.981v-20.185c0.427,0.021,0.854,0.041,1.279,0.062
			l3.888,72.523c0.49,6.05,2.345,25.013,2.837,31.063C376.314,608.955,374.481,590.185,373.786,590.292z M402.093,554.365
			c-0.569-0.026-3.229,29.701-3.8,29.675l-0.345-61.295c0.244,0.003,1.844,39.648,1.844,39.648s3.681-50.96,4.024-41.108
			L402.093,554.365z M424.254,477.76c-1.4,9.88-4.884,50.794-6.284,60.673c-0.858-0.143,2.584-33.262,1.728-33.404
			c-3.435,21.443,0.47-11.797,6.902-51.974C427.283,453.163,423.57,477.653,424.254,477.76z M480.043,545
			c-0.614-0.14,8.612-41.289,7.996-41.432c0.26-2.316,3.742-15.964,4.148-19.618c-1.476,2.1-11.36,29.289-12.145,30.401
			c3.418-17.218,21.288-64.278,22.182-64.009C498.115,468.224,484.156,527.118,480.043,545z M509.16,555.792
			c-1.201,5.745-5.244,19.673-6.447,25.421c-2.813,6.721,1.143-8.707,0.294-8.971c1.246-5.676,10.373-40.171,11.62-45.849
			C515.433,526.587,508.355,555.598,509.16,555.792z M573.457,545.49c-1.676,6.255-7.686,26.75-8.198,26.633
			c1.177-6.387,8.241-35.913,9.419-42.298C575.686,530.07,572.447,545.244,573.457,545.49z M624.789,550.704
			c-1.065-0.277-4.156,7.102-5.219,6.824c2.352-7.44,6.852-16.639,9.204-24.081l5.524-14.108
			C632.299,526.83,626.788,543.211,624.789,550.704z"/>
		<path fill-rule="evenodd" clip-rule="evenodd" fill="#EAECEC" d="M42.429,571.416c6.938,9.199,10.467,13.884,12.269,16.272
			c0.74-0.629,11.549,14.687,12.288,14.057c-1.221,1.459-22.309-22.883-26.104-27.174c-0.363,0.282,9.023,19.072,11.865,23.829
			c-0.603,0.493-23.551-30.617-26.48-40.431c2.276,2.543,3.837,4.29,5.399,6.034c0.361-0.258,0.723-0.515,1.083-0.772
			c-4.338-8.293-8.674-16.586-13.014-24.88c0.391-0.25,9.068,13.382,13.355,20.208c2.877,4.584,6.366,8.736,9.574,13.081
			C42.658,571.64,42.429,571.416,42.429,571.416z"/>
		<path fill-rule="evenodd" clip-rule="evenodd" fill="#EAECEC" d="M222.696,459.024c1.345,11.677,2.025,17.622,2.373,20.655
			c0.941-0.126,2.547,18.904,3.487,18.778c-1.763,0.565-7.64-31.849-8.744-37.604c-0.448,0.038-1.778,21.239-1.72,26.865
			c-0.758,0.086-4.858-39.125-2.485-49.104c0.675,3.427,1.139,5.78,1.603,8.132c0.436-0.02,0.871-0.038,1.304-0.057
			c0.422-9.469,0.844-18.933,1.265-28.399c0.459,0.003,1.081,16.42,1.344,24.609c0.176,5.497,1.086,10.965,1.664,16.443
			C222.781,459.339,222.696,459.024,222.696,459.024z"/>
		<path fill-rule="evenodd" clip-rule="evenodd" fill="#EAECEC" d="M274.481,434.413c-0.801-11.734-1.206-17.706-1.413-20.753
			c-0.945,0.076-1.668-19.016-2.611-18.939c1.786-0.472,6.153,32.207,6.988,38.014c0.449-0.012,2.762-21.121,2.965-26.742
			c0.76-0.047,3.036,39.329,0.204,49.174c-0.515-3.459-0.87-5.832-1.225-8.206c-0.435-0.003-0.871-0.006-1.304-0.01
			c-0.861,9.433-1.722,18.864-2.581,28.299c-0.458-0.028-0.319-16.456-0.2-24.649c0.078-5.5-0.576-11.01-0.898-16.51
			C274.411,434.092,274.481,434.413,274.481,434.413z"/>
		<path fill-rule="evenodd" clip-rule="evenodd" fill="#EAECEC" d="M311.419,471.869c-0.801-11.735-1.206-17.709-1.415-20.756
			c-0.944,0.076-1.666-19.016-2.609-18.939c1.785-0.472,6.151,32.207,6.987,38.016c0.449-0.015,2.761-21.122,2.965-26.743
			c0.76-0.048,3.036,39.329,0.203,49.174c-0.516-3.459-0.869-5.834-1.224-8.207c-0.436-0.002-0.871-0.006-1.305-0.01
			c-0.861,9.434-1.722,18.865-2.58,28.299c-0.46-0.026-0.319-16.456-0.199-24.648c0.078-5.5-0.577-11.01-0.9-16.51
			C311.349,471.546,311.419,471.869,311.419,471.869z"/>
		<path fill-rule="evenodd" clip-rule="evenodd" fill="#EAECEC" d="M332.131,457.808c-0.801-11.734-1.206-17.707-1.415-20.754
			c-0.943,0.077-1.665-19.015-2.609-18.938c1.784-0.473,6.151,32.207,6.987,38.014c0.449-0.013,2.761-21.122,2.966-26.741
			c0.759-0.049,3.035,39.328,0.202,49.174c-0.515-3.46-0.869-5.834-1.223-8.207c-0.437-0.003-0.871-0.008-1.305-0.012
			c-0.863,9.436-1.723,18.865-2.581,28.301c-0.459-0.028-0.318-16.457-0.2-24.649c0.08-5.5-0.576-11.01-0.899-16.511
			C332.061,457.488,332.131,457.808,332.131,457.808z"/>
		<path fill-rule="evenodd" clip-rule="evenodd" fill="#EAECEC" d="M541.664,564.021c2.81-11.384,4.241-17.178,4.97-20.133
			c-0.917-0.248,4.202-18.574,3.284-18.821c1.833,0.159-3.961,32.589-4.936,38.372c0.429,0.14,9.034-19.064,10.936-24.318
			c0.734,0.212-14.672,55.559-20.348,63.921c0.563-3.45,6.542-23.104,6.928-25.473c-0.412-0.148-0.822-0.302-1.229-0.451
			c-3.686,8.641-7.366,17.28-11.048,25.924c-0.426-0.183,4.701-15.694,7.303-23.411c1.748-5.182,2.801-10.622,4.167-15.94
			C541.694,563.695,541.664,564.021,541.664,564.021z"/>
		<path fill-rule="evenodd" clip-rule="evenodd" fill="#EAECEC" d="M558.331,546.122c2.81-11.384,4.241-17.178,4.97-20.133
			c-0.918-0.248,4.201-18.574,3.284-18.821c1.835,0.159-3.962,32.588-4.937,38.372c0.43,0.14,9.035-19.064,10.936-24.318
			c0.734,0.212-20.045,82.921-25.719,91.282c0.563-3.45,11.914-50.465,12.3-52.834c-0.41-0.148-0.821-0.303-1.229-0.45
			c-3.686,8.64-7.366,17.278-11.047,25.923c-0.427-0.183,4.699-15.693,7.302-23.411c1.747-5.182,2.8-10.622,4.167-15.94
			C558.361,545.794,558.331,546.122,558.331,546.122z"/>
		<path fill-rule="evenodd" clip-rule="evenodd" fill="#EAECEC" d="M568.559,504.998c2.807-11.387,4.238-17.179,4.969-20.136
			c-0.917-0.248,4.202-18.574,3.285-18.821c1.832,0.16-3.962,32.59-4.937,38.371c0.427,0.141,9.034-19.063,10.936-24.317
			c0.734,0.213-9.079,38.274-14.755,46.638c0.563-3.452,0.951-5.82,1.336-8.188c-0.412-0.15-0.823-0.302-1.232-0.453
			c-3.684,8.643-7.363,17.28-11.046,25.925c-0.425-0.183,4.699-15.693,7.302-23.412c1.749-5.181,2.803-10.621,4.168-15.938
			C568.59,504.669,568.559,504.998,568.559,504.998z"/>
		<path fill-rule="evenodd" clip-rule="evenodd" fill="#EAECEC" d="M494.375,553.635c2.81-11.385,4.241-17.178,4.972-20.134
			c-0.919-0.249,4.202-18.573,3.282-18.823c1.835,0.16-3.963,32.591-4.938,38.373c0.43,0.142,9.038-19.064,10.938-24.317
			c0.734,0.212-9.077,38.275-14.754,46.638c0.563-3.452,0.95-5.82,1.336-8.189c-0.412-0.149-0.822-0.303-1.232-0.451
			c-3.683,8.642-7.365,17.279-11.045,25.922c-0.426-0.181,4.699-15.692,7.301-23.409c1.746-5.183,2.803-10.623,4.169-15.94
			C494.407,553.307,494.375,553.635,494.375,553.635z"/>
		<path fill-rule="evenodd" clip-rule="evenodd" fill="#EAECEC" d="M466.062,537.932c1.91-11.591,2.885-17.49,3.382-20.499
			c-0.936-0.168,2.736-18.877,1.802-19.045c1.839-0.001-1.403,32.824-1.923,38.672c0.439,0.103,7.516-19.788,8.999-25.19
			c0.749,0.15-13.001,70.396-18.004,79.224c0.292-3.487,7.437-37.339,7.636-39.734c-0.422-0.112,2.449-15.507,2.029-15.619
			c-2.996,8.934-9.282,33.14-12.276,42.077c-0.435-0.146,3.458-16.05,5.45-23.969c1.335-5.317,1.962-10.831,2.907-16.249
			C466.068,537.603,466.062,537.932,466.062,537.932z"/>
		<path fill-rule="evenodd" clip-rule="evenodd" fill="#EAECEC" d="M111.561,513.604c3.264,11.249,4.921,16.974,5.768,19.895
			c0.907-0.298,5.648,18.14,6.553,17.843c-1.642,0.883-12.813-29.938-14.854-35.4c-0.436,0.121,1.776,21.24,2.769,26.768
			c-0.733,0.226-11.284-37.613-10.604-47.881c1.235,3.25,2.082,5.479,2.929,7.71c0.424-0.102,0.851-0.201,1.276-0.301
			c-1.158-9.396-2.314-18.792-3.474-28.19c0.451-0.081,3.793,15.963,5.412,23.977c1.086,5.379,2.891,10.596,4.367,15.88
			C111.698,513.902,111.561,513.604,111.561,513.604z"/>
		<path fill-rule="evenodd" clip-rule="evenodd" fill="#EAECEC" d="M66.753,549.597c-18.529-41.281-19.117-50.844-20.254-50.268
			c1.532,3.579,7.104,16.607,20.673,48.337C66.685,547.968,67.244,549.293,66.753,549.597z"/>
		<path fill="#EAECEC" d="M69.928,574.576c-8.751-20.464-14.169-33.134-17.329-40.522c-0.057,0.096-0.135,0.167-0.221,0.224
			c2.48,7.244,7.247,20.209,17.13,42.229C70,576.202,69.441,574.877,69.928,574.576z"/>
		<path fill="#EAECEC" d="M96.946,537.583c-8.751-20.464-14.169-33.132-17.329-40.521c-0.057,0.097-0.135,0.167-0.221,0.223
			c2.479,7.245,7.246,20.212,17.13,42.229C97.017,539.209,96.459,537.884,96.946,537.583z"/>
		<path fill="#EAECEC" d="M95.228,524.451c-4.241-22.005-9.595-35.981-11.125-43.929c-0.075,0.082-0.167,0.133-0.261,0.167
			c0.896,7.646,2.306,22.838,7.326,46.624C91.708,527.131,94.691,524.632,95.228,524.451z"/>
		<path fill="#EAECEC" d="M181.741,478.911c-4.241-22.005-9.594-35.98-11.125-43.929c-0.075,0.08-0.167,0.133-0.262,0.167
			c0.897,7.647,2.306,22.839,7.326,46.624C178.222,481.591,181.205,479.091,181.741,478.911z"/>
		<path fill="#EAECEC" d="M182.979,466.834c-0.66-22.445-3.703-37.178-3.94-45.284c-0.088,0.066-0.186,0.101-0.285,0.119
			c-0.338,7.695-1.379,22.92-0.234,47.26C180.488,481.523,182.42,466.917,182.979,466.834z"/>
		<path fill="#EAECEC" d="M127.146,511.646c-4.241-22.004-9.595-35.98-11.125-43.928c-0.076,0.081-0.167,0.133-0.261,0.166
			c0.896,7.646,2.305,22.839,7.325,46.623C123.625,514.329,126.609,511.828,127.146,511.646z"/>
		<path fill="#EAECEC" d="M47.828,560.542c-9.208-21.53-14.724-34.432-17.804-41.632c0.102,0.473,0.2,0.943,0.284,1.424
			c2.488,7.262,7.258,20.21,17.1,42.137C47.899,562.167,47.341,560.844,47.828,560.542z"/>
		<path fill="#EAECEC" d="M69.928,538.284c-5.445-19.387-8.704-30.996-10.527-37.479c0.005,0.386,0.007,0.768-0.007,1.151
			c1.134,6.286,3.536,17.629,9.608,37.558C69.631,539.493,69.305,538.303,69.928,538.284z"/>
		<path fill-rule="evenodd" clip-rule="evenodd" fill="#EAECEC" d="M56.185,570.078c17.027,26.892,18.47,28.55,19.214,28.029
			c-1.422-2.34-3.015-7.289-15.626-28.029C60.088,569.817,55.87,570.342,56.185,570.078z"/>
		<path fill-rule="evenodd" clip-rule="evenodd" fill="#EAECEC" d="M107.84,477.032c4.539,13.17,9.075,26.339,13.612,39.508
			c-1.137,0.125-2.273,0.253-3.408,0.376c-3.407-13.3-6.812-26.6-10.222-39.9C107.819,477.015,107.84,477.032,107.84,477.032z"/>
		<path fill-rule="evenodd" clip-rule="evenodd" fill="#EAECEC" d="M283.169,590.292"/>
		<path fill-rule="evenodd" clip-rule="evenodd" fill="#EAECEC" d="M279.086,560.126"/>
		<path fill-rule="evenodd" clip-rule="evenodd" fill="#EAECEC" d="M190.886,516.797"/>
		<path fill-rule="evenodd" clip-rule="evenodd" fill="#EAECEC" d="M199.975,541.353c-0.558,0.136-1.115,0.27-1.672,0.404"/>
		<path fill-rule="evenodd" clip-rule="evenodd" fill="#EAECEC" d="M158.696,575.933c0.005,0.008,0.159,0.177,0.159,0.177
			c-1.709-4.877-3.435-9.747-5.124-14.63c-0.982-2.837-1.906-5.698-3.382-10.121"/>
	</g>
</g>
<g id="Layer_2">
	<path fill="#E8E9EA" d="M10.849,615.092c6.116-3.674,7.619-5.052,8.998-8.339c3.54,0.229,17.399-9.899,19.837-14.354
		c1.885-3.449,4.865-6.591,5.68-10.351c0.08-0.371,0.574-0.749,1.004-1.016c2.088-1.309,2.74-3.15,3.425-4.924
		c1.378-3.58,2.465-7.22,3.845-10.797c0.683-1.778,1.523-3.561,2.679-5.199c2.072-2.922,4.531-5.701,6.653-8.608
		c1.846-2.528,3.53-5.125,5.126-7.743c0.885-1.449,1.751-2.83,4.012-3.717c1.292,1.656,2.153,3.182,0.772,4.919
		c-0.714,0.903-1.11,1.821-0.657,2.871c0.108,0.249,0.123,0.65-0.079,0.824c-2.813,2.427-2.531,5.659-4.148,8.429
		c-1.352,2.312-2.702,4.638-4.304,6.86c-2.389,3.315-6.854,17.211-7.307,17.641c-1.104,1.057-1.962,2.149-0.426,3.464
		c1.681,1.44-4.456,19.922-3.809,18.858c2.068-3.4,5.51-6.287,6.985-9.912c0.494-1.219,1.498-2.326,2.127-3.522
		c1.683-3.191,4.24-6.091,5.192-9.558c0.675-2.466,2.718-4.731,4.099-7.103c0.458-0.789,0.942-1.608,1.096-2.444
		c0.354-1.928,1.512-3.542,3.305-4.939c1.571-1.227,2.439-2.668,2.204-4.309c-0.359-2.513,1.068-4.782,1.629-7.165
		c0.099-0.414,0.236-0.96,0.636-1.18c4.659-2.557,9.188-10.731,9.572-11.053c0.453-0.378,1.943-0.148,1.994,0.339
		c0.223,2.265,0.362,4.533,0.524,6.803c0.011,0.14-0.012,0.352-0.131,0.407c-3.751,1.799-8.23,9.561-7.927,11.026
		c0.353,1.711-9.323,10.484-8.701,14.785c0.308,2.115-1.108,3.982-3.404,5.213c-1.959,1.049-3.22,3.908-3.22,3.908
		c2.507,1.078-0.98,9.079-1.729,11.568c-0.122,0.403-0.407,0.938-0.846,1.104c-2.663,1.017-2.649,2.894-3.342,4.653
		c-0.566,1.437-0.466,3.192-2.487,4.226c-1.218,3.148-3.203,6.346,1.444,9.154c1.685-0.547,4.777-5.063,4.082-6.585
		c-0.204-0.448,0.071-1.359,0.539-1.563c4.146-1.797,11.938-18.452,11.667-18.653c-2.389-1.753-0.484-3.47-0.074-5.206
		c0.404-1.719,1.202-3.221,2.801-4.628c1.475-1.296,2.272-2.985,3.517-4.435c0.731-0.851,1.714-1.633,3.366-0.976
		c1.117,1.713-1.167,2.554-1.821,3.798c0.46,0.45,1.37,0.938,1.293,1.325c-0.685,3.351,0.845,6.884-1.561,10.091
		c-1.297,6.068-2.215,12.167-2.668,18.301c-0.135,1.846-0.274,3.693-0.43,5.766c1.804-0.292,3.667-1.399,3.664-0.931
		c-0.015,2.996-0.238,5.997-0.166,8.993c0.04,1.682,0.514,3.357,0.795,5.048c0.05,0.241,0.097,0.472,0.144,0.707
		c-0.059-0.249-0.119-0.499-0.177-0.747c-0.197,0.55,0.257,5.855-1.025,7.925c-0.302,0.488-0.297,1.16-0.122,1.696
		c0.975,2.993,0.634,5.971,0.004,8.957c-0.045,0.206,0.333,0.459,0.752,0.99c0.5-0.518,1.204-0.908,1.209-1.302
		c0.019-2.188,0.662-4.189,2.07-6.175c0.866-1.222,0.874-2.771,1.197-4.179c0.907-3.95,1.799-7.898,2.647-11.854
		c0.18-0.842,0.201-1.705,0.208-2.561c0.069-7.863,1.083-25.615,0.56-26.487c-0.816-1.361-0.652-2.68,0.488-3.655
		c1.997-1.714,1.666-11.09,3.993-13.49c0.212-0.222,0.333-0.556,0.301-0.824c-0.395-3.212,1.745-6.12,2.127-9.227
		c0.277-2.259,0.174-4.544,0.421-6.805c0.309-2.842,1.105-5.667,1.149-8.506c0.073-4.576,1.885-8.988,2.122-13.54
		c0.036-0.673,0.386-1.438,0.938-1.976c0.846-0.824,0.684-1.582,0.286-2.415c-0.874-1.846-0.909-3.607,0.646-5.338
		c0.515-0.568,0.627-1.354,0.79-2.056c1.381-5.923,2.872-11.834,4.053-17.78c1.576-7.932,2.894-15.892,4.342-23.839
		c0.878-4.812,1.541-9.655,2.78-14.419c0.869-3.355,2.572-6.597,3.854-9.9c0.533-1.367,0.9-2.768,1.399-4.142
		c1.701-4.701,3.364-9.409,5.162-14.094c1.632-4.259,3.649-8.449,5.09-12.739c1.96-5.839,4.489-11.45,8.362-16.831
		c2.14-2.97,4.55-5.947,5.658-9.351c0.606-1.857,2.273-3.628,3.89-5.209c3.56-3.489,5.977-7.419,8.874-11.166
		c-0.064,0.062-4.46,1.366-7.512,2.285c1.158-0.252,1.885-0.243,1.66,0.33c0.04,0.664-26.56,38.37-27.913,35.643
		c1.353,2.728-0.012,5.412-1.071,8.136c-1.224,3.14-2.209,6.33-3.556,9.44c-1.326,3.061-1.547,6.405-4.294,9.121
		c0.03,0.053,0.069,0.107,0.096,0.161c-0.067,0.036-0.114,0.082-0.176,0.121c0.037,1.684-0.544,3.197-2.346,4.392
		c-0.008,0.022-0.013,0.046-0.021,0.067c-0.005-0.013-0.008-0.027-0.014-0.041c0.013-0.008,0.023-0.017,0.035-0.026
		c0.56-1.528,0.489-3.237,2.346-4.392c-0.003-0.064,0.003-0.128,0-0.191c0.031-0.031,0.051-0.062,0.081-0.091
		c-0.413-0.721-1.068-1.449-1.039-2.158c0.252-5.707,1.035-11.372,3.191-16.896c0.479-1.231,0.996-2.467,1.257-3.726
		c1.678-8.153,0.754-8.396,6.138-15.57c0.308-0.41,5.884-8.313,7.295-7.996c-0.116,0.496,5.784-7.95-0.366,1.52
		c-1.188,1.827,8.767-13.745,10.068-15.96c0.017-0.038,0.03-0.075,0.059-0.121c0.148-0.236,0.111-0.165-0.059,0.121
		c-0.379,0.915,2.63-0.103,5.503-1.002c-0.085-0.005-0.172-0.008-0.255-0.013c0.019-0.121,0.036-0.245,0.054-0.365
		c0.251,0.033,10.59-2.822,10.84-2.788c1.728-2.234,3.666-4.392,5.646-6.517c0.511-0.547,1.477-1.109,2.337-1.21
		c3.073-0.363,5.856-2.021,9.214-1.127c3.755-0.879,7.675-1.505,11.212-2.715c3.067-1.048,35.702,13.37,41.188,18.082
		c2.154,1.852,4.036,3.896,7.261,4.995c0.997,0.339,1.895,1.094,2.444,1.814c4.019,5.284,31.88,20.838,33.499,18.056
		c1.309-2.248,2.229-4.564,1.914-7.077c-0.59-4.701-1.121-9.407-1.551-14.118c-0.406-4.424-0.348-8.841,0.62-13.248
		c0.304-1.393,0.193-6.261,0.263-7.254l-0.084,0.133l-0.866-2.267c0.644-0.417,4-12.749,3.984-14.89
		c-0.023-3.133-0.175-6.274,0.102-9.396c0.507-5.671,1.29-11.333,1.96-17.031c0.587,0.017,1.641,0.269,2.023,0.009
		c0.649-0.44,1.045-1.18,1.22-1.839c0.142-0.525-0.228-1.117-0.332-1.684c-1.301-6.962-0.768-13.962-0.68-20.943
		c0.043-3.403,1.245-6.678,2.873-9.971c1.571-3.173,3.129-6.625,1.688-10.177c-0.823,1.358-1.66,2.71-2.456,4.075
		c-0.586,1.004-1.115,2.024-1.734,3.153c-0.569-0.4-1.03-0.576-1.027-0.744c0.044-2.132-0.173-4.301,0.309-6.384
		c1.199-5.182,2.673-10.333,4.138-15.482c0.595-2.089,1.389-4.149,2.229-6.194c0.244-0.598,0.961-1.094,1.667-1.857
		c1.139,3.643,0.462,8.227-1.686,12.665c1.159-0.081,2.407-0.091,3.064-0.938c0.86-1.106,1.924-2.208,2.32-3.412
		c1.717-5.179,2.541-10.395,0.115-15.608c-0.566-1.219-1.155-2.438-1.622-3.677c-0.415-1.103-0.815-2.223-0.979-3.352
		c-0.499-3.396-0.851-6.8-1.319-10.196c-0.202-1.49-0.965-2.711-3.102-3.367c-2.429-0.746-3.285-2.006-3.199-4.073
		c0.092-2.234-0.626-4.423,0.857-6.617c0.514-0.762,0.272-2.015-0.223-2.861c-1.613-2.751-1.893-5.411-0.613-8.316
		c0.694-1.578,0.83-3.464,0.362-5.084c-0.758-2.637-0.127-5.131,0.555-7.634c0.721-2.639,1.789-5.228,2.704-7.839l-0.112,0.124
		c0.252-1.38,0.56-2.758,0.741-4.146c0.31-2.399,0.818-4.734,2.917-6.734c0.562-0.531,0.856-1.06,1.945-1.372
		c1.792-0.511,1.533-1.697,0.763-2.784c0.002-0.259,0.004-0.515,0.005-0.77c0.011,0.263,0.021,0.527,0.03,0.79
		c0.828-2.201,1.821-4.378,2.454-6.607c1.592-5.618,3.644-11.133,7.142-16.294c2.778-4.104,5.632-8.202,8.946-12.085
		c2.262-2.651,4.926-5.14,7.332-7.747c1.842-1.995,4.323-3.632,7.522-4.73c3.984-1.368,7.325-3.384,9.036-6.493
		c0.212-0.392,0.55-0.767,0.922-1.097c5.619-5.033,9.636-10.791,14.303-16.256c2.588-3.028,5.503-5.951,8.68-8.669
		c5.733-4.902,13.205-7.595,22.054-8.479c8.66-0.867,17.324-1.299,26.072-1.17c2.906,0.043,5.365,0.578,7.906,1.474
		c6.053,2.136,12.191,4.148,18.343,6.14c1.34,0.435,2.84,0.622,4.274,0.901c-0.495-0.515-0.908-1.138-1.59-1.411
		c-2.249-0.903-4.623-1.643-6.955-2.433c-3.232-1.094-6.659-1.961-9.663-3.312c-4.437-1.995-9.198-2.509-14.227-2.513
		c-2.567-0.003-5.142-0.048-7.696-0.189c-0.879-0.05-1.722-0.459-2.763-0.757c0.815-1.771,2.344-2.914,3.848-3.99
		c2.249-1.606,4.694-3.072,7.085-4.573c1.646-1.031,3.359-2.001,5.015-3.023c7.212-4.458,14.384-8.951,22.212-12.852
		c1.448-0.724,2.87-1.521,2.283-3.038c-6.508,3.636-13.271,7.06-19.437,10.972c-7.245,4.595-15.23,8.652-21.107,14.305
		c-1.592,1.534-3.671,2.652-6.238,3.075c-4.402,0.727-8.863,1.278-13.584,1.943c-0.224-0.863-0.386-1.483-0.543-2.091
		c-3.277,1.786-6.484,3.643-9.855,5.332c-3.783,1.9-7.047,4.16-9.94,6.727c-5.654,5.015-10.657,10.345-14.344,16.243
		c-1.756,2.814-4.704,4.934-7.198,7.32c-2.249,2.149-4.491,4.168-8.272,5.322c-2.767,0.843-5.063,2.689-6.629,4.762
		c-1.836,2.426-4.307,4.39-7.696,5.813c-2.904,1.22-3.168,1.722-2.124,4.139c0.79,1.838-0.921,2.58-2.2,3.587
		c-2.285,0.171-3.333-0.785-3.687-2.177c-0.276-1.101-0.355-2.24-0.355-3.363c-0.002-1.358,0.152-2.716,0.247-4.074
		c-2.248,1.162-2.663,3.041-3.174,4.761c-2.363,7.969-6.511,15.55-9.569,23.366c-2.358,6.041-4.563,12.112-6.914,18.155
		c-0.355,0.912-1.122,1.743-1.691,2.621c0.026,0.03,0.042,0.061,0.067,0.091c0.017,0.228,0.029,0.456,0.043,0.684
		c-0.037-0.247-0.072-0.494-0.128-0.749c0.006-0.011,0.012-0.019,0.018-0.027c-1.635-2.023-1.841-4.266-1.979-6.533
		c-0.264-4.428-0.553-8.855-0.918-13.28c-0.038-0.441-0.664-0.855-1.48-1.842c-0.461,1.097-0.85,1.581-0.828,2.052
		c0.08,1.712,0.205,3.43,0.484,5.131c0.329,2.03,0.086,3.907-1.085,5.842c-0.84,1.392-0.917,3.05-1.158,4.604
		c-2.019,12.928-4.021,25.859-5.968,38.794c-0.407,2.697-0.311,5.445-0.907,8.117c-1.474,6.644-1.955,13.347-2.574,20.036
		c-0.528,5.701-0.579,11.424-0.896,17.137c-0.107,1.996-0.209,4.007-0.599,5.98c-1.456,7.387-1.636,14.812-1.636,22.251
		c0,4.434-0.162,8.866-0.378,13.298c-0.062,1.274-0.355,2.587-0.902,3.797c-1.709,3.789-2.924,7.665-4.966,11.415
		c-2.956,5.422-6.225,10.812-7.78,16.604c-0.5,1.858-0.726,3.665-0.354,5.529c1.049,5.231,2.368,10.446,3.016,15.705
		c0.592,4.822,0.464,9.692,0.601,14.542c0.012,0.395-0.37,0.793-0.642,1.337c-3.518,0.842-6.808,0.784-10.01-0.945
		c-3.636-1.965-7.8-3.488-11.114-5.688c-5.576-3.699-11.878-6.67-17.849-9.968c-1.37-0.756-3.154-1.124-4.745-1.674
		c-2.498-0.862-5.17-1.535-7.455-2.632c-4.676-2.24-9.715-3.779-15.106-4.81c-1.718-0.329-3.391-0.794-5.119-1.093
		c-2.694-0.465-5.411-0.853-8.127-1.252c-1.735-0.255-3.479-0.465-5.216-0.705c-1.56-0.218-3.099-0.513-4.67-0.662
		c-5.312-0.5-10.627-0.987-15.953-1.403c-2.353-0.185-4.745-0.328-7.1-0.235c-2.811,0.111-5.542,0.532-6.965,2.683
		c-0.324,0.491-0.936,0.979-1.591,1.244c-4.113,1.681-5.634,5.128-9.375,7.063c-0.589,0.306-0.872,0.938-1.247,1.437
		c-1.604,2.128-3.079,4.314-4.811,6.387c-2.468,2.952-4.361,6.061-5.228,9.256c-2.258,0.594-4.05,1.194-5.932,1.527
		c-2.314,0.412-3.17,1.561-3.625,3.04c-0.771,2.506-1.406,5.04-2.375,7.505c-0.474,1.206-1.373,2.39-2.417,3.4
		c-4.019,3.888-8.356,10.012-6.803,8.727c0.289-0.091,3.266,1.698,5.942,0.455c-0.065,1.22,0.139,2.085-0.198,2.822
		c-0.87,1.898-2.037,3.723-2.975,5.607c-0.592,1.191-1.01,2.432-1.449,3.661c-0.249,0.69-0.144,1.497-0.602,2.091
		c-2.441,3.173-3.265,6.74-4.913,10.104c-3.572,7.296-5.68,14.847-7.482,22.448c-0.437,1.833-7.031,25.867-6.601,27.331
		c-3.323,5.714-7.441,19.684-7.727,20.653c-0.654,2.223-1.512,4.453-1.698,6.704c-0.376,4.563-0.335,9.147-3.139,13.399
		c0.761,0.477,1.333,0.832,1.949,1.213c-2.096,1.411,0.345,3.581-2,5.166c-1.103,0.219-4.555,1.355-4.686,1.607
		c-2.047,4.016-9.051,19.37-9.489,23.213c-0.223,1.955-6.041,14.663-6.777,18.178c-0.282,1.354-11.294,25.695-11.621,28.722
		c-0.187,1.747-0.788,3.346-3.082,4.424c-0.911,0.429-1.653,1.251-2.034,2.01c-0.667,1.333-1.532,2.79-1.36,4.131
		c0.404,3.144-1.377,5.471-4.101,7.688c-1.298,1.06-2.318,2.315-3.287,3.556C9.574,613.992,9.604,614.749,10.849,615.092z
		 M267.474,298.468c1.252,4.067,2.032,8.184,0.932,12.323c-1.939,7.289-4.059,14.555-6.072,21.836
		c-0.431,1.557-0.853,3.065-2.761,4.129c-1.241,0.692-1.106,1.76-1.056,2.771c0.267,5.332-2.018,10.296-4.285,15.259
		c-0.047,0.103-0.226,0.173-0.343,0.263c0.006,0.023,0.011,0.048,0.02,0.072c0.009,0.02,0.02,0.038,0.027,0.056
		c0.171,0.158,0.349,0.313,0.483,0.483c0.052,0.066-0.056,0.196-0.089,0.296c-0.13-0.26-0.261-0.52-0.394-0.779
		c-0.032-0.03-0.066-0.062-0.1-0.093c0.013-0.014,0.037-0.024,0.053-0.035c-0.307-1.094-0.554-2.198-0.947-3.275
		c-2.14-5.833-2.131-11.634,1.257-17.196c2.316-3.802,4.224-7.68,5.881-11.643c2.399-5.737,5.293-11.392,5.021-17.534
		c-0.07-1.56,0.167-3.131,0.351-4.69c0.128-1.092,0.403-2.174,0.71-3.771C266.908,297.792,267.361,298.103,267.474,298.468z
		 M262.384,369.275c0.164,0.133,0.325,0.268,0.488,0.399c-0.145,0.038-0.31,0.128-0.432,0.105c-0.133-0.024-0.229-0.155-0.341-0.239
		C262.195,369.452,262.291,369.363,262.384,369.275z M262.646,365.881c0.117,0.076,0.357,0.188,0.337,0.222
		c-0.111,0.191-0.284,0.365-0.438,0.546c-0.119-0.071-0.239-0.143-0.361-0.214C262.337,366.25,262.492,366.066,262.646,365.881z
		 M271.486,354.017c0,0-10.393,16.3-12.771,18.654c-0.262-3.515,6.288-28.663,9.155-32.322c0.448-0.572,0.228-1.404,0.398-2.104
		c1.626-6.74,3.263-13.479,4.924-20.213c0.123-0.491,0.463-0.954,1.047-2.113c1.917,3.27,2.77,6.039,0.706,8.408
		c-1.791,2.054-1.69,3.964-1.44,6.085c0.168,1.42,0.282,2.846,0.299,4.271c0.073,5.27-1.869,10.43-1.689,15.715
		C272.141,351.135,271.487,354.014,271.486,354.017z M264.432,407.33c-0.229-1.689-0.159-3.419,0.011-5.117
		c0.23-2.268,0.726-4.52,1.03-6.783c0.498-3.696,0.917-7.393,0.349-11.111c-0.085-0.553,0.133-1.134,0.235-1.7
		c0.775-4.247,1.463-8.505,2.371-12.735c0.505-2.364,1.378-4.687,2.086-7.027c0.383,0.031,0.768,0.064,1.149,0.096
		c0.063,0.838,0.247,1.68,0.169,2.51c-0.426,4.683-0.853,9.367-1.396,14.044c-0.462,3.98-1.242,7.942-1.578,11.926
		c-0.178,2.119-0.111,4.331,0.544,6.386c1.35,4.241,0.977,8.537,1.298,12.806c0.115,1.529-0.52,3.119-1.076,4.632
		C268.921,417.164,264.814,410.114,264.432,407.33z M89.205,601.792l-0.96,1.354c-0.175-0.105-0.356-0.213-0.535-0.321
		c0.493-0.332,0.984-0.665,1.475-1.009c-0.156-0.228-0.312-0.455-0.381-0.557C88.874,601.356,89.039,601.575,89.205,601.792z
		 M71.982,584.181l-0.459,0.092c-0.091-0.109-0.262-0.223-0.243-0.313c0.02-0.098,0.217-0.175,0.337-0.261
		C71.738,583.86,71.862,584.021,71.982,584.181z M90.113,558.504c-0.27,0.12-0.528,0.242-0.778,0.368
		c-0.038,0.048-0.083,0.093-0.124,0.14c0.003,0.058,0.013,0.114,0.013,0.172c0.136,0.278,0.268,0.555,0.402,0.832
		c-0.12-0.052-0.341-0.094-0.352-0.155c-0.041-0.224-0.042-0.45-0.051-0.677c-0.033-0.069-0.068-0.141-0.102-0.21
		c0.064-0.036,0.146-0.066,0.213-0.102c0.128-0.153,0.251-0.312,0.403-0.454C89.765,558.394,89.983,558.474,90.113,558.504z
		 M87.405,433.69c0.08,0.371-0.016,0.764-0.048,1.179c-0.484-0.112-1.077-0.171-1.091-0.271c-0.048-0.351,0.1-0.715,0.177-1.074
		C86.778,433.575,87.386,433.599,87.405,433.69z M102.899,405.71c-0.067,0.372-0.296,0.727-0.465,1.088
		c-0.301-0.131-0.602-0.261-1.082-0.47c0.215-0.293,0.425-0.631,0.726-0.922C102.112,405.373,102.914,405.632,102.899,405.71z
		 M116.837,370.445c-0.243,0.172-0.559,0.517-0.717,0.482c-0.436-0.097-0.809-0.349-1.207-0.54c0.241-0.163,0.483-0.325,0.878-0.593
		C116.132,370.007,116.486,370.227,116.837,370.445z M117.951,373.175c-2.777,1.63-2.715,1.647-3.891,3.583
		c-1.58,2.612-3.259,5.191-4.908,7.78c-1.827,2.872-4.824,5.143-7.577,7.532c-0.392,0.343-1.346,0.353-2.041,0.514
		c-0.218-0.235-0.437-0.472-0.655-0.707c0.681-0.661,1.299-1.36,2.049-1.977c2.381-1.951,4.348-4.092,5.313-6.604
		c1.502-3.9,4.272-7.344,7.05-10.75C116.225,372.234,116.225,372.234,117.951,373.175z M251.243,382.93
		c-0.098,0.177-0.284,0.331-0.439,0.492c-0.221-0.166-0.445-0.333-0.666-0.504c0.258-0.084,0.507-0.197,0.777-0.235
		C251.003,382.668,251.27,382.881,251.243,382.93z M248.072,398.476c2.776,0.766-16.065-7.865-13.767-7.232
		c-0.276-1.715-2.251-4.062-3.348-4.81c-1.727-1.178,0.009-0.005-1.727-1.178c-0.866-0.585-18.799-7.652-17.896-8.569
		c3.764,0.237,39.739,15.108,41.152,15.863c0.758,0.405,1.55,0.958,1.888,1.569c1.674,3.06,3.233,6.151,4.757,9.252
		c0.326,0.657,0.447,1.4,0.44,2.104c-0.001,0.365,1.361,4.279,0.941,4.461c-0.419,0.179-3.033-3.206-3.389-3.408
		C253.583,404.51,250.725,402.083,248.072,398.476z M202.413,370.692c1.423,0.056,20.115,3.067,20.335,3.21
		c2.28,1.477,4.643,2.533,7.997,2.121c1.203-0.148,2.675,0.39,3.884,0.817c2.125,0.752,4.151,1.647,6.199,2.508
		c0.848,0.359,1.677,0.754,2.453,1.189c0.878,0.493,13.359,3.976,12.74,4.611c-0.506,0.517-13.575-1.891-14.385-1.566
		c-0.28,0.112-0.784,0.006-1.152-0.078c-2.849-0.646-5.711-1.388-7.723-3.025c-1.89-1.535-4.207-2.525-6.583-3.549
		C224.401,376.164,204.136,372.515,202.413,370.692z M184.859,369.292c0.057-0.365,0.094-0.598,0.133-0.832
		c0.474,0.118,0.983,0.198,1.401,0.384c0.111,0.049-0.062,0.429-0.105,0.655C185.807,369.429,185.328,369.359,184.859,369.292z
		 M159.041,367.492c-0.276-0.078-0.555-0.159-0.831-0.239c0.05-0.119,0.098-0.237,0.15-0.354c0.275,0.081,0.561,0.15,0.819,0.256
		C159.212,367.169,159.092,367.375,159.041,367.492z M108.885,405.157c-0.249,0.724-13.352,13.909-14.852,14.065
		c-0.003-0.001,0.003-0.014,0.003-0.018c-0.508,0.834-1.26,1.584-2.638,2.091c0.011,0.041,0.01,0.079,0.022,0.12
		c-0.029,0.043-0.053,0.078-0.081,0.12c0.807,1.782-0.04-0.12-0.071-0.184c0.048-0.018,0.082-0.039,0.129-0.057
		c-0.495-1.927,0.865-3.522,1.936-5.144c0.336-0.512,1.171-0.712,2.126,0.074c-0.517,0.867-0.786,1.855-1.292,2.767
		c1.313-1.685,1.969-8.491,1.873-9.899c-0.025-0.382,3.427-9.926,3.89-11.52c0.544-1.875-1.436,1.519,0,0
		c2.431-2.568,15.114-13.837,19.169-17.099c-1.021-0.687,5.074-10.668,6.259-11.828c0.299-1.301,8.862-5.379,12.25-6.949
		c3.467-1.609,3.344-1.718,6.691-3.487c-0.321-0.552-7.989-0.782-9.331,0.332c-1.559,1.295-2.139,0.773-4.524,0.674
		c-4.817,4.632-6.612,6.197-12.832,9.771c3.313-5.773,16.042-16.884,22.488-20.672c4.642,0.579,6.542,2.003,11.313,1.729
		c3.221,1.176,5.355,2.098,8.693,1.652c0.92-0.12,1.938,0.176,2.917,0.243c6.58,0.459,12.82,2.001,18.929,3.603
		c7.613,1.993,14.94,4.554,22.34,6.956c1.594,0.517,3.028,1.337,4.428,2.119c2.339,1.309,4.624,2.671,6.862,4.069
		c0.636,0.397,1.578,0.878,0.662,1.826c-5.333-1.554-10.457-3.386-15.227-5.728c-1.298-0.639-2.653-1.258-4.09-1.704
		c-4.223-1.311-5.857,0.014-6.455,1.317c20.861,12.288-8.89-1.984-9.907-2.377c-0.668-0.255-1.477-0.317-2.196-0.516
		c-1.08-0.306-2.364-0.481-3.158-1.02c-1.881-1.272-6.39-1.537-11.376-3.16c-1.465-0.479-2.482-1.335-4.396-1.34
		c-1.758,0.876-3.672,1.83-5.6,2.791c0.697,0.557-7.129,4.424-8.898,5.608c-0.018,0.231-0.343,0.719-0.895,1.394
		c0.619,0.828-4.327,4.988-5.934,6.275c-1.945,1.946-4.076,4.024-6.073,5.963c-0.017,0.022-0.092,0.068-0.057,0.063
		c4.186-0.662-0.311,0.328-0.483,0.462c-3.605,3.49-6.651,6.411-7.143,7.021C120.39,390.488,110.806,399.535,108.885,405.157z
		 M99.184,443.898c-1.238,5.392-8.841,21.132-8.533,23.941c0.572,5.218-1.234,10.132-2.366,15.04l-2.414-1.769
		c-0.596-2.439-1.179-4.816-1.756-7.191c-0.165-0.688-0.667-1.461-0.403-2.053c0.883-1.977,0.471-3.953,0.47-5.945
		c0-2.87,0.495-5.683,1.8-8.443c1.146-2.431,1.726-4.997,2.71-7.473c0.653-1.642,1.242-3.381,2.48-4.792
		c0.978-1.116,2.903-1.798,4.468-2.71c0.185-0.52,0.41-1.066,0.571-1.624c1.193-4.048,2.09-8.154,3.644-12.127
		c1.222-3.13,3.211-6.11,4.955-9.129c0.347-0.604,19.833-23.109,19.726-22.747C122.695,403.169,102.168,437.798,99.184,443.898z
		 M108.416,493.606c-0.523-0.735-0.016-1.282,0.636-1.8c-0.007-0.048-0.008-0.1-0.013-0.148c-0.111-0.122-0.224-0.245-0.339-0.368
		c0.102,0.064,0.238,0.117,0.292,0.199c0.034,0.05,0.042,0.108,0.048,0.169c0.031,0.034,0.063,0.067,0.094,0.102
		c-0.232,0.616-0.46,1.228-0.691,1.844c-0.197,0.575-0.394,1.15-0.624,1.822C106.96,494.515,107.763,494.091,108.416,493.606z
		 M102.225,503.415c-2.164-0.784,5.27-41.878,5.313-42.813c0.12-2.424,0.189-4.857,0.571-7.263c0.671-4.25,1.529-8.485,2.366-12.719
		c0.276-1.387,0.299-2.853,2.671-4.813c0.495,4.007,0.848,7.23-0.214,10.465c-1.239,3.772-1.747,7.578-1.35,11.455
		C118.078,469.362,104.014,502.029,102.225,503.415z M105.003,524.381c-1.313-4.903-0.868-8.799,1.229-11.791
		C106.355,516.514,106.343,519.965,105.003,524.381z M86.35,520.121c0.018-0.119,0.036-0.24,0.055-0.36
		c0.273,0.063,0.553,0.109,0.805,0.2c0.042,0.014-0.05,0.221-0.082,0.342C86.868,520.243,86.608,520.183,86.35,520.121z
		 M76.032,534.683c-0.994-1.946,1.609-15.319,10.146-25.961c-0.244-0.528-0.269-1.131-0.261-1.699
		c0.056-4.137,0.145-8.274,0.229-12.414c0.03-1.566-0.278-3.192,0.207-4.684c0.484-1.481,1.899-2.792,2.676-4.243
		c0.997-1.866,1.741-3.802,2.645-5.694c0.3-0.627,0.752-1.217,1.315-2.108c0.735,1.048,6.08-17.448,4.665-5.249
		c0.639,3.729,0.273,7.32-1.579,10.79c0.114,0.25,0.115,0.273-0.001,0.033c-0.751-0.356-1.173,8.676-1.167,12.862
		c0.473,0.393,0.446,1.456,0.085,2.011c0.038,0.145,0.003,0.168-0.067,0.112c-1.587,2.479-2.039,5.151-2.538,7.778
		C91.899,508.803,77.718,531.967,76.032,534.683z M67.734,509.138c-0.337-4.309,1.72-8.328,3.199-12.392
		c3.374,0.34,4.17,0.654,4.106,2.299c-0.102,2.682-0.543,5.357-0.965,8.026c-0.241,1.539-1.006,3.057-1.028,4.588
		c-0.03,2.335-1.872,3.865-3.786,5.92C66.233,514.515,67.943,511.756,67.734,509.138z M49.621,533.176
		c1.478-2.096,2.894-4.242,5.533-6.243c1.228,2.324,0.423,4.214-0.222,6.084c-0.474,1.367-1.175,2.675-3.06,3.343
		C48.759,534.935,48.537,534.711,49.621,533.176z M47.136,538.653c0.089-0.215,0.431-0.449,0.734-0.521
		c0.187-0.042,0.504,0.204,0.9,0.383c-0.438,0.262-0.833,0.498-1.227,0.734C47.395,539.047,47.072,538.812,47.136,538.653z
		 M39.029,562.958c0.202-0.212,0.349-0.521,0.628-0.605c0.199-0.06,0.575,0.182,0.871,0.287c-0.277,0.288-0.552,0.58-0.83,0.868
		C39.474,563.325,39.251,563.142,39.029,562.958z M33.224,578.506c0.027,0.079,0.047,0.146,0.081,0.231
		c-0.121,0.025-0.207,0.045-0.316,0.069c-0.744,0.994-1.502,2.011-2.577,3.448c-0.059-2.76-0.033-2.876,2.577-3.448
		c0.036-0.048,0.07-0.096,0.106-0.143C33.146,578.613,33.178,578.56,33.224,578.506C32.044,575.24,34.639,576.776,33.224,578.506z
		 M38.166,580.404c-0.06-0.102,0.042-0.247,0.072-0.378l0.485-0.096c-0.035,0.204-0.073,0.408-0.11,0.609
		C38.456,580.497,38.212,580.481,38.166,580.404z M19.836,603.508c1.754-2.491,3.673-4.817,5.078-7.295
		c2.691-4.751,6.047-9.219,10.115-13.416c0.283-0.29,2.243,0.243,2.13,0.562c-0.441,1.233-0.951,2.465-1.616,3.646
		c-2.077,3.688-4.139,7.38-6.4,11.009c-1.516,2.432-3.484,4.701-6.993,5.928C21.337,604.223,20.199,604.374,19.836,603.508z"/>
	<path fill="#E8E9EA" d="M666.5,571.671c-0.393-0.578-1.132-1.146-1.928-1.477c-2.537-1.051-5.058-2.193-7.782-2.925
		c-6.927-1.865-13.232-4.589-19.802-6.935c-7.032-2.517-13.336-5.88-19.869-8.977c-7.309-3.46-12.523-8.046-16.438-13.462
		c-1.563-2.166-3.004-4.32-2.371-6.827c-2.641-1.725-4.964-3.548-7.719-4.959c-3.271-1.674-5.979-3.653-7.945-6.041
		c-2.53-3.075-6.502-5.487-8.402-8.833c-2.232-1.283-3.173-3.165-4.656-4.793c-0.615-0.675-1.196-1.374-1.896-2.006
		c-2.105-1.9-4.264-3.773-6.401-5.658c-0.218-0.098-0.433-0.196-0.647-0.293c0.229,0.098,0.457,0.195,0.702,0.302
		c-0.942-0.929-1.924-1.853-2.843-2.807c-1.731-1.801-3.829-3.457-3.868-5.832c-0.013-0.717-0.709-1.566-1.445-2.137
		c-1.753-1.355-3.752-2.556-5.582-3.865c-1.137-0.813-2.264-1.652-3.195-2.58c-3.97-3.951-9.11-7.002-15.224-9.113
		c-4.279-1.479-8.467-3.055-12.501-4.814c-4.187-1.825-8.1-3.958-12.287-5.784c-2.492-1.089-5.176-2.073-7.951-2.685
		c-2.538-0.557-4.893-1.3-7.222-2.15c-0.73-0.267-1.399-0.651-2.165-0.818c-6.547-1.45-12.838-3.569-19.791-3.969
		c-1.13-0.066-2.246-0.306-3.363-0.483c-4.166-0.665-8.342-1.029-12.585-0.644c-0.616,0.056-1.306,0.014-1.91-0.112
		c-8.013-1.662-16.246-2.749-24.076-4.904c-1.337-0.368-2.93-0.648-4.283-0.503c-2.007,0.219-3.873,0.004-5.81-0.217
		c-1.438-0.165-2.907-0.223-4.363-0.24c-3.571-0.043-7.143,0.039-10.712-0.06c-10.786-0.285-21.501-0.194-31.915,1.911
		c-2.95,0.597-5.988,1.005-9.011,1.416c-1.255,0.174-2.6,0.271-3.867,0.159c-7.32-0.648-14.629-0.615-21.963-0.558
		c-7.849,0.062-15.586,0.371-23.056,2.096c-3.062,0.708-6.149,1.434-9.318,1.851c-9.391,1.233-18.75,2.63-28.378,2.936
		c-1.456,0.047-2.897,0.252-4.347,0.378c-1.285,0.111-2.57,0.232-3.861,0.318c-3.069,0.196-6.162,0.29-9.208,0.584
		c-3.961,0.38-7.689,0.267-11.359-1.222c-2.968-1.2-6.306-1.802-9.588-2.068c-0.812,0.74-0.476,1.278,0.273,1.594
		c2.281,0.961,4.311,2.06,5.676,3.718c0.371,0.45,1.198,0.762,1.896,1.036c0.981,0.388,2.037,0.684,2.875,0.959
		c1.38,3.159,1.381,3.155,5.363,4.088c0.55,0.13,1.087,0.297,1.797,0.493c-0.461,0.47-1.001,0.979-1.001,0.979
		s-5.195,1.257-7.876,1.625c-1.351,0.187-3.018,0.041-4.3-0.352c-3.581-1.105-7.053-2.321-9.753-4.492
		c-3.041-2.443-5.988-4.922-8.418-7.663c-2.488-2.808-5.027-5.615-7.05-8.579c-1.136-1.667-2.399-3.248-3.812-4.787
		c-1.346-1.467-2.451-2.949-2.763-4.721c-0.165-0.943-0.874-1.852-1.378-2.771c0.017,0.178,0.023,0.345,0.027,0.512
		c-0.032-0.21-0.064-0.425-0.098-0.636c0.021,0.04,0.048,0.082,0.07,0.124c0-0.013,0.002-0.028-0.001-0.041
		c-0.082-0.573-0.042-1.149-0.231-1.688c-2.488-7.097-5.053-14.182-8.331-21.141c-0.137-0.286-0.581-0.511-0.846-0.733
		c-1.103,0.032-1.661,0.448-1.619,1.059c0.047,0.669,0.305,1.346,0.625,1.985c0.485,0.967,1.222,1.88,1.647,2.856
		c1.712,3.935,3.36,7.88,4.982,11.83c0.099,0.239-0.204,0.554-0.328,0.853c-0.445-0.151-0.841-0.196-0.968-0.346
		c-0.75-0.883-1.483-1.777-2.136-2.695c-0.946-1.331-1.582-2.8-2.777-4.008c-3.695-3.737-4.398-8.084-5.868-12.275
		c-0.321-0.918-0.083-1.816,1.282-2.403c1.126,0.1,2.303,0.201,3.778,0.331c-1.435-2.856-2.711-5.412-4.003-7.964
		c-0.654-1.291-1.381-2.563-1.998-3.866c-1.81-3.798-3.596-7.601-5.357-11.409c-2.058-4.45-4.194-8.886-6.066-13.373
		c-0.911-2.18-1.511-4.448-1.879-6.698c-0.661-4.089-1.595-8.086-3.897-11.961c-2.334-3.929-4.126-7.985-2.898-12.301
		c0.092-0.325-0.003-0.68-0.003-1.021c0.009-1.928-0.25-3.883,0.113-5.771c0.306-1.598,0.294-3.134,0.063-4.731
		c-0.256-1.766-0.154-3.545,0.635-5.298c0.775,0.271,1.277,0.45,1.705,0.6c0.338-2.808,0.658-5.507,0.985-8.207
		c0.261-2.143,0.597-4.284,0.784-6.431c0.346-3.955,0.622-7.913,0.892-11.871c0.067-0.986-0.012-1.977-0.023-3.01
		c-1.653,0.294-0.616,1.76-2.465,2.104c-0.143-0.9-0.617-1.74-0.313-2.395c0.883-1.9,1.025-3.984,2.628-5.718
		c0.209-0.226,0.103-0.597,0.143-0.899c-0.501,0.103-0.889,0.179-1.715,0.347c2.244-5.472,2.918-10.859,3.197-16.295
		c0.157-3.057,0.596-6.101,0.902-9.151c0.045-0.451,0.015-0.912,0.095-1.359c1.172-6.397,1.697-12.847,3.256-19.226
		c1.666-6.809,3.45-13.592,5.569-20.328c0.765-2.433,1.587-4.834,1.398-7.38c-0.074-0.999,0.298-2.026,0.635-3.01
		c3.195-9.337,8.839-17.86,16.905-25.569c2.275-2.176,4.58-4.339,6.83-6.527c6.272-6.102,12.061-12.486,20.7-17.194
		c0.202-0.111,0.261-0.352,0.366-0.548c-2.851-0.807-4.735,0.136-6.496,1.571c-2.779,2.269-5.717,4.44-8.542,6.683
		c-2.183,1.733-4.293,3.511-6.437,5.268c0.474,0.258,0.959,0.523,1.695,0.925c-3.568,3.234-7.079,6.417-10.588,9.599
		c-0.586,0.531-1.243,1.03-1.746,1.597c-5.931,6.663-11.789,13.353-15.218,20.931c-0.774,1.709-1.68,3.39-2.357,5.118
		c-2.049,5.221-3.286,10.568-4.307,15.944c-0.509,2.683-1.061,5.362-1.625,8.038c-0.235,1.116-0.281,2.307-0.896,3.313
		c-1.103,1.809-1.163,3.711-1.521,5.604c-0.311,1.644,0.045,3.132,1.266,4.414c-0.42,1.089-1.064,2.045-1.119,3.028
		c-0.222,3.954-1.043,7.815-2.553,11.607c-0.596,1.505-1.025,3.075-1.151,4.635c-0.106,1.299-0.77,2.31-1.905,3.226
		c0.014,0.015,0.02,0.028,0.035,0.042c0.034,0.029,0.069,0.06,0.102,0.091c0.228,0.03,0.454,0.058,0.636,0.137
		c0.151,0.068,0.167,0.286,0.245,0.436c-0.135-0.049-0.302-0.08-0.399-0.153c-0.174-0.131-0.323-0.276-0.481-0.419
		c-0.083-0.011-0.166-0.021-0.246-0.035c0.041-0.031,0.069-0.065,0.108-0.098c-0.914-0.875-1.086-1.838-0.88-2.88
		c0.571-2.906,0.947-5.842,1.679-8.724c0.895-3.546,1.35-7.151,2.715-10.633c0.418-1.072,0.511-2.257,0.405-3.38
		c-0.175-1.852,0.305-3.609,0.85-5.38c0.816-2.652,1.297-5.332,1.611-8.056c0.48-4.178,0.11-8.406,1.2-12.545
		c0.251-0.953,0.485-1.99-0.843-2.868c-0.516-0.341-0.74-1.021-0.8-1.557c-0.224-2.041-0.398-4.086-0.457-6.129
		c-0.079-2.718-0.188-5.443,0-8.15c0.241-3.49,0.512-6.949,1.865-10.379c2.401-6.087,3.915-12.362,7.537-18.183
		c3.347-5.379,5.773-10.985,8.074-16.626c0.523-1.28,0.934-2.537,0.462-3.83c-0.923,0.013-1.524,0.021-2.096,0.029
		c0.106-1.593,0.203-3.04,0.3-4.486c-1.989,3.893-1.944,8.117-3.926,11.996c0.345,1.836-1.644,3.116-2.181,4.766
		c-1.215,3.736-3.93,7.152-4.633,11.016c-0.077,0.426-0.451,0.848-0.807,1.215c-2.305,2.375-3.189,5.129-4.2,7.86
		c-3.822,10.34-5.473,20.895-5.494,31.62c-0.007,2.948,0.137,5.914-0.19,8.842c-0.466,4.177-1.153,8.33-0.467,12.547
		c0.106,0.67,0.012,1.361-0.085,2.035c-0.645,4.505-1.224,9.019-2.027,13.508c-0.298,1.664-0.63,3.513-1.879,4.841
		c-1.326,1.409-1.796,2.803-2.105,4.376c-0.372,1.903-1.039,3.774-1.436,5.675c-0.376,1.783-0.532,3.591-0.856,5.381
		c-0.267,1.45-0.499,2.917-1.006,4.325c-0.901,2.509-2.43,4.93-2.938,7.474c-1.723,8.628-3.97,17.207-4.583,25.953
		c-0.51,7.243-1.146,14.478-1.725,21.715c-0.333,4.159-1.364,8.243-2.055,12.476c-1.636-0.533-1.256-1.451-1.516-2.16
		c-0.401-1.1-0.529-2.255-1.079-3.316c-0.829-1.609-1.969-3.148-2.888-4.739c-2.023-3.506-4.334-6.96-5.896-10.558
		c-1.89-4.355-2.967-8.864-5.194-13.175c-0.268-0.518-0.249-1.125-0.227-1.686c0.088-2.184-0.605-4.289-1.258-6.416
		c-0.928-3.012-2.068-6.04-2.356-9.082c-0.318-3.383-1.228-6.771-0.629-10.189c0.253-1.443,0.36-3.027-0.224-4.403
		c-1.672-3.955-1.149-7.907-0.861-11.854c0.179-2.483,0.942-4.934-0.386-7.405c-0.214-0.402-0.041-0.898-0.036-1.354
		c0.061-6.686,0.128-13.374,0.179-20.063c0.004-0.37,0.427-0.907-0.971-1.001c-0.24,1.193-0.588,2.387-0.707,3.596
		c-0.298,3.055-0.252,6.141-0.782,9.169c-0.926,5.302-1.027,10.631-1.128,15.968c-0.031,1.586,0.239,3.25-0.344,4.729
		c-0.667,1.689-0.637,3.339-0.611,5.036c0.05,2.952,0.121,5.907,0.051,8.854c-0.021,0.89-0.357,1.796-0.797,2.626
		c-0.154,0.287-1.043,0.47-1.632,0.509c-0.376,0.026-1.004-0.229-1.183-0.471c-0.438-0.603-0.815-1.258-0.982-1.917
		c-0.647-2.586-1.256-5.176-1.783-7.772c-1.101-5.414-2.051-10.84-3.231-16.245c-1.106-5.068-2.505-10.108-3.626-15.174
		c-0.624-2.813-0.735-5.676-1.448-8.476c-0.945-3.73-0.965-7.469-1.135-11.21c-0.041-0.899-0.111-1.926,0.435-2.673
		c0.989-1.355,0.578-2.599,0.132-3.955c-0.542-1.655-0.956-3.277-2.333-4.789c-0.839-0.925-1.031-2.153-1.363-3.265
		c-0.568-1.898-0.842-3.844-1.557-5.713c-1.702-4.454-1.662-9.009-1.967-13.509c-0.588-8.738-0.603-17.485-0.878-26.229
		c-0.195-6.243-0.465-12.487-0.63-18.73c-0.203-7.604-0.273-15.207-0.503-22.809c-0.157-5.224,0.015-10.467-1.28-15.653
		c-1.156-4.634-1.516-9.287-1.28-13.931c0.176-3.488,0.27-7.051,2.759-10.234c0.378-0.483,0.579-1.062,0.699-1.617
		c0.909-4.183,3.135-8.051,5.449-11.896c2.241-3.726,4.233-7.551,6.91-11.116c4.184-5.57,8.611-11.078,14.826-15.705
		c5.064-3.769,10.267-7.432,17.017-9.827c1.341-0.477,2.419-1.298,3.603-1.983c-1.124-0.126-2.023,0.25-2.968,0.603
		c-8.656,3.233-15.532,7.928-21.837,13.03c-4.424,3.577-7.609,7.762-10.797,11.93c-2.507,3.277-4.691,6.643-6.462,10.158
		c-1.335,2.651-2.776,5.282-4.379,7.855c-2.195,3.526-3.789,7.166-4.597,10.987c-0.243,1.146-0.671,2.211-2.364,2.91
		c-1.037-2.232-1.382-4.481-1.806-6.725c-0.256-1.353-0.342-2.768-1.016-4.031c-2.152-4.029-2.985-8.153-3.122-12.39
		c-0.132-4.085-0.685-8.173-0.676-12.254c0.003-1.48-0.019-2.938-0.488-4.358c-1.563-4.735-1.933-9.436-0.23-14.135
		c0.188-0.524,0.183-1.109,0.109-1.66c-0.313-2.368-0.811-4.731-1.004-7.103c-0.22-2.718-0.104-5.443-0.323-8.162
		c-0.063-0.82,0.288-1.825-0.98-2.468c-0.168,7.666-0.343,15.331-0.498,22.997c-0.072,3.509-0.153,7.019-0.138,10.529
		c0.01,2.264,0.049,4.538,0.319,6.795c0.428,3.612,1.002,7.22,1.622,10.822c0.621,3.602,0.831,7.248,2.529,10.746
		c1.217,2.507,1.442,5.115,1.924,7.701c0.318,1.706,0.611,3.371-0.465,5.002c-0.308,0.468-0.231,1.103-0.158,1.651
		c0.763,5.881,1.605,11.757,2.325,17.638c0.206,1.689,0.111,3.391,0.115,5.086c0.007,3.623-0.05,7.246-0.007,10.869
		c0.023,1.785,0.606,3.617,0.244,5.346c-0.585,2.802-0.291,5.625-0.608,8.424c-0.038,0.331,0.32,0.693,0.494,1.04
		c0.189-0.02,0.381-0.038,0.572-0.058c0.069-1.53,0.142-3.059,0.213-4.588c-0.005-0.008-0.012-0.015-0.016-0.022
		c0.003-0.01,0.013-0.021,0.02-0.029c-0.001-0.002-0.001-0.004-0.001-0.005c0.069-0.419,0.139-0.838,0.226-1.358
		c0.656,0.588-0.01,0.949-0.225,1.364c-0.002,0.016-0.003,0.034-0.003,0.052c0.328,0.514,0.839,1,0.961,1.525
		c0.42,1.797,0.818,3.604,1.012,5.416c0.779,7.369,1.203,14.74,0.909,22.114c-0.108,2.712-0.237,5.429-0.093,8.143
		c0.131,2.409-0.135,4.749-1.045,7.047c-0.654,1.654-0.655,3.304-0.338,5.041c0.897,4.91,0.052,9.716-1.967,14.399
		c-0.149,0.344-0.744,0.588-1.069,0.833c-2.594-0.885-0.754-2.975-2.865-4.029c-0.519,0.367-1.113,0.61-1.329,0.969
		c-1.08,1.8-1.519,3.696-0.892,5.65c0.571,1.778,1.253,3.543,1.955,5.301c1.236,3.089,2.19,6.187,2.104,9.407
		c-0.073,2.721,0.039,5.449,0.195,8.173c0.159,2.719,0.253,5.453,0.775,8.152c0.828,4.279,1.917,8.543,3.047,12.795
		c0.321,1.207,1.078,2.379,1.792,3.522c0.98,1.566,2.335,3.039,3.132,4.644c2.036,4.09,3.78,8.245,5.776,12.345
		c1.631,3.346,2.001,6.623,0.277,9.957c-0.771,1.494-0.739,1.576-3.536,0.96c1.965,2.32,2.767,4.815,3.025,7.47
		c0.22,2.256,0.987,4.492,1.444,6.744c1.142,5.622,2.22,11.249,3.38,16.872c0.416,2.021,0.766,4.066,1.53,6.034
		c2.517,6.491,5.32,12.925,8.674,19.253c1.771,3.341,3.718,6.632,6.505,9.598c2.775,2.954,3.75,6.659,7.984,9.002
		c0.464,0.257,0.628,0.781,0.92,1.188c0.883,1.224,1.536,2.567,2.698,3.647c1.743,1.623,2.566,3.416,3.271,5.309
		c0.784,2.097,1.891,4.127,3.676,5.945c0.269,0.276,0.608,0.545,0.999,0.728c0.208,0.097,0.646,0.061,0.89-0.028
		c0.251-0.096,0.596-0.366,0.541-0.492c-0.313-0.741-0.513-1.579-1.161-2.164c-1.464-1.327-1.145-2.518-0.041-3.755
		c0.135-0.172,0.269-0.344,0.405-0.516c-0.129,0.175-0.26,0.354-0.389,0.536c1.939,0.29,3.126,1.174,3.876,2.399
		c1.731,2.824,3.529,5.62,5.096,8.5c4.107,7.553,5.691,15.401,7.362,23.259c0.141,0.665,0.185,1.371,0.026,2.026
		c-0.278,1.141,1.065,2.534-0.932,3.417c0.368,0.583,1.182,1.239,1.029,1.737c-0.639,2.105,0.981,4.003,1.074,6.021
		c0,0-0.073-0.097-0.063-0.086c-0.081,2.415,0.724,4.708,1.723,7.013c2.276,5.249,4.357,10.535,6.557,15.8
		c1.091,2.611,2.263,5.206,3.404,7.816c1.283-0.316,2.524-0.468,3.131,0.438c0.751,1.121,1.339,2.316,1.748,3.52
		c1.016,2.981,1.323,6.041,2.894,8.979c1.942,3.63,4.1,7.19,6.192,10.774c1.956,3.352,5.568,5.943,7.59,9.197
		c2.471,0.969,3.103,2.524,3.109,4.345c0.003,0.672,1.208,1.263,1.579,0.921c0.345-0.314,0.581-0.81,0.5-1.196
		c-0.084-0.412-0.688-0.769-0.887-1.188c-0.13-0.276-0.09-0.825,0.125-0.895c0.512-0.17,1.354-0.319,1.737-0.137
		c1.057,0.499,1.94,1.173,2.944,1.812c0.651-0.216,1.348-0.447,1.848-0.612c1.884,0.446,3.566,1.14,5.264,1.188
		c3.907,0.116,7.734,0.417,11.558,1.056c1.558,0.258,3.237,0.243,4.845,0.195c2.768-0.081,5.5,0.098,8.262,0.252
		c6.162,0.342,12.193,0.483,18.127-1.425c5.771-1.858,12.161-2.358,18.543-0.679c1.95,0.514,4.007,0.475,5.718-0.02
		c1.885-0.543,3.722-0.633,5.674-0.681c2.264-0.055,4.559-0.066,6.771-0.335c1.995-0.241,3.898-0.259,5.761,0.281
		c1.476,0.429,3.054,0.483,4.286,0.045c3.01-1.079,6.308-0.751,9.458-1.09c0.628-0.065,1.475-0.144,1.912,0.077
		c2.299,1.178,4.802,0.674,7.047,0.381c3.013-0.394,5.775-0.085,8.651,0.461c1.707,0.324,3.505,0.426,5.271,0.536
		c0.297,0.019,0.636-0.418,0.954-0.65c-0.022-0.005-0.043-0.012-0.063-0.017c-0.791-0.131-1.578-0.261-2.37-0.392
		c0.03-0.062,0.059-0.126,0.09-0.19c0.757,0.192,1.512,0.385,2.28,0.582c0.024,0.004,0.046,0.008,0.069,0.012
		c-0.002,0.001-0.005,0.003-0.006,0.005c0.018,0.005,0.036,0.008,0.055,0.015c0.413-0.027,0.967-0.2,1.184-0.077
		c0.594,0.333,1.048,0.792,1.546,1.188c1.23-0.605,1.871-1.202,3.493-1.2c1.955,0.001,3.844-1.04,6.008-0.75
		c4.107,0.548,8.426-0.6,12.404,0.979c0.257,0.1,0.647,0.081,0.964,0.05c2.912-0.28,5.705,1.008,8.637,0.471
		c4.293,0.95,8.704,0.582,13.217,0.818c1.392,1.476,3.58,1.689,5.92,1.534c1.287-0.087,2.717-0.589,3.813-0.323
		c2.729,0.662,5.47,0.314,8.188,0.53c3.875,0.306,7.763,0.553,11.648,0.69c4.215,0.151,8.435,0.145,12.651,0.208
		c0.814,0.015,1.639,0.101,2.437,0.041c3.093-0.222,6.127-0.217,9.139,0.608c1.48,0.406,2.817,0.125,3.596-0.907
		c-0.03-0.004-0.061-0.01-0.09-0.011c0.012-0.038,0.023-0.08,0.036-0.118c-2.235-1.036-4.654-1.436-7.298-1.169
		c-0.794,0.077-1.625,0.054-2.435,0.022c-2.063-0.073-2.332-0.326-2.022-2.071c0.124-0.704-0.389-1.247-1.163-1.295
		c-3.19-0.202-5.104-2.44-8.305-2.131c-0.033-1.146,0.787-0.939,1.312-0.949c3.712-0.075,7.084,1.014,10.262,2.102
		c3.852,1.32,7.707,2.515,11.796,3.372c0.858,0.182,1.998,0.276,2.169,1.154c0.019,0.088-0.079,0.229-0.188,0.279
		c-1.1,0.51-1.747-0.106-2.499-0.521c-0.224-0.124-0.572-0.142-1.176-0.277c-0.154,0.507-0.303,0.993-0.453,1.483
		c0.038,0.019,0.079,0.032,0.114,0.05c-0.019,0.027-0.044,0.051-0.061,0.079c5.21,0.45,9.966,2.054,14.896,3.203
		c1.847,0.433,3.631,1.091,5.312,1.802c2.522,1.069,4.913,2.299,7.391,3.422c4.564,2.072,8.802,4.453,12.67,7.106
		c2.682,1.842,5.134,3.824,8.057,5.519c1.998,1.157,3.639,2.657,5.235,4.111c2.701,2.452,5.24,4.986,7.842,7.488
		c0.188,0.184,0.531,0.461,0.452,0.578c-1.244,1.906,1.328,2.824,2.329,4.122c1.164,1.511,2.494,2.962,3.793,4.421
		c1.817,2.046,3.651,4.081,5.505,6.112c1.054,1.159,2.026,2.37,3.271,3.424c1.479,1.253,2.567,2.621,3.667,4.039
		c2.237,2.897,3.979,6.011,7.857,8.251c1.694,0.981,2.872,2.5,3.09,4.193c0.073,0.548,0.348,1.127,0.731,1.617
		c1.576,2.005,3.04,4.071,4.906,5.946c1.86,1.861,3.195,3.911,4.977,5.794c1.979,2.098,3.883,4.228,5.772,6.362
		c3.529,3.979,5.744,8.502,10.549,11.953c0.558,0.403,0.85,0.979,1.313,1.454c0.919,0.941,1.804,1.908,2.822,2.796
		c1.566,1.367,2.828,2.804,3.266,4.552c0.164,0.65,0.388,1.386,0.953,1.882c3.12,2.745,5.068,5.876,6.796,9.101
		c0.571,1.061,1.362,2.071,2.163,3.061c0.278,0.345,0.772,0.812,1.773,0.289c-1.246-2.151-2.279-4.435-3.857-6.526
		c-2.159-2.857-3.277-5.869-4.032-8.979c-0.05-0.007-0.099-0.009-0.146-0.013c-0.18,0.118-0.35,0.246-0.561,0.304
		c-0.2,0.054-0.482-0.035-0.728-0.06c0.061-0.078,0.089-0.186,0.183-0.228c0.113-0.055,0.278-0.077,0.42-0.075
		c0.227,0.01,0.454,0.035,0.686,0.059c0.04-0.027,0.079-0.057,0.121-0.082c0.008,0.033,0.017,0.063,0.024,0.095
		c0.02,0.001,0.044,0.003,0.066,0.006c-0.589-0.826-1.182-1.652-1.776-2.479c-1.266,0.419-1.979-0.052-2.565-0.729
		c-0.006,0.007-0.01,0.01-0.017,0.019l-0.076-0.126c0.03,0.038,0.063,0.071,0.093,0.107c0.929-0.995,1.041-1.021,2.054-0.102
		c2.168,0.345,2.313,0.346,2.588-0.857c-0.244-0.97-0.492-1.938-0.803-3.156c2.602,0.29,4.402,1.055,5.587,2.304
		c0.955,1.001,2.56,1.493,3.449,2.355c0.998,0.967,1.17,2.328,1.783,3.497c0.278,0.533,0.81,1.002,1.117,1.529
		c0.604,1.037,1.13,2.092,1.689,3.14c0.058-0.005,0.108,0,0.167-0.011c0.005,0.063,0.014,0.127,0.021,0.189
		c0.231,0.182,0.467,0.364,0.697,0.55c-0.209,0.054-0.413,0.109-0.621,0.159c-0.026-0.235-0.051-0.474-0.076-0.709
		c-0.054-0.045-0.108-0.089-0.165-0.13c-0.008-0.016-0.015-0.031-0.022-0.049c-1.749,0.209-2.863-1.158-4.572-1.247
		c-0.021,0.438-0.169,0.73-0.021,0.858c2.168,1.847,3.739,4.026,6.723,5.433c1.164,0.549,2.002,1.491,2.829,2.331
		c1.272,1.294,3.03,2.412,3.153,4.152c0.027,0.378,0.643,0.799,1.11,1.108c4.757,3.135,7.103,7.101,8.515,11.399
		c0.218,0.668,0.455,1.334,0.688,1.998c0.364,1.037,0.96,1.955,2.552,2.359c1.35,0.345,2.079,1.043,2.516,1.977
		c0.402,0.869,0.928,1.717,1.469,2.551c1.018,1.564,2.078,3.119,3.156,4.664c0.112,0.158,0.492,0.232,0.829,0.383
		c0.787-0.912,0.041-1.756-0.341-2.574c-2.532-5.435-4.974-10.889-7.718-16.271c-1.646-3.228-2.503-6.64-4.978-9.674
		c-0.317-0.385-0.542-0.874-0.519-1.303c0.1-1.908-1.202-3.495-2.305-5.159c-1.791-2.704-3.457-5.444-5.135-8.182
		c-0.253-0.412-0.344-0.881-0.424-1.328c-0.137-0.791,1.389-1.543,2.342-1.078c1.187,0.577,2.408,1.238,3.229,2.05
		c4.583,4.519,9.736,8.636,16.089,12.016c2.745,1.458,5.245,3.14,7.677,4.608c0.229,0.971,0.408,1.747,0.606,2.597
		c1.566,0.506,3.01,1.083,4.544,1.445c2.234,0.525,4.133,1.306,5.775,2.529c1.09,0.809,2.537,1.386,3.688,1.997
		c1.282-0.419,1.356-1.049,0.829-1.495c-1.454-1.238-2.935-2.496-4.654-3.544c-6.719-4.09-13.079-8.435-19.196-12.947
		c-3.614-2.665-6.831-5.595-10.214-8.414c-4.481-3.739-7.162-8.239-10.887-12.307c-1.398-1.524-2.225-3.311-3.219-5.003
		c-0.3-0.512-0.592-1.197-0.344-1.649c0.918-1.647-0.266-2.782-1.578-4.034c-1.932-1.846-3.688-3.783-5.432-5.716
		c-0.593-0.655-1.189-1.425,0.373-2.498c3.723,3.287,6.121,6.965,8.903,10.527c2.827,3.62,3.597,7.756,6.497,11.36
		c2.079-0.663,0.658-2.295,2.367-3.083c1.005,0.633,2.467,1.172,3.058,1.999c1.665,2.338,4.433,3.978,6.932,5.792
		c0.898,0.653,1.917,1.274,3.03,1.726c1.249,0.506,2.738,0.628,3.754,1.541c0.771,0.697,1.829,1.43,2.967,1.704
		c3.314,0.796,6.169,2.146,9.154,3.359c1.544,0.629,3.239,1.339,4.935,1.472c4.881,0.382,9.738,0.026,14.472-0.778
		c1.573-0.269,3.07-0.822,3.032-2.255l0.055-0.011c-1.462,0.028-2.932,0.026-4.392,0.09c-6.866,0.308-13.368-0.665-19.27-3.26
		c-6.718-2.95-12.547-6.691-18.164-10.584c-3.879-2.693-6.275-6.155-9.713-9.08c-0.826-0.708-1.679-1.434-2.26-2.238
		c-2.362-3.269-4.251-6.668-5.929-10.124l0.012,0.008c0.033-1.221,2.104-0.848,2.854-1.878c-0.532-0.653-1.113-1.45-1.808-2.197
		c-1.695-1.823-4.042-3.489-5.013-5.468c-1.256-2.557-4.189-4.4-5.316-6.927c-3.061-1.947-3.958-4.718-5.666-7.164
		c-3.241-4.634-6.138-9.382-9.369-14.019c-1.712-2.449-2.632-5.048-4.265-7.583c0.683-0.006,1.095-0.102,1.275,0.002
		c3.427,1.952,4.92,4.815,7.011,7.366c2.787-0.829,5.3-0.547,7.165,0.917c3.165,2.486,6.438,4.928,8.501,8.01
		c1.384,2.067,2.848,4.159,4.729,6.021c2.317,2.301,3.676,4.856,5.208,7.379c0.645,1.054,1.016,2.205,1.835,3.185
		c2.483,2.97,5.042,5.908,6.087,9.311c2.625,2.532,4.042,5.467,6.022,8.205c1.614,2.232,2.857,4.603,4.762,6.743
		c0.263,0.298,0.138,0.76,0.248,1.549c-3.103-1.158-5.691-2.083-8.078-3.26c-0.623-0.309-1.032-0.83-1.527-1.266
		c-0.008,1.956,0.933,3.489,3.64,4.461c1.92,0.69,3.169,1.927,4.574,3.07c1.329,1.083,3.482,1.655,5.016,2.645
		c4.831,3.122,9.536,6.34,14.3,9.516c0.831,0.551,1.659,1.151,3.159,0.837c-0.574-1.24-1.146-2.474-1.671-3.611
		c0.866-0.498,1.433-0.822,2.085-1.196c-2.347-1.944-4.901-3.388-7.683-4.61c-2.174-0.958-3.625-2.241-4.856-3.789
		c-4.454-5.622-8.414-11.402-12.313-17.203c-0.54-0.804-0.929-1.694-0.1-2.501c0.489,0.03,0.817,0.018,1.114,0.082
		c0.309,0.066,0.676,0.16,0.854,0.323c2.406,2.199,5.729,3.374,9.345,4.253c0.765,0.187,1.472,0.507,2.187,0.792
		c7.565,3.003,14.975,6.206,22.766,8.919c4.109,1.429,8.308,2.729,12.479,4.07c0.432,0.139,0.947,0.149,1.428,0.215
		c2.36,0.323,4.721,0.646,7.457,1.018C666.276,572.606,666.741,572.029,666.5,571.671z M170.475,230.444
		c0.011-0.085,0.022-0.171,0.034-0.257c0.126-0.006,0.277-0.046,0.368-0.01c0.09,0.038,0.117,0.15,0.172,0.23
		C170.857,230.42,170.665,230.433,170.475,230.444z M170.856,235.64c-0.135-0.069-0.269-0.137-0.402-0.204
		c0.078-0.064,0.143-0.147,0.244-0.185c0.037-0.013,0.159,0.083,0.239,0.126C170.909,235.466,170.883,235.552,170.856,235.64z
		 M98.808,223.851c0.118,0.959,0.182,1.487,0.248,2.005c0.001,0,0.003-0.001,0.003,0.001c0,0.002-0.002,0.004-0.003,0.008
		c0.001,0.01,0.002,0.021,0.003,0.032c-0.089,0.155-0.18,0.311-0.273,0.466c0.09-0.166,0.181-0.333,0.271-0.498
		c0-0.004-0.001-0.008,0-0.009C97.938,225.432,98.001,224.904,98.808,223.851z M93.462,216.171c-1.111-0.903-1.72-1.918-1.718-3.114
		c0.005-1.919-0.065-3.84-0.093-5.758c-0.004-0.339-0.05-0.695,0.074-1.011c0.755-1.91,1.557-3.812,2.341-5.714
		c0.884-0.081,1.124,0.363,1.194,0.799c0.258,1.574,0.447,3.153,0.67,4.731c0.542,3.832,1.102,7.662,1.62,11.494
		c0.071,0.532-0.063,1.073-0.119,1.809C95.933,218.184,94.699,217.177,93.462,216.171z M101.837,257.793
		c-0.575-0.349-1.008-0.929-1.652-1.079c-1.098-0.255-1.624-0.764-1.938-1.421c-2.595-5.425-5.057-10.851-4.592-16.65
		c0.179-2.239-0.089-4.506-0.158-6.761c-0.028-0.003-0.052-0.011-0.079-0.015c0.021-0.034,0.042-0.069,0.063-0.104
		c-0.082-0.467-0.25-0.947,0.736-1.196c-0.245,0.399-0.49,0.798-0.736,1.196c0.005,0.025,0.011,0.049,0.014,0.073
		c0,0.015,0.001,0.03,0.002,0.046c0.807,0.121,1.494,0.416,1.656,1.021c0.266,1.001,0.415,2.015,0.579,3.026
		c0.198,1.22-0.222,2.508,1.101,3.598c0.283,0.233,0.341,0.629,0.395,0.957c0.376,2.249,0.571,4.516,1.142,6.742
		c0.339,1.321,1.248,2.58,1.915,3.865c1.159,2.235,2.329,4.468,3.413,6.546C102.886,258.404,102.331,258.094,101.837,257.793z
		 M198.775,434.546c0.139,0.053,0.375,0.091,0.403,0.163c0.131,0.354,0.225,0.714,0.324,1.073c0.057,0.04,0.116,0.078,0.174,0.118
		c-0.026,0.028-0.034,0.053-0.057,0.08c1.205,0.572,1.782,1.283,1.142,2.269c0.022,0.01,0.042,0.025,0.064,0.035
		c0,0.025,0.007,0.048,0.007,0.073c0.532,0.184,1.228,0.303,1.47,0.597c1.63,1.989,3.154,4.018,4.676,6.049
		c0.105,0.143-0.103,0.396-0.192,0.687c-1.471-0.201-2.055-1.079-2.648-1.804c-1.431-1.742-3.258-3.399-3.306-5.528
		c-0.036-0.011-0.076-0.023-0.111-0.036c0.016-0.023,0.025-0.048,0.04-0.072c-1.134-0.59-1.914-1.261-1.142-2.269
		c-0.023-0.011-0.043-0.024-0.068-0.035c-0.017-0.054-0.035-0.106-0.05-0.163c-0.363-0.247-0.737-0.485-1.046-0.762
		C198.384,434.958,198.659,434.711,198.775,434.546z M174.154,380.186c1.597,10.024,1.801,17.319,0.492,19.651
		c-1.788-1.298-1.073-3.137-2.412-4.416c-0.03,0.185-0.061,0.367-0.089,0.552c0.019-0.177,0.038-0.353,0.055-0.526
		c0-2.133-0.043-6.377-0.043-6.377s-0.948-6.793-1.311-10.194c-0.211-1.991-0.161-3.99-0.253-6.72
		C173.069,375.109,173.747,377.63,174.154,380.186z M171.018,360.767c0.124,0.408,0.298,0.813,0.348,1.227
		c0.02,0.157-0.247,0.326-0.38,0.487c-0.193-0.154-0.49-0.293-0.556-0.47c-0.142-0.378-0.166-0.779-0.238-1.171
		C170.466,360.816,170.741,360.792,171.018,360.767z M163.417,337.706c0.147,0.024,0.292,0.049,0.439,0.072
		c-0.126,0.409-0.25,0.816-0.375,1.224c-0.146-0.024-0.292-0.049-0.438-0.071C163.168,338.521,163.292,338.115,163.417,337.706z
		 M163.329,327.52c-0.151,1.564-0.138,3.145-0.118,4.717c0.015,1.105,0.162,2.212,0.286,3.728c-1.742-0.929-1.8-1.963-1.954-2.852
		c-0.391-2.244-0.764-4.504-0.809-6.754c-0.054-2.593,0.229-5.183,0.421-7.77c0.033-0.424,0.346-0.833,0.53-1.249
		c1.54,1.277,1.016,2.608,1.094,3.916c0.04,0.662-0.339,1.448,0.058,1.97C163.938,324.668,163.47,326.07,163.329,327.52z
		 M167.646,298.268c1.686,0.611,1.448,1.712,1.669,2.65c0.411,1.762-0.432,3.253-2.159,4.677c-1.243-0.744-0.557-1.623-0.503-2.412
		c0.052-0.779,0.306-1.551,0.278-2.326C166.899,299.966,166.715,299.084,167.646,298.268z M153.87,356.135
		c-0.644-0.448-1.332-0.696-1.404-1.01c-0.492-2.11-1.452-4.161-0.892-6.381c0.498-1.98,0.248-4.062,0.495-6.085
		c0.261-2.136,0.707-4.262,1.118-6.385c0.03-0.153,0.428-0.268,0.833-0.499c0.193,0.31,0.511,0.583,0.497,0.839
		c-0.123,2.264-0.277,4.527-0.478,6.788c-0.271,3.056-0.446,6.104,0.396,9.165C154.731,353.646,154.77,354.8,153.87,356.135z
		 M158.835,361.785c-2.259-2.174-3.267-4.414-0.984-6.854c0.281-0.302,0.251-0.85,0.092-1.233c-0.84-2.01-0.897-4.036-0.681-6.079
		c0.203-1.922,0.311-3.851,0.592-5.764c0.147-0.981,0.583-1.937,1.028-3.352c0.825,0.633,1.46,0.895,1.53,1.207
		c0.704,3.142,1.264,6.3,1.988,9.441c0.229,0.991,0.923,1.933,1.257,2.918c0.85,2.521,0.487,7.615,0.487,7.615
		s-0.222,1.098-0.132,1.644c0.236,1.431,0.577,2.854,0.91,4.444c-1.698-0.351-2.703-1.044-3.613-1.84
		C160.49,363.21,159.606,362.527,158.835,361.785z M168.569,389.84c0.134-0.18,0.267-0.359,0.4-0.542
		c-3.013-0.719-4.063-2.667-5.111-4.374c-2.126-3.468-3.4-7.102-2.454-10.89c0.095-0.381,0.331-0.743,0.53-1.11
		c-0.012-0.02-0.024-0.038-0.035-0.058c-0.013-0.006-0.024-0.012-0.036-0.016c-0.083,0.038-0.166,0.076-0.258,0.089
		c-1.629,0.239-1.63,0.237-2.136-1.169c0.955,0.431,1.675,0.755,2.394,1.08c0.049-0.024,0.099-0.052,0.15-0.072
		c-0.023,0.051-0.054,0.096-0.079,0.146c1.598,2.569,3.2,5.155,4.681,7.772c0.76,1.344,0.645,1.592-0.251,3.886
		c0.877,1.584,1.75,3.158,2.62,4.732C168.847,389.491,168.709,389.665,168.569,389.84z M170.266,411.542
		c-0.374-0.117-0.888-0.455-0.873-0.669c0.054-0.729,0.277-1.45,0.453-2.174c-0.025-0.032-0.052-0.066-0.077-0.1
		c-0.01-0.084-0.021-0.166-0.03-0.25c-1.892-2.483-1.936-2.656-2.346-6.529c1.609,2.48,2.108,4.495,2.346,6.529
		c0.05,0.063,0.095,0.124,0.147,0.193c-0.012,0.051-0.027,0.105-0.04,0.156c0.507,0.662,1.06,1.311,1.476,1.997
		C171.568,411.107,170.786,411.704,170.266,411.542z M181.479,400.734c-0.664-1.187-1.528-2.224-2.585-3.248
		c-1.02-0.985-0.946-2.15-0.6-3.282c0.305-0.994,0.82-1.969,0.909-2.97c0.129-1.448-0.049-2.917-0.081-4.374
		c-0.018-0.777-0.001-1.553-0.001-2.33c-0.357-0.556-0.338-1.047,0.439-1.415c0.282-0.24,0.568-0.479,0.945-0.798
		c0.401,0.331,0.848,0.543,0.964,0.82c0.828,1.954,1.606,3.918,2.358,5.886c0.123,0.322,0.234,0.747,0.038,1.004
		c-1.957,2.525-0.312,5.023,0.333,7.525c0.371,1.436,0.799,2.865,1.256,4.489C183.49,402.1,182.02,401.694,181.479,400.734z
		 M188.68,430.119c-1.459-1.304-2.173-2.807-2.796-4.361c-1.771-4.406-2.667-8.916-3.502-13.416
		c-0.342-1.842,0.112-3.743,0.239-6.333c0.995,1.062,1.528,1.471,1.802,1.947c1.037,1.804,2.1,3.606,2.951,5.454
		c1.553,3.371,3.159,6.746,4.376,10.177c1.186,3.339,2.745,6.579,4.485,9.793c0.621,1.145,1.594,2.259,0.973,3.549
		c0.032-0.003,0.061,0.001,0.095-0.004c-0.021,0.038-0.037,0.07-0.057,0.107c0.303,0.361,0.619,0.739,1.183,1.413
		c-1.417-0.478-1.438-0.93-1.183-1.413c-0.017-0.022-0.036-0.046-0.054-0.066c0.008-0.013,0.008-0.025,0.015-0.037
		c-1.136,0.063-1.632-0.576-2.199-1.084C192.879,433.945,190.806,432.015,188.68,430.119z M203.9,474.372
		c-1.137-0.489-2.505-0.962-2.505-2.476c2.043,0.631,3.719,1.104,5.064,2.726C205.233,474.517,204.433,474.602,203.9,474.372z
		 M213.24,477.108c-1.148,0.167-2.149-0.037-2.903-0.785c0.929-0.632,1.98-0.418,2.997-0.163c0.22,0.055,0.458,0.345,0.446,0.513
		C213.767,476.833,213.471,477.075,213.24,477.108z M219.831,470.441c-4.68-0.769-9.109-1.922-12.6-4.407
		c-2.422-1.725-4.925-3.4-7.224-5.199c-2.261-1.774-3.583-3.819-3.149-6.274c0.109-0.613-0.311-1.291-0.548-1.929
		c-0.641-1.714-0.691-3.487-2-5.138c-1.264-1.592-1.98-3.389-2.888-5.108c-0.217-0.414-0.243-0.873-0.398-1.47
		c0.648,0.077,1.247,0.021,1.485,0.196c5.663,4.165,9.324,9.135,12.125,14.433c0.262,0.499,0.149,1.086,0.229,1.811
		c-2.056-0.002-2.758-1.459-4.838-1.627c-0.461,0.15-1.294,0.424-2.13,0.698c1.613,0.15,2.346,1.118,3.277,1.853
		c2.533,1.987,5.368,3.657,8.539,5.179c3.898,1.872,7.334,4.219,10.958,6.368c0.068,0.041-0.028,0.217-0.047,0.327
		C220.354,470.257,220.053,470.478,219.831,470.441z M223.311,468.359c-0.081-0.085-0.164-0.17-0.246-0.256
		c0.138-0.027,0.297-0.102,0.41-0.075c0.106,0.023,0.167,0.154,0.246,0.239C223.584,468.297,223.448,468.327,223.311,468.359z
		 M221.018,465.038c-0.923-3.264-0.922-3.265-3.997-6.225c-0.579-0.558-1.195-1.094-1.753-1.659c-0.83-0.849-1.749-1.67-2.397-2.581
		c-0.562-0.792-0.801-1.69-1.501-3.256c1.406,0.68,2.07,0.861,2.442,1.198c4.491,4.077,9.103,8.08,13.891,11.992
		c0.285,0.232,0.304,0.621,0.509,1.076C225.518,466.561,223.266,465.538,221.018,465.038z M580.468,579.253
		c0.077,0.079,0.151,0.154,0.225,0.229c-0.198,0.054-0.397,0.121-0.606,0.149c-0.037,0.008-0.125-0.147-0.193-0.229
		C580.093,579.352,580.287,579.301,580.468,579.253z M578.18,575.96c-1.421-0.451-1.942-1.149-1.849-2.737
		C577.232,574.559,577.707,575.259,578.18,575.96z M596.666,573.792c-1.505,0.114-2.179-0.113-1.846-1.316
		C595.513,572.97,596.007,573.322,596.666,573.792z M533.163,478.401c3.159,3.201,6.001,6.525,8.956,9.806
		c0.835,0.925,1.742,1.623,3.413,1.358c0.397,1.425-0.941,2.047-1.581,2.876c-2.106,0.462-3.745-0.016-5.333-1.049
		c-2.301-1.492-4.525-3.026-5.721-5.063c-1.004-1.706-2.516-3.167-3.977-4.671c-2.007-2.061-3.772-4.202-4.314-7.012
		C528.158,475.417,530.97,476.184,533.163,478.401z M527.679,501.948c1.605,0.566,2.86,0.992,4.087,1.453
		c0.266,0.101,0.506,0.307,0.643,0.502c1.064,1.52,2.115,3.043,3.122,4.581c0.086,0.133-0.185,0.372-0.422,0.805
		C532.506,506.907,528.11,505.601,527.679,501.948z M527.509,532.065c-0.338,0.225-0.548,0.362-0.755,0.504
		c-0.284-0.225-0.592-0.435-0.808-0.686c-0.032-0.039,0.491-0.403,0.587-0.37C526.89,531.638,527.179,531.865,527.509,532.065z
		 M486.967,469.359c0.105,0.06,0.21,0.118,0.318,0.18c-0.167,0.084-0.335,0.166-0.501,0.249c-0.037-0.091-0.125-0.188-0.099-0.269
		C486.708,469.453,486.869,469.412,486.967,469.359z M483.82,469.595c0.405,0.326,1.011,0.709,1.555,0.747
		c3.04,0.211,5.556,1.27,8.088,2.336c0.388,0.165,0.914,0.165,1.548,0.27c0.251-0.396,0.419-0.834,0.772-1.18
		c1.281-1.262,2.623-1.566,4.519-0.743c1.38,0.6,2.628,0.842,4.146,0.579c1.462-0.254,2.375,0.228,3.238,1.098
		c3.088,3.104,6.237,6.181,9.503,9.197c1.176,1.089,2.699,2.009,4.144,2.945c1.29,0.831,2.577,1.646,3.91,2.971
		c-3.109-0.868-5.638-1.577-8.586-2.398c-2.278-2.139-4.736-4.583-8.415-6.272c-0.883-0.401-1.334-1.281-1.962-1.951
		c-1.944-2.084-3.784-2.828-8.043-3.238c-0.189,1.457,0.463,2.627,2.232,3.555c1.343,0.702,1.253,0.783,1.954,2.144
		c-0.296,0.048-0.734,0.206-0.871,0.124c-2.745-1.697-6.051-2.695-9.271-3.812c-1.873-0.648-4.069-1.028-4.653-2.8
		c-0.096-0.296-1.008-0.586-1.603-0.678c-3.05-0.479-5.946-1.142-8.69-2.305c-1.48-0.629-3.408-0.798-5.164-1.037
		c-2.919-0.395-5.677-1.018-8.321-2.032c-2.007-0.767-4.237-1.232-6.337-1.884c-1.174-0.365-2.278-0.835-3.347-1.233
		c0.168-0.949,1.133-0.997,1.813-0.929c1.433,0.145,2.828,0.493,4.243,0.732c1.689,0.286,3.29,0.927,5.144,0.222
		c0.719-0.272,1.945-0.092,2.865,0.087C473.924,465.208,479.673,466.254,483.82,469.595z M520.988,497.001
		c-0.35,1.052-1.215,0.856-1.917,0.626c-2.482-0.803-3.591-2.488-5.011-3.987C517.311,494.03,518.727,495.951,520.988,497.001z
		 M471.354,459.391c1.337,0.1,2.671,0.204,4.007,0.305C474.003,460.401,472.747,459.927,471.354,459.391z M401.378,448.16
		c1.268-0.139,2.575-0.133,3.865-0.182c4.051-0.148,8.133-0.147,12.138-0.497c2.345-0.207,3.743,0.312,4.855,1.635
		c2.677,0.364,4.91,0.676,7.15,0.976c2.234,0.296,4.48,0.55,6.703,0.884c1.1,0.165,2.303,0.315,3.219,0.733
		c4.523,2.064,9.614,2.216,14.616,2.201c5.743-0.015,11.363,0.237,16.837,1.634c0.915,0.231,2.111,0.34,2.65,0.804
		c1.747,1.487,4.148,1.716,6.526,2.116c0.923,0.155,1.872,0.422,2.632,0.811c0.363,0.185,0.572,0.878,0.36,1.152
		c-0.194,0.255-1.034,0.306-1.608,0.35c-0.266,0.021-0.7-0.131-0.855-0.294c-1.673-1.789-4.201-1.912-6.872-1.986
		c-6.013-0.173-12.005-0.53-17.818-1.854c-0.926-0.211-1.907-0.349-2.87-0.402c-4.862-0.274-9.729-0.451-14.583-0.789
		c-1.909-0.136-3.788-0.592-5.677-0.916c-2.051-0.349-4.084-0.795-6.158-1.053c-3.211-0.401-6.458-0.652-9.68-1.022
		c-0.924-0.105-1.811-0.396-3.164-0.706c0.937-0.704,1.582-1.19,2.565-1.931c-3.101-0.512-5.635-0.206-8.105,0.176
		c-2.801,0.429-5.42,0.172-7.927-0.461C399.883,448.569,400.588,448.247,401.378,448.16z M434.238,461.002
		c-0.038,0.078-0.047,0.201-0.124,0.228c-0.105,0.034-0.264-0.006-0.399-0.014c0.058-0.116,0.111-0.236,0.17-0.357
		C434.002,460.908,434.121,460.955,434.238,461.002z M418.434,460.48l-0.104,0.208l-0.297-0.183L418.434,460.48z M400.438,455.886
		c-1.182-0.016-2.359-0.03-4.012-0.054C398.052,455.154,398.055,455.13,400.438,455.886z M385.767,455.558
		c0.188,0.031,0.321,0.249,0.479,0.384c-0.271,0.045-0.554,0.154-0.792,0.114c-0.191-0.031-0.324-0.245-0.481-0.38
		C385.24,455.629,385.525,455.519,385.767,455.558z M385.152,448.305c0.298,0.043,0.69,0.509,0.665,0.751
		c-0.029,0.253-0.495,0.665-0.804,0.674c-2.545,0.076-5.055-0.194-7.632-0.758C379.832,447.957,382.467,447.904,385.152,448.305z
		 M335.317,450.967c-4.441,1.002-10.137,1.117-14.457,0.451C323.349,450.088,327.713,449.914,335.317,450.967z M314.151,455.347
		c-0.147-0.025-0.293-0.049-0.44-0.073 M254.429,467.701c-0.145-0.574-0.421-0.971-0.256-1.116c1.515-1.341,3.417-2.144,6.038-1.831
		c0.434,0.051,0.883,0.039,2.106,0.09C259.869,466.888,256.816,466.549,254.429,467.701z M288.323,468.749
		c0,0-47.238,10.346-55.44,8.906c0,0,23.883-4.97,25.782-5.188c0,0,4.268-2.671,1.349-3.334c-1.866-1.692-0.046-2.694,2.138-2.892
		c15.13-1.376,29.204-4.029,44.961-4.642c8.771-0.343,17.316,0.731,25.661,3.284c0.871,0.267,1.575,0.73,2.228,1.146
		c0.282,0.18,0.239,0.462,0.349,0.701C333.991,468.824,288.323,468.749,288.323,468.749z M327.371,479.167l-0.217-0.164l0.325-0.013
		L327.371,479.167z M332.773,473.367c-3.156,0.301-6.332,0.538-9.496,0.797c-0.006,0.006-0.01,0.011-0.014,0.016
		c-0.318-0.073-0.633-0.145-0.946-0.218c0.303,0.068,0.609,0.138,0.913,0.208c0.017-0.002,0.031-0.005,0.047-0.006
		c0.379-0.312,0.668-0.88,1.094-0.929c3.427-0.391,6.782-1.25,10.525-0.805C334.589,473.251,333.579,473.292,332.773,473.367z
		 M344.104,460.117c-1.597-0.649-3.741-0.645-5.658-0.863c-0.767-0.088-1.578-0.05-2.346,0.023
		c-1.917,0.186-3.813,0.454-5.731,0.629c-1.645,0.151-3.16-0.033-4.358-1.126c0.486-0.307,0.774-0.642,1.17-0.716
		c2.931-0.535,5.875-1.436,8.832-1.412c3.347,0.026,6.71,0.47,10.1,0.178c0.687-0.06,1.471,0.345,2.213,0.554
		c-0.007-0.039-0.013-0.077-0.019-0.115c0.212-0.61,0.425-1.22,0.636-1.827c0.009-0.001,0.017-0.004,0.024-0.007
		c0.003-0.011,0.006-0.021,0.011-0.03c-0.923-0.074-1.608-0.407-1.475-1.091c0.073-0.363,0.532-0.887,0.974-0.971
		c1.39-0.256,2.844-0.399,4.288-0.481c3.22-0.188,6.458-0.1,9.457-1.245c1.145-0.436,2.886-0.355,4.291-0.196
		c1.69,0.191,3.194,0.012,4.791-0.235c1.215-0.187,2.657-0.29,3.793-0.01c2.04,0.512,4.042,0.822,6.18,0.778
		c0.394-0.005,0.805,0.268,1.545,0.535c-1.482,0.901-2.995,0.154-4.26,0.359c-1.232,0.2-2.401,0.822-3.599,0.801
		c-1.723-0.027-2.413,0.931-3.655,1.367c-1.188-0.377-2.315-0.878-3.535-1.094c-2.349-0.414-3.183,0.393-2.498,2.288
		c-4.508,1.237-9.239,1.901-14.268,2.648c-0.262-0.698-0.739-1.269-0.562-1.698c0.188-0.447,0.946-0.815,1.56-1.112
		c0.738-0.354,1.587-0.597,3.366-1.244c-1.663-0.156-2.269-0.329-2.765-0.238c-1.239,0.226-2.43,0.57-3.64,0.869
		c-0.196,0.653-0.395,1.31-0.591,1.966c-0.018-0.004-0.035-0.012-0.051-0.017c0.135,0.753,0.249,1.483,0.355,2.158
		C347.322,460.64,346.138,460.94,344.104,460.117z M378.479,455.298c-1.013,0-1.452,0.042-1.856-0.023
		c-0.167-0.026-0.268-0.281-0.398-0.437c0.143-0.036,0.313-0.126,0.424-0.097C377.085,454.85,377.504,454.996,378.479,455.298z
		 M355.152,468.276c0.17-0.364,0.452-0.908,0.452-0.908s3.519-2.845,4.833-4.541c1.864-2.401,5.043-3.185,9.021-2.404
		c3.516,0.688,6.972,1.146,10.496,0.159c1.019-0.284,2.215-0.338,3.344-0.368c5.657-0.146,11.354-0.054,16.968-0.438
		c3.402-0.23,6.761-0.309,10.155-0.219c2.147,0.057,2.198,0.105,5.18,1.266c-2.015,1.51-4.461,1.308-6.626,1.627
		c-1.085,0.159-2.376-0.138-3.38,0.119c-4.283,1.102-8.811,0.932-13.258,1.183c-0.624,0.036-1.599,0.073-1.859-0.169
		c-1.594-1.494-3.454-0.654-5.302-0.591c-2.082,0.066-4.191-0.125-6.432-0.208c-1.348,1.622-2.436,3.365-5.275,3.732
		C367.487,467.291,361.679,468.829,355.152,468.276z M401.213,470.106c-0.107,0.112-0.213,0.223-0.32,0.332
		c-0.096-0.065-0.24-0.124-0.28-0.203c-0.023-0.046,0.123-0.13,0.192-0.197C400.941,470.063,401.076,470.083,401.213,470.106z
		 M369.979,478.529c-0.285-0.056-0.559-0.152-0.834-0.234c0.094-0.058,0.213-0.173,0.277-0.159c0.287,0.059,0.562,0.153,0.838,0.236
		C370.167,478.429,370.047,478.544,369.979,478.529z M373.663,469.49c-0.31-0.07-0.612-0.16-0.9-0.268
		c-0.097-0.036-0.137-0.155-0.259-0.31c3.031-1.234,6.393-1.46,9.79-1.201c4.201,0.325,8.381,0.851,12.561,1.333
		c0.951,0.109,1.864,0.403,2.935,0.643c1.01,1.202,1.925,2.525,3.861,3.207c0.026-0.014,0.056-0.027,0.081-0.043
		c0.029,0.01,0.057,0.011,0.085,0.021c-0.156-0.507-0.289-1.053,0.845-0.979c1.147,0.075,2.279,0.305,3.417,0.475
		c0.022-0.007,0.047-0.014,0.069-0.021c0.017,0.008,0.029,0.013,0.045,0.019c-0.047-0.19-0.189-0.41-0.131-0.597
		c0.121-0.397,0.29-0.809,0.603-1.138c0.074-0.08,1.058,0.073,1.144,0.235c0.189,0.353,0.189,0.808,0.038,1.172
		c-0.107,0.262-0.525,0.461-0.83,0.681c0.014,0.006,0.022,0.01,0.036,0.017c0.157-0.037,0.316-0.031,0.478-0.013
		c0.869-0.05,1.771-0.101,2.83-0.161c-1.031,1.021-1.951,0.28-2.83,0.161c-0.19,0.013-0.379,0.023-0.569,0.033
		c0.018-0.012,0.039-0.023,0.056-0.037c-0.3-0.108-0.564-0.23-0.823-0.354c0.002,0.01,0.006,0.015,0.006,0.023
		c-0.039-0.006-0.08-0.013-0.12-0.021c-1.345,0.443-2.675,0.942-4.262,0.504c0.012,0.032,0.021,0.064,0.034,0.098
		c-0.071-0.021-0.133-0.053-0.2-0.076c-1.181,0.652-2.475,0.938-3.963,0.427c-2.377-0.815-4.811-1.11-7.475-1.013
		c-2.049,0.074-4.157-0.377-6.237-0.594c-0.161-0.016-0.406,0.021-0.471-0.036C380.917,469.306,376.926,470.254,373.663,469.49z
		 M417.056,479.172c1.032-0.114,2.234,0.188,3.28,0.456c0.463,0.122,0.726,0.637,1.11,1c-1.392,1.077-3.1,0.994-4.671,1.067
		c-4.5,0.21-9.094-0.232-13.478,0.817c-0.677,0.163-1.606-0.047-2.377-0.196c-2.042-0.393-4.156-0.599-6.164-0.967
		c-3.559-0.646-7.054-0.748-10.625-0.669c-1.136,0.027-2.282-0.04-3.415,0.002c-1.99,0.073-3.823,0.036-5.067-1.4
		c-0.28-0.322-1.356-0.32-2.068-0.469c3.257-0.672,6.381-0.229,9.322-1.034c0.521-0.14,1.343-0.021,1.892,0.171
		c2.142,0.739,4.485,0.547,6.68,0.916c3.946,0.66,7.755,0.333,11.556-0.192c1.794-0.248,3.505-0.286,5.304-0.006
		C411.207,479.116,414.076,479.505,417.056,479.172z M412.228,475.03c0.442,0.054,0.886,0.091,1.319,0.161
		c0.121,0.019,0.214,0.139,0.32,0.214c-0.208,0.071-0.497,0.243-0.608,0.197C412.883,475.451,412.565,475.226,412.228,475.03
		c-0.01-0.001-0.017,0-0.022-0.002c0.004-0.001,0.005-0.005,0.008-0.007c-0.006,0-0.007-0.004-0.013-0.007
		c0.307-0.326,0.613-0.65,0.919-0.976c0.072,0.04,0.145,0.08,0.218,0.121c-0.378,0.288-0.749,0.574-1.124,0.861
		C412.217,475.025,412.223,475.027,412.228,475.03z M421.854,467.317c-2.931-0.146-5.833-0.11-8.623-1.002
		c-0.832-0.268-2.012-0.351-2.85-0.158c-2.021,0.469-3.648,0.004-5.602-0.897c4.093-0.493,7.877-1.008,11.695-1.382
		c2.93-0.29,5.768,0.164,8.647,0.757c3.914,0.805,7.973,1.239,11.932,1.945c2.365,0.424,4.669,1.049,6.976,1.629
		c0.372,0.096,0.621,0.44,1.241,0.906c-0.946,0.086-1.52,0.228-2.066,0.177c-3.724-0.338-7.438-0.726-11.159-1.077
		C428.651,467.89,425.26,467.482,421.854,467.317z M466.819,488.142c-0.58,0.095-1.468,0.048-1.868-0.2
		c-1.96-1.216-4.57-1.624-6.462-3.067c-2.044-1.558-4.294-3.207-7.456-3.827c-0.296-0.059-0.664-0.204-0.797-0.382
		c-1.885-2.498-5.619-2.971-8.813-4.04c-1.289-0.431-2.825-0.688-3.282-2.36c3.676-0.306,7.058-0.229,10.44,0.165
		c1.613,0.188,3.204,0.478,4.813,0.688c0.801,0.106,1.796,0.367,2.399,0.155c3.894-1.373,7.599-0.035,11.364,0.447
		c0.965,0.125,1.929,0.342,2.895,0.357c2.54,0.042,4.405,0.853,5.617,2.371c0.739,0.928,1.449,1.797,3.047,2.103
		c0.289,0.056,0.6,0.233,0.764,0.413c1.48,1.633,3.328,3.177,4.297,4.939c1.329,2.42,4.087,4.138,5.749,6.363
		c0.405,0.541,1.378,0.881,2.143,1.345c0.207-0.372,0.49-0.626,0.397-0.745c-2.103-2.717-3.817-5.588-6.967-7.877
		c-1.252-0.91-2.244-1.973-2.186-3.305c0.729-0.627,1.502-0.246,2.192-0.017c1.932,0.643,3.84,1.319,5.747,1.999
		c2.511,0.894,4.854,1.922,6.592,3.55c0.677,0.634,1.647,1.122,2.494,1.666c1.825,1.181,3.409,2.472,4.611,4.017
		c1.891,2.432,4.387,4.576,6.972,6.673c3.375,2.734,5.954,5.78,7.414,9.238c0.127,0.295,0.027,0.635,0.04,1.183
		c-1.191-0.114-2.231-0.214-3.243-0.311c-1.52,1.484-0.695,2.848,0.734,4.013c2.382,1.943,3.997,4.197,5.929,6.328
		c1.515,1.669,2.35,3.263,1.246,5.104c0.431,0.341,0.707,0.611,1.057,0.825c1.901,1.151,2.093,1.482,1.323,2.853
		c-0.153,0.267-0.619,0.573-0.997,0.607c-0.369,0.035-0.948-0.194-1.184-0.43c-0.369-0.362-0.56-0.82-0.759-1.253
		c-0.479-1.047-0.459-2.317-2.553-2.613c-1.032-1.432-2.104-2.848-3.076-4.297c-0.413-0.619-0.521-1.329-0.931-1.947
		c-1.973-3.005-4.005-5.99-6.066-9.058c0.265-0.257,0.518-0.519,0.789-0.77c0.827-0.762,0.826-1.213-0.019-1.664
		c-1.296-0.691-2.705-1.305-3.868-2.091c-1.416-0.952-2.64-2.043-3.923-3.091c-0.533-0.438-0.854-1.115-1.512-1.339
		c-2.046-0.708-3.889-1.461-4.47-3.155c-0.032-0.092-0.64-0.204-0.864-0.135c-0.398,0.124-0.98,0.368-0.994,0.587
		c-0.046,0.625,0.156,1.264,0.298,2.109c-0.993-0.164-1.767-0.132-2.181-0.389c-1.944-1.194-4.236-2.06-5.857-3.597
		c-1.533-1.455-3.595-2.684-5.632-3.831c-1.094-0.617-2.589-1.071-3.968-1.207c-2.03-0.198-3.741-0.561-5.226-1.643
		C471.364,488.388,469.322,487.731,466.819,488.142z M523.066,537.244c-5.441-5.878-10.892-11.748-16.338-17.621
		c-0.268-0.288-0.41-0.669-0.765-0.879c-3.058-1.808-4.69-4.391-7.323-6.409c-1.556-1.196-3.051-2.384-4.302-3.735
		c-0.623-0.673-1.293-1.355-2.127-1.896c-4.475-2.911-7.661-6.556-11.657-9.734c-0.854-0.681-1.883-1.269-2.898-1.838
		c-1.176-0.658-2.247-1.336-2.418-2.436c0.568-0.594,1.141-0.207,1.607,0.021c2.692,1.307,5.381,2.615,8.011,3.986
		c0.443,0.23,0.927,0.85,0.782,1.129c-0.683,1.35,0.904,1.868,1.898,2.523c1.166,0.767,2.354,1.848,4.155,1.592
		c2.364-0.332,3.62,0.544,4.914,1.673c2.15,1.876,4.403,3.695,6.601,5.543c0.629,0.527,1.339,1.029,1.813,1.616
		c2.735,3.395,5.47,6.791,8.089,10.226c1.842,2.413,4.16,4.597,6.473,6.788c0.516,0.704,0.489,1.353-0.355,1.913
		c1.7-0.041,2.483,0.818,3.299,1.649l0.055,0.049c0.07,0.681,0.145,1.361,0.217,2.04c0.113,1.416,0.753,2.68,2.116,3.767
		c0.955,0.759,1.849,1.549,1.805,2.882C524.97,539.268,524.016,538.265,523.066,537.244z M534.593,526.187
		c0.034,0.093,0.064,0.183,0.094,0.274c0.081,0.055,0.166,0.11,0.233,0.169c0.036,0.031-0.066,0.137-0.105,0.207
		c-0.043-0.125-0.085-0.251-0.128-0.376c-0.11-0.08-0.217-0.161-0.329-0.239C534.434,526.208,534.514,526.2,534.593,526.187
		c-0.004-0.016-0.009-0.031-0.013-0.044c-1.025,0.073-1.435-0.413-1.576-0.975c-0.103-0.409-0.151-0.959,0.156-1.238
		c0.268-0.244,1.068-0.213,1.638-0.271c0.118-0.015,0.303,0.08,0.403,0.16c0.635,0.49,1.252,0.991,1.963,1.555
		C536.549,526.025,535.529,526.05,534.593,526.187z M536.408,543.001c-0.918-0.105-1.215-0.61-1.254-1.172
		c-0.01-0.139,0.363-0.285,0.563-0.427c0.479,0.336,0.959,0.674,1.417,0.994C536.758,542.719,536.55,543.018,536.408,543.001z
		 M541.224,530.609c-1.132-0.954-2.262-1.907-3.398-2.867c1.397-0.698,2.187-0.722,2.635-0.023c0.531,0.831,0.924,1.705,1.376,2.559
		C541.633,530.387,541.427,530.497,541.224,530.609z M544.203,542.851c-2.413-1.292-3.015-3.181-3.702-5.251
		C542.813,538.958,543.72,540.294,544.203,542.851c0.06,0.033,0.105,0.066,0.168,0.099c-0.014,0.038-0.022,0.074-0.034,0.111
		c0.874,0.436,1.58,0.929,1.239,1.856c-1.401-0.439-1.487-1.108-1.239-1.856c-0.034-0.019-0.067-0.036-0.102-0.052
		C544.225,542.953,544.211,542.907,544.203,542.851z M569.479,579.618c0.398,0.467,0.488,1.058,1.09,2.453
		c-1.538-0.711-2.125-0.897-2.551-1.195c-4.691-3.27-8.416-7.07-12.058-10.888c-1.531-1.609-2.182-3.615-3.698-5.231
		c-3.57-3.791-5.635-8.012-8.008-12.148c-0.78-1.358-1.437-2.752-1.594-4.22c1.339-0.34,1.539,0.371,1.885,0.789
		c3.045,3.669,5.768,7.479,9.129,11.002C559.624,566.411,564.022,573.213,569.479,579.618z M554.183,545.768
		c0.974-0.377,1.43-0.018,1.726,0.377c0.819,1.09,1.245,2.228,0.822,3.948C554.836,548.526,553.717,547.334,554.183,545.768z
		 M558.786,522.889c1.78,1.813,3.398,3.634,4.307,5.746c0.566,1.32,1.591,2.468,3.146,3.424c0.952,0.587,1.842,1.381,2.275,2.2
		c1.524,2.871,4.355,5.398,4.776,8.563c0.116,0.879,0.708,1.732,0.994,2.606c0.051,0.149-0.254,0.422-0.494,0.51
		c-0.234,0.09-0.654,0.097-0.894,0.007c-0.421-0.157-0.871-0.371-1.122-0.644c-0.97-1.059-2.298-2.081-2.703-3.239
		c-0.918-2.608-3.135-4.755-4.701-7.13c-1.293-1.962-2.326-4.003-3.633-6.28c-0.938-0.02-1.732-0.036-2.562-0.054
		c-0.31-0.254-0.71-0.485-0.932-0.778c-3.93-5.273-7.925-10.52-11.702-15.842c-1.292-1.823-2.047-3.827-3.007-5.756
		c-0.137-0.281-0.043-0.613-0.073-1.353c1.059,0.652,1.923,0.982,2.376,1.489c2.768,3.102,5.513,6.204,7.837,9.492
		C554.405,518.3,556.571,520.623,558.786,522.889z"/>
</g>
</svg>
