<?xml version="1.0" encoding="utf-8"?>
<!-- Generator: Adobe Illustrator 16.0.0, SVG Export Plug-In . SVG Version: 6.00 Build 0)  -->
<!DOCTYPE svg PUBLIC "-//W3C//DTD SVG 1.1//EN" "http://www.w3.org/Graphics/SVG/1.1/DTD/svg11.dtd">
<svg version="1.1" id="Layer_1" xmlns="http://www.w3.org/2000/svg" xmlns:xlink="http://www.w3.org/1999/xlink" x="0px" y="0px"
	 width="792px" height="335.983px" viewBox="0 0 792 335.983" enable-background="new 0 0 792 335.983" xml:space="preserve">
<g>
	<path fill="#F4F4F4" d="M574.623,262.104C572.39,270.377,573.876,266.886,574.623,262.104L574.623,262.104z"/>
	<path fill="#F4F4F4" d="M553.515,265.311C550.48,272.096,552.374,267.866,553.515,265.311L553.515,265.311z"/>
	<path fill="#F4F4F4" d="M276.482,276.634c0.245-0.111,0.559-0.058,0.657,0.274c0.396,1.347,0.848,2.668,1.332,3.977
		c0.105,0.122,0.217,0.239,0.32,0.363c0.031,0.012,0.063,0.02,0.095,0.04c0.054,0.034,0.099,0.074,0.152,0.109
		c-0.697-1.771-1.447-3.523-2.231-5.261c-0.084-0.123-0.163-0.248-0.246-0.371C276.509,276.038,276.484,276.328,276.482,276.634z"/>
	<path fill="#F4F4F4" d="M684.992,263.356c-0.821-0.209-1.297-1.495-1.513-3.535C681.595,267.693,681.398,271.285,684.992,263.356z"
		/>
	<path fill="#F4F4F4" d="M328.823,295.106c-0.463-2.049-1.234-4.21-2.146-6.508C327.5,291.779,328.357,295.287,328.823,295.106z"/>
	<path fill="#F4F4F4" d="M586.71,118.369c0.777-2.238,1.52-4.374,2.242-6.452C588.108,113.306,585.489,116.373,586.71,118.369z"/>
	<path fill="#F4F4F4" d="M118.93,220.848c-3.041-4.841-5.885-9.803-8.849-14.693c-5.017-8.274-17.953-32.371-22.277-39.473
		c2.856,18.046,16.149,39.528,13.196,53.947l-18.112-35.604c-0.166,0.037-0.331,0.075-0.497,0.112
		c2.163,8.497,4.325,16.997,6.487,25.496c-0.478,0.186-0.957,0.37-1.436,0.558c-1.851-2.869-3.702-5.738-5.553-8.608
		c0.042,2.141,0.707,3.922,1.556,5.608c5.901,11.746,25.066,54.286,30.994,66.017c2.149,0.777-8.759-29.54-6.845-28.382
		c6.952,4.211,19.821,26.327,29.534,40.22l-8.39-22.641c-3.016-4.052-18.189-38.415-21.205-42.467
		c0.668-0.485,14.132,22.949,14.801,22.463c1.525,2.012,2.871,4.2,4.632,5.975c1.325,1.334,12.488,17.87,14.107,18.913
		c0.141-1.78-15.569-35.832-15.285-39.421C122.886,226.55,120.773,223.784,118.93,220.848z"/>
	<path fill="#F4F4F4" d="M698.31,221.17c0-0.001,0-0.002,0-0.003c-0.461,1.264-0.792,2.564-0.907,3.927
		C698.036,222.764,698.422,221.195,698.31,221.17z"/>
	<path fill="#F4F4F4" d="M285.52,262.104c-5.907-20.034-8.176-20.316-8.187-20.366c0.001-0.077-8.667-25.923-8.667-26
		c1.72,3.585,13.129,27.486,13.117,27.509c6.217,7.825,8.364,16.88,14.441,24.024c0.65-0.338,7.792,16.139,8.442,15.801
		c-4.261-11.325-15.011-39.464-19.271-50.791c0.757-0.263,1.513-0.526,2.269-0.786c6.653,11.867,13.303,23.736,19.956,35.606
		c0.278-0.212,0.557-0.419,0.835-0.631c-4.482-12.621-8.965-25.242-13.448-37.859l1.151-0.33
		c2.595,3.335,18.315,38.288,20.911,41.626c-1.292-4.367-19.222-39.839-13.664-45.582c3.567,8.401,7.135,16.8,10.703,25.204
		c-0.793,0.419-1.586,0.838-2.378,1.257c-2.57-4.094,2.437,11.292-0.132,7.196c0.532,2.104-6.807-15.141-5.935-13.184
		c4.891,10.964,9.864,21.897,14.983,32.759c0.894,1.894,2.335,3.529,3.64,5.229c-2.172-5.286-4.422-11.276-5.327-18.26
		c-1.573-12.149-17.137-54.119-16.77-54.256c3.813-1.396,10.358,12.354,14.88,23.114c-3.333-12.196-6.459-24.453-9.608-36.696
		c-0.125-0.485,0.428-1.143,0.665-1.718c4.726,10.345,7.566,21.101,11.059,31.642c3.519,10.623,7.687,21.03,11.569,31.533
		c0.336-0.107,0.671-0.212,1.006-0.319c-1.408-6.236-2.814-12.476-4.219-18.716c0.435-0.205,0.868-0.41,1.303-0.615
		c2.415,2.817,4.831,5.639,7.246,8.457c0.402-0.2,0.805-0.396,1.208-0.597c-0.963-3.172-1.922-6.343-2.882-9.514
		c0.582-0.161,1.166-0.323,1.748-0.485c3.838,11.526,12.317,30.139,16.503,42.716c-3.618-21.715-8.996-31.756-11.781-44.756
		c1.947,1.717,2.882,2.543,4.191,3.699c0.219-3.922-17.339-58.762-17.187-61.468c3.594,8.385,24.973,68.344,28.769,76.936
		c9.388,21.247,9.388,21.247,14.635,31.576c-3.037-8.161-19.896-55.202-15.836-65.91c3.938,7.303,20.687,42.38,24.022,48.569
		c0.581-0.259,1.162-0.517,1.742-0.776c-3.378-9.676-6.757-19.354-10.134-29.031l2.001-0.635c1.235,2.325,2.633,4.58,3.673,6.987
		c2.378,5.506,4.586,11.08,6.861,16.63l0.009-0.035c-3.383-11.757-6.764-23.51-10.147-35.267c0.636-0.168,1.269-0.333,1.903-0.5
		c4.746,11.397,12.235,22.097,8.244,35.767c0.017,0.064,0.035,0.124,0.054,0.188c-0.022-0.053-0.042-0.102-0.063-0.153
		c-0.01,0.034-0.015,0.066-0.026,0.101c0.957,2.373,1.884,4.714,2.809,7.053c7.576,27.067,2.28-0.275,3.419-0.414
		c0.662-8.615-5.382-33.151-4.722-41.761c5.81,7.782,21.467,46.169,29.595,57.215c-4.586-10.97-15.839-36.309-20.2-46.741
		c-3.166-10.607,1.667-0.755,2.502-1.133c1.561,2.011,3.123,4.022,6.081,7.829l-3.75-32.637c2.295,5.729,8.189,25.811,7.57,31.402
		c-0.566,5.104,6.683,15.165-2.236,7.931c4.062,7.631,10.319,22.294,14.379,29.923c0.633-0.317,4.582,10.395,5.216,10.077
		c-2.136-4.553-8.272-19.952-9.539-24.732c-1.313-4.947-1.123-10.294-1.591-15.465c0.718-0.228,1.438-0.457,2.155-0.682
		c1.054,1.506,2.108,3.014,3.163,4.521c0.053-0.041,0.11-0.084,0.165-0.125c-2.274-10.301-2.045-25.214-4.615-36.85
		c7.322,21.329,6.595,24.382,7.109,34.662c0.031,0.688-1.514,1.45-2.494,2.188l0.115,0.528l-0.28-0.403
		c-0.017,0.014-0.04,0.028-0.058,0.042c2.908,8.567,8.137,23.423,11.607,33.65c0.861-9.228-6.475-50.076-5.738-58
		c1.743,1.843,8.483,30.616,11.289,33.587c-1.832-12.332-3.36-22.635-4.893-32.941c0.723-0.145,1.445-0.288,2.17-0.434
		c4.228,16.673,8.457,33.347,12.686,50.02c0.146-0.029,0.295-0.059,0.438-0.084c-2.568-19.708-5.138-39.415-7.711-59.128
		c0.705-0.11,1.414-0.223,2.122-0.335c3.031,14.311,5.398,28.808,9.366,42.853c2.162,7.648-5.199-65.184-1.543-57.958
		c0.664-0.072,13.568,79.567,14.233,79.498c1.758-6.754-4.292-65.301-2.396-72.592c1.523,2.621,10.547,56.521,12.313,59.563
		c-1.578-10.586-1.563-19.944-0.518-29.247c0.87,0.026,1.74,0.049,2.613,0.075v18.687c0.248,0.003,0.497,0.006,0.741,0.009
		c0.945-5.944,1.891-11.887,2.836-17.829c0.726,0.102,1.453,0.203,2.179,0.304c-0.456,8.283,8.492-50.696,8.442-42.414
		c-0.012,2.179-7.653,71.633-7.142,72.667c10.315-24.745,10.491-46.22,17.009-61.814l-1.254,54.003
		c0.333,0.036,0.667,0.073,1.001,0.109c-0.541-6.662,2.839-33.579,7.157-44.249c1.525,1.33-0.435,40.013,1.776,41.938
		c2.526-15.811,4.885-30.557,7.243-45.308c3.733,12.329-2.696,24.731,1.642,36.644c0.945,0.099-3.702,19.515,2.838,0.295
		c2.662-10.789,5.324-21.577,7.985-32.366c0.658,0.159,1.317,0.315,1.977,0.472c-0.33,6.531-1.318,13.117-0.795,19.577
		c0.486,6.033-3.548,30.35-1.897,37.456c1.056-5.979,10.057-49.748,10.851-54.256c0.691,0.02-0.705,20.892-0.018,20.915
		c0.65,1.494,1.298,2.985,1.743,4.006c0.286-0.827,4.675-27.42,5.181-28.868c8.332,6.763-1.051,59.659,1.973,50.311
		c2.089-6.453,15.061-42.147,16.754-48.729c0.705-0.198,1.407-0.398,2.111-0.601c0.747,1.861,2.53,4.041,2.07,5.531
		c-3.018,9.824-5.695,19.826-9.893,29.21c-1.178,2.632-2.102,4.699-2.823,6.312c0.521,0.297,1.044,0.597,1.566,0.894
		c3.193-4.731,6.39-9.459,9.583-14.19c0.416,0.221,0.836,0.439,1.251,0.659c-0.827,3.598-1.653,7.196-2.479,10.794
		c0.621,0.177,1.24,0.353,1.861,0.526c2.888-10.271,5.78-20.542,8.67-30.813c0.544,0.132,1.089,0.266,1.633,0.398
		c-0.939,7.147-1.878,14.294-2.821,21.438c1.936,0.83,1.782,4.973,1.24,8.439c0.48-1.776,1.13-4.092,1.997-7.056
		c7.584-23.622,7.584-23.622,16.682-34.703c-0.683,14.074-6.323,47.664-6.956,60.769c8.878-29.595,16.525-66.105,21.701-73.986
		c0.725,3.953,1.8,23.407,2.326,26.257c8.706,2.106-25.055,77.445-1.054,21.924c3.217-4.233,15.241-37.041,18.458-41.275
		c0.676,0.128-2.962,23.606-2.289,23.73c-0.479,7.703-0.962,15.404-1.506,24.089c1.208-2.63,2.39-5.199,3.549-7.723
		c-0.031-0.108-0.04-0.231,0-0.375c4.382-16.615,10.338-32.779,14.058-49.573c0.239-0.913,1.662-0.667,1.453,0.271
		c-2.418,9.124-2.127,18.785-3.604,28.071c-0.329,2.075-0.719,4.188-1.226,6.274c-0.78,7.222-4.551,30.583-5.213,36.726
		c7.479-15.702,10.765-35.439,15.996-45.205c4.035,8.705-1.078,16.245-2.037,25.897c3.002-5.711,14.594-42.155,17.041-46.812
		c2.063,3.269-5.473,38.29-3.591,41.269c3.52-6.652,6.644-12.554,9.769-18.458c0.679,0.17,1.357,0.337,2.04,0.509
		c-1.94,9.265-9.95,33.201-11.887,42.47c0.399,0.099,6.875-14.472,7.274-14.37c1.199-3.911,10.9-24.239,12.06-28.02
		c3.241,0,7.54-22.695,10.257-22.717c-2.96,14.782-13.915,47.604-12.922,56.997c4.033-16.839,22.285-60.555,21.31-45.917
		c0.854-2.339,2.137-4.556,3.282-6.811c0.943,0.321,1.882,0.642,2.824,0.96c-2.11,5.002-4.217,10.005-6.326,15.008
		c-0.655-1.863-0.826-3.591-0.688-5.23c-1.877,6.908-5.928,20.527-5.593,20.604c2.109-5.001,4.222-10,6.331-15
		c-0.054,0.02-0.023-0.165-0.021-0.281c0.02,0.063,0.037,0.124,0.061,0.188l-0.039,0.093c0.963-0.35,1.98-0.723,3.721-1.355
		c-2.434,9.401-4.633,17.89-6.833,26.378c0.235,0.04,0.469,0.08,0.7,0.121c2.832-5.315,5.667-10.633,8.5-15.947
		c0.667,0.289,14.623-31.082,15.291-30.793l-22.117,72.297c0.404,0.059,9.644-23.893,10.051-23.835
		c1.561-4.313,3.124-8.629,4.688-12.944l1.627,0.277c0.426,3.283,0.854,6.57,1.431,11.023c2.72-7.22,4.945-13.133,7.173-19.043
		c0.717,0.199,1.435,0.396,2.147,0.593c8.757-30.158-0.54,6.45-0.873,10.393c4.355-2.633,9.109-23.058,13.575-25.753
		c1.401,3.104-14.977,46.799-12.717,51.805c0.847-4.14,17.928-29.342,19.239-31.572c2.367-4.014,6.451-7.155,8.255-11.337
		c5.292-12.252,9.814-24.835,14.638-37.288c-0.136-0.061-0.275-0.121-0.41-0.183c-7.24,13.249-14.479,26.494-21.72,39.741
		c-0.791-0.358-1.586-0.714-2.375-1.071c4.971-11.944,9.944-23.89,14.916-35.831l-0.882-0.442
		c-4.242,8.569-8.485,17.135-12.73,25.704c-0.355-0.147-0.714-0.298-1.069-0.447c3.982-11.385,7.962-22.767,12.563-35.924
		c-5.785,6.558-12.45,22.999-17.707,28.952c1.146-9.491,4.466-28.524,5.344-35.793c-0.925,0.05-16.193,37.768-2.887,0.147v-11.413
		c-4.004,9.896-7.251,17.933-10.5,25.97c-0.587-0.248-1.173-0.497-1.757-0.745c1.604-9.223,3.207-18.445,4.985-28.666
		c-3.407,6.733-6.363,12.579-9.321,18.423c-0.45-0.21-13.033,30.315-13.484,30.105c0.188-2.371,12.508-35.48,12.832-39.564
		c-2.521,4.934-4.217,8.264-6.313,12.364c-0.734-2.214-1.092-3.289-1.481-4.462c-1.92,3.84-3.761,7.528-5.604,11.216
		c-0.671-0.289-1.344-0.575-2.015-0.86c3.801-10.978,7.604-21.954,11.404-32.931c-0.217-0.092-0.431-0.188-0.646-0.28
		c-6.986,14.09-13.972,28.182-20.957,42.272c-0.595-0.225-1.193-0.452-1.792-0.682c3.679-13.219,7.359-26.44,11.038-39.662
		c-0.588-0.205-1.171-0.414-1.757-0.619c-3.55,8.971-7.102,17.941-10.65,26.913c-0.78-0.293-1.563-0.584-2.348-0.877
		c0.992-3.791,1.986-7.583,2.978-11.374c-0.127-0.03-0.251-0.062-0.379-0.09c-5.737,16.67-11.473,33.336-17.213,50.006
		c-0.569-0.211-1.139-0.419-1.708-0.63c8.599-30.548,17.195-61.093,25.794-91.638c-0.263-0.053-0.522-0.102-0.787-0.15
		c-3.794,6.471-7.591,12.941-11.389,19.413c0.022,0.014,0.051,0.028,0.075,0.043c0.05-0.089,10.371-17.827,11.248-19.343
		l-11.171,19.386c1.194,0.662,3.252,1.592,3.169,1.867c-1.616,5.286-16.991,42.926-18.826,48.143
		c-0.663-0.173,12.154-32.788,11.496-32.958c1.388-5.688,2.774-11.373,4.161-17.052c-0.022-0.015-0.052-0.028-0.077-0.043
		c-1.252,2.242-2.723,4.396-3.633,6.766c-2.434,6.323-11.766,39.179-18.855,41.314c2.013-5.271,8.7-38.774,10.439-43.326
		c-0.46-0.342-0.919-0.682-1.379-1.023c-2.479,2.139-14.713,32.834-18.924,36.458c2.839-10.973,14.982-48.781,17.372-58.028
		c-0.488-0.162-0.979-0.327-1.469-0.489c-7.97,19.857-15.94,39.716-23.911,59.573c-0.472-0.186-0.945-0.373-1.42-0.558
		c6.745-24.277,13.488-48.55,20.23-72.824c-0.477-0.161-0.956-0.32-1.433-0.48c-4.519,14.338-9.037,28.676-13.556,43.017
		c-0.664-0.188-1.329-0.379-1.99-0.566c-1.506,8.005-3.803,15.893-6.437,23.441c-0.263,0.757-1.31,0.384-1.401-0.269
		c-0.137-0.938-0.245-1.874-0.333-2.811c-2.623,11.277-5.244,22.558-7.866,33.837c-0.757-0.167-1.518-0.335-2.275-0.505
		c3.489-16.393,6.975-32.788,10.46-49.181c0.997-8.95,3.047-17.866,4.465-26.663c0.037-0.245,0.168-0.404,0.333-0.494
		c0.416-3.826,1.577-7.575,2.213-11.387c0.63-3.801,1.007-7.645,1.355-10.367c-1.292,2.295-2.632,4.676-3.996,7.104
		c-3.628,17.042-8.315,33.846-11.769,50.928c-0.161,0.801-1.471,0.78-1.466-0.081c0.097-12.947,2.702-25.514,5.971-37.94
		c-0.378,0.674-0.742,1.321-1.13,2.006c-0.624-2.815-1.022-4.607-1.716-7.729c-0.177,0.512-0.348,1.003-0.521,1.497
		c-1.494,17.806-7.081,35.43-13.04,52.054c-0.229,0.642-0.963,0.482-1.251,0.02c-0.053,0.159-0.099,0.318-0.15,0.477
		c-0.006,0.018-0.009,0.038-0.015,0.056c-0.003,0-0.003,0-0.003,0c-0.023,0.061-0.037,0.127-0.062,0.188
		c-0.265,0.792-1.615,0.341-1.389-0.459c2.453-8.792,3.863-17.786,5.316-26.774c-2.124,6.046-3.733,12.269-3.853,18.716
		c-0.02,0.948-1.494,1.064-1.477,0.11c0.013-0.621,0.063-1.236,0.102-1.855c-0.061-0.098-0.104-0.214-0.102-0.364
		c0.22-14.276,6.509-27.539,8.15-41.622c0.11-0.95,1.563-0.668,1.453,0.271c-0.919,7.882-3.326,15.515-5.282,23.213
		c0.534-1.488,1.09-2.968,1.67-4.436c0.087-0.218,0.231-0.339,0.394-0.391c0.73-4.267,1.523-8.521,2.506-12.739
		c0.095-0.417,0.479-0.607,0.832-0.572c0.176-3.76,0.353-7.518,0.528-11.277c-0.635-0.017-1.273-0.034-1.913-0.052
		c-2.904,9.256-5.812,18.514-8.72,27.769c-0.91,8.013-3.037,15.979-7.095,22.324c-0.349,0.549-1.416,0.556-1.4-0.269
		c0.141-8.993,3.112-17.169,6.443-25.276l1.115-6.841c-0.002-1.916-0.049-3.803-0.161-5.615c-0.044-0.7,0.736-0.938,1.182-0.641
		l2.442-14.986l-1.133-0.139c-7.771,31.112-12.596,36.219-20.367,67.33c1.898-21.757,11.639-47.032-6.242,25.225
		c8.7-35.155,17.399-70.313,26.098-105.47l-1.497-0.355c-3.826,11.708-7.65,23.418-11.477,35.125
		c-0.638-0.188-1.276-0.372-1.916-0.56c1.51-7.323,3.015-14.649,4.523-21.974c-0.58-0.137-1.159-0.274-1.739-0.413l-17.292,53.39
		c-0.604-0.139,2.578-29.455,1.975-29.594c1.26-8.801-1.501,8.757,0,0c0-0.024,14.802-67.059,14.802-67.059
		c-0.766,0.505-10.946,46.124-17.244,59.105c-1.95,8.003-3.901,16.006-5.855,24.012c0.298,0.179,0.511,0.534,0.37,0.947
		c-0.564,1.653-1.168,3.289-1.777,4.922c0.485-0.264,1.277,0.285,1.038,0.997c-1.625,4.814-3.383,9.639-5.92,14.057
		c-0.398,0.7-1.574,0.394-1.391-0.459c0.659-3.081,1.604-6.058,2.645-9.002c0.305-2.295,0.628-4.732,1.1-8.292
		c-1.494,1.953-2.301,3.006-3.104,4.054c2.763-16.438,6.332-32.513,12.742-47.686c-0.071-0.13-0.11-0.289-0.064-0.482
		c0.321-1.353,0.677-2.699,1.036-4.043c0.945-5.814,1.803-11.644,2.427-17.502c-0.13-0.179-0.258-0.355-0.384-0.532
		c-1.515,4.357-3.033,8.724-4.665,13.417c0.012-0.021,0.02-0.035,0.03-0.055L578.189,144.6c5.142-68.344-8.406,8.941-9.456,12.049
		c-1.798,5.301-3.222,10.725-4.807,16.097c-0.756-0.207-1.517-0.412-2.276-0.621c3.723-18.421,7.438-36.842,10.915-54.052
		c-0.431-0.445-1.823-1.234-1.795-1.966c0.177-4.127,0.69-8.237,1.093-12.354c-2.393,8.62-3.813,17.345-5.685,25.972
		c-1.847,8.513-3.826,17.023-6.341,25.355c-2.469,8.192-5.68,16.161-8.565,24.23c-0.78-3.319-0.13-6.162,0.733-8.942
		c1.239-3.994,4.817-8.89,3.58-11.742c-4.638-10.682,2.171-20.741,1.74-31.265c-2.026,16.397-8.509,32.138-11.943,48.237
		c-0.172,0.798-1.466,0.784-1.466-0.08c0-2.653-0.009-5.355,0.026-8.078c-0.705,3.543-1.411,7.084-2.116,10.627
		c-0.972-0.211-1.945-0.419-2.916-0.628c2.011-8.474,4.025-16.95,6.04-25.424c0.595-4.173,1.525-8.268,3.009-12.169
		c0.22-0.578,0.46-1.15,0.699-1.724c1.652-5.467,3.497-10.911,5.058-16.412c0.726-6.571,1.63-13.121,3.17-19.55
		c-0.379-0.094-0.76-0.192-1.138-0.287c-5.7,20.457-11.399,40.912-17.098,61.365c-0.787-0.124-1.576-0.252-2.365-0.378
		c1.397-11.425,6.32-46.026,7.714-57.455c-0.486,0.004-4.5,23.182-4.985,23.182c-1.126,3.794-2.257,7.586-3.387,11.381
		c-0.604-0.133-1.208-0.267-1.813-0.399l0.191-1.664c-2.469,9.077-4.298,18.393-8.664,26.785c-0.443,0.852-1.7,0.228-1.33-0.647
		c5.202-12.3,5.824-26.022,11.378-38.194c0.214-1.856,0.426-3.715,0.64-5.572c-0.335-0.047-0.668-0.09-1.003-0.134
		c-1.986,6.93-3.975,13.864-5.96,20.794c-0.91-0.179-1.82-0.357-2.73-0.54c0.17-2.092,0.344-4.188,0.518-6.282
		c-2.432,8.654-4.438,17.438-7.368,25.946v0.002h-0.003c-0.02,0.063-0.037,0.128-0.06,0.188c-0.293,0.85-1.457,0.307-1.391-0.46
		c0.975-11.276,5.737-21.788,8.879-32.554c0.086-0.297,0.309-0.45,0.549-0.514c0.338-4.115,0.679-8.229,1.018-12.346
		c-0.383,0.028-0.767,0.06-1.147,0.089c-2.634,9.976-5.264,19.953-7.894,29.93c-1.182-0.205-2.367-0.41-3.549-0.616
		c2.336-19.161,4.668-38.316,6.624-54.387c-1.969,6.852-4.737,16.502-7.543,26.285c-1.578,11.928-4.739,23.609-6.58,35.508
		c-0.13,0.831-1.431,0.757-1.466-0.081c-0.485-11.255,0.102-22.794,1.806-34.098c-2.765,10.234-5.528,20.471-8.294,30.705
		c-0.966-0.177-1.928-0.354-2.89-0.529c0.112-0.985,0.225-1.975,0.337-2.96c-0.496-0.972-0.936-1.953-1.32-2.951v17.86
		c0,0.952-1.473,1.067-1.477,0.11c-0.04-10.913-0.904-21.797-1.335-32.695c-0.313-5.185-0.243-10.447-0.63-15.583
		c-0.535,0.029-1.069,0.055-1.606,0.084c0,11.106,0.158,22.216-0.047,33.32c-0.182,10.031-2.066,31.011-2.468,41.038
		c-0.928-0.046-0.549-11.052-1.478-11.099v-24.057c-1.566,4.182-2.571,6.873-3.577,9.561c-0.587-0.17-5.358,23.766-5.945,23.595
		l6.338-55.345c1.662-24.655-0.725-0.066-1.087-0.099c-1.43,7.031-2.863,14.063-4.294,21.096c-0.717-0.143-1.437-0.284-2.153-0.426
		c0.526-7.167,1.05-14.338,1.633-22.314c-1.635,5.702-3.028,10.556-4.422,15.41c-0.91-0.214-1.82-0.425-2.73-0.639
		c1.384-10.286,2.771-20.568,4.343-32.244c-8.01,22.063-3.112,44.807-10.343,65.569c0.251-26.595-0.769-53.278,7.34-79.092
		c-2.878,9.595-5.756,19.193-8.632,28.791c-0.775-0.11-1.549-0.217-2.32-0.324c-0.426-8.786-0.847-17.571-1.27-26.354
		c-0.858,8.725-1.236,17.429-0.752,26.085c0.489,8.646-1.628,23.264-0.65,31.885c-1.027,0.145,1.423-5.73,0.399-5.585l-3.088-19.546
		c-0.638,0.043-5.676-23.915-6.312-23.869l4.405,55.648c-0.725,0.02-1.446,0.04-2.174,0.063
		c-1.586-12.979-3.172-25.956-4.759-38.933c-0.665,0.056-1.332,0.113-2,0.168c-0.502,3.456-1.009,6.916-1.515,10.375l-1.505-0.04
		c-0.591-12.725-1.183-25.453-1.775-38.177c-0.18-0.024-0.355-0.044-0.534-0.067l-5.55,38.192c-0.459-0.035-0.915-0.069-1.372-0.104
		c-0.896-7.668-1.789-15.332-2.685-22.996c-0.336,0.093-0.668,0.188-1,0.28c-0.96,4.243-1.577,34.347-2.537,38.59
		c-0.807-0.093-1.954-26.044-2.761-26.137c-0.355-5.748-0.711-11.493-0.91-14.716c-0.523,7.145-1.231,16.797-1.937,26.454
		c-0.789,0.077,0.396,21.318-0.393,21.399c-1.093-4.763-4.156-30.688-5.247-35.448c-0.554,0.099-1.106,0.193-1.659,0.292v30.414
		l-1.587,0.018c-2.479-20.065-4.959-40.131-7.44-60.196c-0.268-0.018-0.535-0.038-0.803-0.056v40.3c-0.5,0.031-1,0.063-1.5,0.092
		c-0.645-0.945-1.289-1.893-2.247-3.304c-0.31,5.023-0.579,9.401-0.85,13.78c-0.579,0.047-1.161,0.089-1.74,0.133
		c-0.974-13.527-1.948-27.054-2.92-40.581c-0.231-0.009-0.464-0.016-0.695-0.024c-0.446,10.063-0.893,20.133-1.338,30.199
		c-0.346,0.043-0.691,0.084-1.035,0.126c-2.136-13.265-4.271-26.527-6.406-39.79c-0.947,0.026-1.587-15.98-2.533-15.954
		c-0.531,19.06-1.37,54.155-1.9,73.215c-1.019,0.026-2.036,0.049-3.055,0.075c-0.869-14.773-1.736-29.548-2.571-43.775
		c-1.093,4.694-2.306,9.919-3.523,15.146c-0.5-0.046-1-0.095-1.5-0.141c-0.725-7.194-1.454-14.39-2.179-21.583
		c-0.541,9.788-4.147,19.712,1.861,29.117c0.913,1.428,0.69,3.738,0.601,5.623c-0.731,15.263-3.184,30.511-0.318,45.808
		c0.184,0.974-0.147,2.047-0.24,3.072c-0.798,0.046-1.596,0.09-2.393,0.133c-2.897-29.44-5.794-58.882-8.508-86.456
		c-1.671,7.306,0.081,31.729-5.125,47.355l-3.025-59.713c-0.666-0.032-1.334-0.061-2.001-0.09
		c-1.279,9.823-2.559,19.646-3.838,29.47c-0.465-0.017-1,49.074-1.397-0.055l-3.548-46.558c-0.723-0.052,2.104,24.483,1.381,24.431
		c-4.616,9.861-0.454,20.881-3.183,31.103c-1.25-7.335-2.112-14.716-2.917-22.106c-0.807-7.384-1.555-14.774-2.327-22.16
		c-0.323,0.005-0.645,0.011-0.965,0.017v66.975c-7.269-19.575-3.821-38.219-5.185-55.989c-0.705,1.02-1.514,2.188-3.344,4.835
		c-0.378-6.633-0.65-11.396-0.922-16.159c-0.598,0.029-1.196,0.055-1.795,0.081v39.273c-0.864,0.011-1.727,0.022-2.589,0.033V76.261
		c-1.229-0.002-3.56-34.858-4.788-34.861l1.104,108.298c-0.971,0.011-1.94,0.024-2.91,0.037c-0.37-3.237-0.786-31.11-1.154-34.351
		c-0.451,3.432-0.288,31.472-0.438,34.873c-0.13,2.96-0.563,5.905-0.861,8.855c-0.951-0.081-1.697,7.65-2.646,7.568l-0.203-81.418
		c-0.752-0.023-1.501-0.046-2.251-0.069c-0.792,3.983-2.352,54.01-3.144,57.995c-0.539-0.058-0.31-46.164-0.847-46.221
		c-0.928-4.749-2.492,63.612-3.419,58.863c-0.485,0.096-0.336-72.917-0.823-72.824c-0.653,3.04-3.135-32.623-3.789-29.586
		c-2.596,22.752,1.663,58.451-1.636,68.102c-3.212,9.396-0.698,20.75-0.698,32.912c-2.726-10.612-5.145-19.43-7.232-28.328
		c-2.132-9.084-9.332-47.074-11.47-57.085c-1.072,1.988,2.167,32.916,2.329,34.813c1.426,16.662,3.255,33.288,4.987,49.921
		c0.479,4.589,1.031,9.172,1.55,13.756c-14.948-18.632-10.495-40.441-12.049-61.442c-0.624,2.719-1.195,5.205-1.766,7.689
		c-0.512-0.08,0.849,36.417,0.337,36.336c-0.41-2.014-2.691-40.609-3.188-43.046c-0.58,3.009-1.047,5.428-1.514,7.85
		c-0.612-0.021-1.224-0.04-1.836-0.062c-1.164-6.424-2.327-12.852-3.491-19.279c-0.79,0.124-1.581,0.251-2.371,0.375l6.93,53.281
		l-1.523,0.243c-2.765-13.338-16.623-38.504-18.975-49.855c7.892,35.514,5.271,41.15,9.267,57.282
		c-0.814,0.109-1.629,0.22-2.444,0.332c-6.404-18.151-12.809-36.301-19.213-54.454l-1.706,0.317
		c2.554,14.306,5.107,28.612,7.662,42.92c-4.372-7.723-7.418-15.708-9.596-23.924c-2.16-8.153-3.446-16.533-5.116-24.817
		c-0.67,0.122-1.339,0.243-2.008,0.362c4.115,26.638,8.231,53.277,12.298,79.598c-12.784-22.511-9.273-48.671-15.557-74.006
		c0.472,8.31,0.878,15.493,1.286,22.681c-0.901,0.075-1.804,0.153-2.706,0.231c-0.948-6.171-1.896-12.341-2.845-18.511l-0.913,0.122
		c0.948,7.82,1.895,15.641,2.841,23.461c-0.545,0.066-1.092,0.133-1.639,0.199c-0.915-3.063-1.83-6.127-2.745-9.19
		c-0.419,0.093-0.838,0.188-1.258,0.28c1.731,8.19,3.463,16.382,5.195,24.574c-0.802,0.142-1.604,0.286-2.406,0.428
		c-1.617-7.554-3.234-15.109-4.79-22.377c-1.857,0.589-3.946,1.248-6.557,2.074c-1.01-4.959-1.878-9.229-2.748-13.496
		c-0.148,0.021-0.297,0.037-0.445,0.058c0.917,7.089,1.833,14.182,2.749,21.271c-0.934,0.179-1.868,0.358-2.801,0.535l-5.317-27.909
		c-0.434,0.072-0.869,0.144-1.304,0.216c3.381,19.425,6.761,38.849,10.143,58.276c-0.553,0.188-1.105,0.378-1.657,0.568
		c-2.103-4.277-4.206-8.554-6.309-12.832c-0.235,0.084-0.469,0.168-0.705,0.255c0.646,4.462,1.291,8.928,1.937,13.392
		c-0.837,0.186-1.674,0.37-2.51,0.553c-1.851-8.213-11.341-35.231-12.792-41.668l7.641,52.165c-0.397,0.095-0.793,0.19-1.191,0.288
		L167,118.369c-0.253,0.058,3.915,33.4,3.661,33.456c3.573,13.146,7.146,26.292,10.972,40.37c-2.165-3.109-3.866-5.555-5.567-7.999
		c-0.267,0.109-0.535,0.223-0.801,0.332c1.093,4.122,2.186,8.239,3.28,12.357c-0.71,0.171-1.42,0.342-2.129,0.512
		c-2.101-7.673-11.316-50.32-13.416-57.993c-2.503-0.216,2.522,33.619,2.154,32.078c-3.613-15.132-6.939-30.33-10.749-47.305
		c0.688,9.842,6.826,52.172,7.383,60.261c0.335,4.864-23.182-63.123-22.688-59.188c2.352,18.756,13.805,52.016,16.042,58.77
		c0.499,1.506,0.363,3.223,0.52,4.841c-0.584,0.223-1.167,0.445-1.752,0.668c-4.33-11.376-8.661-22.75-12.992-34.128
		c-0.637,0.279-1.275,0.56-1.912,0.84c1.108,6.437,2.215,12.875,3.323,19.312c-0.41,0.084-0.82,0.167-1.229,0.251
		c-1.104-2.912-2.207-5.826-3.311-8.739c-0.272,0.067-0.543,0.134-0.813,0.2c2.552,12.065,5.104,24.132,7.655,36.194
		c-0.595,0.223-1.188,0.442-1.783,0.662c-1.307-2.731-2.835-5.385-3.856-8.216c-0.874-2.426-0.513-6.83-1.822-7.313
		c-8.568-3.161-13.069-39.445-15.824-44.598c2.252,8.833,6.016,43.249,7.981,52.815c-3.141-7.708-11.034-21.542-13.148-28.35
		c0.526,6.642,9.712,31.813,10.099,36.694c-0.563,0.119-9.927-20.048-10.49-19.929c-1.391-3.923-2.781-7.845-4.172-11.769
		c-0.327,0.066-0.654,0.133-0.981,0.199c-0.105,1.915-0.211,3.832-0.317,5.748c-0.368,0.049-0.738,0.099-1.106,0.15
		c-1.108-2.624-9.446-22.086-10.555-24.71c1.464,20.949,20.645,54.813,27.134,74.023c4.937,6.794,19.235,23.099,22.51,29.737
		c5.47,11.091,5.47,11.091,22.689,31.568c-8.551-12.943-21.933-44.524-26.458-59.099c0.582-0.317,1.164-0.633,1.745-0.95
		c9.056,14.904,18.111,29.808,27.167,44.712c0.38-0.24,0.76-0.48,1.14-0.72c-6.412-13.517-11.156-31.054-16.417-42.146
		c7.986,7.366,33.383,43.949,42.417,52.284c3.118-1.159-25.537-46.982-26.635-54.257c-0.456-3.021,29.465,41.883,28.608,38.473
		c-3.272-13.023-14.35-41.355-16.77-46.363c4.1,3.465,18.292,33.588,27.549,42.963c14.245,29.887-3.61-14.981-3.333-15.334
		c-2.858-9.03-19.864-43.919-10-38c8.772,12.615,21.522,47.134,32.149,66.6c-1.581-3.394-8.152-31.629-9.171-37.619
		c-3.105-8.061-11.45-32.487,8.662,4.438c-0.033-0.051-0.064-0.104-0.097-0.156c0.023-0.04,13.406,35.351,13.431,35.31
		c-1.29-3.474-7.775-20.725-12.972-34.572c4.848,7.816,17.568,29.591,22,36.668c0.743-0.223-7.239-15.912-6.497-16.133
		c-3.274-10.336-5.706-15.907-7.298-20.999c0,0-11.954-27.346-14.205-32.868c0.757-0.448,11.507,20.945,12.265,20.498
		c1.71,2.19,3.922,4.152,5.045,6.609c4.669,10.233,9.01,20.614,13.472,30.941c0.473-0.212,0.945-0.419,1.417-0.628
		c-9.675-22.987-19.348-45.976-29.022-68.963c0.816-0.353,1.632-0.701,2.45-1.054c6.44,14.857,12.759,29.768,19.4,44.533
		c1.782,3.961,4.406,7.545,6.711,11.272c-1.047-6.952-2.093-13.909-3.141-20.862c0.361-0.128-4.292-14.217-3.931-14.348
		c4.428,11.602,13.871,37.161,18.402,49.028c-0.129-2.33-10.954-36.937-11.069-39.028c0.517-0.147,11.742,32.219,12.258,32.071
		c0.813,1.136,1.627,2.275,2.446,3.421c0.146-0.007,0.29,0.054,0.378,0.23c0.16,0.32,0.316,0.643,0.476,0.963
		c5.206,10.043,1.974,2.759,2.985,4.174c-0.069-0.281-0.136-0.563-0.205-0.844c-4.445-7.499-7.46-14.674-9.927-25.644
		c-1.802-8.014-4.406-16.224-6.903-24.302c-1.21-3.916-2.65-7.759-3.986-11.638c0.714-0.307,1.429-0.61,2.145-0.913
		c2.191,4.233,4.697,8.335,6.509,12.725c3.741,9.06,6.774,18.427,10.801,27.349c1.594,3.537,11.748,31.329,14.357,34.407
		C289.855,281.96,285.52,262.104,285.52,262.104 M233.033,242.145c0.223,0.661-0.81,1.742-1.377,2.673
		c-2.986-7.957-5.49-14.642-6.232-16.663c-0.799-2.18-1.519-4.391-2.274-6.587c0.742-0.272,1.485-0.544,2.229-0.817
		C227.964,227.87,230.614,234.968,233.033,242.145z M275.091,229.207c-0.012,0.02,1.578,3.332,3.21,6.734
		c-5.357-11.011-4.354-9.086-7.676-15.914l2.484-1.064"/>
	<path fill="#F4F4F4" d="M223.916,242.863c-1.041-3.728-1.251-3.986-0.938-2.146C223.65,242.466,224.079,243.447,223.916,242.863z"
		/>
	<path fill="#F4F4F4" d="M322.002,245.52c-0.261-1.095-0.75-2.132-1.305-3.154C321.623,244.727,322.124,246.027,322.002,245.52z"/>
	<path fill="#F4F4F4" d="M324.933,283.654c-0.209-0.293-0.427-0.581-0.647-0.869c0.836,2.037,1.66,3.972,2.391,5.813
		C325.987,285.937,325.322,283.503,324.933,283.654z"/>
	<path fill="#F4F4F4" d="M320.698,242.365c-0.88-2.246-2.146-5.452-3.629-8.981c0.324,1.187,0.64,2.376,0.968,3.562
		C318.565,238.85,319.732,240.584,320.698,242.365z"/>
	<path fill="#F4F4F4" d="M277.584,274.682c-0.196-0.307-0.013-0.611,0.244-0.726c-0.005-0.015-0.01-0.028-0.015-0.043
		c-0.267,0.158-0.505,0.34-0.686,0.563c0.178,0.385,0.368,0.766,0.543,1.152c0.349,0.511,0.726,1.005,1.094,1.504
		c-0.06-0.271-0.099-0.546-0.149-0.819C278.272,275.77,277.932,275.224,277.584,274.682z"/>
	<path fill="#F4F4F4" d="M578.385,113.045"/>
</g>
</svg>
